<svg width="997" height="700" viewBox="0 0 997 700" fill="none" xmlns="http://www.w3.org/2000/svg">
<path d="M349.915 321.982L344.883 330.571L339.824 321.964L344.865 308L349.915 321.982Z" fill="#FAD859"/>
<path d="M339.824 321.964L344.865 308L341.445 321.885L344.883 330.562L339.824 321.964Z" fill="#3B3A3A" fill-opacity="0.2"/>
<path d="M349.912 321.982L344.863 308L348.322 321.885L344.881 330.562L349.912 321.982Z" fill="white" fill-opacity="0.2"/>
<path d="M341.453 321.885L344.865 308L343.227 321.885L344.883 330.562L341.453 321.885Z" fill="#3B3A3A" fill-opacity="0.1"/>
<path d="M348.328 321.885L344.863 308L346.546 321.885L344.881 330.562L348.328 321.885Z" fill="white" fill-opacity="0.1"/>
<path d="M344.883 330.562L341.445 321.885L344.865 308.009" stroke="#CEB34F" stroke-width="0.5"/>
<path d="M344.881 330.562L348.328 321.885L344.863 308.009" stroke="#CEB34F" stroke-width="0.5"/>
<path d="M344.881 330.562L343.234 321.885L344.863 308.009" stroke="#CEB34F" stroke-width="0.5"/>
<path d="M344.881 330.562L346.546 321.886L344.863 308.018" stroke="#CEB34F" stroke-width="0.5"/>
</svg>
