<svg fill="none" xmlns="http://www.w3.org/2000/svg">
<g>
<path d="M214.407 236.331L209.375 244.92L204.316 236.313L209.357 222.349L214.407 236.331Z" fill="#FAD859"/>
</g>
<path d="M204.316 236.313L209.357 222.349L205.937 236.234L209.375 244.911L204.316 236.313Z" fill="#3B3A3A" fill-opacity="0.2"/>
<path d="M214.406 236.331L209.357 222.349L212.816 236.234L209.375 244.911L214.406 236.331Z" fill="white" fill-opacity="0.2"/>
<path d="M205.945 236.234L209.357 222.349L207.719 236.234L209.375 244.911L205.945 236.234Z" fill="#3B3A3A" fill-opacity="0.1"/>
<path d="M212.822 236.234L209.357 222.349L211.04 236.234L209.375 244.911L212.822 236.234Z" fill="white" fill-opacity="0.1"/>
<path d="M209.374 244.911L205.936 236.234L209.356 222.358" stroke="#CEB34F" stroke-width="0.5"/>
<path d="M209.375 244.911L212.822 236.234L209.357 222.358" stroke="#CEB34F" stroke-width="0.5"/>
<path d="M209.374 244.911L207.727 236.234L209.356 222.358" stroke="#CEB34F" stroke-width="0.5"/>
<path d="M209.374 244.911L211.039 236.235L209.356 222.367" stroke="#CEB34F" stroke-width="0.5"/>
</svg>
