<svg width="997" height="700" viewBox="0 0 997 700" fill="none" xmlns="http://www.w3.org/2000/svg">
<path d="M399.542 237.505L345.017 330.572L290.199 237.31L344.822 86L399.542 237.505Z" fill="#FAD859"/>
<path d="M290.199 237.31L344.822 86L307.764 236.454L345.017 330.475L290.199 237.31Z" fill="#3B3A3A" fill-opacity="0.2"/>
<path d="M399.51 237.505L344.801 86L382.281 236.454L344.996 330.475L399.51 237.505Z" fill="white" fill-opacity="0.2"/>
<path d="M307.852 236.454L344.823 86L327.074 236.454L345.018 330.475L307.852 236.454Z" fill="#3B3A3A" fill-opacity="0.1"/>
<path d="M382.347 236.454L344.801 86L363.037 236.454L344.996 330.475L382.347 236.454Z" fill="white" fill-opacity="0.1"/>
<path d="M345.019 330.473L307.766 236.452L344.824 86.0957" stroke="#CEB34F" stroke-width="0.5"/>
<path d="M344.996 330.473L382.347 236.452L344.801 86.0957" stroke="#CEB34F" stroke-width="0.5"/>
<path d="M344.999 330.473L327.152 236.452L344.804 86.0957" stroke="#CEB34F" stroke-width="0.5"/>
<path d="M344.996 330.473L363.037 236.463L344.801 86.1934" stroke="#CEB34F" stroke-width="0.5"/>
</svg>
