<svg fill="none" xmlns="http://www.w3.org/2000/svg">
<g>
<path d="M264.777 152.991L210.922 244.922L156.777 152.801L210.729 3.34082L264.777 152.991Z" fill="#FAD859"/>
</g>
<path d="M156.777 152.801L210.729 3.34082L174.119 151.959L210.922 244.828L156.777 152.801Z" fill="#3B3A3A" fill-opacity="0.2"/>
<path d="M264.773 152.991L210.725 3.34082L247.752 151.959L210.918 244.828L264.773 152.991Z" fill="white" fill-opacity="0.2"/>
<path d="M174.215 151.959L210.729 3.34082L193.194 151.959L210.921 244.828L174.215 151.959Z" fill="#3B3A3A" fill-opacity="0.1"/>
<path d="M247.82 151.959L210.728 3.34082L228.741 151.959L210.921 244.828L247.82 151.959Z" fill="white" fill-opacity="0.1"/>
<path d="M210.92 244.829L174.117 151.96L210.727 3.43604" stroke="#CEB34F" stroke-width="0.5"/>
<path d="M210.921 244.828L247.82 151.96L210.728 3.43555" stroke="#CEB34F" stroke-width="0.5"/>
<path d="M210.92 244.828L193.289 151.96L210.727 3.43555" stroke="#CEB34F" stroke-width="0.5"/>
<path d="M210.919 244.829L228.742 151.96L210.726 3.53027" stroke="#CEB34F" stroke-width="0.5"/>
</svg>
