<svg fill="none" xmlns="http://www.w3.org/2000/svg">
<g>
<path d="M220.413 227.195L210.029 244.92L199.59 227.158L209.992 198.341L220.413 227.195Z" fill="#FAD859"/>
</g>
<path d="M199.59 227.158L209.992 198.341L202.933 226.996L210.029 244.902L199.59 227.158Z" fill="#3B3A3A" fill-opacity="0.2"/>
<path d="M220.412 227.195L209.991 198.341L217.13 226.996L210.028 244.902L220.412 227.195Z" fill="white" fill-opacity="0.2"/>
<path d="M202.951 226.996L209.991 198.341L206.611 226.996L210.029 244.902L202.951 226.996Z" fill="#3B3A3A" fill-opacity="0.1"/>
<path d="M217.143 226.996L209.991 198.341L213.464 226.996L210.028 244.902L217.143 226.996Z" fill="white" fill-opacity="0.1"/>
<path d="M210.03 244.902L202.934 226.996L209.992 198.359" stroke="#CEB34F" stroke-width="0.5"/>
<path d="M210.028 244.902L217.143 226.996L209.991 198.359" stroke="#CEB34F" stroke-width="0.5"/>
<path d="M210.028 244.902L206.629 226.996L209.991 198.359" stroke="#CEB34F" stroke-width="0.5"/>
<path d="M210.028 244.902L213.465 226.996L209.991 198.377" stroke="#CEB34F" stroke-width="0.5"/>

</svg>
