<svg width="997" height="700" viewBox="0 0 997 700" fill="none" xmlns="http://www.w3.org/2000/svg">
<path d="M355.278 312.849L344.895 330.571L334.457 312.812L344.858 284L355.278 312.849Z" fill="#FAD859"/>
<path d="M334.457 312.812L344.858 284L337.802 312.649L344.895 330.553L334.457 312.812Z" fill="#3B3A3A" fill-opacity="0.2"/>
<path d="M355.273 312.849L344.855 284L351.992 312.649L344.893 330.553L355.273 312.849Z" fill="white" fill-opacity="0.2"/>
<path d="M337.82 312.649L344.86 284L341.481 312.649L344.897 330.553L337.82 312.649Z" fill="#3B3A3A" fill-opacity="0.1"/>
<path d="M352.005 312.649L344.855 284L348.328 312.649L344.893 330.553L352.005 312.649Z" fill="white" fill-opacity="0.1"/>
<path d="M344.898 330.552L337.805 312.649L344.861 284.019" stroke="#CEB34F" stroke-width="0.5"/>
<path d="M344.893 330.552L352.005 312.649L344.855 284.019" stroke="#CEB34F" stroke-width="0.5"/>
<path d="M344.89 330.552L341.492 312.649L344.853 284.019" stroke="#CEB34F" stroke-width="0.5"/>
<path d="M344.893 330.552L348.328 312.651L344.855 284.037" stroke="#CEB34F" stroke-width="0.5"/>
</svg>
