<svg fill="none" xmlns="http://www.w3.org/2000/svg">
<g>
<path d="M226.416 218.062L210.682 244.92L194.863 218.006L210.626 174.34L226.416 218.062Z" fill="#FAD859"/>
</g>
<path d="M194.863 218.006L210.626 174.34L199.93 217.76L210.682 244.893L194.863 218.006Z" fill="#3B3A3A" fill-opacity="0.2"/>
<path d="M226.416 218.062L210.625 174.34L221.443 217.76L210.682 244.893L226.416 218.062Z" fill="white" fill-opacity="0.2"/>
<path d="M199.957 217.76L210.625 174.34L205.502 217.76L210.681 244.893L199.957 217.76Z" fill="#3B3A3A" fill-opacity="0.1"/>
<path d="M221.461 217.76L210.624 174.34L215.887 217.76L210.681 244.893L221.461 217.76Z" fill="white" fill-opacity="0.1"/>
<path d="M210.682 244.893L199.93 217.761L210.626 174.368" stroke="#CEB34F" stroke-width="0.5"/>
<path d="M210.681 244.893L221.461 217.761L210.624 174.368" stroke="#CEB34F" stroke-width="0.5"/>
<path d="M210.682 244.893L205.531 217.761L210.626 174.368" stroke="#CEB34F" stroke-width="0.5"/>
<path d="M210.681 244.893L215.889 217.761L210.625 174.396" stroke="#CEB34F" stroke-width="0.5"/>
</svg>
