<svg width="997" height="700" viewBox="0 0 997 700" fill="none" xmlns="http://www.w3.org/2000/svg">
<path d="M360.869 303.336L344.913 330.571L328.871 303.279L344.856 259L360.869 303.336Z" fill="#FAD859"/>
<path d="M328.871 303.279L344.856 259L334.011 303.028L344.913 330.543L328.871 303.279Z" fill="#3B3A3A" fill-opacity="0.2"/>
<path d="M360.862 303.336L344.852 259L355.82 303.028L344.909 330.543L360.862 303.336Z" fill="white" fill-opacity="0.2"/>
<path d="M334.039 303.028L344.858 259L339.664 303.028L344.915 330.543L334.039 303.028Z" fill="#3B3A3A" fill-opacity="0.1"/>
<path d="M355.839 303.028L344.852 259L350.188 303.028L344.909 330.543L355.839 303.028Z" fill="white" fill-opacity="0.1"/>
<path d="M344.913 330.543L334.012 303.028L344.856 259.028" stroke="#CEB34F" stroke-width="0.5"/>
<path d="M344.909 330.543L355.839 303.028L344.852 259.028" stroke="#CEB34F" stroke-width="0.5"/>
<path d="M344.906 330.543L339.684 303.028L344.849 259.028" stroke="#CEB34F" stroke-width="0.5"/>
<path d="M344.909 330.542L350.188 303.031L344.852 259.057" stroke="#CEB34F" stroke-width="0.5"/>
</svg>
