<svg width="997" height="700" viewBox="0 0 997 700" fill="none" xmlns="http://www.w3.org/2000/svg">
<path d="M366.232 294.203L344.925 330.571L323.504 294.127L344.849 235L366.232 294.203Z" fill="#FAD859"/>
<path d="M323.504 294.127L344.849 235L330.368 293.793L344.925 330.533L323.504 294.127Z" fill="#3B3A3A" fill-opacity="0.2"/>
<path d="M366.219 294.203L344.84 235L359.486 293.793L344.916 330.533L366.219 294.203Z" fill="white" fill-opacity="0.2"/>
<path d="M330.402 293.793L344.85 235L337.914 293.793L344.926 330.533L330.402 293.793Z" fill="#3B3A3A" fill-opacity="0.1"/>
<path d="M359.512 293.793L344.84 235L351.966 293.793L344.916 330.533L359.512 293.793Z" fill="white" fill-opacity="0.1"/>
<path d="M344.925 330.532L330.367 293.792L344.848 235.037" stroke="#CEB34F" stroke-width="0.5"/>
<path d="M344.916 330.532L359.512 293.792L344.84 235.037" stroke="#CEB34F" stroke-width="0.5"/>
<path d="M344.915 330.532L337.941 293.792L344.839 235.037" stroke="#CEB34F" stroke-width="0.5"/>
<path d="M344.916 330.532L351.966 293.796L344.84 235.075" stroke="#CEB34F" stroke-width="0.5"/>
</svg>
