<svg fill="none" xmlns="http://www.w3.org/2000/svg">
<g>
<path d="M231.866 208.549L210.559 244.921L189.137 208.474L210.482 149.341L231.866 208.549Z" fill="#FAD859"/>
</g>
<path d="M189.137 208.474L210.482 149.341L195.998 208.14L210.559 244.883L189.137 208.474Z" fill="#3B3A3A" fill-opacity="0.2"/>
<path d="M231.865 208.549L210.481 149.341L225.131 208.14L210.558 244.883L231.865 208.549Z" fill="white" fill-opacity="0.2"/>
<path d="M196.035 208.14L210.482 149.341L203.544 208.14L210.558 244.883L196.035 208.14Z" fill="#3B3A3A" fill-opacity="0.1"/>
<path d="M225.156 208.14L210.481 149.341L217.608 208.14L210.557 244.883L225.156 208.14Z" fill="white" fill-opacity="0.1"/>
<path d="M210.559 244.884L195.998 208.141L210.483 149.378" stroke="#CEB34F" stroke-width="0.5"/>
<path d="M210.557 244.884L225.156 208.141L210.481 149.378" stroke="#CEB34F" stroke-width="0.5"/>
<path d="M210.557 244.884L203.582 208.141L210.481 149.378" stroke="#CEB34F" stroke-width="0.5"/>
<path d="M210.558 244.884L217.609 208.141L210.481 149.416" stroke="#CEB34F" stroke-width="0.5"/>
</svg>
