<svg fill="none" xmlns="http://www.w3.org/2000/svg">
<g>
<path d="M237.316 199.035L210.435 244.921L183.41 198.94L210.339 124.341L237.316 199.035Z" fill="#FAD859"/>
</g>
<path d="M183.41 198.94L210.339 124.341L192.066 198.52L210.435 244.873L183.41 198.94Z" fill="#3B3A3A" fill-opacity="0.2"/>
<path d="M237.314 199.035L210.338 124.341L228.818 198.52L210.434 244.873L237.314 199.035Z" fill="white" fill-opacity="0.2"/>
<path d="M192.113 198.52L210.338 124.341L201.586 198.52L210.434 244.873L192.113 198.52Z" fill="#3B3A3A" fill-opacity="0.1"/>
<path d="M228.852 198.52L210.338 124.341L219.329 198.52L210.434 244.873L228.852 198.52Z" fill="white" fill-opacity="0.1"/>
<path d="M210.436 244.874L192.066 198.521L210.34 124.388" stroke="#CEB34F" stroke-width="0.5"/>
<path d="M210.434 244.874L228.852 198.521L210.338 124.388" stroke="#CEB34F" stroke-width="0.5"/>
<path d="M210.435 244.874L201.635 198.521L210.339 124.388" stroke="#CEB34F" stroke-width="0.5"/>
<path d="M210.434 244.874L219.33 198.521L210.338 124.435" stroke="#CEB34F" stroke-width="0.5"/>
</svg>
