<svg width="997" height="700" viewBox="0 0 997 700" fill="none" xmlns="http://www.w3.org/2000/svg">
<path d="M371.595 285.071L344.937 330.572L318.137 284.975L344.842 211L371.595 285.071Z" fill="#FAD859"/>
<path d="M318.137 284.975L344.842 211L326.724 284.557L344.937 330.524L318.137 284.975Z" fill="#3B3A3A" fill-opacity="0.2"/>
<path d="M371.58 285.071L344.832 211L363.156 284.557L344.927 330.524L371.58 285.071Z" fill="white" fill-opacity="0.2"/>
<path d="M326.766 284.557L344.841 211L336.163 284.557L344.936 330.524L326.766 284.557Z" fill="#3B3A3A" fill-opacity="0.1"/>
<path d="M363.188 284.557L344.832 211L353.748 284.557L344.927 330.524L363.188 284.557Z" fill="white" fill-opacity="0.1"/>
<path d="M344.94 330.523L326.727 284.556L344.844 211.047" stroke="#CEB34F" stroke-width="0.5"/>
<path d="M344.927 330.523L363.188 284.556L344.832 211.047" stroke="#CEB34F" stroke-width="0.5"/>
<path d="M344.928 330.523L336.203 284.556L344.833 211.047" stroke="#CEB34F" stroke-width="0.5"/>
<path d="M344.927 330.523L353.748 284.561L344.832 211.095" stroke="#CEB34F" stroke-width="0.5"/>
</svg>
