<svg width="997" height="700" viewBox="0 0 997 700" fill="none" xmlns="http://www.w3.org/2000/svg">
<path d="M377.186 275.557L344.955 330.572L312.551 275.442L344.839 186L377.186 275.557Z" fill="#FAD859"/>
<path d="M312.551 275.442L344.839 186L322.934 274.936L344.955 330.514L312.551 275.442Z" fill="#3B3A3A" fill-opacity="0.2"/>
<path d="M377.168 275.557L344.828 186L366.984 274.936L344.943 330.514L377.168 275.557Z" fill="white" fill-opacity="0.2"/>
<path d="M322.984 274.936L344.839 186L334.347 274.936L344.954 330.514L322.984 274.936Z" fill="#3B3A3A" fill-opacity="0.1"/>
<path d="M367.022 274.936L344.828 186L355.608 274.936L344.943 330.514L367.022 274.936Z" fill="white" fill-opacity="0.1"/>
<path d="M344.955 330.513L322.934 274.935L344.839 186.057" stroke="#CEB34F" stroke-width="0.5"/>
<path d="M344.943 330.513L367.022 274.935L344.828 186.057" stroke="#CEB34F" stroke-width="0.5"/>
<path d="M344.944 330.513L334.395 274.935L344.829 186.057" stroke="#CEB34F" stroke-width="0.5"/>
<path d="M344.943 330.513L355.608 274.941L344.828 186.114" stroke="#CEB34F" stroke-width="0.5"/>
</svg>
