<svg fill="none" xmlns="http://www.w3.org/2000/svg">
<g>
<path d="M242.294 189.923L210.075 244.921L177.684 189.81L209.96 100.396L242.294 189.923Z" fill="#FAD859"/>
</g>
<path d="M177.684 189.81L209.96 100.396L188.058 189.306L210.075 244.864L177.684 189.81Z" fill="#3B3A3A" fill-opacity="0.2"/>
<path d="M242.291 189.923L209.957 100.396L232.108 189.306L210.072 244.864L242.291 189.923Z" fill="white" fill-opacity="0.2"/>
<path d="M188.115 189.306L209.959 100.396L199.47 189.306L210.075 244.864L188.115 189.306Z" fill="#3B3A3A" fill-opacity="0.1"/>
<path d="M232.148 189.306L209.958 100.396L220.735 189.306L210.074 244.864L232.148 189.306Z" fill="white" fill-opacity="0.1"/>
<path d="M210.076 244.865L188.059 189.307L209.96 100.453" stroke="#CEB34F" stroke-width="0.5"/>
<path d="M210.074 244.865L232.148 189.307L209.958 100.453" stroke="#CEB34F" stroke-width="0.5"/>
<path d="M210.075 244.865L199.527 189.307L209.96 100.453" stroke="#CEB34F" stroke-width="0.5"/>
<path d="M210.074 244.865L220.736 189.307L209.958 100.51" stroke="#CEB34F" stroke-width="0.5"/>
</svg>
