<svg fill="none" xmlns="http://www.w3.org/2000/svg">
<g>
<path d="M248.322 180.77L210.74 244.921L172.957 180.637L210.606 76.3408L248.322 180.77Z" fill="#FAD859"/>
</g>
<path d="M172.957 180.637L210.606 76.3408L185.058 180.05L210.74 244.855L172.957 180.637Z" fill="#3B3A3A" fill-opacity="0.2"/>
<path d="M248.318 180.77L210.602 76.3408L236.44 180.05L210.737 244.855L248.318 180.77Z" fill="white" fill-opacity="0.2"/>
<path d="M185.125 180.05L210.605 76.3408L198.369 180.05L210.74 244.855L185.125 180.05Z" fill="#3B3A3A" fill-opacity="0.1"/>
<path d="M236.488 180.05L210.605 76.3408L223.175 180.05L210.739 244.855L236.488 180.05Z" fill="white" fill-opacity="0.1"/>
<path d="M210.74 244.856L185.059 180.05L210.606 76.4072" stroke="#CEB34F" stroke-width="0.5"/>
<path d="M210.739 244.856L236.488 180.05L210.605 76.4072" stroke="#CEB34F" stroke-width="0.5"/>
<path d="M210.741 244.856L198.438 180.05L210.606 76.4072" stroke="#CEB34F" stroke-width="0.5"/>
<path d="M210.738 244.856L223.176 180.05L210.604 76.4729" stroke="#CEB34F" stroke-width="0.5"/>
</svg>
