<svg width="997" height="700" viewBox="0 0 997 700" fill="none" xmlns="http://www.w3.org/2000/svg">
<path d="M382.328 266.805L344.969 330.572L307.41 266.672L344.836 163L382.328 266.805Z" fill="#FAD859"/>
<path d="M307.41 266.672L344.836 163L319.445 266.085L344.969 330.505L307.41 266.672Z" fill="#3B3A3A" fill-opacity="0.2"/>
<path d="M382.305 266.805L344.82 163L370.501 266.085L344.954 330.505L382.305 266.805Z" fill="white" fill-opacity="0.2"/>
<path d="M319.504 266.085L344.835 163L332.674 266.085L344.969 330.505L319.504 266.085Z" fill="#3B3A3A" fill-opacity="0.1"/>
<path d="M370.545 266.085L344.82 163L357.315 266.085L344.954 330.505L370.545 266.085Z" fill="white" fill-opacity="0.1"/>
<path d="M344.97 330.504L319.445 266.084L344.836 163.065" stroke="#CEB34F" stroke-width="0.5"/>
<path d="M344.954 330.504L370.545 266.084L344.82 163.065" stroke="#CEB34F" stroke-width="0.5"/>
<path d="M344.954 330.504L332.727 266.084L344.821 163.065" stroke="#CEB34F" stroke-width="0.5"/>
<path d="M344.954 330.503L357.315 266.091L344.82 163.132" stroke="#CEB34F" stroke-width="0.5"/>
</svg>
