<svg width="997" height="700" viewBox="0 0 997 700" fill="none" xmlns="http://www.w3.org/2000/svg">
<path d="M387.919 257.292L344.987 330.572L301.824 257.139L344.833 138L387.919 257.292Z" fill="#FAD859"/>
<path d="M301.824 257.139L344.833 138L315.654 256.464L344.987 330.495L301.824 257.139Z" fill="#3B3A3A" fill-opacity="0.2"/>
<path d="M387.894 257.292L344.816 138L374.328 256.464L344.97 330.495L387.894 257.292Z" fill="white" fill-opacity="0.2"/>
<path d="M315.723 256.464L344.833 138L330.858 256.464L344.987 330.495L315.723 256.464Z" fill="#3B3A3A" fill-opacity="0.1"/>
<path d="M374.379 256.464L344.816 138L359.175 256.464L344.97 330.495L374.379 256.464Z" fill="white" fill-opacity="0.1"/>
<path d="M344.989 330.494L315.656 256.463L344.835 138.075" stroke="#CEB34F" stroke-width="0.5"/>
<path d="M344.97 330.494L374.379 256.463L344.816 138.075" stroke="#CEB34F" stroke-width="0.5"/>
<path d="M344.97 330.494L330.918 256.463L344.816 138.075" stroke="#CEB34F" stroke-width="0.5"/>
<path d="M344.97 330.494L359.175 256.472L344.816 138.152" stroke="#CEB34F" stroke-width="0.5"/>
</svg>
