<svg fill="none" xmlns="http://www.w3.org/2000/svg">
<g>
<path d="M254.219 170.875L210.841 244.921L167.23 170.722L210.686 50.3398L254.219 170.875Z" fill="#FAD859"/>
</g>
<path d="M167.23 170.722L210.686 50.3398L181.198 170.044L210.841 244.845L167.23 170.722Z" fill="#3B3A3A" fill-opacity="0.2"/>
<path d="M254.215 170.875L210.682 50.3398L240.505 170.044L210.837 244.845L254.215 170.875Z" fill="white" fill-opacity="0.2"/>
<path d="M181.273 170.044L210.683 50.3398L196.56 170.044L210.839 244.845L181.273 170.044Z" fill="#3B3A3A" fill-opacity="0.1"/>
<path d="M240.562 170.044L210.687 50.3398L225.195 170.044L210.842 244.845L240.562 170.044Z" fill="white" fill-opacity="0.1"/>
<path d="M210.842 244.846L181.199 170.045L210.687 50.4165" stroke="#CEB34F" stroke-width="0.5"/>
<path d="M210.842 244.846L240.562 170.045L210.687 50.4165" stroke="#CEB34F" stroke-width="0.5"/>
<path d="M210.841 244.846L196.641 170.045L210.686 50.4165" stroke="#CEB34F" stroke-width="0.5"/>
<path d="M210.84 244.846L225.195 170.045L210.684 50.4922" stroke="#CEB34F" stroke-width="0.5"/>
</svg>
