<svg fill="none" xmlns="http://www.w3.org/2000/svg">
<g>
<path d="M259.223 161.744L210.494 244.924L161.504 161.573L210.32 26.3408L259.223 161.744Z" fill="#FAD859"/>
</g>
<path d="M161.504 161.573L210.32 26.3408L177.195 160.811L210.494 244.839L161.504 161.573Z" fill="#3B3A3A" fill-opacity="0.2"/>
<path d="M259.219 161.744L210.316 26.3408L243.818 160.811L210.49 244.839L259.219 161.744Z" fill="white" fill-opacity="0.2"/>
<path d="M177.281 160.811L210.319 26.3408L194.454 160.811L210.493 244.839L177.281 160.811Z" fill="#3B3A3A" fill-opacity="0.1"/>
<path d="M243.879 160.811L210.318 26.3408L226.616 160.811L210.492 244.839L243.879 160.811Z" fill="white" fill-opacity="0.1"/>
<path d="M210.495 244.839L177.195 160.812L210.32 26.4268" stroke="#CEB34F" stroke-width="0.5"/>
<path d="M210.492 244.839L243.879 160.812L210.318 26.4268" stroke="#CEB34F" stroke-width="0.5"/>
<path d="M210.491 244.839L194.539 160.812L210.317 26.4268" stroke="#CEB34F" stroke-width="0.5"/>
<path d="M210.491 244.84L226.617 160.812L210.316 26.5122" stroke="#CEB34F" stroke-width="0.5"/>
</svg>
