<svg width="997" height="700" viewBox="0 0 997 700" fill="none" xmlns="http://www.w3.org/2000/svg">
<path d="M393.282 248.159L344.999 330.572L296.457 247.987L344.826 114L393.282 248.159Z" fill="#FAD859"/>
<path d="M296.457 247.987L344.826 114L312.011 247.229L344.999 330.486L296.457 247.987Z" fill="#3B3A3A" fill-opacity="0.2"/>
<path d="M393.255 248.159L344.809 114L377.998 247.229L344.981 330.486L393.255 248.159Z" fill="white" fill-opacity="0.2"/>
<path d="M312.086 247.229L344.824 114L329.108 247.229L344.997 330.486L312.086 247.229Z" fill="#3B3A3A" fill-opacity="0.1"/>
<path d="M378.056 247.229L344.809 114L360.957 247.229L344.981 330.486L378.056 247.229Z" fill="white" fill-opacity="0.1"/>
<path d="M345 330.483L312.012 247.226L344.827 114.084" stroke="#CEB34F" stroke-width="0.5"/>
<path d="M344.981 330.483L378.056 247.226L344.809 114.084" stroke="#CEB34F" stroke-width="0.5"/>
<path d="M344.979 330.483L329.176 247.226L344.806 114.084" stroke="#CEB34F" stroke-width="0.5"/>
<path d="M344.981 330.484L360.957 247.236L344.809 114.171" stroke="#CEB34F" stroke-width="0.5"/>
</svg>
