<svg width="997" height="700" viewBox="0 0 997 700" fill="none" xmlns="http://www.w3.org/2000/svg">
<path d="M354.827 330.646L344.873 330.583L349.797 321.898L364.411 319.282L354.827 330.646Z" fill="#4CA8EF"/>
<path d="M349.797 321.898L364.411 319.282L350.676 323.262L344.881 330.578L349.797 321.898Z" fill="#3B3A3A" fill-opacity="0.2"/>
<path d="M354.826 330.644L364.41 319.28L354.115 329.218L344.88 330.577L354.826 330.644Z" fill="white" fill-opacity="0.2"/>
<path d="M350.682 323.27L364.413 319.282L351.569 324.806L344.883 330.579L350.682 323.27Z" fill="#3B3A3A" fill-opacity="0.1"/>
<path d="M354.118 329.224L364.41 319.28L353.227 327.68L344.88 330.577L354.118 329.224Z" fill="white" fill-opacity="0.1"/>
<path d="M344.883 330.578L350.678 323.262L364.405 319.286" stroke="#3072A6" stroke-width="0.5"/>
<path d="M344.884 330.577L354.122 329.224L364.406 319.285" stroke="#3072A6" stroke-width="0.5"/>
<path d="M344.882 330.577L351.573 324.812L364.404 319.285" stroke="#3072A6" stroke-width="0.5"/>
<path d="M344.884 330.577L353.23 327.681L364.398 319.289" stroke="#3072A6" stroke-width="0.5"/>
</svg>
