<svg width="997" height="700" viewBox="0 0 997 700" fill="none" xmlns="http://www.w3.org/2000/svg">
<path d="M452.808 331.389L344.947 330.702L398.306 236.597L556.655 208.247L452.808 331.389Z" fill="#4CA8EF"/>
<path d="M398.306 236.597L556.655 208.247L407.83 251.381L345.031 330.653L398.306 236.597Z" fill="#3B3A3A" fill-opacity="0.2"/>
<path d="M452.792 331.362L556.645 208.229L445.088 315.915L345.021 330.636L452.792 331.362Z" fill="white" fill-opacity="0.2"/>
<path d="M407.871 251.454L556.654 208.246L417.483 268.101L345.03 330.652L407.871 251.454Z" fill="#3B3A3A" fill-opacity="0.1"/>
<path d="M445.121 315.972L556.645 208.229L435.466 299.249L345.021 330.636L445.121 315.972Z" fill="white" fill-opacity="0.1"/>
<path d="M345.033 330.653L407.831 251.38L556.572 208.295" stroke="#3072A6" stroke-width="0.5"/>
<path d="M345.019 330.635L445.119 315.971L556.559 208.277" stroke="#3072A6" stroke-width="0.5"/>
<path d="M345.021 330.634L417.522 268.168L556.56 208.277" stroke="#3072A6" stroke-width="0.5"/>
<path d="M345.022 330.635L435.458 299.254L556.477 208.326" stroke="#3072A6" stroke-width="0.5"/>
</svg>
