<svg width="997" height="700" viewBox="0 0 997 700" fill="none" xmlns="http://www.w3.org/2000/svg">
<path d="M365.418 330.728L344.88 330.597L355.04 312.678L385.193 307.279L365.418 330.728Z" fill="#4CA8EF"/>
<path d="M355.04 312.678L385.193 307.279L356.854 315.493L344.896 330.588L355.04 312.678Z" fill="#3B3A3A" fill-opacity="0.2"/>
<path d="M365.416 330.722L385.191 307.275L363.949 327.781L344.894 330.584L365.416 330.722Z" fill="white" fill-opacity="0.2"/>
<path d="M356.861 315.506L385.192 307.278L358.691 318.676L344.895 330.587L356.861 315.506Z" fill="#3B3A3A" fill-opacity="0.1"/>
<path d="M363.955 327.792L385.191 307.275L362.117 324.607L344.894 330.584L363.955 327.792Z" fill="white" fill-opacity="0.1"/>
<path d="M344.896 330.587L356.854 315.492L385.177 307.288" stroke="#3072A6" stroke-width="0.5"/>
<path d="M344.895 330.583L363.956 327.791L385.176 307.284" stroke="#3072A6" stroke-width="0.5"/>
<path d="M344.892 330.584L358.697 318.689L385.173 307.285" stroke="#3072A6" stroke-width="0.5"/>
<path d="M344.891 330.584L362.112 324.608L385.156 307.294" stroke="#3072A6" stroke-width="0.5"/>
</svg>
