<svg width="997" height="700" viewBox="0 0 997 700" fill="none" xmlns="http://www.w3.org/2000/svg">
<path d="M376.454 330.81L344.89 330.609L360.505 303.07L406.844 294.774L376.454 330.81Z" fill="#4CA8EF"/>
<path d="M360.505 303.07L406.844 294.774L363.292 307.396L344.915 330.595L360.505 303.07Z" fill="#3B3A3A" fill-opacity="0.2"/>
<path d="M376.449 330.802L406.84 294.769L374.194 326.282L344.911 330.589L376.449 330.802Z" fill="white" fill-opacity="0.2"/>
<path d="M363.304 307.418L406.843 294.773L366.116 312.289L344.914 330.594L363.304 307.418Z" fill="#3B3A3A" fill-opacity="0.1"/>
<path d="M374.204 326.298L406.84 294.769L371.378 321.405L344.911 330.589L374.204 326.298Z" fill="white" fill-opacity="0.1"/>
<path d="M344.916 330.595L363.293 307.396L406.821 294.788" stroke="#3072A6" stroke-width="0.5"/>
<path d="M344.912 330.589L374.205 326.298L406.816 294.782" stroke="#3072A6" stroke-width="0.5"/>
<path d="M344.913 330.589L366.129 312.309L406.817 294.782" stroke="#3072A6" stroke-width="0.5"/>
<path d="M344.913 330.589L371.378 321.406L406.793 294.797" stroke="#3072A6" stroke-width="0.5"/>
</svg>
