<svg width="997" height="700" viewBox="0 0 997 700" fill="none" xmlns="http://www.w3.org/2000/svg">
<path d="M387.049 330.89L344.9 330.622L365.751 293.849L427.629 282.77L387.049 330.89Z" fill="#4CA8EF"/>
<path d="M365.751 293.848L427.629 282.769L369.473 299.625L344.933 330.602L365.751 293.848Z" fill="#3B3A3A" fill-opacity="0.2"/>
<path d="M387.043 330.879L427.625 282.763L384.032 324.843L344.929 330.595L387.043 330.879Z" fill="white" fill-opacity="0.2"/>
<path d="M369.486 299.654L427.626 282.769L373.242 306.159L344.93 330.602L369.486 299.654Z" fill="#3B3A3A" fill-opacity="0.1"/>
<path d="M384.045 324.865L427.625 282.763L380.272 318.331L344.929 330.595L384.045 324.865Z" fill="white" fill-opacity="0.1"/>
<path d="M344.933 330.603L369.473 299.625L427.596 282.789" stroke="#3072A6" stroke-width="0.5"/>
<path d="M344.927 330.595L384.043 324.865L427.59 282.781" stroke="#3072A6" stroke-width="0.5"/>
<path d="M344.926 330.595L373.258 306.185L427.589 282.781" stroke="#3072A6" stroke-width="0.5"/>
<path d="M344.928 330.595L380.268 318.333L427.559 282.801" stroke="#3072A6" stroke-width="0.5"/>
</svg>
