<svg width="997" height="700" viewBox="0 0 997 700" fill="none" xmlns="http://www.w3.org/2000/svg">
<path d="M397.637 330.97L344.903 330.634L370.99 284.626L448.407 270.766L397.637 330.97Z" fill="#4CA8EF"/>
<path d="M370.99 284.626L448.407 270.766L375.646 291.854L344.944 330.611L370.99 284.626Z" fill="#3B3A3A" fill-opacity="0.2"/>
<path d="M397.629 330.957L448.402 270.758L393.862 323.406L344.939 330.602L397.629 330.957Z" fill="white" fill-opacity="0.2"/>
<path d="M375.665 291.891L448.405 270.766L380.364 300.029L344.942 330.61L375.665 291.891Z" fill="#3B3A3A" fill-opacity="0.1"/>
<path d="M393.878 323.433L448.402 270.758L389.158 315.258L344.939 330.602L393.878 323.433Z" fill="white" fill-opacity="0.1"/>
<path d="M344.946 330.611L375.648 291.854L448.367 270.79" stroke="#3072A6" stroke-width="0.5"/>
<path d="M344.938 330.602L393.877 323.433L448.359 270.781" stroke="#3072A6" stroke-width="0.5"/>
<path d="M344.94 330.602L380.386 300.062L448.362 270.781" stroke="#3072A6" stroke-width="0.5"/>
<path d="M344.94 330.601L389.154 315.259L448.32 270.805" stroke="#3072A6" stroke-width="0.5"/>
</svg>
