<svg width="997" height="700" viewBox="0 0 997 700" fill="none" xmlns="http://www.w3.org/2000/svg">
<path d="M408.672 331.054L344.913 330.648L376.455 275.021L470.058 258.263L408.672 331.054Z" fill="#4CA8EF"/>
<path d="M376.455 275.021L470.058 258.263L382.085 283.76L344.963 330.619L376.455 275.021Z" fill="#3B3A3A" fill-opacity="0.2"/>
<path d="M408.666 331.038L470.055 258.252L404.112 321.907L344.96 330.609L408.666 331.038Z" fill="white" fill-opacity="0.2"/>
<path d="M382.112 283.803L470.06 258.261L387.793 293.643L344.965 330.618L382.112 283.803Z" fill="#3B3A3A" fill-opacity="0.1"/>
<path d="M404.131 321.941L470.055 258.252L398.424 312.056L344.96 330.609L404.131 321.941Z" fill="white" fill-opacity="0.1"/>
<path d="M344.962 330.619L382.084 283.76L470.008 258.291" stroke="#3072A6" stroke-width="0.5"/>
<path d="M344.959 330.608L404.13 321.94L470.004 258.28" stroke="#3072A6" stroke-width="0.5"/>
<path d="M344.957 330.608L387.814 293.683L470.002 258.28" stroke="#3072A6" stroke-width="0.5"/>
<path d="M344.958 330.608L398.416 312.058L469.953 258.309" stroke="#3072A6" stroke-width="0.5"/>
</svg>
