<svg width="997" height="700" viewBox="0 0 997 700" fill="none" xmlns="http://www.w3.org/2000/svg">
<path d="M418.826 331.131L344.924 330.661L381.483 266.184L489.978 246.759L418.826 331.131Z" fill="#4CA8EF"/>
<path d="M381.483 266.184L489.978 246.759L388.009 276.313L344.982 330.627L381.483 266.184Z" fill="#3B3A3A" fill-opacity="0.2"/>
<path d="M418.813 331.113L489.969 246.747L413.535 320.529L344.972 330.615L418.813 331.113Z" fill="white" fill-opacity="0.2"/>
<path d="M388.038 276.363L489.978 246.758L394.623 287.769L344.981 330.626L388.038 276.363Z" fill="#3B3A3A" fill-opacity="0.1"/>
<path d="M413.557 320.568L489.969 246.747L406.942 309.111L344.972 330.615L413.557 320.568Z" fill="white" fill-opacity="0.1"/>
<path d="M344.979 330.628L388.006 276.313L489.918 246.793" stroke="#3072A6" stroke-width="0.5"/>
<path d="M344.971 330.614L413.556 320.567L489.91 246.779" stroke="#3072A6" stroke-width="0.5"/>
<path d="M344.971 330.614L394.647 287.815L489.91 246.779" stroke="#3072A6" stroke-width="0.5"/>
<path d="M344.974 330.615L406.938 309.114L489.855 246.813" stroke="#3072A6" stroke-width="0.5"/>
</svg>
