<svg width="997" height="700" viewBox="0 0 997 700" fill="none" xmlns="http://www.w3.org/2000/svg">
<path d="M429.859 331.215L344.93 330.675L386.944 256.578L511.626 234.256L429.859 331.215Z" fill="#4CA8EF"/>
<path d="M386.944 256.578L511.626 234.256L394.443 268.218L344.997 330.636L386.944 256.578Z" fill="#3B3A3A" fill-opacity="0.2"/>
<path d="M429.846 331.193L511.617 234.241L423.78 319.031L344.988 330.622L429.846 331.193Z" fill="white" fill-opacity="0.2"/>
<path d="M394.477 268.276L511.626 234.254L402.045 281.384L344.997 330.635L394.477 268.276Z" fill="#3B3A3A" fill-opacity="0.1"/>
<path d="M423.805 319.076L511.617 234.241L416.204 305.909L344.988 330.622L423.805 319.076Z" fill="white" fill-opacity="0.1"/>
<path d="M344.996 330.636L394.442 268.218L511.558 234.294" stroke="#3072A6" stroke-width="0.5"/>
<path d="M344.988 330.622L423.806 319.075L511.551 234.279" stroke="#3072A6" stroke-width="0.5"/>
<path d="M344.988 330.621L402.075 281.436L511.551 234.278" stroke="#3072A6" stroke-width="0.5"/>
<path d="M344.988 330.621L416.196 305.912L511.484 234.317" stroke="#3072A6" stroke-width="0.5"/>
</svg>
