<svg width="997" height="700" viewBox="0 0 997 700" fill="none" xmlns="http://www.w3.org/2000/svg">
<path d="M440.45 331.296L344.937 330.688L392.187 247.357L532.407 222.252L440.45 331.296Z" fill="#4CA8EF"/>
<path d="M392.187 247.357L532.407 222.252L400.62 260.448L345.011 330.645L392.187 247.357Z" fill="#3B3A3A" fill-opacity="0.2"/>
<path d="M440.436 331.272L532.398 222.236L433.614 317.594L345.003 330.629L440.436 331.272Z" fill="white" fill-opacity="0.2"/>
<path d="M400.66 260.513L532.408 222.251L409.171 275.254L345.013 330.643L400.66 260.513Z" fill="#3B3A3A" fill-opacity="0.1"/>
<path d="M433.643 317.644L532.398 222.236L425.093 302.836L345.003 330.629L433.643 317.644Z" fill="white" fill-opacity="0.1"/>
<path d="M345.012 330.644L400.621 260.447L532.333 222.295" stroke="#3072A6" stroke-width="0.5"/>
<path d="M345.003 330.628L433.643 317.642L532.324 222.278" stroke="#3072A6" stroke-width="0.5"/>
<path d="M345.002 330.628L409.203 275.313L532.323 222.279" stroke="#3072A6" stroke-width="0.5"/>
<path d="M345.004 330.628L425.086 302.84L532.25 222.322" stroke="#3072A6" stroke-width="0.5"/>
</svg>
