<svg width="997" height="700" viewBox="0 0 997 700" fill="none" xmlns="http://www.w3.org/2000/svg">
<path d="M339.819 340.159L344.851 331.57L349.91 340.177L344.869 354.141L339.819 340.159Z" fill="#DD404C"/>
<path d="M349.91 340.177L344.869 354.141L348.289 340.256L344.851 331.579L349.91 340.177Z" fill="#3B3A3A" fill-opacity="0.2"/>
<path d="M339.822 340.159L344.871 354.141L341.412 340.256L344.853 331.579L339.822 340.159Z" fill="white" fill-opacity="0.2"/>
<path d="M348.281 340.256L344.869 354.141L346.507 340.256L344.851 331.579L348.281 340.256Z" fill="#3B3A3A" fill-opacity="0.1"/>
<path d="M341.406 340.256L344.871 354.141L343.188 340.256L344.853 331.579L341.406 340.256Z" fill="white" fill-opacity="0.1"/>
<path d="M344.851 331.58L348.289 340.257L344.869 354.133" stroke="#BC3F49" stroke-width="0.5"/>
<path d="M344.853 331.58L341.406 340.257L344.871 354.133" stroke="#BC3F49" stroke-width="0.5"/>
<path d="M344.853 331.58L346.5 340.257L344.871 354.133" stroke="#BC3F49" stroke-width="0.5"/>
<path d="M344.853 331.579L343.188 340.255L344.871 354.123" stroke="#BC3F49" stroke-width="0.5"/>
</svg>
