<svg width="997" height="700" viewBox="0 0 997 700" fill="none" xmlns="http://www.w3.org/2000/svg">
<path d="M290.204 424.638L344.729 331.57L399.547 424.833L344.924 576.143L290.204 424.638Z" fill="#DD404C"/>
<path d="M399.547 424.833L344.924 576.143L381.982 425.689L344.729 331.668L399.547 424.833Z" fill="#3B3A3A" fill-opacity="0.2"/>
<path d="M290.236 424.638L344.945 576.143L307.465 425.689L344.75 331.668L290.236 424.638Z" fill="white" fill-opacity="0.2"/>
<path d="M381.895 425.689L344.923 576.143L362.672 425.689L344.728 331.668L381.895 425.689Z" fill="#3B3A3A" fill-opacity="0.1"/>
<path d="M307.4 425.689L344.945 576.143L326.709 425.689L344.75 331.668L307.4 425.689Z" fill="white" fill-opacity="0.1"/>
<path d="M344.727 331.67L381.98 425.691L344.922 576.047" stroke="#BC3F49" stroke-width="0.5"/>
<path d="M344.75 331.67L307.4 425.691L344.945 576.047" stroke="#BC3F49" stroke-width="0.5"/>
<path d="M344.747 331.67L362.594 425.691L344.942 576.047" stroke="#BC3F49" stroke-width="0.5"/>
<path d="M344.75 331.669L326.709 425.68L344.945 575.949" stroke="#BC3F49" stroke-width="0.5"/>
</svg>
