<svg width="997" height="700" viewBox="0 0 997 700" fill="none" xmlns="http://www.w3.org/2000/svg">
<path d="M334.456 349.291L344.839 331.57L355.277 349.328L344.876 378.141L334.456 349.291Z" fill="#DD404C"/>
<path d="M355.277 349.328L344.876 378.141L351.933 349.492L344.839 331.588L355.277 349.328Z" fill="#3B3A3A" fill-opacity="0.2"/>
<path d="M334.461 349.291L344.879 378.141L337.742 349.492L344.842 331.588L334.461 349.291Z" fill="white" fill-opacity="0.2"/>
<path d="M351.918 349.492L344.878 378.141L348.258 349.492L344.841 331.588L351.918 349.492Z" fill="#3B3A3A" fill-opacity="0.1"/>
<path d="M337.729 349.492L344.879 378.141L341.406 349.492L344.842 331.588L337.729 349.492Z" fill="white" fill-opacity="0.1"/>
<path d="M344.84 331.589L351.934 349.493L344.877 378.123" stroke="#BC3F49" stroke-width="0.5"/>
<path d="M344.842 331.589L337.729 349.493L344.879 378.123" stroke="#BC3F49" stroke-width="0.5"/>
<path d="M344.844 331.589L348.242 349.493L344.881 378.123" stroke="#BC3F49" stroke-width="0.5"/>
<path d="M344.842 331.59L341.406 349.491L344.879 378.105" stroke="#BC3F49" stroke-width="0.5"/>
</svg>
