<svg width="997" height="700" viewBox="0 0 997 700" fill="none" xmlns="http://www.w3.org/2000/svg">
<path d="M328.869 358.805L344.825 331.569L360.867 358.862L344.882 403.141L328.869 358.805Z" fill="#DD404C"/>
<path d="M360.867 358.862L344.882 403.141L355.727 359.112L344.825 331.598L360.867 358.862Z" fill="#3B3A3A" fill-opacity="0.2"/>
<path d="M328.881 358.805L344.891 403.141L333.922 359.112L344.834 331.598L328.881 358.805Z" fill="white" fill-opacity="0.2"/>
<path d="M355.703 359.112L344.884 403.141L350.078 359.112L344.827 331.598L355.703 359.112Z" fill="#3B3A3A" fill-opacity="0.1"/>
<path d="M333.903 359.112L344.891 403.141L339.554 359.112L344.834 331.598L333.903 359.112Z" fill="white" fill-opacity="0.1"/>
<path d="M344.825 331.599L355.727 359.113L344.882 403.113" stroke="#BC3F49" stroke-width="0.5"/>
<path d="M344.834 331.599L333.903 359.113L344.891 403.113" stroke="#BC3F49" stroke-width="0.5"/>
<path d="M344.832 331.599L350.055 359.113L344.889 403.113" stroke="#BC3F49" stroke-width="0.5"/>
<path d="M344.834 331.6L339.554 359.111L344.891 403.086" stroke="#BC3F49" stroke-width="0.5"/>
</svg>
