<svg width="997" height="700" viewBox="0 0 997 700" fill="none" xmlns="http://www.w3.org/2000/svg">
<path d="M323.506 367.939L344.813 331.571L366.234 368.015L344.889 427.143L323.506 367.939Z" fill="#DD404C"/>
<path d="M366.23 368.015L344.886 427.143L359.367 368.35L344.809 331.609L366.23 368.015Z" fill="#3B3A3A" fill-opacity="0.2"/>
<path d="M323.516 367.939L344.895 427.143L330.248 368.35L344.818 331.609L323.516 367.939Z" fill="white" fill-opacity="0.2"/>
<path d="M359.336 368.35L344.889 427.143L351.824 368.35L344.812 331.609L359.336 368.35Z" fill="#3B3A3A" fill-opacity="0.1"/>
<path d="M330.223 368.35L344.895 427.143L337.768 368.35L344.818 331.609L330.223 368.35Z" fill="white" fill-opacity="0.1"/>
<path d="M344.81 331.61L359.367 368.351L344.886 427.105" stroke="#BC3F49" stroke-width="0.5"/>
<path d="M344.818 331.61L330.223 368.351L344.895 427.105" stroke="#BC3F49" stroke-width="0.5"/>
<path d="M344.819 331.61L351.793 368.351L344.895 427.105" stroke="#BC3F49" stroke-width="0.5"/>
<path d="M344.818 331.609L337.768 368.346L344.895 427.066" stroke="#BC3F49" stroke-width="0.5"/>
</svg>
