<svg width="997" height="700" viewBox="0 0 997 700" fill="none" xmlns="http://www.w3.org/2000/svg">
<path d="M318.144 377.072L344.801 331.571L371.602 377.167L344.896 451.143L318.144 377.072Z" fill="#DD404C"/>
<path d="M371.602 377.167L344.896 451.143L363.014 377.586L344.801 331.619L371.602 377.167Z" fill="#3B3A3A" fill-opacity="0.2"/>
<path d="M318.159 377.072L344.906 451.143L326.582 377.586L344.811 331.619L318.159 377.072Z" fill="white" fill-opacity="0.2"/>
<path d="M362.973 377.586L344.897 451.143L353.575 377.586L344.802 331.619L362.973 377.586Z" fill="#3B3A3A" fill-opacity="0.1"/>
<path d="M326.55 377.586L344.906 451.143L335.99 377.586L344.811 331.619L326.55 377.586Z" fill="white" fill-opacity="0.1"/>
<path d="M344.803 331.619L363.016 377.587L344.898 451.096" stroke="#BC3F49" stroke-width="0.5"/>
<path d="M344.811 331.619L326.55 377.587L344.906 451.096" stroke="#BC3F49" stroke-width="0.5"/>
<path d="M344.81 331.619L353.535 377.587L344.905 451.096" stroke="#BC3F49" stroke-width="0.5"/>
<path d="M344.811 331.618L335.99 377.58L344.906 451.047" stroke="#BC3F49" stroke-width="0.5"/>
</svg>
