<svg width="997" height="700" viewBox="0 0 997 700" fill="none" xmlns="http://www.w3.org/2000/svg">
<path d="M312.553 386.585L344.784 331.571L377.188 386.7L344.899 476.143L312.553 386.585Z" fill="#DD404C"/>
<path d="M377.191 386.7L344.903 476.143L366.809 387.206L344.787 331.629L377.191 386.7Z" fill="#3B3A3A" fill-opacity="0.2"/>
<path d="M312.574 386.585L344.914 476.143L322.758 387.206L344.799 331.629L312.574 386.585Z" fill="white" fill-opacity="0.2"/>
<path d="M366.758 387.206L344.903 476.143L355.395 387.206L344.788 331.629L366.758 387.206Z" fill="#3B3A3A" fill-opacity="0.1"/>
<path d="M322.72 387.206L344.914 476.143L334.134 387.206L344.799 331.629L322.72 387.206Z" fill="white" fill-opacity="0.1"/>
<path d="M344.784 331.63L366.805 387.207L344.899 476.086" stroke="#BC3F49" stroke-width="0.5"/>
<path d="M344.799 331.63L322.72 387.207L344.914 476.086" stroke="#BC3F49" stroke-width="0.5"/>
<path d="M344.798 331.63L355.348 387.207L344.914 476.086" stroke="#BC3F49" stroke-width="0.5"/>
<path d="M344.799 331.629L334.134 387.2L344.914 476.027" stroke="#BC3F49" stroke-width="0.5"/>
</svg>
