<svg width="997" height="700" viewBox="0 0 997 700" fill="none" xmlns="http://www.w3.org/2000/svg">
<path d="M307.414 395.337L344.773 331.571L382.332 395.471L344.907 499.143L307.414 395.337Z" fill="#DD404C"/>
<path d="M382.332 395.471L344.907 499.143L370.297 396.057L344.773 331.638L382.332 395.471Z" fill="#3B3A3A" fill-opacity="0.2"/>
<path d="M307.437 395.337L344.922 499.143L319.242 396.057L344.788 331.638L307.437 395.337Z" fill="white" fill-opacity="0.2"/>
<path d="M370.238 396.057L344.907 499.143L357.068 396.057L344.773 331.638L370.238 396.057Z" fill="#3B3A3A" fill-opacity="0.1"/>
<path d="M319.197 396.057L344.922 499.143L332.427 396.057L344.788 331.638L319.197 396.057Z" fill="white" fill-opacity="0.1"/>
<path d="M344.773 331.638L370.297 396.058L344.906 499.076" stroke="#BC3F49" stroke-width="0.5"/>
<path d="M344.788 331.638L319.197 396.058L344.922 499.076" stroke="#BC3F49" stroke-width="0.5"/>
<path d="M344.788 331.638L357.016 396.058L344.922 499.076" stroke="#BC3F49" stroke-width="0.5"/>
<path d="M344.788 331.638L332.427 396.051L344.922 499.01" stroke="#BC3F49" stroke-width="0.5"/>
</svg>
