<svg width="997" height="700" viewBox="0 0 997 700" fill="none" xmlns="http://www.w3.org/2000/svg">
<path d="M301.823 404.851L344.755 331.571L387.918 405.004L344.909 524.143L301.823 404.851Z" fill="#DD404C"/>
<path d="M387.918 405.004L344.909 524.143L374.088 405.678L344.755 331.647L387.918 405.004Z" fill="#3B3A3A" fill-opacity="0.2"/>
<path d="M301.848 404.851L344.926 524.143L315.414 405.678L344.772 331.647L301.848 404.851Z" fill="white" fill-opacity="0.2"/>
<path d="M374.023 405.678L344.913 524.143L358.888 405.678L344.759 331.647L374.023 405.678Z" fill="#3B3A3A" fill-opacity="0.1"/>
<path d="M315.363 405.678L344.926 524.143L330.567 405.678L344.772 331.647L315.363 405.678Z" fill="white" fill-opacity="0.1"/>
<path d="M344.758 331.648L374.09 405.679L344.911 524.066" stroke="#BC3F49" stroke-width="0.5"/>
<path d="M344.772 331.648L315.363 405.679L344.926 524.066" stroke="#BC3F49" stroke-width="0.5"/>
<path d="M344.772 331.648L358.824 405.679L344.926 524.066" stroke="#BC3F49" stroke-width="0.5"/>
<path d="M344.772 331.649L330.567 405.671L344.926 523.99" stroke="#BC3F49" stroke-width="0.5"/>
</svg>
