<svg width="997" height="700" viewBox="0 0 997 700" fill="none" xmlns="http://www.w3.org/2000/svg">
<path d="M296.464 413.983L344.747 331.57L393.289 414.156L344.92 548.143L296.464 413.983Z" fill="#DD404C"/>
<path d="M393.289 414.156L344.92 548.143L377.735 414.914L344.747 331.657L393.289 414.156Z" fill="#3B3A3A" fill-opacity="0.2"/>
<path d="M296.491 413.983L344.938 548.143L311.748 414.914L344.765 331.657L296.491 413.983Z" fill="white" fill-opacity="0.2"/>
<path d="M377.66 414.914L344.922 548.143L360.638 414.914L344.749 331.657L377.66 414.914Z" fill="#3B3A3A" fill-opacity="0.1"/>
<path d="M311.69 414.914L344.938 548.143L328.789 414.914L344.765 331.657L311.69 414.914Z" fill="white" fill-opacity="0.1"/>
<path d="M344.746 331.659L377.734 414.916L344.919 548.059" stroke="#BC3F49" stroke-width="0.5"/>
<path d="M344.765 331.659L311.69 414.916L344.938 548.059" stroke="#BC3F49" stroke-width="0.5"/>
<path d="M344.763 331.659L360.566 414.916L344.936 548.059" stroke="#BC3F49" stroke-width="0.5"/>
<path d="M344.765 331.658L328.789 414.905L344.938 547.971" stroke="#BC3F49" stroke-width="0.5"/>
</svg>
