<svg width="840" height="78" viewBox="0 0 840 78" fill="none" xmlns="http://www.w3.org/2000/svg">
<path d="M376.32 12.0868L385.33 16.3542C385.588 16.4762 385.885 16.4836 386.148 16.3746L396.505 12.0868M376.32 12.0868V14.973C376.32 15.3519 376.533 15.6988 376.87 15.8715L379.153 17.0395L382.703 18.8562L385.304 20.1873C385.576 20.3265 385.897 20.335 386.176 20.2102L389.524 18.7126L392.556 17.3566L395.908 15.8574C396.271 15.6949 396.505 15.3341 396.505 14.9361V12.0868M376.32 12.0868C376.32 11.9904 376.379 11.9034 376.468 11.8664L385.711 8.02562C385.957 7.92378 386.232 7.92259 386.478 8.02227L396.505 12.0868M385.735 28.0515L395.547 23.3058C395.89 23.1399 396.11 22.7947 396.117 22.4137L396.155 20.0505C396.162 19.6365 395.646 19.307 395.271 19.4813C393.467 20.3192 389.589 22.0797 389.589 22.0797L385.735 23.8114M385.735 28.0515L377.053 23.5878C376.724 23.4189 376.514 23.0841 376.506 22.7149L376.461 20.8982C376.442 20.1403 377.235 19.6333 377.915 19.9678L385.735 23.8114M385.735 28.0515V23.8114" stroke="#6C6363" stroke-width="2.0185"/>
<path d="M395.108 22.3155L386.744 26.3603V24.3823L390.002 22.9187L390.007 22.9167L390.009 22.9157C390.012 22.9149 390.015 22.9134 390.019 22.9118C390.026 22.9084 390.037 22.9034 390.051 22.897C390.08 22.8839 390.122 22.8647 390.177 22.8398C390.287 22.79 390.445 22.718 390.641 22.6289C391.033 22.4507 391.575 22.2037 392.173 21.9311C393.144 21.4886 394.264 20.9732 395.136 20.571L395.108 22.3155Z" fill="#E1E1E1"/>
<path d="M384.726 24.3576V26.315L377.515 22.6082L377.47 20.7917L384.726 24.3576Z" fill="#E1E1E1"/>
<path d="M395.497 14.8547L385.765 19.207L377.33 14.8912V13.599L384.899 17.1846C385.414 17.4285 386.008 17.443 386.535 17.225L395.497 13.5153V14.8547Z" fill="#E1E1E1"/>
<path d="M393.842 12.0151L385.762 15.3601L378.627 11.9796L386.099 8.87598L393.842 12.0151Z" fill="#E1E1E1"/>
<text fill="#373737" xml:space="preserve" style="white-space: pre" font-family="Manrope" font-size="26" font-weight="bold" letter-spacing="0em"><tspan x="550.416" y="27.958"> Collaborativa</tspan></text>
<text fill="#373737" xml:space="preserve" style="white-space: pre" font-family="Manrope" font-size="26" font-weight="300" letter-spacing="0em"><tspan x="415.643" y="27.958">Intelligenza</tspan></text>
<text fill="#373737" xml:space="preserve" style="white-space: pre" font-family="Manrope" font-size="32" font-weight="600" letter-spacing="0em"><tspan x="459.484" y="69.1325">Presenza Digitale</tspan></text>
<line opacity="0.3" x1="735.269" y1="3.53235" x2="735.269" y2="69.1336" stroke="#373737" stroke-width="1.00925"/>
<path d="M775.217 42.8445C777.35 42.945 779.795 43.9214 781.727 44.8894C782.688 45.3713 783.514 45.8477 784.1 46.2029C784.392 46.3804 784.625 46.528 784.784 46.6306C784.834 46.6627 784.876 46.6907 784.911 46.7136L784.552 58.3728C784.504 58.3748 784.449 58.3781 784.388 58.3806C784.13 58.3911 783.753 58.4055 783.285 58.4216C782.349 58.4538 781.041 58.4925 779.555 58.5183C776.58 58.5699 772.899 58.5695 770.055 58.364C767.209 58.1586 765.736 57.7996 764.982 57.5037C764.607 57.3561 764.419 57.2283 764.33 57.1501C764.289 57.114 764.271 57.0889 764.264 57.0789L764.186 56.8074L763.913 56.947L761.954 57.949L758.558 53.2566L764.191 46.0242C764.199 46.0204 764.208 46.017 764.217 46.0125C764.267 45.9877 764.343 45.9514 764.439 45.905C764.633 45.8122 764.915 45.6788 765.267 45.5203C765.971 45.2029 766.955 44.7822 768.074 44.3679C770.324 43.5352 773.083 42.744 775.217 42.8445ZM764.268 57.0935C764.268 57.0947 764.269 57.0961 764.27 57.0974V57.0994V57.1003L764.268 57.0935Z" fill="#E1E1E1" stroke="#373737" stroke-width="0.504625"/>
<path d="M780.141 54.0035L779.948 59.0182C779.902 60.2291 778.812 61.2143 777.458 61.1959C775.489 61.169 773.904 61.1418 772.318 61.1149C770.763 61.0884 769.207 61.0613 767.289 61.0348L766.056 59.5953L765.968 59.4938L765.835 59.5094C765.003 59.6044 764.377 59.6304 763.949 59.5944C763.734 59.5762 763.584 59.5437 763.486 59.5045C763.439 59.4854 763.411 59.467 763.395 59.4537C763.387 59.4474 763.382 59.4428 763.38 59.4401C763.379 59.4388 763.378 59.4377 763.378 59.4371V59.4352C763.378 59.4347 763.377 59.4337 763.377 59.4323C763.377 59.4284 763.377 59.42 763.381 59.4059C763.388 59.3757 763.408 59.3274 763.454 59.2604C763.547 59.1251 763.717 58.9508 763.979 58.7369C764.487 58.324 765.293 57.8041 766.405 57.1735C767.282 57.5106 768.16 57.8471 769.037 58.1842L769.094 58.2067L769.153 58.1998C770.47 58.0626 771.402 57.9254 772.329 57.7887C773.255 57.6521 774.178 57.5164 775.483 57.3805L775.71 57.3571V54.0035H780.141Z" fill="#E1E1E1" stroke="#373737" stroke-width="0.504625"/>
<path d="M757.533 43.3979C757.83 43.4416 758.033 43.7283 758.163 44.1245C758.224 44.3102 758.26 44.4948 758.28 44.6343C758.29 44.7033 758.296 44.7602 758.3 44.7993C758.302 44.8189 758.303 44.8345 758.304 44.8442C758.304 44.849 758.305 44.8529 758.305 44.855V44.8569L758.315 45.061L758.519 45.0933C758.737 45.1274 758.961 45.2561 759.183 45.4595C759.402 45.6616 759.602 45.9219 759.773 46.1851C759.944 46.4471 760.081 46.7049 760.175 46.8979C760.222 46.9941 760.258 47.0734 760.282 47.1284C760.285 47.1337 760.286 47.1392 760.288 47.144L759.271 52.3813H755.911L757.43 46.1694L757.442 46.1187L757.434 46.0669L757.433 46.0659C757.432 46.0646 757.432 46.0627 757.432 46.0601C757.431 46.0546 757.429 46.0456 757.428 46.0347C757.424 46.0129 757.42 45.9807 757.414 45.9399C757.402 45.8575 757.385 45.7394 757.368 45.5981C757.334 45.3145 757.298 44.94 757.29 44.5728C757.282 44.1997 757.303 43.8572 757.37 43.6245C757.404 43.5074 757.443 43.445 757.472 43.4165C757.489 43.3993 757.501 43.3931 757.533 43.3979Z" fill="#E1E1E1" stroke="#373737" stroke-width="0.504625"/>
<path d="M821.378 39.4812C821.366 39.5516 821.351 39.6418 821.332 39.7498C821.282 40.0423 821.207 40.4673 821.11 40.9968C820.917 42.0566 820.634 43.535 820.278 45.2078C819.566 48.5568 818.564 52.6734 817.397 55.7771C816.244 58.848 814.751 59.923 813.599 60.2625C813.016 60.4341 812.503 60.423 812.136 60.3699C811.953 60.3434 811.807 60.3069 811.708 60.2771C811.679 60.2682 811.653 60.2588 811.633 60.2517C810.819 59.0042 810.794 57.0461 811.287 54.7263C811.785 52.3837 812.793 49.7455 813.921 47.2625C815.048 44.7817 816.289 42.4656 817.25 40.7693C817.73 39.9215 818.14 39.2291 818.43 38.7488C818.574 38.5087 818.688 38.321 818.767 38.1941L821.378 39.4812Z" fill="#E1E1E1" stroke="#373737" stroke-width="0.504625"/>
<path d="M824.004 35.3853C825.066 35.41 826.193 35.4796 827.191 35.6333C828.199 35.7883 829.044 36.0239 829.565 36.3599C829.689 36.4394 829.744 36.504 829.767 36.5444C829.783 36.575 829.782 36.5939 829.774 36.6167C829.763 36.6503 829.729 36.7061 829.646 36.7798C829.565 36.8522 829.45 36.9304 829.301 37.0122C828.695 37.3438 827.661 37.6646 826.526 37.9468C825.4 38.227 824.201 38.4631 823.282 38.6284C822.823 38.711 822.435 38.7755 822.161 38.8198C822.024 38.842 821.916 38.8592 821.843 38.8706C821.819 38.8744 821.798 38.8768 821.781 38.8794L819.028 38.1519L820.193 35.4575C820.239 35.4547 820.296 35.4514 820.36 35.4478C820.566 35.4361 820.862 35.4212 821.225 35.4077C821.951 35.3807 822.943 35.3605 824.004 35.3853Z" fill="#E1E1E1" stroke="#373737" stroke-width="0.504625"/>
<path d="M822.995 53.1096C825.9 53.1727 828.68 53.3964 830.735 53.6038C831.763 53.7074 832.609 53.8064 833.197 53.8801C833.487 53.9164 833.714 53.9469 833.87 53.968L833.539 56.6536C833.461 56.6697 833.359 56.6914 833.233 56.717C832.921 56.7809 832.467 56.873 831.899 56.9836C830.764 57.205 829.177 57.5027 827.367 57.8088C823.745 58.4216 819.242 59.0653 815.696 59.1965C812.175 59.327 810.545 58.4269 809.787 57.5627C809.405 57.1276 809.231 56.6869 809.151 56.3577C809.112 56.1929 809.096 56.0558 809.09 55.9622C809.088 55.9401 809.087 55.9205 809.087 55.9036C809.555 55.3371 810.264 54.8659 811.175 54.4827C812.118 54.0857 813.259 53.7883 814.528 53.5735C817.067 53.1438 820.089 53.0465 822.995 53.1096Z" fill="#E1E1E1" stroke="#373737" stroke-width="0.504625"/>
<path d="M837.15 54.1949C837.169 54.2322 837.193 54.2763 837.219 54.3278C837.306 54.5004 837.429 54.7505 837.575 55.0582C837.868 55.6742 838.252 56.5209 838.615 57.444C838.979 58.3682 839.321 59.3641 839.532 60.2789C839.745 61.2027 839.816 62.0086 839.672 62.5719C839.639 62.702 839.597 62.7712 839.563 62.8063C839.535 62.8359 839.505 62.8494 839.463 62.8522C839.353 62.8593 839.158 62.792 838.872 62.5856C838.319 62.1857 837.619 61.4129 836.921 60.5387C836.228 59.6707 835.553 58.7235 835.051 57.9918C834.8 57.6263 834.592 57.3149 834.447 57.0953C834.375 56.9857 834.319 56.8987 834.28 56.8395C834.27 56.8234 834.261 56.8094 834.253 56.7975L833.978 54.1774L837.15 54.1949Z" fill="#E1E1E1" stroke="#373737" stroke-width="0.504625"/>
<path d="M792.966 45.3824C794.143 45.3634 795.223 45.4928 796.047 45.8502C797.764 46.5957 800.471 47.9435 803.192 49.0533C804.56 49.6111 805.948 50.1155 807.244 50.4645C808.537 50.8126 809.754 51.0104 810.777 50.943C811.68 50.8835 812.545 51.2399 813.347 51.8395C814.149 52.4392 814.871 53.2694 815.479 54.1188C816.087 54.9666 816.574 55.8247 816.91 56.4713C817.078 56.794 817.207 57.0633 817.295 57.2516C817.339 57.3458 817.372 57.4203 817.395 57.4703C817.399 57.4812 817.403 57.4911 817.407 57.4996V62.5719C817.391 62.5728 817.373 62.5739 817.355 62.5748C817.166 62.585 816.888 62.5989 816.531 62.6149C815.817 62.6468 814.788 62.6865 813.531 62.7155C811.016 62.7734 807.589 62.7906 803.938 62.6276C800.287 62.4645 796.418 62.1213 793.017 61.4606C789.668 60.81 786.812 59.8557 785.055 58.4928L785.416 46.7672C785.46 46.7534 785.512 46.7377 785.572 46.7194C785.782 46.6552 786.086 46.5651 786.462 46.4615C787.214 46.2544 788.252 45.9932 789.397 45.7799C790.544 45.5665 791.792 45.4015 792.966 45.3824Z" fill="#E1E1E1" stroke="#373737" stroke-width="0.504625"/>
<path d="M761.258 34.3629C764.732 33.4462 768.774 35.6747 769.571 39.4586L769.599 39.5875L769.719 39.6383C772.032 40.6222 773.788 42.037 774.869 43.5631C775.951 45.0906 776.348 46.7134 775.984 48.1344C775.725 49.149 775.035 50.236 774.147 51.024C773.256 51.8149 772.209 52.2683 771.239 52.1071C770.321 51.9544 769.404 51.2406 768.782 50.0992C768.163 48.963 767.848 47.4219 768.126 45.6666L768.198 45.2115L767.776 45.3961C765.442 46.4172 763.023 46.3961 761.046 45.7057C759.064 45.0137 757.547 43.6596 756.976 42.0377C755.99 39.2377 757.693 35.3044 761.258 34.3629Z" fill="#E1E1E1" stroke="#373737" stroke-width="0.504625"/>
<path d="M767.897 45.5046C767.895 45.5392 767.891 45.5889 767.886 45.6511C767.875 45.7829 767.856 45.9722 767.83 46.2019C767.777 46.6623 767.69 47.2824 767.554 47.9226C767.417 48.5646 767.233 49.2169 766.989 49.7478C766.741 50.2891 766.453 50.6542 766.138 50.7947C765.798 50.946 765.541 50.9185 765.337 50.8181C765.12 50.7115 764.934 50.5076 764.778 50.2566C764.625 50.008 764.514 49.7337 764.442 49.5183C764.407 49.4117 764.382 49.3208 764.365 49.2576C764.357 49.2261 764.351 49.2016 764.347 49.1853C764.345 49.1771 764.344 49.1706 764.343 49.1667L764.338 49.1472L764.333 49.1326L763.03 45.3494L766.466 42.1443L767.897 45.5046Z" fill="#E1E1E1" stroke="#373737" stroke-width="0.504625"/>
<path d="M759.018 37.6581C759.103 37.6479 759.193 37.6743 759.323 37.7831C759.46 37.898 759.606 38.0742 759.801 38.3134C760.182 38.7808 760.699 39.4189 761.555 39.9745C762.785 40.7734 764.105 41.0061 765.041 41.076C765.422 41.1194 765.763 41.195 766.036 41.3114C766.31 41.4278 766.498 41.5778 766.604 41.7606C766.775 42.0588 766.781 42.5428 766.585 43.1512C766.393 43.7479 766.023 44.4139 765.528 45.0311C764.528 46.2784 763.085 47.2498 761.683 47.1415C760.506 47.0507 759.48 46.3348 758.777 45.2157C758.075 44.0962 757.706 42.5838 757.854 40.9452C757.923 40.1772 758.064 39.344 758.282 38.6981C758.392 38.3744 758.516 38.1113 758.651 37.9286C758.788 37.7444 758.912 37.6707 759.018 37.6581Z" fill="#E1E1E1" stroke="#373737" stroke-width="0.504625"/>
<path d="M767.292 38.557C767.496 38.568 767.71 38.712 767.875 39.0131C768.039 39.311 768.134 39.7315 768.104 40.2025C768.075 40.6731 767.928 41.0813 767.728 41.3607C767.525 41.6435 767.292 41.7643 767.087 41.7533C766.883 41.7423 766.669 41.5984 766.504 41.2972C766.34 40.9993 766.246 40.5785 766.275 40.1078C766.305 39.6371 766.452 39.2289 766.652 38.9496C766.855 38.667 767.087 38.5461 767.292 38.557Z" fill="#E1E1E1" stroke="#373737" stroke-width="0.504625"/>
<path d="M763.532 43.6332H763.533C763.553 43.6392 763.563 43.6496 763.566 43.6566L763.568 43.6722C763.348 44.2985 762.714 44.7917 761.987 44.8793C761.983 44.8796 761.98 44.8801 761.977 44.8802C761.974 44.8804 761.973 44.8812 761.973 44.8812C761.953 44.8812 761.936 44.874 761.926 44.8656C761.916 44.8574 761.914 44.8498 761.913 44.8461C761.913 44.8419 761.912 44.8363 761.919 44.8285C761.926 44.8199 761.941 44.8096 761.963 44.807L761.962 44.806C762.582 44.7327 763.159 44.3241 763.405 43.7728L763.45 43.6615C763.452 43.6559 763.459 43.6452 763.477 43.6371C763.494 43.6288 763.515 43.6279 763.532 43.6332Z" fill="#E1E1E1" stroke="#373737" stroke-width="0.504625"/>
<path d="M760.513 43.7057L761.275 44.108C761.291 44.1163 761.296 44.1262 761.298 44.1315C761.299 44.1344 761.299 44.1373 761.299 44.1393L761.295 44.1481C761.288 44.1588 761.269 44.1734 761.239 44.1735L761.2 44.1647L760.412 43.7487C760.244 43.6603 760.178 43.5729 760.153 43.5162L760.513 43.7057ZM760.764 43.0231C760.745 43.0894 760.711 43.1468 760.647 43.192H760.646C760.616 43.2142 760.582 43.2319 760.542 43.2467L760.146 43.3932C760.148 43.387 760.149 43.3804 760.151 43.3746C760.189 43.2892 760.276 43.2505 760.405 43.2096H760.406C760.42 43.2053 760.441 43.1988 760.46 43.192C760.471 43.1881 760.509 43.1747 760.541 43.1559L760.764 43.0231ZM760.384 41.3805C760.405 41.3765 760.425 41.3807 760.439 41.3893C760.453 41.3976 760.458 41.4067 760.459 41.4117L760.749 42.6569C760.751 42.666 760.753 42.6759 760.755 42.6862H760.634C760.632 42.6792 760.632 42.6719 760.63 42.6647V42.6637L760.341 41.4196L760.345 41.403C760.348 41.399 760.352 41.3944 760.358 41.3903L760.384 41.3805Z" fill="#E1E1E1" stroke="#373737" stroke-width="0.504625"/>
<path d="M751.305 52.8864H764.811C765.357 52.8864 765.852 53.3291 765.944 53.9742L766.922 60.8551C767.037 61.6678 766.467 62.3492 765.788 62.3492H752.282C751.736 62.3492 751.239 61.9067 751.147 61.2614L750.17 54.3815C750.054 53.5687 750.626 52.8864 751.305 52.8864Z" fill="#E1E1E1" stroke="#373737" stroke-width="0.504625"/>
<path d="M757.927 57.009C758.503 57.0091 759.01 57.4469 759.074 57.9475C759.134 58.4175 758.78 58.8215 758.223 58.8215C757.646 58.8214 757.139 58.3848 757.075 57.884C757.015 57.4141 757.369 57.009 757.927 57.009Z" fill="#E1E1E1" stroke="#373737" stroke-width="0.504625"/>
<path d="M814.067 9.81238V34.3046H773.333V9.81238H814.067Z" fill="#E1E1E1" stroke="#373737" stroke-width="0.504625"/>
<path d="M798.32 9.81274C799.313 10.2058 800.241 10.6478 801.068 11.1213C801.797 11.5385 802.376 11.9558 802.831 12.3108L803.247 12.6428C805.182 14.217 807.239 15.8915 808.705 17.4192C809.438 18.1837 810.011 18.8985 810.347 19.5344C810.685 20.1752 810.757 20.6856 810.584 21.0793C810.43 21.4296 810.092 21.6703 809.589 21.8528C809.086 22.0354 808.472 22.1412 807.826 22.259C807.194 22.3745 806.531 22.5015 805.979 22.7317C805.424 22.9635 804.944 23.3161 804.727 23.9045C804.562 24.3503 804.6 24.7945 804.714 25.2141C804.827 25.6277 805.023 26.0445 805.192 26.4299C805.548 27.237 805.784 27.9081 805.405 28.5481C805.172 28.9411 804.773 29.2115 804.119 29.4739C802.14 30.2665 798.377 30.7681 794.341 30.4417C790.432 30.1255 786.319 29.0363 783.355 26.7327L783.072 26.5061C782.974 26.4249 782.83 26.3037 782.645 26.137H782.644C781.455 25.0702 778.816 22.3058 778.802 18.1965C778.802 18.0955 778.818 16.6994 779.355 14.9827C779.893 13.2661 780.947 11.2486 783.01 9.87134L783.009 9.87036C783.037 9.85264 783.067 9.83329 783.086 9.82056C783.09 9.81769 783.095 9.81534 783.099 9.81274H798.32Z" fill="#E1E1E1" stroke="#373737" stroke-width="0.504625"/>
<path d="M784.188 26.1444C785.886 25.792 787.369 25.9465 788.379 26.1493V26.1503C789.292 26.3791 790.467 26.7375 791.766 27.3241V27.3231C792.926 27.8497 794.174 28.5347 795.404 29.4774V29.4784C796.059 29.9789 797.184 30.9067 798.5 32.5233L798.501 32.5243C798.706 32.7754 798.92 33.0504 799.143 33.3485V33.3475C799.374 33.6611 799.601 33.9824 799.82 34.3114H775.305C775.726 33.5318 776.152 32.7984 776.579 32.1151L777.072 31.3456L777.079 31.3339C777.479 30.6448 779.679 27.071 784.129 26.1522L784.145 26.1493H784.162L784.188 26.1444Z" fill="#E1E1E1" stroke="#373737" stroke-width="0.504625"/>
<path d="M791.615 23.4564V29.5863L791.617 29.6019V29.6029C791.617 29.6043 791.618 29.6067 791.618 29.6097C791.619 29.6161 791.62 29.6268 791.621 29.64C791.624 29.6663 791.627 29.7053 791.631 29.7552C791.638 29.8562 791.647 30.0013 791.648 30.1742C791.652 30.5218 791.629 30.9745 791.527 31.4115C791.425 31.8517 791.25 32.2502 790.969 32.517C790.698 32.7735 790.303 32.9334 789.698 32.8549C789.118 32.7796 788.488 32.3406 787.854 31.6576C787.226 30.9827 786.629 30.1077 786.109 29.2338C785.591 28.3614 785.155 27.4984 784.848 26.8529C784.694 26.5304 784.573 26.2623 784.491 26.0756C784.45 25.9823 784.419 25.9093 784.397 25.8597C784.394 25.8524 784.391 25.8455 784.389 25.8392L784.801 20.1693L791.615 23.4564Z" fill="#E1E1E1" stroke="#373737" stroke-width="0.504625"/>
<path d="M793.491 14.8547C793.863 14.6774 794.002 14.6887 794.099 14.7366C794.2 14.787 794.275 14.8945 794.321 15.1135C794.368 15.3353 794.372 15.6078 794.379 15.9182C794.385 16.2136 794.395 16.5447 794.469 16.8303C794.544 17.1224 794.697 17.4091 795.02 17.5588C795.419 17.7442 795.877 17.6555 796.252 17.5042C796.635 17.3496 796.989 17.1067 797.223 16.8987C797.531 16.6243 797.736 16.3122 797.874 15.9983C798.192 18.722 797.89 21.1233 797.208 22.9973C796.363 25.3177 794.955 26.7864 793.456 27.1311C792.586 27.3311 791.541 27.1275 790.456 26.6418C789.376 26.158 788.283 25.4059 787.335 24.554C786.387 23.7015 785.593 22.7584 785.103 21.8987C784.857 21.4688 784.692 21.0681 784.617 20.7161C784.542 20.3632 784.562 20.077 784.661 19.8586C784.698 19.7766 784.733 19.733 784.799 19.6848C784.879 19.6257 785.002 19.5624 785.23 19.4543C785.678 19.2427 786.442 18.8973 787.795 18.134C789.109 17.3928 790.111 16.8163 790.785 16.425C791.122 16.2296 791.377 16.0802 791.548 15.9797C791.633 15.9295 791.698 15.891 791.741 15.8655C791.762 15.853 791.778 15.8436 791.789 15.8372C791.794 15.8339 791.799 15.831 791.802 15.8293C791.803 15.8286 791.804 15.8278 791.805 15.8274H791.806C792.609 15.3483 793.122 15.0306 793.491 14.8547Z" fill="#E1E1E1" stroke="#373737" stroke-width="0.504625"/>
<path d="M783.76 15.6377C784.125 15.569 784.546 15.7356 784.937 16.1406C785.275 16.4919 785.567 17.0018 785.74 17.6074L785.807 17.873C785.964 18.5952 785.919 19.271 785.733 19.7764C785.546 20.2845 785.234 20.5851 784.872 20.6533C784.507 20.722 784.085 20.5554 783.695 20.1504C783.309 19.7489 782.983 19.1399 782.825 18.418C782.667 17.6959 782.712 17.02 782.898 16.5146C783.086 16.0066 783.398 15.7059 783.76 15.6377Z" fill="#E1E1E1" stroke="#373737" stroke-width="0.504625"/>
<path d="M794.354 21.1394L794.741 21.2273C794.74 21.2338 794.736 21.2397 794.734 21.2458L794.737 21.2468C794.734 21.258 794.729 21.2682 794.725 21.2781C794.714 21.3064 794.703 21.3297 794.695 21.3425C794.679 21.369 794.659 21.3955 794.637 21.4216C794.591 21.4746 794.528 21.5338 794.445 21.5935H794.444L793.354 22.3767C793.34 22.3862 793.338 22.3954 793.338 22.3992C793.338 22.4015 793.337 22.4038 793.338 22.406C793.338 22.408 793.339 22.4115 793.343 22.4158C793.352 22.4272 793.372 22.4382 793.397 22.4382C793.415 22.4382 793.43 22.4326 793.441 22.4246L794.532 21.6414L794.651 21.5457C794.756 21.4516 794.817 21.3629 794.846 21.2888C794.88 21.2006 794.872 21.126 794.825 21.0525L794.793 21.0105C794.711 20.9218 794.582 20.8904 794.421 20.8621L794.306 20.8396C794.272 20.8318 794.216 20.818 794.166 20.7917L794.162 20.7898C794.065 20.7365 794.001 20.6413 793.968 20.5251C793.936 20.4135 793.926 20.2676 793.941 20.075L794.089 18.1472L794.081 18.1287C794.073 18.1198 794.057 18.1106 794.034 18.1091L794.024 18.1082C793.986 18.1043 793.971 18.1298 793.97 18.1433V18.1443L793.821 20.073C793.813 20.1793 793.802 20.3373 793.838 20.4929C793.872 20.6422 793.944 20.7693 794.092 20.8474H794.093C794.179 20.8936 794.277 20.9128 794.392 20.9333H794.391C794.421 20.9387 794.442 20.9414 794.454 20.9421C794.462 20.9426 794.45 20.9409 794.428 20.9451C794.42 20.9465 794.405 20.9524 794.386 20.9607L794.354 21.1394ZM794.354 21.1394L794.25 21.116C794.251 21.112 794.252 21.1084 794.253 21.1052C794.274 21.0382 794.32 20.9961 794.354 20.9744C794.365 20.968 794.376 20.9656 794.385 20.9617L794.354 21.1394Z" fill="#E1E1E1" stroke="#373737" stroke-width="0.504625"/>
<path d="M789.637 22.3782C789.986 22.5458 790.357 22.717 790.755 22.8801C791.106 23.0243 791.449 23.1503 791.777 23.2659C791.362 23.7155 790.656 23.8328 790.165 23.5549C789.763 23.327 789.544 22.8538 789.637 22.3782Z" fill="#E1E1E1" stroke="#373737" stroke-width="0.504625"/>
</svg>
