<svg width="840" height="78" viewBox="0 0 840 78" fill="none" xmlns="http://www.w3.org/2000/svg">
<path d="M376.323 12.1276L385.333 16.395C385.59 16.517 385.887 16.5244 386.151 16.4154L396.508 12.1276M376.323 12.1276V15.0138C376.323 15.3927 376.535 15.7397 376.872 15.9123L379.155 17.0804L382.705 18.8971L385.307 20.2282C385.579 20.3675 385.899 20.3759 386.178 20.251L389.527 18.7535L392.559 17.3975L395.911 15.8982C396.274 15.7357 396.508 15.3749 396.508 14.9769V12.1276M376.323 12.1276C376.323 12.0312 376.381 11.9442 376.47 11.9073L385.714 8.0664C385.959 7.96457 386.234 7.96337 386.48 8.06306L396.508 12.1276M385.737 28.0925L395.549 23.3467C395.892 23.1808 396.113 22.8357 396.119 22.4546L396.157 20.0914C396.164 19.6774 395.649 19.3479 395.273 19.5222C393.469 20.3601 389.592 22.1206 389.592 22.1206L385.737 23.8523M385.737 28.0925L377.055 23.6287C376.727 23.4598 376.517 23.125 376.508 22.7558L376.463 20.939C376.445 20.1812 377.237 19.6742 377.917 20.0086L385.737 23.8523M385.737 28.0925V23.8523" stroke="#E9E9E9" stroke-width="2.0185"/>
<text fill="white" xml:space="preserve" style="white-space: pre" font-family="Manrope" font-size="26" font-weight="bold" letter-spacing="0em"><tspan x="550.418" y="27.958"> Collaborativa</tspan></text>
<text fill="white" xml:space="preserve" style="white-space: pre" font-family="Manrope" font-size="26" font-weight="300" letter-spacing="0em"><tspan x="415.645" y="27.958">Intelligenza</tspan></text>
<text fill="white" xml:space="preserve" style="white-space: pre" font-family="Manrope" font-size="32" font-weight="600" letter-spacing="0em"><tspan x="459.487" y="69.1325">Presenza Digitale</tspan></text>
<line opacity="0.3" x1="735.271" y1="3.53235" x2="735.271" y2="69.1336" stroke="white" stroke-width="1.00925"/>
<path d="M775.218 42.8447C777.351 42.9452 779.797 43.9217 781.728 44.8896C782.689 45.3716 783.515 45.8479 784.101 46.2031C784.394 46.3807 784.627 46.5282 784.786 46.6309C784.835 46.663 784.878 46.6909 784.913 46.7139L784.553 58.373C784.505 58.375 784.451 58.3784 784.389 58.3809C784.131 58.3913 783.755 58.4058 783.287 58.4219C782.35 58.4541 781.042 58.4928 779.556 58.5186C776.581 58.5701 772.9 58.5698 770.056 58.3643C767.211 58.1588 765.738 57.7998 764.984 57.5039C764.608 57.3564 764.42 57.2286 764.332 57.1504C764.291 57.1143 764.272 57.0892 764.265 57.0791L764.187 56.8076L763.915 56.9473L761.956 57.9492L758.559 53.2568L764.193 46.0244C764.2 46.0207 764.209 46.0172 764.218 46.0127C764.269 45.9879 764.344 45.9517 764.441 45.9053C764.634 45.8124 764.916 45.6791 765.268 45.5205C765.972 45.2032 766.956 44.7824 768.076 44.3682C770.326 43.5354 773.085 42.7442 775.218 42.8447ZM764.269 57.0938C764.269 57.095 764.271 57.0963 764.271 57.0977V57.0996V57.1006L764.269 57.0938Z" fill="#21082B" stroke="white" stroke-width="0.504625"/>
<path d="M780.142 54.0038L779.949 59.0184C779.903 60.2294 778.813 61.2145 777.459 61.1962C775.49 61.1692 773.905 61.1421 772.319 61.1151C770.764 61.0886 769.208 61.0615 767.29 61.035L766.057 59.5956L765.969 59.494L765.836 59.5096C765.004 59.6046 764.378 59.6307 763.95 59.5946C763.735 59.5765 763.585 59.544 763.487 59.5048C763.44 59.4857 763.412 59.4673 763.396 59.454C763.388 59.4476 763.383 59.4431 763.381 59.4403C763.38 59.439 763.379 59.4379 763.379 59.4374V59.4354C763.379 59.4349 763.378 59.4339 763.378 59.4325C763.378 59.4287 763.378 59.4202 763.382 59.4061C763.389 59.3759 763.409 59.3276 763.455 59.2606C763.548 59.1253 763.718 58.951 763.98 58.7372C764.488 58.3243 765.294 57.8043 766.406 57.1737C767.283 57.5109 768.161 57.8473 769.038 58.1844L769.095 58.2069L769.154 58.2001C770.471 58.0628 771.403 57.9256 772.33 57.7889C773.256 57.6524 774.179 57.5167 775.484 57.3807L775.711 57.3573V54.0038H780.142Z" fill="#21082B" stroke="white" stroke-width="0.504625"/>
<path d="M757.535 43.3982C757.831 43.4419 758.035 43.7285 758.165 44.1248C758.225 44.3104 758.261 44.4951 758.282 44.6345C758.292 44.7035 758.298 44.7604 758.301 44.7996C758.303 44.8191 758.304 44.8347 758.305 44.8445C758.306 44.8492 758.306 44.8531 758.306 44.8552V44.8572L758.317 45.0613L758.52 45.0935C758.739 45.1276 758.963 45.2563 759.184 45.4597C759.404 45.6618 759.604 45.9221 759.775 46.1853C759.945 46.4473 760.082 46.7052 760.176 46.8982C760.223 46.9943 760.26 47.0737 760.284 47.1287C760.286 47.1339 760.287 47.1395 760.29 47.1443L759.273 52.3816H755.913L757.431 46.1697L757.444 46.1189L757.435 46.0671L757.434 46.0662C757.434 46.0649 757.434 46.0629 757.433 46.0603C757.432 46.0548 757.431 46.0458 757.429 46.0349C757.426 46.0131 757.422 45.981 757.416 45.9402C757.403 45.8578 757.387 45.7397 757.37 45.5984C757.336 45.3147 757.3 44.9402 757.292 44.573C757.283 44.1999 757.304 43.8575 757.372 43.6248C757.405 43.5077 757.444 43.4452 757.473 43.4167C757.49 43.3996 757.502 43.3934 757.535 43.3982Z" fill="#21082B" stroke="white" stroke-width="0.504625"/>
<path d="M821.379 39.4814C821.368 39.5519 821.352 39.6421 821.333 39.75C821.283 40.0425 821.209 40.4675 821.112 40.9971C820.918 42.0569 820.636 43.5352 820.28 45.208C819.568 48.557 818.565 52.6737 817.399 55.7773C816.245 58.8483 814.752 59.9233 813.6 60.2627C813.018 60.4343 812.504 60.4232 812.137 60.3701C811.954 60.3436 811.808 60.3071 811.709 60.2773C811.68 60.2685 811.655 60.259 811.634 60.252C810.82 59.0044 810.796 57.0464 811.289 54.7266C811.786 52.3839 812.795 49.7457 813.922 47.2627C815.049 44.7819 816.291 42.4658 817.251 40.7695C817.732 39.9217 818.142 39.2294 818.431 38.749C818.576 38.509 818.69 38.3212 818.768 38.1943L821.379 39.4814Z" fill="#21082B" stroke="white" stroke-width="0.504625"/>
<path d="M824.004 35.3855C825.066 35.4103 826.193 35.4799 827.192 35.6335C828.199 35.7886 829.044 36.0241 829.566 36.3601C829.689 36.4397 829.745 36.5042 829.767 36.5447C829.784 36.5753 829.783 36.5941 829.775 36.6169C829.763 36.6505 829.73 36.7063 829.647 36.78C829.566 36.8524 829.451 36.9307 829.301 37.0125C828.696 37.3441 827.661 37.6649 826.527 37.947C825.4 38.2272 824.202 38.4634 823.283 38.6287C822.824 38.7112 822.435 38.7757 822.162 38.8201C822.025 38.8422 821.917 38.8594 821.843 38.8708C821.819 38.8746 821.798 38.8771 821.782 38.8796L819.029 38.1521L820.194 35.4578C820.24 35.4549 820.296 35.4517 820.361 35.448C820.566 35.4364 820.862 35.4214 821.225 35.408C821.951 35.381 822.943 35.3608 824.004 35.3855Z" fill="#21082B" stroke="white" stroke-width="0.504625"/>
<path d="M822.996 53.1099C825.9 53.173 828.681 53.3966 830.736 53.604C831.763 53.7077 832.609 53.8066 833.198 53.8804C833.487 53.9167 833.715 53.9472 833.871 53.9683L833.54 56.6538C833.462 56.67 833.359 56.6917 833.234 56.7173C832.922 56.7811 832.467 56.8732 831.9 56.9839C830.765 57.2053 829.177 57.503 827.368 57.8091C823.745 58.4219 819.243 59.0656 815.697 59.1968C812.176 59.3272 810.546 58.4271 809.788 57.563C809.406 57.1279 809.231 56.6872 809.152 56.3579C809.112 56.1931 809.096 56.0561 809.09 55.9624C809.089 55.9404 809.088 55.9208 809.087 55.9038C809.555 55.3374 810.265 54.8662 811.175 54.4829C812.118 54.0859 813.259 53.7886 814.529 53.5737C817.068 53.144 820.089 53.0467 822.996 53.1099Z" fill="#21082B" stroke="white" stroke-width="0.504625"/>
<path d="M837.151 54.1952C837.17 54.2324 837.193 54.2765 837.219 54.328C837.306 54.5007 837.429 54.7508 837.576 55.0585C837.869 55.6744 838.252 56.5212 838.616 57.4442C838.98 58.3684 839.322 59.3643 839.533 60.2792C839.746 61.2029 839.816 62.0088 839.672 62.5721C839.639 62.7022 839.597 62.7715 839.564 62.8065C839.536 62.8361 839.505 62.8496 839.463 62.8524C839.353 62.8596 839.158 62.7922 838.873 62.5858C838.319 62.1859 837.62 61.4132 836.921 60.5389C836.228 59.6709 835.554 58.7237 835.051 57.9921C834.8 57.6265 834.592 57.3151 834.448 57.0956C834.376 56.9859 834.319 56.899 834.281 56.8397C834.27 56.8236 834.261 56.8097 834.253 56.7977L833.978 54.1776L837.151 54.1952Z" fill="#21082B" stroke="white" stroke-width="0.504625"/>
<path d="M792.967 45.3827C794.144 45.3636 795.224 45.4931 796.048 45.8505C797.765 46.5959 800.471 47.9438 803.193 49.0536C804.561 49.6113 805.949 50.1157 807.245 50.4647C808.538 50.8128 809.755 51.0106 810.778 50.9432C811.681 50.8838 812.546 51.2401 813.348 51.8397C814.15 52.4394 814.872 53.2696 815.48 54.119C816.088 54.9669 816.575 55.8249 816.911 56.4716C817.079 56.7943 817.208 57.0635 817.296 57.2518C817.34 57.346 817.373 57.4206 817.396 57.4706C817.4 57.4815 817.404 57.4913 817.408 57.4999V62.5721C817.392 62.573 817.374 62.5741 817.356 62.5751C817.167 62.5852 816.889 62.5992 816.532 62.6151C815.818 62.647 814.789 62.6867 813.532 62.7157C811.017 62.7736 807.59 62.7908 803.939 62.6278C800.288 62.4647 796.418 62.1216 793.018 61.4608C789.669 60.8102 786.813 59.8559 785.056 58.493L785.417 46.7675C785.461 46.7537 785.513 46.7379 785.573 46.7196C785.783 46.6555 786.087 46.5653 786.463 46.4618C787.215 46.2546 788.253 45.9934 789.398 45.7802C790.545 45.5667 791.793 45.4017 792.967 45.3827Z" fill="#21082B" stroke="white" stroke-width="0.504625"/>
<path d="M761.26 34.3632C764.734 33.4465 768.776 35.6749 769.573 39.4589L769.601 39.5878L769.721 39.6385C772.033 40.6225 773.79 42.0373 774.871 43.5634C775.953 45.0908 776.35 46.7136 775.986 48.1346C775.727 49.1492 775.037 50.2362 774.149 51.0243C773.258 51.8151 772.211 52.2685 771.241 52.1073C770.323 51.9547 769.406 51.2408 768.784 50.0995C768.165 48.9633 767.85 47.4221 768.128 45.6669L768.2 45.2118L767.778 45.3964C765.444 46.4175 763.025 46.3963 761.048 45.7059C759.066 45.0139 757.549 43.6598 756.978 42.038C755.992 39.2379 757.695 35.3046 761.26 34.3632Z" fill="#21082B" stroke="white" stroke-width="0.504625"/>
<path d="M767.9 45.5049C767.897 45.5394 767.893 45.5891 767.888 45.6514C767.877 45.7831 767.859 45.9725 767.833 46.2021C767.78 46.6626 767.692 47.2826 767.556 47.9229C767.419 48.5649 767.235 49.2171 766.992 49.748C766.743 50.2893 766.456 50.6545 766.14 50.7949C765.8 50.9462 765.543 50.9188 765.339 50.8184C765.123 50.7117 764.936 50.5078 764.781 50.2568C764.627 50.0083 764.517 49.7339 764.445 49.5186C764.409 49.4119 764.384 49.321 764.368 49.2578C764.359 49.2263 764.353 49.2019 764.349 49.1855C764.347 49.1774 764.346 49.1708 764.345 49.167L764.34 49.1475L764.335 49.1328L763.033 45.3496L766.468 42.1445L767.9 45.5049Z" fill="#21082B" stroke="white" stroke-width="0.504625"/>
<path d="M759.02 37.6583C759.106 37.6482 759.196 37.6745 759.326 37.7833C759.463 37.8982 759.608 38.0744 759.803 38.3136C760.185 38.7811 760.702 39.4192 761.557 39.9747C762.788 40.7736 764.107 41.0064 765.043 41.0763C765.424 41.1197 765.765 41.1953 766.039 41.3116C766.312 41.4281 766.501 41.5781 766.606 41.7609C766.778 42.0591 766.783 42.5431 766.587 43.1515C766.395 43.7482 766.026 44.4141 765.531 45.0314C764.531 46.2787 763.088 47.25 761.685 47.1417C760.509 47.0509 759.482 46.3351 758.78 45.2159C758.077 44.0965 757.709 42.584 757.856 40.9454C757.925 40.1774 758.066 39.3443 758.285 38.6984C758.394 38.3746 758.519 38.1115 758.654 37.9288C758.79 37.7447 758.914 37.6709 759.02 37.6583Z" fill="#21082B" stroke="white" stroke-width="0.504625"/>
<path d="M767.293 38.5573C767.498 38.5682 767.711 38.7122 767.876 39.0133C768.04 39.3112 768.136 39.7318 768.106 40.2028C768.076 40.6733 767.929 41.0816 767.729 41.361C767.526 41.6438 767.294 41.7646 767.088 41.7535C766.884 41.7425 766.671 41.5986 766.505 41.2975C766.342 40.9995 766.247 40.5788 766.277 40.108C766.307 39.6374 766.453 39.2292 766.654 38.9498C766.857 38.6673 767.088 38.5463 767.293 38.5573Z" fill="#21082B" stroke="white" stroke-width="0.504625"/>
<path d="M763.534 43.6334H763.535C763.554 43.6394 763.564 43.6499 763.568 43.6569L763.57 43.6725C763.349 44.2987 762.716 44.7919 761.989 44.8795C761.984 44.8798 761.981 44.8803 761.978 44.8805C761.976 44.8806 761.975 44.8814 761.974 44.8815C761.954 44.8815 761.938 44.8743 761.927 44.8658C761.917 44.8577 761.915 44.85 761.915 44.8463C761.914 44.8422 761.914 44.8365 761.92 44.8287C761.928 44.8202 761.942 44.8099 761.964 44.8073L761.963 44.8063C762.583 44.7329 763.16 44.3243 763.407 43.7731L763.452 43.6617C763.454 43.6561 763.461 43.6455 763.478 43.6373C763.496 43.6291 763.516 43.6281 763.534 43.6334Z" fill="#21082B" stroke="white" stroke-width="0.504625"/>
<path d="M760.515 43.7059L761.278 44.1083C761.293 44.1165 761.299 44.1264 761.3 44.1317C761.301 44.1346 761.302 44.1375 761.301 44.1395L761.297 44.1483C761.291 44.159 761.272 44.1736 761.242 44.1737L761.203 44.1649L760.415 43.7489C760.247 43.6606 760.18 43.5732 760.156 43.5165L760.515 43.7059ZM760.766 43.0233C760.748 43.0896 760.713 43.147 760.65 43.1923H760.649C760.618 43.2144 760.584 43.2322 760.544 43.2469L760.149 43.3934C760.151 43.3873 760.151 43.3807 760.154 43.3749C760.192 43.2894 760.279 43.2507 760.408 43.2098H760.409C760.422 43.2055 760.443 43.1991 760.462 43.1923C760.474 43.1883 760.512 43.1749 760.543 43.1561L760.766 43.0233ZM760.386 41.3807C760.408 41.3767 760.428 41.381 760.442 41.3895C760.456 41.3978 760.46 41.407 760.461 41.412L760.751 42.6571C760.754 42.6662 760.755 42.6761 760.757 42.6864H760.636C760.635 42.6794 760.634 42.6722 760.632 42.6649V42.6639L760.343 41.4198L760.347 41.4032C760.35 41.3992 760.355 41.3946 760.361 41.3905L760.386 41.3807Z" fill="#21082B" stroke="white" stroke-width="0.504625"/>
<path d="M751.307 52.8866H764.812C765.359 52.8866 765.854 53.3293 765.946 53.9745L766.924 60.8553C767.039 61.6681 766.469 62.3495 765.79 62.3495H752.284C751.738 62.3495 751.241 61.907 751.149 61.2616L750.172 54.3817C750.056 53.569 750.627 52.8866 751.307 52.8866Z" fill="#21082B" stroke="white" stroke-width="0.504625"/>
<path d="M757.928 57.0093C758.505 57.0094 759.012 57.4471 759.076 57.9478C759.136 58.4177 758.782 58.8218 758.224 58.8218C757.648 58.8216 757.141 58.3851 757.077 57.8843C757.017 57.4143 757.371 57.0093 757.928 57.0093Z" fill="#21082B" stroke="white" stroke-width="0.504625"/>
<path d="M814.069 9.81262V34.3048H773.334V9.81262H814.069Z" fill="#21082B" stroke="white" stroke-width="0.504625"/>
<path d="M798.322 9.81299C799.315 10.206 800.243 10.648 801.07 11.1216C801.799 11.5388 802.377 11.9561 802.833 12.311L803.249 12.6431C805.184 14.2172 807.241 15.8917 808.707 17.4194C809.44 18.1839 810.013 18.8988 810.349 19.5347C810.687 20.1754 810.759 20.6859 810.586 21.0796C810.432 21.4299 810.093 21.6706 809.591 21.853C809.088 22.0357 808.474 22.1414 807.828 22.2593C807.196 22.3747 806.533 22.5018 805.981 22.7319C805.426 22.9638 804.946 23.3163 804.729 23.9048C804.564 24.3506 804.601 24.7948 804.716 25.2144C804.829 25.628 805.024 26.0448 805.194 26.4302C805.55 27.2373 805.786 27.9084 805.407 28.5483C805.174 28.9413 804.775 29.2118 804.121 29.4741C802.142 30.2667 798.379 30.7684 794.343 30.4419C790.434 30.1257 786.321 29.0366 783.357 26.7329L783.074 26.5063C782.976 26.4251 782.832 26.3039 782.646 26.1372H782.646C781.457 25.0705 778.818 22.3061 778.804 18.1968C778.804 18.0958 778.819 16.6997 779.357 14.9829C779.895 13.2663 780.949 11.2488 783.012 9.87158L783.011 9.87061C783.039 9.85288 783.069 9.83354 783.088 9.8208C783.092 9.81794 783.097 9.81559 783.101 9.81299H798.322Z" fill="#21082B" stroke="white" stroke-width="0.504625"/>
<path d="M784.189 26.1447C785.887 25.7923 787.37 25.9467 788.38 26.1495V26.1505C789.294 26.3794 790.469 26.7377 791.767 27.3243V27.3234C792.928 27.8499 794.176 28.535 795.406 29.4777V29.4786C796.06 29.9791 797.185 30.907 798.501 32.5236L798.502 32.5245C798.707 32.7756 798.921 33.0507 799.144 33.3488V33.3478C799.376 33.6613 799.602 33.9827 799.822 34.3116H775.306C775.727 33.5321 776.153 32.7986 776.581 32.1154L777.074 31.3458L777.081 31.3341C777.481 30.6451 779.68 27.0713 784.13 26.1525L784.146 26.1495H784.164L784.189 26.1447Z" fill="#21082B" stroke="white" stroke-width="0.504625"/>
<path d="M791.616 23.4567V29.5865L791.618 29.6022V29.6031C791.618 29.6045 791.619 29.607 791.619 29.61C791.62 29.6164 791.621 29.6271 791.622 29.6403C791.625 29.6665 791.628 29.7056 791.632 29.7555C791.639 29.8564 791.648 30.0016 791.649 30.1744C791.653 30.522 791.63 30.9748 791.528 31.4117C791.426 31.8519 791.251 32.2504 790.97 32.5172C790.699 32.7737 790.304 32.9336 789.699 32.8551C789.119 32.7798 788.489 32.3408 787.854 31.6578C787.227 30.983 786.63 30.108 786.11 29.234C785.592 28.3617 785.155 27.4986 784.849 26.8531C784.695 26.5306 784.574 26.2626 784.492 26.0758C784.451 25.9826 784.42 25.9095 784.398 25.86C784.395 25.8526 784.392 25.8458 784.39 25.8395L784.802 20.1696L791.616 23.4567Z" fill="#21082B" stroke="white" stroke-width="0.504625"/>
<path d="M793.494 14.855C793.866 14.6776 794.004 14.689 794.101 14.7368C794.202 14.7872 794.278 14.8948 794.324 15.1138C794.371 15.3356 794.374 15.6081 794.381 15.9185C794.388 16.2138 794.398 16.5449 794.471 16.8306C794.546 17.1227 794.699 17.4093 795.022 17.5591C795.422 17.7445 795.879 17.6557 796.254 17.5044C796.637 17.3498 796.992 17.107 797.225 16.8989C797.533 16.6246 797.739 16.3125 797.876 15.9985C798.194 18.7222 797.893 21.1235 797.21 22.9976C796.366 25.318 794.957 26.7867 793.458 27.1313C792.588 27.3313 791.543 27.1277 790.458 26.6421C789.378 26.1583 788.285 25.4062 787.337 24.5542C786.389 23.7018 785.596 22.7586 785.105 21.8989C784.86 21.4691 784.694 21.0684 784.62 20.7163C784.545 20.3634 784.564 20.0772 784.664 19.8589C784.701 19.7768 784.736 19.7333 784.801 19.6851C784.882 19.626 785.004 19.5626 785.233 19.4546C785.68 19.243 786.444 18.8976 787.797 18.1343C789.112 17.3931 790.114 16.8166 790.788 16.4253C791.124 16.2298 791.38 16.0805 791.55 15.98C791.636 15.9297 791.701 15.8912 791.744 15.8657C791.765 15.8532 791.781 15.8438 791.792 15.8374C791.797 15.8342 791.801 15.8312 791.804 15.8296C791.806 15.8288 791.806 15.828 791.807 15.8276H791.808C792.611 15.3485 793.125 15.0309 793.494 14.855Z" fill="#21082B" stroke="white" stroke-width="0.504625"/>
<path d="M783.761 15.6379C784.126 15.5692 784.547 15.7359 784.938 16.1409C785.276 16.4922 785.568 17.0021 785.741 17.6077L785.808 17.8733C785.965 18.5955 785.92 19.2712 785.734 19.7766C785.547 20.2847 785.235 20.5853 784.873 20.6536C784.508 20.7223 784.086 20.5556 783.696 20.1506C783.31 19.7491 782.984 19.1402 782.826 18.4182C782.668 17.6961 782.713 17.0202 782.899 16.5149C783.087 16.0069 783.399 15.7061 783.761 15.6379Z" fill="#21082B" stroke="white" stroke-width="0.504625"/>
<path d="M794.354 21.1396L794.742 21.2275C794.741 21.2341 794.737 21.2399 794.735 21.2461L794.738 21.2471C794.735 21.2582 794.73 21.2684 794.726 21.2783C794.715 21.3066 794.704 21.3299 794.696 21.3428C794.68 21.3692 794.66 21.3958 794.638 21.4219C794.592 21.4748 794.529 21.534 794.446 21.5938H794.445L793.354 22.377C793.341 22.3864 793.339 22.3956 793.339 22.3994C793.339 22.4017 793.338 22.404 793.339 22.4062C793.339 22.4082 793.34 22.4118 793.344 22.416C793.353 22.4274 793.373 22.4385 793.398 22.4385C793.416 22.4385 793.431 22.4328 793.442 22.4248L794.533 21.6416L794.652 21.5459C794.757 21.4518 794.818 21.3631 794.847 21.2891C794.881 21.2008 794.873 21.1263 794.826 21.0527L794.794 21.0107C794.712 20.922 794.583 20.8907 794.422 20.8623L794.307 20.8398C794.273 20.8321 794.217 20.8183 794.167 20.792L794.163 20.79C794.066 20.7368 794.002 20.6416 793.969 20.5254C793.937 20.4138 793.927 20.2678 793.942 20.0752L794.09 18.1475L794.082 18.1289C794.074 18.12 794.058 18.1109 794.035 18.1094L794.025 18.1084C793.987 18.1045 793.972 18.1301 793.971 18.1436V18.1445L793.822 20.0732C793.814 20.1796 793.803 20.3376 793.839 20.4932C793.873 20.6425 793.945 20.7695 794.093 20.8477H794.094C794.18 20.8939 794.278 20.9131 794.393 20.9336H794.392C794.422 20.9389 794.443 20.9416 794.455 20.9424C794.463 20.9429 794.451 20.9411 794.429 20.9453C794.421 20.9468 794.406 20.9526 794.387 20.9609L794.354 21.1396ZM794.354 21.1396L794.251 21.1162C794.252 21.1123 794.253 21.1086 794.254 21.1055C794.275 21.0385 794.32 20.9964 794.355 20.9746C794.366 20.9683 794.377 20.9658 794.386 20.9619L794.354 21.1396Z" fill="#21082B" stroke="white" stroke-width="0.504625"/>
<path d="M789.638 22.3784C789.987 22.5461 790.358 22.7172 790.756 22.8804C791.107 23.0246 791.45 23.1506 791.778 23.2661C791.363 23.7157 790.657 23.833 790.166 23.5552C789.764 23.3272 789.545 22.854 789.638 22.3784Z" fill="#21082B" stroke="white" stroke-width="0.504625"/>
</svg>
