<svg width="1564" height="143" viewBox="0 0 1564 143" fill="none" xmlns="http://www.w3.org/2000/svg">
<path d="M700.876 22.1254L717.561 30.028C718.038 30.2539 718.588 30.2676 719.076 30.0658L738.255 22.1254M700.876 22.1254V27.4703C700.876 28.1719 701.269 28.8144 701.893 29.1341L706.121 31.2972L712.695 34.6615L717.513 37.1265C718.017 37.3843 718.61 37.3999 719.127 37.1688L725.328 34.3955L730.942 31.8844L737.149 29.108C737.822 28.8071 738.255 28.1389 738.255 27.4019V22.1254M700.876 22.1254C700.876 21.9468 700.983 21.7858 701.148 21.7173L718.266 14.6046C718.72 14.416 719.23 14.4138 719.685 14.5984L738.255 22.1254M718.31 51.6899L736.48 42.9015C737.116 42.5942 737.524 41.9551 737.535 41.2494L737.607 36.8731C737.619 36.1065 736.665 35.4962 735.969 35.8191C732.628 37.3707 725.448 40.6309 725.448 40.6309L718.31 43.8378M718.31 51.6899L702.232 43.4237C701.624 43.111 701.235 42.491 701.218 41.8072L701.136 38.4429C701.101 37.0395 702.569 36.1006 703.829 36.7199L718.31 43.8378M718.31 51.6899V43.8378" stroke="#6C6363" stroke-width="3.73796"/>
<path d="M776.215 52V17.0127H779.009V52H776.215ZM805.53 52V38.3452C805.53 36.693 805.36 35.219 805.019 33.9232C804.695 32.6274 804.193 31.5259 803.513 30.6189C802.849 29.7118 802.007 29.0234 800.986 28.5536C799.982 28.0839 798.791 27.849 797.415 27.849C795.989 27.849 794.75 28.1001 793.697 28.6022C792.661 29.0882 791.802 29.7766 791.122 30.6674C790.458 31.5583 789.955 32.6193 789.615 33.8503C789.291 35.0652 789.129 36.3934 789.129 37.835L786.918 37.5677C786.918 34.7331 787.396 32.4006 788.352 30.5703C789.324 28.7237 790.628 27.3631 792.264 26.4884C793.9 25.5975 795.738 25.1521 797.779 25.1521C799.221 25.1521 800.508 25.3627 801.642 25.7838C802.792 26.2049 803.788 26.8043 804.631 27.5818C805.473 28.3431 806.169 29.2501 806.72 30.303C807.271 31.3397 807.676 32.4816 807.935 33.7288C808.21 34.9761 808.348 36.28 808.348 37.6406V52H805.53ZM786.311 52V25.7595H788.862V31.6636H789.129V52H786.311ZM828.563 52C827.17 52.3078 825.794 52.4211 824.433 52.3402C823.072 52.2754 821.857 51.9757 820.788 51.4412C819.736 50.8904 818.942 50.0482 818.407 48.9143C817.97 47.991 817.727 47.0597 817.678 46.1202C817.63 45.1807 817.606 44.1036 817.606 42.8887V18.4705H820.424V42.8401C820.424 43.9416 820.432 44.8568 820.448 45.5857C820.481 46.2984 820.651 46.9544 820.959 47.5537C821.542 48.6713 822.465 49.3517 823.728 49.5946C824.992 49.8214 826.603 49.7809 828.563 49.4731V52ZM811.726 28.3107V25.7595H828.563V28.3107H811.726ZM843.534 52.7289C841.023 52.7289 838.852 52.1701 837.022 51.0524C835.192 49.9186 833.774 48.3231 832.77 46.266C831.766 44.1926 831.264 41.7468 831.264 38.9283C831.264 36.0613 831.758 33.5912 832.746 31.5178C833.75 29.4283 835.159 27.8247 836.973 26.7071C838.804 25.5894 840.974 25.0306 843.485 25.0306C846.028 25.0306 848.199 25.6137 849.997 26.78C851.811 27.93 853.188 29.5984 854.127 31.7851C855.083 33.9718 855.536 36.604 855.488 39.6815H852.572V38.7097C852.491 35.1138 851.681 32.3763 850.142 30.4974C848.604 28.6184 846.401 27.6789 843.534 27.6789C840.569 27.6789 838.277 28.6589 836.658 30.6189C835.054 32.5626 834.252 35.3162 834.252 38.8798C834.252 42.4109 835.054 45.1483 836.658 47.0921C838.277 49.0358 840.553 50.0077 843.485 50.0077C845.51 50.0077 847.275 49.5379 848.782 48.5985C850.304 47.6428 851.511 46.2822 852.402 44.5166L854.929 45.6342C853.876 47.9019 852.353 49.6513 850.361 50.8823C848.369 52.1134 846.093 52.7289 843.534 52.7289ZM833.183 39.6815V37.1547H853.908V39.6815H833.183ZM861.348 52V16.2838H864.142V52H861.348ZM871.93 52V16.2838H874.725V52H871.93ZM882.513 20.4628V16.8912H885.307V20.4628H882.513ZM882.513 52V25.7595H885.307V52H882.513ZM902.814 64.3913C901.518 64.3913 900.222 64.197 898.926 63.8082C897.647 63.4357 896.448 62.8202 895.331 61.9617C894.213 61.1194 893.265 59.9936 892.488 58.5844L895.015 57.078C895.808 58.6978 896.934 59.856 898.392 60.5525C899.85 61.249 901.332 61.5972 902.838 61.5972C904.96 61.5972 906.637 61.2004 907.868 60.4067C909.115 59.6292 910.006 58.4548 910.54 56.8836C911.075 55.3287 911.342 53.393 911.342 51.0767V44.2007H911.634V25.7595H914.185V51.0767C914.185 51.8542 914.169 52.5993 914.136 53.312C914.104 54.0247 914.031 54.7374 913.918 55.4501C913.626 57.4749 913.027 59.1432 912.12 60.4553C911.212 61.7835 909.981 62.7716 908.426 63.4195C906.888 64.0674 905.017 64.3913 902.814 64.3913ZM902.692 52.7289C900.214 52.7289 898.117 52.1215 896.4 50.9066C894.699 49.6756 893.395 48.0153 892.488 45.9258C891.597 43.8201 891.151 41.4552 891.151 38.8312C891.151 36.2395 891.597 33.8989 892.488 31.8094C893.379 29.7199 894.658 28.0677 896.327 26.8529C898.011 25.638 900.044 25.0306 902.425 25.0306C904.871 25.0306 906.936 25.6299 908.621 26.8286C910.305 28.0272 911.577 29.6713 912.435 31.7608C913.294 33.8341 913.723 36.1909 913.723 38.8312C913.723 41.4552 913.294 43.812 912.435 45.9015C911.577 47.991 910.33 49.6513 908.694 50.8823C907.058 52.1134 905.057 52.7289 902.692 52.7289ZM902.862 50.0563C904.822 50.0563 906.45 49.5703 907.746 48.5985C909.058 47.6104 910.03 46.2741 910.662 44.5895C911.31 42.8887 911.634 40.9693 911.634 38.8312C911.634 36.6768 911.31 34.7574 910.662 33.0728C910.014 31.3883 909.042 30.0762 907.746 29.1368C906.45 28.1811 904.839 27.7032 902.911 27.7032C900.919 27.7032 899.275 28.1973 897.979 29.1853C896.683 30.1572 895.719 31.4854 895.088 33.17C894.456 34.8384 894.14 36.7254 894.14 38.8312C894.14 40.9531 894.464 42.8644 895.112 44.5652C895.776 46.2498 896.748 47.5861 898.027 48.5742C899.323 49.5622 900.935 50.0563 902.862 50.0563ZM931.799 52.7289C929.289 52.7289 927.118 52.1701 925.288 51.0524C923.457 49.9186 922.04 48.3231 921.036 46.266C920.031 44.1926 919.529 41.7468 919.529 38.9283C919.529 36.0613 920.023 33.5912 921.011 31.5178C922.016 29.4283 923.425 27.8247 925.239 26.7071C927.069 25.5894 929.24 25.0306 931.751 25.0306C934.294 25.0306 936.464 25.6137 938.262 26.78C940.076 27.93 941.453 29.5984 942.393 31.7851C943.348 33.9718 943.802 36.604 943.753 39.6815H940.838V38.7097C940.757 35.1138 939.947 32.3763 938.408 30.4974C936.869 28.6184 934.666 27.6789 931.799 27.6789C928.835 27.6789 926.543 28.6589 924.923 30.6189C923.32 32.5626 922.518 35.3162 922.518 38.8798C922.518 42.4109 923.32 45.1483 924.923 47.0921C926.543 49.0358 928.819 50.0077 931.751 50.0077C933.775 50.0077 935.541 49.5379 937.047 48.5985C938.57 47.6428 939.777 46.2822 940.667 44.5166L943.194 45.6342C942.141 47.9019 940.619 49.6513 938.627 50.8823C936.634 52.1134 934.358 52.7289 931.799 52.7289ZM921.449 39.6815V37.1547H942.174V39.6815H921.449ZM967.635 52V38.3452C967.635 36.693 967.465 35.219 967.124 33.9232C966.8 32.6274 966.298 31.5259 965.618 30.6189C964.954 29.7118 964.112 29.0234 963.091 28.5536C962.087 28.0839 960.896 27.849 959.519 27.849C958.094 27.849 956.855 28.1001 955.802 28.6022C954.765 29.0882 953.907 29.7766 953.227 30.6674C952.563 31.5583 952.06 32.6193 951.72 33.8503C951.396 35.0652 951.234 36.3934 951.234 37.835L949.023 37.5677C949.023 34.7331 949.501 32.4006 950.457 30.5703C951.429 28.7237 952.733 27.3631 954.369 26.4884C956.005 25.5975 957.843 25.1521 959.884 25.1521C961.326 25.1521 962.613 25.3627 963.747 25.7838C964.897 26.2049 965.893 26.8043 966.736 27.5818C967.578 28.3431 968.274 29.2501 968.825 30.303C969.376 31.3397 969.781 32.4816 970.04 33.7288C970.315 34.9761 970.453 36.28 970.453 37.6406V52H967.635ZM948.416 52V25.7595H950.967V31.6636H951.234V52H948.416ZM974.317 52V51.2468L992.248 28.505H975.531V25.7595H997.083V26.5856L979.152 49.2545H996.014V52H974.317ZM1008.53 52.7289C1006.5 52.7289 1004.82 52.3726 1003.47 51.6598C1002.15 50.9471 1001.15 50.0077 1000.49 48.8414C999.822 47.659 999.49 46.3793 999.49 45.0025C999.49 43.5123 999.798 42.2651 1000.41 41.2608C1001.05 40.2566 1001.88 39.4467 1002.92 38.8312C1003.97 38.2156 1005.13 37.754 1006.39 37.4462C1007.83 37.1223 1009.39 36.8469 1011.06 36.6202C1012.72 36.3772 1014.31 36.1666 1015.82 35.9884C1017.34 35.8103 1018.58 35.6564 1019.54 35.5268L1018.51 36.1342C1018.58 33.2996 1018.04 31.1939 1016.91 29.8171C1015.79 28.424 1013.82 27.7275 1010.98 27.7275C1008.99 27.7275 1007.35 28.1811 1006.05 29.0882C1004.77 29.979 1003.87 31.364 1003.35 33.2429L1000.49 32.4411C1001.09 30.06 1002.29 28.2297 1004.11 26.95C1005.92 25.6704 1008.25 25.0306 1011.08 25.0306C1013.49 25.0306 1015.52 25.5003 1017.15 26.4398C1018.81 27.3793 1019.96 28.6994 1020.6 30.4002C1020.88 31.0967 1021.07 31.9147 1021.16 32.8542C1021.26 33.7774 1021.31 34.7088 1021.31 35.6483V52H1018.76V45.0997L1019.71 45.3427C1018.91 47.7076 1017.53 49.5298 1015.55 50.8095C1013.57 52.0891 1011.23 52.7289 1008.53 52.7289ZM1008.67 50.1534C1010.46 50.1534 1012.02 49.8376 1013.36 49.2059C1014.71 48.558 1015.79 47.659 1016.62 46.5089C1017.46 45.3427 1018 43.974 1018.22 42.4028C1018.39 41.5281 1018.47 40.5805 1018.49 39.5601C1018.51 38.5396 1018.51 37.7864 1018.51 37.3005L1019.73 38.078C1018.68 38.2075 1017.41 38.3452 1015.94 38.491C1014.48 38.6368 1012.99 38.815 1011.47 39.0255C1009.95 39.2361 1008.57 39.5034 1007.34 39.8273C1006.58 40.0379 1005.81 40.3457 1005.03 40.7506C1004.27 41.1393 1003.63 41.682 1003.11 42.3785C1002.61 43.075 1002.36 43.9578 1002.36 45.0268C1002.36 45.8205 1002.55 46.6142 1002.94 47.4079C1003.35 48.2016 1004.01 48.8576 1004.93 49.376C1005.86 49.8943 1007.1 50.1534 1008.67 50.1534ZM1052.14 52.7289C1048.64 52.7289 1045.65 51.9676 1043.15 50.445C1040.66 48.9062 1038.74 46.7681 1037.39 44.0307C1036.07 41.2932 1035.4 38.1185 1035.4 34.5063C1035.4 30.8942 1036.07 27.7194 1037.39 24.982C1038.74 22.2446 1040.66 20.1146 1043.15 18.592C1045.65 17.0532 1048.64 16.2838 1052.14 16.2838C1056.18 16.2838 1059.54 17.2961 1062.23 19.3209C1064.91 21.3294 1066.8 24.0425 1067.89 27.4603L1061.98 29.0882C1061.3 26.8043 1060.14 25.0225 1058.51 23.7429C1056.87 22.447 1054.75 21.7991 1052.14 21.7991C1049.79 21.7991 1047.83 22.3256 1046.26 23.3784C1044.71 24.4313 1043.53 25.9134 1042.74 27.8247C1041.96 29.7199 1041.57 31.9471 1041.55 34.5063C1041.55 37.0656 1041.94 39.3009 1042.72 41.2122C1043.51 43.1074 1044.69 44.5814 1046.26 45.6342C1047.83 46.6871 1049.79 47.2135 1052.14 47.2135C1054.75 47.2135 1056.87 46.5656 1058.51 45.2698C1060.14 43.974 1061.3 42.1922 1061.98 39.9245L1067.89 41.5524C1066.8 44.9701 1064.91 47.6914 1062.23 49.7161C1059.54 51.7246 1056.18 52.7289 1052.14 52.7289ZM1084.81 52.7289C1082.19 52.7289 1079.9 52.1377 1077.94 50.9552C1075.98 49.7728 1074.45 48.1449 1073.37 46.0716C1072.3 43.9821 1071.76 41.5848 1071.76 38.8798C1071.76 36.1261 1072.31 33.7126 1073.42 31.6393C1074.52 29.566 1076.05 27.9462 1078.01 26.78C1079.97 25.6137 1082.24 25.0306 1084.81 25.0306C1087.45 25.0306 1089.75 25.6218 1091.71 26.8043C1093.67 27.9867 1095.19 29.6227 1096.28 31.7122C1097.36 33.7855 1097.91 36.1747 1097.91 38.8798C1097.91 41.601 1097.36 44.0064 1096.25 46.0959C1095.17 48.1692 1093.65 49.7971 1091.69 50.9795C1089.73 52.1458 1087.44 52.7289 1084.81 52.7289ZM1084.81 47.2378C1087.14 47.2378 1088.88 46.4603 1090.01 44.9053C1091.14 43.3504 1091.71 41.3418 1091.71 38.8798C1091.71 36.3367 1091.14 34.312 1089.99 32.8056C1088.84 31.283 1087.11 30.5217 1084.81 30.5217C1083.24 30.5217 1081.94 30.878 1080.92 31.5907C1079.92 32.2872 1079.17 33.2672 1078.69 34.5306C1078.2 35.7779 1077.96 37.2276 1077.96 38.8798C1077.96 41.4228 1078.53 43.4556 1079.68 44.9782C1080.85 46.4846 1082.56 47.2378 1084.81 47.2378ZM1103.75 52V16.2838H1109.6V52H1103.75ZM1117.37 52V16.2838H1123.22V52H1117.37ZM1137.84 52.7289C1135.94 52.7289 1134.34 52.3726 1133.03 51.6598C1131.71 50.9309 1130.72 49.9672 1130.04 48.7685C1129.37 47.5699 1129.04 46.2498 1129.04 44.8082C1129.04 43.5447 1129.25 42.4109 1129.67 41.4066C1130.09 40.3861 1130.74 39.5115 1131.62 38.7826C1132.49 38.0375 1133.63 37.43 1135.02 36.9603C1136.07 36.6202 1137.3 36.3124 1138.71 36.037C1140.14 35.7617 1141.68 35.5106 1143.33 35.2838C1145 35.0409 1146.74 34.7817 1148.55 34.5063L1146.46 35.6969C1146.48 33.8827 1146.07 32.5464 1145.25 31.6879C1144.42 30.8294 1143.03 30.4002 1141.07 30.4002C1139.89 30.4002 1138.74 30.6755 1137.64 31.2263C1136.54 31.777 1135.77 32.7246 1135.33 34.069L1129.99 32.3925C1130.64 30.1734 1131.87 28.3916 1133.68 27.0472C1135.51 25.7028 1137.97 25.0306 1141.07 25.0306C1143.4 25.0306 1145.45 25.4112 1147.22 26.1725C1149 26.9338 1150.32 28.1811 1151.18 29.9142C1151.65 30.8375 1151.93 31.7851 1152.03 32.757C1152.12 33.7126 1152.17 34.7574 1152.17 35.8912V52H1147.05V46.3146L1147.9 47.2378C1146.71 49.133 1145.33 50.526 1143.74 51.4169C1142.17 52.2916 1140.2 52.7289 1137.84 52.7289ZM1139 48.0639C1140.33 48.0639 1141.47 47.8291 1142.4 47.3593C1143.34 46.8896 1144.09 46.3146 1144.64 45.6342C1145.21 44.9539 1145.59 44.3141 1145.78 43.7148C1146.09 42.9697 1146.26 42.1193 1146.29 41.1636C1146.34 40.1918 1146.36 39.4062 1146.36 38.8069L1148.16 39.3414C1146.4 39.6168 1144.88 39.8597 1143.62 40.0703C1142.36 40.2809 1141.27 40.4833 1140.36 40.6777C1139.46 40.8559 1138.65 41.0584 1137.96 41.2851C1137.28 41.5281 1136.7 41.8116 1136.23 42.1355C1135.76 42.4595 1135.4 42.832 1135.14 43.2532C1134.9 43.6743 1134.78 44.1683 1134.78 44.7353C1134.78 45.3832 1134.94 45.9582 1135.26 46.4603C1135.59 46.9463 1136.06 47.335 1136.67 47.6266C1137.3 47.9181 1138.08 48.0639 1139 48.0639ZM1171.11 52.7289C1168.55 52.7289 1166.4 52.1215 1164.67 50.9066C1162.94 49.6918 1161.63 48.0396 1160.76 45.9501C1159.88 43.8444 1159.44 41.4876 1159.44 38.8798C1159.44 36.2395 1159.88 33.8746 1160.76 31.7851C1161.63 29.6956 1162.91 28.0515 1164.6 26.8529C1166.3 25.638 1168.39 25.0306 1170.89 25.0306C1173.37 25.0306 1175.51 25.638 1177.33 26.8529C1179.16 28.0515 1180.58 29.6956 1181.58 31.7851C1182.58 33.8584 1183.09 36.2233 1183.09 38.8798C1183.09 41.5038 1182.59 43.8606 1181.6 45.9501C1180.62 48.0396 1179.22 49.6918 1177.42 50.9066C1175.63 52.1215 1173.52 52.7289 1171.11 52.7289ZM1158.45 52V17.0127H1164.35V33.5831H1163.62V52H1158.45ZM1170.21 47.4808C1171.73 47.4808 1172.99 47.1002 1173.97 46.3389C1174.96 45.5776 1175.69 44.549 1176.16 43.2532C1176.65 41.9411 1176.89 40.4833 1176.89 38.8798C1176.89 37.2924 1176.65 35.8508 1176.16 34.5549C1175.68 33.2429 1174.92 32.2062 1173.9 31.4449C1172.88 30.6674 1171.59 30.2787 1170.01 30.2787C1168.52 30.2787 1167.31 30.6431 1166.37 31.3721C1165.43 32.0848 1164.73 33.089 1164.28 34.3849C1163.84 35.6645 1163.62 37.1628 1163.62 38.8798C1163.62 40.5805 1163.84 42.0788 1164.28 43.3747C1164.73 44.6705 1165.44 45.6828 1166.39 46.4117C1167.37 47.1245 1168.64 47.4808 1170.21 47.4808ZM1200.03 52.7289C1197.41 52.7289 1195.11 52.1377 1193.15 50.9552C1191.19 49.7728 1189.67 48.1449 1188.59 46.0716C1187.52 43.9821 1186.98 41.5848 1186.98 38.8798C1186.98 36.1261 1187.53 33.7126 1188.64 31.6393C1189.74 29.566 1191.27 27.9462 1193.23 26.78C1195.19 25.6137 1197.46 25.0306 1200.03 25.0306C1202.67 25.0306 1204.97 25.6218 1206.93 26.8043C1208.89 27.9867 1210.41 29.6227 1211.5 31.7122C1212.58 33.7855 1213.13 36.1747 1213.13 38.8798C1213.13 41.601 1212.58 44.0064 1211.47 46.0959C1210.39 48.1692 1208.87 49.7971 1206.91 50.9795C1204.95 52.1458 1202.65 52.7289 1200.03 52.7289ZM1200.03 47.2378C1202.36 47.2378 1204.1 46.4603 1205.23 44.9053C1206.36 43.3504 1206.93 41.3418 1206.93 38.8798C1206.93 36.3367 1206.36 34.312 1205.21 32.8056C1204.06 31.283 1202.33 30.5217 1200.03 30.5217C1198.46 30.5217 1197.16 30.878 1196.14 31.5907C1195.14 32.2872 1194.39 33.2672 1193.91 34.5306C1193.42 35.7779 1193.18 37.2276 1193.18 38.8798C1193.18 41.4228 1193.75 43.4556 1194.9 44.9782C1196.07 46.4846 1197.78 47.2378 1200.03 47.2378ZM1218.48 52V25.7595H1223.66V32.1495L1223.02 31.3235C1223.35 30.4488 1223.78 29.6551 1224.31 28.9424C1224.86 28.2135 1225.52 27.6142 1226.28 27.1444C1226.93 26.7071 1227.64 26.3669 1228.42 26.124C1229.21 25.8648 1230.02 25.7109 1230.85 25.6623C1231.67 25.5975 1232.47 25.6299 1233.25 25.7595V31.2263C1232.47 30.9995 1231.58 30.9266 1230.56 31.0076C1229.55 31.0886 1228.64 31.3721 1227.83 31.858C1227.02 32.2953 1226.36 32.8542 1225.84 33.5345C1225.34 34.2148 1224.97 34.9923 1224.72 35.867C1224.48 36.7254 1224.36 37.6568 1224.36 38.6611V52H1218.48ZM1244.61 52.7289C1242.71 52.7289 1241.11 52.3726 1239.8 51.6598C1238.49 50.9309 1237.49 49.9672 1236.81 48.7685C1236.15 47.5699 1235.81 46.2498 1235.81 44.8082C1235.81 43.5447 1236.02 42.4109 1236.45 41.4066C1236.87 40.3861 1237.51 39.5115 1238.39 38.7826C1239.26 38.0375 1240.4 37.43 1241.79 36.9603C1242.84 36.6202 1244.08 36.3124 1245.48 36.037C1246.91 35.7617 1248.45 35.5106 1250.1 35.2838C1251.77 35.0409 1253.51 34.7817 1255.32 34.5063L1253.23 35.6969C1253.25 33.8827 1252.85 32.5464 1252.02 31.6879C1251.19 30.8294 1249.8 30.4002 1247.84 30.4002C1246.66 30.4002 1245.52 30.6755 1244.42 31.2263C1243.31 31.777 1242.54 32.7246 1242.11 34.069L1236.76 32.3925C1237.41 30.1734 1238.64 28.3916 1240.45 27.0472C1242.29 25.7028 1244.75 25.0306 1247.84 25.0306C1250.17 25.0306 1252.22 25.4112 1253.99 26.1725C1255.77 26.9338 1257.09 28.1811 1257.95 29.9142C1258.42 30.8375 1258.7 31.7851 1258.8 32.757C1258.9 33.7126 1258.94 34.7574 1258.94 35.8912V52H1253.82V46.3146L1254.67 47.2378C1253.49 49.133 1252.1 50.526 1250.51 51.4169C1248.94 52.2916 1246.97 52.7289 1244.61 52.7289ZM1245.78 48.0639C1247.1 48.0639 1248.24 47.8291 1249.18 47.3593C1250.12 46.8896 1250.86 46.3146 1251.41 45.6342C1251.98 44.9539 1252.36 44.3141 1252.55 43.7148C1252.86 42.9697 1253.03 42.1193 1253.06 41.1636C1253.11 40.1918 1253.14 39.4062 1253.14 38.8069L1254.94 39.3414C1253.17 39.6168 1251.66 39.8597 1250.39 40.0703C1249.13 40.2809 1248.04 40.4833 1247.14 40.6777C1246.23 40.8559 1245.43 41.0584 1244.73 41.2851C1244.05 41.5281 1243.48 41.8116 1243.01 42.1355C1242.54 42.4595 1242.17 42.832 1241.91 43.2532C1241.67 43.6743 1241.55 44.1683 1241.55 44.7353C1241.55 45.3832 1241.71 45.9582 1242.03 46.4603C1242.36 46.9463 1242.83 47.335 1243.44 47.6266C1244.08 47.9181 1244.85 48.0639 1245.78 48.0639ZM1280.65 52C1278.92 52.324 1277.22 52.4616 1275.55 52.413C1273.9 52.3806 1272.41 52.081 1271.1 51.5141C1269.79 50.9309 1268.79 50.0158 1268.11 48.7685C1267.51 47.6347 1267.2 46.4765 1267.17 45.2941C1267.13 44.1117 1267.12 42.7753 1267.12 41.2851V18.4705H1272.95V40.945C1272.95 41.9978 1272.96 42.9211 1272.97 43.7148C1273 44.5085 1273.17 45.1564 1273.48 45.6585C1274.07 46.6304 1275 47.173 1276.28 47.2864C1277.56 47.3998 1279.01 47.335 1280.65 47.0921V52ZM1262.35 30.3516V25.7595H1280.65V30.3516H1262.35ZM1286.78 21.7748V16.4053H1292.63V21.7748H1286.78ZM1286.78 52V25.7595H1292.63V52H1286.78ZM1307.01 52L1297.48 25.7595H1303.34L1309.95 44.7839L1316.53 25.7595H1322.41L1312.89 52H1307.01ZM1332.64 52.7289C1330.74 52.7289 1329.14 52.3726 1327.83 51.6598C1326.52 50.9309 1325.52 49.9672 1324.84 48.7685C1324.17 47.5699 1323.84 46.2498 1323.84 44.8082C1323.84 43.5447 1324.05 42.4109 1324.47 41.4066C1324.9 40.3861 1325.54 39.5115 1326.42 38.7826C1327.29 38.0375 1328.43 37.43 1329.82 36.9603C1330.87 36.6202 1332.1 36.3124 1333.51 36.037C1334.94 35.7617 1336.48 35.5106 1338.13 35.2838C1339.8 35.0409 1341.54 34.7817 1343.35 34.5063L1341.26 35.6969C1341.28 33.8827 1340.87 32.5464 1340.05 31.6879C1339.22 30.8294 1337.83 30.4002 1335.87 30.4002C1334.69 30.4002 1333.55 30.6755 1332.44 31.2263C1331.34 31.777 1330.57 32.7246 1330.14 34.069L1324.79 32.3925C1325.44 30.1734 1326.67 28.3916 1328.48 27.0472C1330.31 25.7028 1332.78 25.0306 1335.87 25.0306C1338.2 25.0306 1340.25 25.4112 1342.02 26.1725C1343.8 26.9338 1345.12 28.1811 1345.98 29.9142C1346.45 30.8375 1346.73 31.7851 1346.83 32.757C1346.92 33.7126 1346.97 34.7574 1346.97 35.8912V52H1341.85V46.3146L1342.7 47.2378C1341.51 49.133 1340.13 50.526 1338.54 51.4169C1336.97 52.2916 1335 52.7289 1332.64 52.7289ZM1333.8 48.0639C1335.13 48.0639 1336.27 47.8291 1337.21 47.3593C1338.15 46.8896 1338.89 46.3146 1339.44 45.6342C1340.01 44.9539 1340.39 44.3141 1340.58 43.7148C1340.89 42.9697 1341.06 42.1193 1341.09 41.1636C1341.14 40.1918 1341.17 39.4062 1341.17 38.8069L1342.96 39.3414C1341.2 39.6168 1339.68 39.8597 1338.42 40.0703C1337.16 40.2809 1336.07 40.4833 1335.16 40.6777C1334.26 40.8559 1333.46 41.0584 1332.76 41.2851C1332.08 41.5281 1331.5 41.8116 1331.03 42.1355C1330.56 42.4595 1330.2 42.832 1329.94 43.2532C1329.7 43.6743 1329.58 44.1683 1329.58 44.7353C1329.58 45.3832 1329.74 45.9582 1330.06 46.4603C1330.39 46.9463 1330.86 47.335 1331.47 47.6266C1332.1 47.9181 1332.88 48.0639 1333.8 48.0639Z" fill="#373737"/>
<path d="M858.453 127.69V84.6284H875.857C876.276 84.6284 876.794 84.6483 877.412 84.6882C878.03 84.7081 878.618 84.7679 879.176 84.8676C881.569 85.2464 883.562 86.0637 885.157 87.3197C886.772 88.5757 887.978 90.1605 888.775 92.0744C889.573 93.9882 889.971 96.1014 889.971 98.414C889.971 100.746 889.573 102.87 888.775 104.783C887.978 106.697 886.772 108.282 885.157 109.538C883.562 110.794 881.569 111.611 879.176 111.99C878.618 112.07 878.02 112.13 877.382 112.17C876.764 112.21 876.256 112.229 875.857 112.229H864.703V127.69H858.453ZM864.703 106.309H875.618C876.016 106.309 876.455 106.289 876.933 106.249C877.432 106.209 877.9 106.139 878.339 106.039C879.615 105.74 880.642 105.192 881.419 104.395C882.197 103.577 882.755 102.64 883.094 101.584C883.433 100.527 883.602 99.4706 883.602 98.414C883.602 97.3574 883.433 96.3107 883.094 95.2741C882.755 94.2175 882.197 93.2905 881.419 92.493C880.642 91.6757 879.615 91.1175 878.339 90.8184C877.9 90.6988 877.432 90.6191 876.933 90.5792C876.455 90.5393 876.016 90.5194 875.618 90.5194H864.703V106.309ZM895.949 127.69V95.3937H901.512V103.228L900.734 102.212C901.133 101.175 901.651 100.228 902.289 99.3709C902.927 98.4937 903.665 97.776 904.502 97.2178C905.319 96.6198 906.226 96.1612 907.223 95.8423C908.24 95.5033 909.277 95.304 910.333 95.2442C911.39 95.1644 912.406 95.2143 913.383 95.3937V101.255C912.327 100.976 911.15 100.896 909.855 101.016C908.579 101.135 907.403 101.544 906.326 102.242C905.309 102.9 904.502 103.697 903.904 104.634C903.326 105.571 902.907 106.618 902.648 107.774C902.389 108.91 902.259 110.116 902.259 111.392V127.69H895.949ZM932.818 128.587C929.608 128.587 926.787 127.889 924.355 126.494C921.943 125.078 920.059 123.114 918.703 120.603C917.368 118.071 916.7 115.14 916.7 111.811C916.7 108.282 917.358 105.222 918.673 102.63C920.009 100.039 921.863 98.0352 924.236 96.6198C926.608 95.2043 929.369 94.4966 932.519 94.4966C935.808 94.4966 938.609 95.2641 940.922 96.7992C943.234 98.3143 944.959 100.477 946.095 103.288C947.251 106.099 947.71 109.438 947.471 113.306H941.221V111.033C941.181 107.285 940.463 104.514 939.068 102.72C937.692 100.926 935.589 100.029 932.758 100.029C929.628 100.029 927.276 101.016 925.701 102.989C924.126 104.963 923.338 107.814 923.338 111.542C923.338 115.09 924.126 117.841 925.701 119.795C927.276 121.729 929.548 122.696 932.519 122.696C934.473 122.696 936.157 122.257 937.573 121.38C939.008 120.483 940.124 119.207 940.922 117.552L947.052 119.496C945.796 122.387 943.892 124.63 941.34 126.224C938.789 127.799 935.948 128.587 932.818 128.587ZM921.305 113.306V108.432H944.361V113.306H921.305ZM966.53 128.557C962.603 128.557 959.403 127.69 956.931 125.955C954.459 124.221 952.944 121.779 952.386 118.629L958.785 117.642C959.184 119.317 960.101 120.642 961.536 121.619C962.992 122.576 964.796 123.055 966.949 123.055C968.902 123.055 970.428 122.656 971.524 121.858C972.64 121.061 973.199 119.965 973.199 118.569C973.199 117.752 972.999 117.094 972.601 116.595C972.222 116.077 971.414 115.589 970.178 115.13C968.942 114.672 967.058 114.103 964.527 113.426C961.755 112.708 959.553 111.94 957.918 111.123C956.303 110.286 955.147 109.319 954.449 108.222C953.771 107.106 953.432 105.76 953.432 104.185C953.432 102.232 953.951 100.527 954.987 99.0719C956.024 97.6165 957.479 96.4902 959.353 95.6927C961.247 94.8953 963.46 94.4966 965.992 94.4966C968.464 94.4966 970.667 94.8853 972.601 95.6628C974.534 96.4403 976.099 97.5468 977.295 98.9821C978.492 100.398 979.209 102.062 979.449 103.976L973.049 105.142C972.83 103.587 972.102 102.361 970.866 101.464C969.63 100.567 968.025 100.079 966.052 99.9989C964.158 99.9191 962.623 100.238 961.446 100.956C960.27 101.654 959.682 102.62 959.682 103.856C959.682 104.574 959.901 105.182 960.34 105.681C960.799 106.179 961.676 106.657 962.972 107.116C964.267 107.574 966.181 108.123 968.713 108.761C971.424 109.458 973.577 110.236 975.172 111.093C976.767 111.93 977.903 112.937 978.581 114.113C979.279 115.27 979.628 116.675 979.628 118.33C979.628 121.52 978.462 124.022 976.129 125.836C973.817 127.65 970.617 128.557 966.53 128.557ZM1000.57 128.587C997.359 128.587 994.538 127.889 992.106 126.494C989.693 125.078 987.81 123.114 986.454 120.603C985.118 118.071 984.45 115.14 984.45 111.811C984.45 108.282 985.108 105.222 986.424 102.63C987.76 100.039 989.614 98.0352 991.986 96.6198C994.358 95.2043 997.12 94.4966 1000.27 94.4966C1003.56 94.4966 1006.36 95.2641 1008.67 96.7992C1010.98 98.3143 1012.71 100.477 1013.85 103.288C1015 106.099 1015.46 109.438 1015.22 113.306H1008.97V111.033C1008.93 107.285 1008.21 104.514 1006.82 102.72C1005.44 100.926 1003.34 100.029 1000.51 100.029C997.379 100.029 995.026 101.016 993.451 102.989C991.876 104.963 991.089 107.814 991.089 111.542C991.089 115.09 991.876 117.841 993.451 119.795C995.026 121.729 997.299 122.696 1000.27 122.696C1002.22 122.696 1003.91 122.257 1005.32 121.38C1006.76 120.483 1007.87 119.207 1008.67 117.552L1014.8 119.496C1013.55 122.387 1011.64 124.63 1009.09 126.224C1006.54 127.799 1003.7 128.587 1000.57 128.587ZM989.056 113.306V108.432H1012.11V113.306H989.056ZM1043.72 127.69V111.811C1043.72 110.555 1043.61 109.269 1043.39 107.953C1043.19 106.618 1042.79 105.382 1042.2 104.245C1041.62 103.109 1040.79 102.192 1039.71 101.494C1038.66 100.796 1037.27 100.447 1035.56 100.447C1034.44 100.447 1033.38 100.637 1032.39 101.016C1031.39 101.374 1030.51 101.963 1029.76 102.78C1029.02 103.597 1028.43 104.674 1027.99 106.01C1027.57 107.345 1027.36 108.97 1027.36 110.884L1023.48 109.419C1023.48 106.488 1024.02 103.906 1025.12 101.673C1026.22 99.4207 1027.79 97.6664 1029.85 96.4104C1031.9 95.1545 1034.38 94.5265 1037.29 94.5265C1039.52 94.5265 1041.4 94.8853 1042.91 95.603C1044.43 96.3207 1045.66 97.2677 1046.59 98.4439C1047.55 99.6002 1048.28 100.866 1048.78 102.242C1049.27 103.617 1049.61 104.963 1049.79 106.279C1049.97 107.594 1050.06 108.751 1050.06 109.747V127.69H1043.72ZM1021.02 127.69V95.3937H1026.62V104.724H1027.36V127.69H1021.02ZM1054.86 127.69V126.703L1073.19 100.986H1056.53V95.3937H1083.12V96.4104L1064.82 122.098H1082.22V127.69H1054.86ZM1096.99 128.587C1094.6 128.587 1092.6 128.148 1090.98 127.271C1089.37 126.374 1088.14 125.198 1087.3 123.742C1086.48 122.267 1086.08 120.652 1086.08 118.898C1086.08 117.263 1086.37 115.828 1086.94 114.592C1087.52 113.356 1088.38 112.309 1089.52 111.452C1090.65 110.575 1092.05 109.867 1093.7 109.329C1095.14 108.91 1096.76 108.541 1098.58 108.222C1100.39 107.903 1102.29 107.604 1104.29 107.325C1106.3 107.046 1108.29 106.767 1110.27 106.488L1108 107.744C1108.04 105.212 1107.5 103.338 1106.38 102.122C1105.28 100.886 1103.39 100.268 1100.7 100.268C1099 100.268 1097.45 100.667 1096.03 101.464C1094.62 102.242 1093.63 103.537 1093.07 105.352L1087.24 103.557C1088.04 100.786 1089.56 98.5834 1091.79 96.9487C1094.04 95.314 1097.03 94.4966 1100.76 94.4966C1103.65 94.4966 1106.16 94.995 1108.29 95.9918C1110.45 96.9686 1112.02 98.5236 1113.02 100.657C1113.54 101.713 1113.86 102.83 1113.98 104.006C1114.1 105.182 1114.16 106.448 1114.16 107.804V127.69H1108.62V120.303L1109.7 121.26C1108.36 123.732 1106.66 125.577 1104.59 126.793C1102.53 127.989 1100 128.587 1096.99 128.587ZM1098.1 123.473C1099.87 123.473 1101.4 123.164 1102.67 122.546C1103.95 121.908 1104.98 121.101 1105.75 120.124C1106.53 119.147 1107.04 118.13 1107.28 117.074C1107.62 116.117 1107.81 115.04 1107.85 113.844C1107.91 112.648 1107.94 111.691 1107.94 110.974L1109.97 111.721C1108 112.02 1106.2 112.289 1104.59 112.529C1102.97 112.768 1101.51 113.007 1100.19 113.246C1098.89 113.466 1097.74 113.735 1096.72 114.054C1095.86 114.353 1095.1 114.711 1094.42 115.13C1093.76 115.549 1093.23 116.057 1092.83 116.655C1092.46 117.253 1092.27 117.981 1092.27 118.838C1092.27 119.676 1092.48 120.453 1092.89 121.171C1093.31 121.868 1093.95 122.427 1094.81 122.845C1095.67 123.264 1096.76 123.473 1098.1 123.473ZM1133.89 127.69V84.6284H1147.38C1147.78 84.6284 1148.52 84.6383 1149.59 84.6583C1150.69 84.6782 1151.74 84.7579 1152.73 84.8975C1156.1 85.3161 1158.93 86.5223 1161.23 88.5158C1163.54 90.5094 1165.28 93.0413 1166.46 96.1114C1167.64 99.1616 1168.22 102.511 1168.22 106.159C1168.22 109.827 1167.64 113.196 1166.46 116.266C1165.28 119.317 1163.54 121.839 1161.23 123.832C1158.93 125.806 1156.1 127.002 1152.73 127.421C1151.74 127.56 1150.69 127.64 1149.59 127.66C1148.52 127.68 1147.78 127.69 1147.38 127.69H1133.89ZM1140.29 121.739H1147.38C1148.06 121.739 1148.87 121.719 1149.8 121.679C1150.74 121.639 1151.57 121.559 1152.28 121.44C1154.48 121.021 1156.25 120.074 1157.61 118.599C1158.98 117.104 1159.99 115.27 1160.63 113.097C1161.27 110.924 1161.58 108.611 1161.58 106.159C1161.58 103.627 1161.26 101.285 1160.6 99.1317C1159.94 96.9587 1158.92 95.1445 1157.55 93.6892C1156.19 92.2139 1154.44 91.277 1152.28 90.8782C1151.57 90.7387 1150.73 90.6589 1149.77 90.639C1148.84 90.5991 1148.04 90.5792 1147.38 90.5792H1140.29V121.739ZM1175.79 90.1007V84.0303H1182.03V90.1007H1175.79ZM1175.79 127.69V95.3937H1182.03V127.69H1175.79ZM1204.32 142.941C1202.59 142.941 1200.9 142.671 1199.27 142.133C1197.65 141.595 1196.18 140.797 1194.84 139.741C1193.51 138.704 1192.4 137.418 1191.52 135.883L1197.29 132.953C1197.99 134.328 1198.99 135.335 1200.29 135.973C1201.58 136.611 1202.95 136.93 1204.38 136.93C1206.16 136.93 1207.67 136.611 1208.93 135.973C1210.18 135.355 1211.13 134.418 1211.77 133.162C1212.43 131.906 1212.74 130.351 1212.72 128.497V119.466H1213.47V95.3937H1219V128.557C1219 129.414 1218.97 130.232 1218.92 131.009C1218.86 131.787 1218.75 132.564 1218.59 133.341C1218.13 135.514 1217.25 137.309 1215.95 138.724C1214.68 140.14 1213.04 141.196 1211.05 141.894C1209.08 142.592 1206.83 142.941 1204.32 142.941ZM1203.84 128.587C1200.83 128.587 1198.23 127.839 1196.04 126.344C1193.87 124.849 1192.18 122.815 1190.98 120.244C1189.81 117.652 1189.22 114.741 1189.22 111.512C1189.22 108.262 1189.82 105.362 1191.01 102.81C1192.21 100.238 1193.91 98.2146 1196.1 96.7394C1198.31 95.2442 1200.93 94.4966 1203.96 94.4966C1207.01 94.4966 1209.58 95.2442 1211.65 96.7394C1213.74 98.2146 1215.32 100.238 1216.37 102.81C1217.45 105.382 1217.99 108.282 1217.99 111.512C1217.99 114.741 1217.45 117.642 1216.37 120.214C1215.3 122.785 1213.71 124.829 1211.62 126.344C1209.53 127.839 1206.93 128.587 1203.84 128.587ZM1204.71 122.935C1206.76 122.935 1208.44 122.447 1209.73 121.47C1211.03 120.493 1211.98 119.147 1212.58 117.433C1213.17 115.718 1213.47 113.745 1213.47 111.512C1213.47 109.279 1213.16 107.305 1212.55 105.591C1211.95 103.876 1211.01 102.541 1209.73 101.584C1208.48 100.627 1206.87 100.148 1204.92 100.148C1202.85 100.148 1201.14 100.657 1199.81 101.673C1198.47 102.69 1197.47 104.056 1196.82 105.77C1196.18 107.485 1195.86 109.399 1195.86 111.512C1195.86 113.645 1196.18 115.579 1196.82 117.313C1197.47 119.028 1198.45 120.393 1199.75 121.41C1201.06 122.427 1202.72 122.935 1204.71 122.935ZM1228 90.1007V84.0303H1234.25V90.1007H1228ZM1228 127.69V95.3937H1234.25V127.69H1228ZM1261.71 127.69C1259.68 128.088 1257.68 128.258 1255.73 128.198C1253.78 128.138 1252.03 127.759 1250.5 127.062C1248.96 126.364 1247.8 125.267 1247.03 123.772C1246.33 122.437 1245.95 121.081 1245.89 119.705C1245.85 118.31 1245.83 116.735 1245.83 114.981V86.4226H1252.11V114.682C1252.11 115.977 1252.12 117.104 1252.14 118.061C1252.18 119.018 1252.39 119.825 1252.77 120.483C1253.49 121.719 1254.62 122.427 1256.18 122.606C1257.75 122.766 1259.6 122.696 1261.71 122.397V127.69ZM1239.64 100.418V95.3937H1261.71V100.418H1239.64ZM1277.64 128.587C1275.25 128.587 1273.24 128.148 1271.63 127.271C1270.01 126.374 1268.79 125.198 1267.95 123.742C1267.13 122.267 1266.72 120.652 1266.72 118.898C1266.72 117.263 1267.01 115.828 1267.59 114.592C1268.17 113.356 1269.03 112.309 1270.16 111.452C1271.3 110.575 1272.7 109.867 1274.35 109.329C1275.79 108.91 1277.41 108.541 1279.22 108.222C1281.04 107.903 1282.94 107.604 1284.94 107.325C1286.95 107.046 1288.94 106.767 1290.92 106.488L1288.64 107.744C1288.68 105.212 1288.15 103.338 1287.03 102.122C1285.93 100.886 1284.04 100.268 1281.35 100.268C1279.65 100.268 1278.1 100.667 1276.68 101.464C1275.27 102.242 1274.28 103.537 1273.72 105.352L1267.89 103.557C1268.69 100.786 1270.2 98.5834 1272.44 96.9487C1274.69 95.314 1277.68 94.4966 1281.41 94.4966C1284.3 94.4966 1286.81 94.995 1288.94 95.9918C1291.1 96.9686 1292.67 98.5236 1293.67 100.657C1294.19 101.713 1294.51 102.83 1294.63 104.006C1294.74 105.182 1294.8 106.448 1294.8 107.804V127.69H1289.27V120.303L1290.35 121.26C1289.01 123.732 1287.31 125.577 1285.24 126.793C1283.18 127.989 1280.65 128.587 1277.64 128.587ZM1278.75 123.473C1280.52 123.473 1282.05 123.164 1283.32 122.546C1284.6 121.908 1285.62 121.101 1286.4 120.124C1287.18 119.147 1287.69 118.13 1287.93 117.074C1288.27 116.117 1288.45 115.04 1288.49 113.844C1288.55 112.648 1288.58 111.691 1288.58 110.974L1290.62 111.721C1288.64 112.02 1286.85 112.289 1285.24 112.529C1283.62 112.768 1282.16 113.007 1280.84 113.246C1279.54 113.466 1278.39 113.735 1277.37 114.054C1276.51 114.353 1275.75 114.711 1275.07 115.13C1274.41 115.549 1273.88 116.057 1273.48 116.655C1273.1 117.253 1272.92 117.981 1272.92 118.838C1272.92 119.676 1273.12 120.453 1273.54 121.171C1273.96 121.868 1274.6 122.427 1275.46 122.845C1276.31 123.264 1277.41 123.473 1278.75 123.473ZM1303.17 127.69V83.7313H1309.42V127.69H1303.17ZM1332.72 128.587C1329.51 128.587 1326.69 127.889 1324.26 126.494C1321.85 125.078 1319.96 123.114 1318.61 120.603C1317.27 118.071 1316.6 115.14 1316.6 111.811C1316.6 108.282 1317.26 105.222 1318.58 102.63C1319.91 100.039 1321.77 98.0352 1324.14 96.6198C1326.51 95.2043 1329.27 94.4966 1332.42 94.4966C1335.71 94.4966 1338.51 95.2641 1340.83 96.7992C1343.14 98.3143 1344.86 100.477 1346 103.288C1347.16 106.099 1347.61 109.438 1347.37 113.306H1341.12V111.033C1341.08 107.285 1340.37 104.514 1338.97 102.72C1337.6 100.926 1335.49 100.029 1332.66 100.029C1329.53 100.029 1327.18 101.016 1325.6 102.989C1324.03 104.963 1323.24 107.814 1323.24 111.542C1323.24 115.09 1324.03 117.841 1325.6 119.795C1327.18 121.729 1329.45 122.696 1332.42 122.696C1334.38 122.696 1336.06 122.257 1337.48 121.38C1338.91 120.483 1340.03 119.207 1340.83 117.552L1346.96 119.496C1345.7 122.387 1343.8 124.63 1341.24 126.224C1338.69 127.799 1335.85 128.587 1332.72 128.587ZM1321.21 113.306V108.432H1344.26V113.306H1321.21Z" fill="#373737"/>
<line opacity="0.3" x1="1369.52" y1="6.5415" x2="1369.52" y2="128.025" stroke="#373737" stroke-width="1.86898"/>
<path d="M1430.27 82.1633C1434.44 80.6212 1439.55 79.1569 1443.5 79.343C1447.45 79.5292 1451.98 81.3376 1455.55 83.1301C1457.33 84.0226 1458.86 84.904 1459.95 85.5618C1460.49 85.8905 1460.92 86.1627 1461.21 86.3528C1461.31 86.4126 1461.39 86.4645 1461.45 86.5071L1460.78 108.1C1460.7 108.104 1460.59 108.108 1460.48 108.113C1460 108.132 1459.31 108.159 1458.44 108.189C1456.71 108.248 1454.28 108.32 1451.53 108.367C1446.02 108.463 1439.2 108.463 1433.94 108.082C1428.67 107.702 1425.94 107.038 1424.54 106.49C1423.85 106.216 1423.5 105.979 1423.34 105.834C1423.26 105.768 1423.23 105.723 1423.21 105.703L1423.07 105.199L1422.56 105.458L1418.94 107.313L1412.65 98.6243L1423.08 85.2317C1423.09 85.2248 1423.11 85.2176 1423.13 85.2092C1423.22 85.1634 1423.36 85.096 1423.54 85.01C1423.9 84.8381 1424.42 84.5919 1425.07 84.2981C1426.37 83.7104 1428.2 82.9307 1430.27 82.1633Z" fill="#E1E1E1" stroke="#373737" stroke-width="0.934491"/>
<path d="M1452.61 100.007L1452.26 109.293C1452.17 111.536 1450.15 113.359 1447.65 113.325C1444 113.275 1441.06 113.227 1438.13 113.177C1435.25 113.128 1432.37 113.078 1428.82 113.029L1426.53 110.362L1426.37 110.174L1426.12 110.202C1424.58 110.378 1423.42 110.427 1422.63 110.36C1422.23 110.327 1421.95 110.266 1421.77 110.193C1421.69 110.158 1421.63 110.124 1421.6 110.1C1421.59 110.088 1421.58 110.078 1421.58 110.073C1421.58 110.071 1421.57 110.069 1421.57 110.068C1421.57 110.067 1421.57 110.067 1421.57 110.066V110.06C1421.57 110.052 1421.57 110.037 1421.58 110.011C1421.59 109.955 1421.63 109.866 1421.72 109.742C1421.89 109.492 1422.2 109.169 1422.69 108.772C1423.63 108.008 1425.12 107.044 1427.18 105.876C1428.8 106.501 1430.43 107.124 1432.05 107.749L1432.16 107.79L1432.27 107.778C1434.71 107.524 1436.43 107.27 1438.15 107.017C1439.86 106.764 1441.57 106.511 1443.99 106.26L1444.41 106.216V100.007H1452.61Z" fill="#E1E1E1" stroke="#373737" stroke-width="0.934491"/>
<path d="M1410.75 80.3665C1411.3 80.4473 1411.68 80.9785 1411.92 81.7122C1412.03 82.0558 1412.1 82.3973 1412.13 82.6555C1412.15 82.7836 1412.16 82.8896 1412.17 82.9622C1412.17 82.9984 1412.18 83.0271 1412.18 83.0452C1412.18 83.054 1412.18 83.0608 1412.18 83.0647C1412.18 83.0665 1412.18 83.068 1412.18 83.0686L1412.2 83.4475L1412.57 83.5061C1412.98 83.5691 1413.39 83.8079 1413.8 84.1848C1414.21 84.559 1414.58 85.0403 1414.9 85.5276C1415.21 86.0126 1415.47 86.4905 1415.64 86.8479C1415.73 87.0262 1415.8 87.1738 1415.84 87.2756C1415.84 87.2858 1415.85 87.2957 1415.85 87.3049L1413.97 97.0032H1407.75L1410.56 85.4993L1410.58 85.4055L1410.56 85.3098L1410.56 85.3079C1410.56 85.3055 1410.56 85.3012 1410.56 85.2961C1410.56 85.286 1410.56 85.2703 1410.56 85.2502C1410.55 85.2099 1410.54 85.1504 1410.53 85.0745C1410.51 84.9217 1410.48 84.7025 1410.44 84.4407C1410.38 83.9154 1410.31 83.2231 1410.3 82.5432C1410.28 81.8521 1410.32 81.2184 1410.45 80.7874C1410.51 80.5703 1410.58 80.4534 1410.64 80.4006C1410.67 80.3689 1410.69 80.3576 1410.75 80.3665Z" fill="#E1E1E1" stroke="#373737" stroke-width="0.934491"/>
<path d="M1528.98 73.1135C1528.96 73.244 1528.93 73.4107 1528.9 73.6106C1528.8 74.1524 1528.66 74.94 1528.48 75.9211C1528.13 77.8836 1527.6 80.6206 1526.94 83.718C1525.63 89.9199 1523.77 97.5437 1521.61 103.291C1519.47 108.978 1516.71 110.968 1514.57 111.597C1513.49 111.915 1512.54 111.895 1511.86 111.797C1511.52 111.748 1511.25 111.679 1511.07 111.624C1511.02 111.607 1510.97 111.59 1510.93 111.576C1509.42 109.266 1509.38 105.64 1510.29 101.346C1511.22 97.0076 1513.08 92.122 1515.17 87.5237C1517.26 82.9295 1519.56 78.6407 1521.34 75.4993C1522.23 73.929 1522.98 72.6466 1523.52 71.7571C1523.79 71.3123 1524 70.9657 1524.15 70.7307V70.7297L1528.98 73.1135Z" fill="#E1E1E1" stroke="#373737" stroke-width="0.934491"/>
<path d="M1533.84 65.5276C1535.81 65.5734 1537.9 65.7039 1539.75 65.9885C1541.61 66.2756 1543.17 66.7121 1544.14 67.3342C1544.37 67.4816 1544.47 67.6001 1544.51 67.675C1544.54 67.732 1544.54 67.7656 1544.53 67.8079C1544.51 67.87 1544.44 67.9734 1544.29 68.1106C1544.14 68.2447 1543.93 68.3897 1543.65 68.5413C1542.53 69.1553 1540.61 69.7503 1538.51 70.2727C1536.43 70.7916 1534.21 71.2273 1532.51 71.5334C1531.65 71.6864 1530.94 71.8068 1530.43 71.8889C1530.18 71.93 1529.98 71.9615 1529.84 71.9827C1529.79 71.9895 1529.76 71.9956 1529.73 72.0002L1524.63 70.6526L1526.78 65.6624C1526.87 65.6571 1526.97 65.6516 1527.09 65.6448C1527.47 65.6232 1528.02 65.5955 1528.7 65.5706C1530.04 65.5206 1531.88 65.4818 1533.84 65.5276Z" fill="#E1E1E1" stroke="#373737" stroke-width="0.934491"/>
<path d="M1516.29 99.2109C1521 98.4151 1526.59 98.2356 1531.97 98.3525C1537.35 98.4694 1542.5 98.8816 1546.31 99.2656C1548.21 99.4576 1549.78 99.6427 1550.87 99.7793C1551.4 99.8466 1551.82 99.9023 1552.11 99.9414L1551.5 104.915C1551.36 104.945 1551.17 104.986 1550.93 105.033C1550.36 105.151 1549.51 105.32 1548.46 105.525C1546.36 105.935 1543.42 106.487 1540.07 107.054C1533.36 108.189 1525.02 109.381 1518.46 109.624C1511.94 109.866 1508.92 108.199 1507.51 106.599C1506.81 105.793 1506.48 104.977 1506.34 104.367C1506.26 104.062 1506.23 103.808 1506.22 103.635C1506.22 103.592 1506.22 103.554 1506.22 103.521C1507.08 102.474 1508.4 101.603 1510.08 100.894C1511.83 100.158 1513.94 99.6088 1516.29 99.2109Z" fill="#E1E1E1" stroke="#373737" stroke-width="0.934491"/>
<path d="M1558.19 100.361C1558.22 100.43 1558.26 100.512 1558.31 100.607C1558.47 100.927 1558.7 101.391 1558.97 101.961C1559.52 103.102 1560.23 104.669 1560.9 106.379C1561.57 108.09 1562.21 109.934 1562.6 111.628C1562.99 113.338 1563.12 114.831 1562.86 115.874C1562.8 116.115 1562.72 116.243 1562.66 116.308C1562.6 116.363 1562.55 116.388 1562.47 116.393C1562.27 116.407 1561.91 116.281 1561.38 115.898C1560.35 115.158 1559.05 113.728 1557.76 112.109C1556.48 110.502 1555.23 108.747 1554.3 107.392C1553.83 106.715 1553.45 106.139 1553.18 105.732C1553.05 105.529 1552.94 105.368 1552.87 105.259C1552.85 105.23 1552.84 105.205 1552.82 105.183L1552.31 100.329L1558.19 100.361Z" fill="#E1E1E1" stroke="#373737" stroke-width="0.934491"/>
<path d="M1476.36 84.0425C1478.55 84.0071 1480.55 84.2459 1482.07 84.9077C1485.25 86.2882 1490.26 88.7842 1495.3 90.8394C1497.84 91.8723 1500.41 92.8063 1502.8 93.4526C1505.2 94.0974 1507.45 94.4642 1509.35 94.3394C1511.02 94.2292 1512.62 94.8894 1514.11 95.9995C1515.59 97.1101 1516.93 98.6472 1518.06 100.22C1519.18 101.79 1520.08 103.379 1520.71 104.577C1521.02 105.175 1521.26 105.674 1521.42 106.023C1521.5 106.197 1521.56 106.334 1521.6 106.426C1521.61 106.446 1521.62 106.464 1521.63 106.48V115.875C1521.6 115.876 1521.56 115.879 1521.53 115.88C1521.18 115.899 1520.67 115.925 1520 115.955C1518.68 116.014 1516.78 116.087 1514.45 116.14C1509.79 116.247 1503.44 116.279 1496.68 115.977C1489.92 115.675 1482.76 115.04 1476.46 113.816C1470.26 112.611 1464.97 110.847 1461.71 108.324L1462.38 86.6069C1462.46 86.5814 1462.56 86.551 1462.67 86.5171C1463.06 86.3983 1463.62 86.2312 1464.32 86.0396C1465.71 85.6559 1467.64 85.1737 1469.76 84.7788C1471.88 84.3836 1474.19 84.0777 1476.36 84.0425Z" fill="#E1E1E1" stroke="#373737" stroke-width="0.934491"/>
<path d="M1417.65 63.6348C1424.08 61.9372 1431.57 66.0642 1433.04 73.0713L1433.09 73.3096L1433.32 73.4053C1437.6 75.2273 1440.85 77.8469 1442.85 80.6729C1444.86 83.5014 1445.59 86.5062 1444.92 89.1377C1444.44 91.0166 1443.16 93.0299 1441.52 94.4893C1439.87 95.9538 1437.93 96.7939 1436.13 96.4951C1434.43 96.2124 1432.73 94.8907 1431.58 92.7773C1430.44 90.6732 1429.85 87.8191 1430.37 84.5684L1430.5 83.7256L1429.72 84.0674C1425.4 85.9583 1420.92 85.9191 1417.26 84.6406C1413.59 83.3591 1410.78 80.8506 1409.72 77.8467C1407.89 72.6612 1411.05 65.3778 1417.65 63.6348Z" fill="#E1E1E1" stroke="#373737" stroke-width="0.934491"/>
<path d="M1429.94 84.2698C1429.94 84.3336 1429.93 84.4243 1429.92 84.5383C1429.9 84.7824 1429.87 85.134 1429.82 85.5598C1429.72 86.4124 1429.56 87.5599 1429.31 88.7454C1429.05 89.9345 1428.71 91.1429 1428.26 92.1262C1427.8 93.1284 1427.27 93.8046 1426.69 94.0647C1426.06 94.345 1425.58 94.2946 1425.2 94.1086C1424.8 93.9111 1424.46 93.5328 1424.17 93.0676C1423.88 92.6073 1423.68 92.1003 1423.55 91.7014C1423.48 91.5037 1423.43 91.3362 1423.4 91.219C1423.39 91.1606 1423.38 91.1146 1423.37 91.0842C1423.37 91.0691 1423.36 91.0572 1423.36 91.05C1423.36 91.0469 1423.36 91.0446 1423.36 91.0432V91.0413L1423.35 91.0139L1423.34 90.9866L1420.93 83.9807L1427.29 78.0452L1429.94 84.2698Z" fill="#E1E1E1" stroke="#373737" stroke-width="0.934491"/>
<path d="M1413.5 69.738C1413.66 69.7193 1413.83 69.7679 1414.07 69.9695C1414.32 70.1824 1414.59 70.5086 1414.95 70.9519C1415.66 71.8177 1416.62 72.9982 1418.2 74.0271C1420.48 75.5069 1422.92 75.9388 1424.66 76.0681C1425.36 76.1485 1425.99 76.2884 1426.5 76.5037C1427 76.7194 1427.35 76.9968 1427.55 77.3357C1427.87 77.8879 1427.88 78.7833 1427.51 79.9099C1427.16 81.015 1426.47 82.2481 1425.56 83.3914C1423.7 85.7012 1421.03 87.4992 1418.44 87.2986C1416.26 87.1305 1414.36 85.8064 1413.06 83.7341C1411.76 81.661 1411.07 78.8606 1411.34 75.8259C1411.47 74.4035 1411.73 72.8601 1412.14 71.6638C1412.34 71.064 1412.57 70.5774 1412.82 70.239C1413.08 69.8976 1413.31 69.7612 1413.5 69.738Z" fill="#E1E1E1" stroke="#373737" stroke-width="0.934491"/>
<path d="M1428.82 71.4019C1429.2 71.4222 1429.6 71.6881 1429.9 72.2456C1430.21 72.7972 1430.38 73.5757 1430.33 74.4478C1430.27 75.3194 1430 76.0758 1429.63 76.5933C1429.25 77.1169 1428.82 77.3412 1428.44 77.3208C1428.06 77.3004 1427.67 77.0344 1427.36 76.4771C1427.1 75.9942 1426.93 75.337 1426.93 74.5962L1426.94 74.2739C1426.99 73.4021 1427.27 72.6459 1427.64 72.1284C1428.01 71.6048 1428.44 71.3815 1428.82 71.4019Z" fill="#E1E1E1" stroke="#373737" stroke-width="0.934491"/>
<path d="M1421.86 80.801L1421.86 80.802C1421.9 80.8132 1421.92 80.8329 1421.92 80.8459C1421.93 80.8579 1421.93 80.866 1421.93 80.8743V80.8752C1421.52 82.0329 1420.35 82.9453 1419 83.1096C1418.99 83.1105 1418.99 83.1121 1418.98 83.1125C1418.97 83.1128 1418.97 83.1125 1418.97 83.1125C1418.93 83.1125 1418.9 83.1 1418.88 83.0842C1418.87 83.0692 1418.86 83.056 1418.86 83.0491C1418.86 83.0414 1418.86 83.0307 1418.87 83.0159C1418.88 83.0079 1418.89 82.9996 1418.9 82.9924L1418.95 82.9768C1420.18 82.8319 1421.31 81.9784 1421.71 80.8547C1421.71 80.8444 1421.72 80.825 1421.76 80.8098C1421.79 80.7943 1421.83 80.7912 1421.86 80.801Z" fill="#E1E1E1" stroke="#373737" stroke-width="0.934491"/>
<path d="M1416.27 80.937L1417.68 81.6821C1417.71 81.6977 1417.72 81.7165 1417.72 81.7261C1417.73 81.7313 1417.73 81.736 1417.72 81.7397C1417.72 81.7432 1417.72 81.7485 1417.72 81.7563C1417.71 81.7762 1417.67 81.8032 1417.61 81.8032C1417.59 81.8032 1417.56 81.798 1417.54 81.7866H1417.54L1416.08 81.0161C1415.77 80.8529 1415.65 80.6914 1415.6 80.5864L1416.27 80.937ZM1416.73 79.6743C1416.7 79.7963 1416.63 79.9015 1416.52 79.9849L1416.52 79.9868C1416.46 80.0278 1416.4 80.0591 1416.32 80.0864L1415.59 80.3599C1415.59 80.3474 1415.6 80.3354 1415.6 80.3237C1415.67 80.1656 1415.83 80.0947 1416.07 80.019L1416.07 80.0181C1416.1 80.0101 1416.13 79.9976 1416.17 79.9849C1416.19 79.9778 1416.26 79.9535 1416.32 79.9185L1416.73 79.6743ZM1416.13 76.6479C1416.15 76.6559 1416.16 76.664 1416.16 76.6714L1416.17 76.6899L1416.71 78.9946C1416.71 79.0116 1416.71 79.0301 1416.72 79.0493H1416.5C1416.49 79.0361 1416.49 79.0221 1416.49 79.0083V79.0073L1415.95 76.7036L1415.95 76.7026C1415.95 76.6957 1415.95 76.6869 1415.96 76.6733C1415.97 76.6587 1415.99 76.6387 1416.03 76.6304L1416.03 76.6313C1416.07 76.6235 1416.11 76.6319 1416.13 76.6479Z" fill="#E1E1E1" stroke="#373737" stroke-width="0.934491"/>
<path d="M1399.22 97.938H1424.23C1425.24 97.9381 1426.16 98.7578 1426.33 99.9526L1428.14 112.695C1428.35 114.2 1427.3 115.462 1426.04 115.462H1401.03C1400.01 115.462 1399.1 114.643 1398.93 113.448L1397.12 100.706C1396.9 99.2006 1397.96 97.938 1399.22 97.938Z" fill="#E1E1E1" stroke="#373737" stroke-width="0.934491"/>
<path d="M1411.48 105.573C1412.55 105.573 1413.48 106.384 1413.6 107.311C1413.71 108.181 1413.06 108.93 1412.03 108.93C1410.96 108.93 1410.02 108.12 1409.9 107.192C1409.79 106.322 1410.45 105.573 1411.48 105.573Z" fill="#E1E1E1" stroke="#373737" stroke-width="0.934491"/>
<path d="M1515.44 18.1719V63.5273H1440.01V18.1719H1515.44Z" fill="#E1E1E1" stroke="#373737" stroke-width="0.934491"/>
<path d="M1486.28 18.1724C1488.12 18.9003 1489.84 19.7192 1491.37 20.5962C1493.17 21.6263 1494.47 22.6558 1495.41 23.4136C1498.99 26.3288 1502.8 29.4291 1505.51 32.2583C1506.87 33.6739 1507.93 34.9977 1508.55 36.1753C1509.18 37.3617 1509.31 38.3066 1508.99 39.0356V39.0366C1508.71 39.6852 1508.08 40.1304 1507.15 40.4683C1506.22 40.8065 1505.08 41.003 1503.89 41.2212C1502.71 41.435 1501.49 41.669 1500.47 42.0952C1499.44 42.5246 1498.55 43.1782 1498.14 44.2681C1497.84 45.0936 1497.91 45.9169 1498.12 46.6938C1498.33 47.4597 1498.69 48.2312 1499.01 48.9448C1499.67 50.4394 1500.1 51.6816 1499.4 52.8667C1498.97 53.5947 1498.23 54.0956 1497.02 54.5815C1493.36 56.0494 1486.39 56.9782 1478.91 56.3735C1471.67 55.788 1464.06 53.7721 1458.57 49.5063L1458.04 49.0864C1457.95 49.0113 1457.84 48.9174 1457.71 48.8042L1457.25 48.4028L1456.81 47.9956C1454.46 45.778 1450.16 40.8327 1450.14 33.6978C1450.14 33.5107 1450.17 30.9251 1451.16 27.7456C1452.16 24.5665 1454.11 20.8302 1457.93 18.2798C1457.98 18.2471 1458.04 18.2104 1458.07 18.187C1458.08 18.1817 1458.09 18.1772 1458.09 18.1724H1486.28Z" fill="#E1E1E1" stroke="#373737" stroke-width="0.934491"/>
<path d="M1460.11 48.4165C1463.26 47.7627 1466.01 48.0525 1467.88 48.4292C1469.57 48.8531 1471.74 49.5155 1474.14 50.5991V50.6001C1476.16 51.5142 1478.31 52.6867 1480.45 54.2681L1480.88 54.5894C1482.09 55.5162 1484.18 57.2357 1486.61 60.23L1486.61 60.231C1486.99 60.6961 1487.39 61.2051 1487.8 61.7573C1488.23 62.3373 1488.65 62.932 1489.06 63.5405H1443.65C1444.73 61.5382 1445.84 59.7062 1446.93 58.0474L1446.94 58.0376L1446.95 58.0259C1447.69 56.7492 1451.76 50.1323 1460 48.4312L1460.02 48.4263H1460.06L1460.11 48.4165Z" fill="#E1E1E1" stroke="#373737" stroke-width="0.934491"/>
<path d="M1473.86 43.4385V54.79L1473.87 54.8193V54.8213C1473.87 54.8239 1473.87 54.829 1473.87 54.835C1473.87 54.8468 1473.87 54.8655 1473.87 54.8896C1473.88 54.9384 1473.89 55.0114 1473.89 55.1045C1473.91 55.2913 1473.92 55.5591 1473.93 55.8789C1473.93 56.5225 1473.89 57.3608 1473.7 58.1699C1473.51 58.9852 1473.19 59.7227 1472.67 60.2168C1472.17 60.692 1471.43 60.9882 1470.31 60.8428C1469.24 60.7033 1468.07 59.8909 1466.9 58.626C1465.74 57.3763 1464.63 55.7561 1463.67 54.1377C1462.71 52.5223 1461.9 50.9239 1461.33 49.7285C1461.05 49.1315 1460.82 48.6359 1460.67 48.29C1460.59 48.1172 1460.54 47.9815 1460.5 47.8896C1460.49 47.8756 1460.49 47.8625 1460.48 47.8506L1461.24 37.3506L1473.86 43.4385Z" fill="#E1E1E1" stroke="#373737" stroke-width="0.934491"/>
<path d="M1477.34 27.5103C1477.94 27.2227 1478.21 27.2016 1478.39 27.2603L1478.46 27.2905C1478.65 27.3838 1478.79 27.5828 1478.88 27.9888C1478.96 28.3995 1478.97 28.9042 1478.99 29.479C1479 30.026 1479.01 30.6395 1479.15 31.1685C1479.28 31.6755 1479.54 32.1727 1480.06 32.4614L1480.17 32.5171C1480.91 32.8604 1481.76 32.6958 1482.45 32.4155C1483.16 32.1292 1483.82 31.6808 1484.25 31.2954C1484.82 30.788 1485.2 30.212 1485.46 29.6313C1486.05 34.6736 1485.49 39.1189 1484.22 42.5884C1482.66 46.8855 1480.05 49.6053 1477.28 50.2437C1475.66 50.6144 1473.73 50.2372 1471.72 49.3374C1469.72 48.4414 1467.7 47.0499 1465.94 45.4722C1464.18 43.8935 1462.71 42.1465 1461.81 40.5542C1461.35 39.7581 1461.05 39.0158 1460.91 38.3638C1460.77 37.7101 1460.8 37.1793 1460.99 36.7749C1461.06 36.6233 1461.12 36.5428 1461.24 36.4536C1461.39 36.3442 1461.62 36.2279 1462.04 36.0278C1462.87 35.6359 1464.29 34.996 1466.79 33.5825C1469.23 32.2097 1471.08 31.1421 1472.33 30.4175C1472.95 30.0552 1473.43 29.7784 1473.74 29.5923C1473.9 29.4993 1474.02 29.4295 1474.1 29.3823C1474.14 29.3587 1474.17 29.3405 1474.19 29.3286C1474.2 29.3227 1474.21 29.3179 1474.21 29.3149C1474.21 29.3135 1474.22 29.3128 1474.22 29.312L1474.22 29.3101C1475.71 28.4229 1476.66 27.836 1477.34 27.5103Z" fill="#E1E1E1" stroke="#373737" stroke-width="0.934491"/>
<path d="M1459.32 28.9592C1459.99 28.8321 1460.77 29.1418 1461.5 29.8918C1462.21 30.6353 1462.81 31.7621 1463.11 33.0989C1463.4 34.4362 1463.32 35.6873 1462.97 36.6233C1462.62 37.5647 1462.05 38.1221 1461.38 38.2483C1460.7 38.3755 1459.92 38.0666 1459.2 37.3167C1458.48 36.5731 1457.88 35.4456 1457.59 34.1086C1457.29 32.7713 1457.38 31.5201 1457.72 30.5842C1458.07 29.643 1458.65 29.0853 1459.32 28.9592Z" fill="#E1E1E1" stroke="#373737" stroke-width="0.934491"/>
<path d="M1478.94 39.1482L1479.65 39.3113C1479.65 39.3235 1479.65 39.3349 1479.64 39.3464L1479.65 39.3474C1479.64 39.3508 1479.64 39.3539 1479.64 39.3572C1479.62 39.4326 1479.59 39.4923 1479.57 39.5232C1479.54 39.5726 1479.5 39.6229 1479.46 39.6716C1479.37 39.7696 1479.26 39.8776 1479.11 39.988L1479.1 39.989L1477.08 41.4392C1477.06 41.4566 1477.06 41.473 1477.05 41.4802C1477.05 41.4845 1477.05 41.4888 1477.05 41.4929C1477.06 41.4968 1477.06 41.5037 1477.07 41.5125L1477.1 41.5408C1477.12 41.5482 1477.14 41.5524 1477.16 41.5525C1477.2 41.5525 1477.23 41.5432 1477.25 41.5281L1479.27 40.0779L1479.27 40.0769C1479.6 39.8381 1479.78 39.6082 1479.85 39.4255C1479.91 39.2615 1479.9 39.1227 1479.81 38.9861C1479.67 38.7615 1479.4 38.6936 1479.06 38.6335H1479.06C1479 38.6225 1478.92 38.6089 1478.85 38.5925C1478.78 38.5782 1478.68 38.5523 1478.59 38.5037L1478.58 38.4998C1478.4 38.401 1478.28 38.2255 1478.22 38.0105C1478.16 37.8036 1478.14 37.5328 1478.17 37.1755L1478.45 33.6062C1478.45 33.5993 1478.44 33.5874 1478.43 33.572C1478.41 33.5556 1478.39 33.5387 1478.34 33.5359L1478.33 33.5339C1478.26 33.5265 1478.23 33.5744 1478.22 33.5994V33.6023L1477.95 37.1726C1477.93 37.3695 1477.91 37.6625 1477.98 37.9509C1478.04 38.1926 1478.14 38.4021 1478.35 38.5476L1478.45 38.6062L1478.45 38.6072C1478.61 38.6928 1478.79 38.7284 1479.01 38.7664H1479C1479.06 38.7762 1479.1 38.7815 1479.12 38.783C1479.14 38.7839 1479.11 38.7808 1479.07 38.7888C1479.06 38.7915 1479.03 38.7996 1479 38.8142L1478.94 39.1482ZM1478.94 39.1482L1478.75 39.1042C1478.75 39.095 1478.75 39.0867 1478.75 39.0798C1478.79 38.9589 1478.87 38.8822 1478.94 38.8425C1478.96 38.8299 1478.98 38.8218 1479 38.8142L1478.94 39.1482Z" fill="#E1E1E1" stroke="#373737" stroke-width="0.934491"/>
<path d="M1470.2 41.448C1470.84 41.7582 1471.53 42.069 1472.27 42.3708C1472.92 42.6377 1473.55 42.8767 1474.16 43.0906C1473.39 43.9196 1472.08 44.1346 1471.18 43.6208C1470.43 43.1997 1470.03 42.3267 1470.2 41.448Z" fill="#E1E1E1" stroke="#373737" stroke-width="0.934491"/>
</svg>
