<svg width="840" height="78" viewBox="0 0 840 78" fill="none" xmlns="http://www.w3.org/2000/svg">
<mask id="path-1-inside-1_1133_34486" fill="white">
<path d="M447.126 6.39355C447.192 6.39442 447.257 6.4132 447.313 6.44824C447.37 6.48336 447.415 6.53363 447.445 6.59277L448.28 8.16406C448.397 8.37645 448.558 8.56214 448.751 8.70898C448.944 8.85578 449.165 8.96137 449.401 9.01758H449.431C449.659 9.08164 449.898 9.09754 450.133 9.06445C450.368 9.03134 450.593 8.94996 450.795 8.8252L452.355 7.8418C452.41 7.81007 452.473 7.79303 452.536 7.79297C452.6 7.79297 452.663 7.80995 452.718 7.8418C452.775 7.87462 452.822 7.92208 452.854 7.97949C452.885 8.037 452.902 8.10221 452.899 8.16797L452.841 9.8623C452.824 10.1025 452.861 10.3439 452.948 10.5684C453.035 10.7929 453.171 10.9959 453.346 11.1621C453.454 11.26 453.56 11.3614 453.665 11.4629C453.823 11.6247 454.012 11.7528 454.221 11.8389C454.43 11.925 454.655 11.9677 454.881 11.9639L456.695 11.8984C456.761 11.8963 456.826 11.9115 456.884 11.9434C456.941 11.9753 456.989 12.0231 457.021 12.0801C457.053 12.1351 457.07 12.1973 457.07 12.2607C457.07 12.3244 457.053 12.3873 457.021 12.4424L456.169 13.8105C456.036 14.0147 455.949 14.2459 455.914 14.4873C455.88 14.7286 455.898 14.9748 455.969 15.208C456.016 15.3458 456.06 15.5017 456.1 15.6504C456.157 15.8802 456.261 16.0958 456.406 16.2832C456.551 16.4705 456.733 16.6259 456.941 16.7393L458.455 17.541L458.444 17.5625C458.502 17.5936 458.55 17.6401 458.583 17.6963C458.616 17.7524 458.635 17.8165 458.635 17.8818C458.635 17.9473 458.617 18.0121 458.583 18.0684C458.55 18.1243 458.502 18.1701 458.444 18.2012L456.992 18.9814C456.787 19.0952 456.608 19.251 456.468 19.4385C456.327 19.6261 456.228 19.8416 456.176 20.0703C456.143 20.2226 456.107 20.3748 456.063 20.5234C455.994 20.747 455.974 20.9836 456.003 21.2158C456.032 21.4479 456.112 21.671 456.234 21.8701L457.145 23.3213C457.176 23.3764 457.193 23.4393 457.193 23.5029C457.193 23.5666 457.176 23.6294 457.145 23.6846C457.115 23.7445 457.068 23.7938 457.01 23.8262C456.951 23.8586 456.885 23.873 456.818 23.8662L455.222 23.8115C454.974 23.7991 454.727 23.8405 454.497 23.9326C454.267 24.0247 454.06 24.1651 453.89 24.3447C453.785 24.4571 453.676 24.5697 453.567 24.6748C453.4 24.8315 453.268 25.022 453.18 25.2334C453.092 25.4447 453.05 25.6725 453.056 25.9014L453.117 27.6582C453.12 27.7241 453.105 27.7898 453.073 27.8477C453.042 27.9057 452.994 27.9541 452.937 27.9873C452.88 28.0203 452.815 28.0371 452.749 28.0361C452.683 28.035 452.618 28.0156 452.562 27.9805L451.129 27.085C450.933 26.9574 450.71 26.8733 450.479 26.8389C450.247 26.8045 450.011 26.8199 449.786 26.8848L449.361 27.001C449.129 27.0611 448.911 27.1702 448.724 27.3203C448.536 27.4704 448.382 27.6584 448.272 27.8721L447.456 29.4141C447.425 29.472 447.379 29.5208 447.323 29.5547C447.267 29.5885 447.202 29.6063 447.137 29.6064C447.071 29.6069 447.005 29.5895 446.948 29.5557C446.891 29.5218 446.846 29.4725 446.814 29.4141L445.979 27.8428C445.863 27.6291 445.702 27.4424 445.508 27.2949C445.314 27.1475 445.091 27.0421 444.854 26.9863C444.691 26.9464 444.532 26.8997 444.372 26.8525C444.144 26.7764 443.902 26.7504 443.663 26.7773C443.424 26.8043 443.194 26.8838 442.989 27.0088L441.498 27.9414C441.442 27.9762 441.378 27.9948 441.312 27.9961C441.247 27.9973 441.182 27.9809 441.125 27.9482C441.068 27.9154 441.02 27.867 440.988 27.8096C440.956 27.7523 440.941 27.6875 440.943 27.6221L441.008 25.7383C441.017 25.5145 440.982 25.2906 440.902 25.0811C440.823 24.8719 440.703 24.6809 440.548 24.5195C440.468 24.4434 440.388 24.3559 440.312 24.2725C440.155 24.1078 439.965 23.9787 439.754 23.8936C439.543 23.8085 439.316 23.7695 439.089 23.7793L437.249 23.8438C437.183 23.846 437.118 23.8307 437.061 23.7988C437.003 23.7669 436.955 23.7201 436.922 23.6631C436.89 23.608 436.874 23.5451 436.874 23.4814C436.874 23.4178 436.89 23.3549 436.922 23.2998L437.964 21.6338C438.08 21.4507 438.157 21.2461 438.19 21.0322C438.224 20.8182 438.214 20.5995 438.16 20.3896L438.109 20.1826C438.053 19.9408 437.947 19.7133 437.797 19.5156C437.647 19.3181 437.456 19.1549 437.238 19.0361L435.616 18.1836C435.559 18.1525 435.51 18.106 435.477 18.0498C435.443 17.9937 435.426 17.9296 435.426 17.8643C435.426 17.7988 435.443 17.734 435.477 17.6777C435.51 17.6216 435.559 17.576 435.616 17.5449L437.34 16.6299C437.547 16.5162 437.729 16.361 437.874 16.1738C438.019 15.9866 438.124 15.7715 438.182 15.542C438.193 15.5182 438.2 15.4922 438.203 15.4658C438.278 15.2269 438.301 14.974 438.271 14.7256C438.24 14.4772 438.156 14.2379 438.025 14.0244L437.035 12.4424C437.003 12.3872 436.986 12.3244 436.986 12.2607C436.986 12.1972 437.003 12.1351 437.035 12.0801C437.068 12.0231 437.115 11.9753 437.173 11.9434C437.23 11.9114 437.296 11.8962 437.361 11.8984L439.292 11.9639C439.528 11.9688 439.763 11.9252 439.982 11.8359C440.201 11.7467 440.4 11.6131 440.565 11.4443L440.652 11.3574C440.831 11.1912 440.972 10.9891 441.067 10.7646C441.162 10.5403 441.209 10.2982 441.204 10.0547L441.139 8.20801C441.137 8.14256 441.153 8.07746 441.186 8.02051C441.218 7.96366 441.265 7.9171 441.322 7.88477C441.379 7.85248 441.443 7.83563 441.509 7.83691C441.574 7.83828 441.639 7.85787 441.694 7.89258L443.276 8.87891C443.469 9.00318 443.685 9.08607 443.911 9.12109C444.137 9.15611 444.369 9.14239 444.59 9.08203L444.647 9.06445L444.916 8.99512C445.141 8.93777 445.352 8.83392 445.534 8.68945C445.716 8.54499 445.866 8.3635 445.973 8.15723L446.803 6.58594C446.834 6.52748 446.881 6.47824 446.938 6.44434C446.994 6.41046 447.06 6.3931 447.126 6.39355Z"/>
</mask>
<path d="M447.126 6.39355L447.152 4.37519L447.14 4.3751L447.126 6.39355ZM447.313 6.44824L448.383 4.73657L448.381 4.73526L447.313 6.44824ZM447.445 6.59277L445.644 7.50293L445.663 7.53995L447.445 6.59277ZM448.28 8.16406L446.498 9.11124L446.513 9.13936L448.28 8.16406ZM448.751 8.70898L447.529 10.3156L447.529 10.3157L448.751 8.70898ZM449.401 9.01758L448.934 10.9811L449.401 11.0361V9.01758ZM449.431 9.01758L449.976 7.0742L449.431 6.99908V9.01758ZM450.133 9.06445L450.415 11.0632L450.415 11.0632L450.133 9.06445ZM450.795 8.8252L451.857 10.5418L451.871 10.5329L450.795 8.8252ZM452.355 7.8418L451.347 6.0932L451.279 6.13409L452.355 7.8418ZM452.536 7.79297L452.536 5.77447L452.534 5.77447L452.536 7.79297ZM452.718 7.8418L451.709 9.58986L451.709 9.59034L452.718 7.8418ZM452.854 7.97949L454.618 6.99924L454.617 6.99799L452.854 7.97949ZM452.899 8.16797L454.917 8.23773L454.917 8.23559L452.899 8.16797ZM452.841 9.8623L454.855 10.0003L454.858 9.93207L452.841 9.8623ZM452.948 10.5684L451.067 11.2987L451.067 11.2989L452.948 10.5684ZM453.346 11.1621L451.953 12.6228L451.995 12.6624L453.346 11.1621ZM453.665 11.4629L455.111 10.0542L455.067 10.0108L453.665 11.4629ZM454.221 11.8389L453.452 13.7051L453.452 13.7052L454.221 11.8389ZM454.881 11.9639L454.915 13.9821L454.954 13.9811L454.881 11.9639ZM456.695 11.8984L456.63 9.881L456.623 9.88125L456.695 11.8984ZM456.884 11.9434L457.865 10.1793L457.864 10.1789L456.884 11.9434ZM457.021 12.0801L458.77 11.072L458.77 11.072L457.021 12.0801ZM457.07 12.2607L459.089 12.2607L459.089 12.2581L457.07 12.2607ZM457.021 12.4424L458.735 13.5099L458.77 13.4505L457.021 12.4424ZM456.169 13.8105L457.859 14.9139L457.882 14.878L456.169 13.8105ZM455.914 14.4873L453.916 14.2019L453.916 14.2021L455.914 14.4873ZM455.969 15.208L454.037 15.794L454.059 15.8613L455.969 15.208ZM456.1 15.6504L458.058 15.1611L458.049 15.1273L456.1 15.6504ZM456.406 16.2832L454.809 17.5179L454.809 17.518L456.406 16.2832ZM456.941 16.7393L455.975 18.5114L455.997 18.523L456.941 16.7393ZM458.455 17.541L460.26 18.4437L459.4 15.7573L458.455 17.541ZM458.444 17.5625L456.639 16.6598L457.485 19.3382L458.444 17.5625ZM458.583 17.6963L460.316 16.6621L460.316 16.662L458.583 17.6963ZM458.635 17.8818L460.653 17.8818L460.653 17.8802L458.635 17.8818ZM458.583 18.0684L460.315 19.1043L460.316 19.1025L458.583 18.0684ZM458.444 18.2012L459.4 19.9793L459.405 19.9761L458.444 18.2012ZM456.992 18.9814L456.037 17.2034L456.013 17.2165L456.992 18.9814ZM456.468 19.4385L454.853 18.2273L454.853 18.2274L456.468 19.4385ZM456.176 20.0703L454.207 19.6245L454.202 19.6474L456.176 20.0703ZM456.063 20.5234L457.992 21.1209L458.001 21.0903L456.063 20.5234ZM456.003 21.2158L454 21.4695L454 21.4699L456.003 21.2158ZM456.234 21.8701L454.516 22.9295L454.524 22.9426L456.234 21.8701ZM457.145 23.3213L458.893 22.3121L458.855 22.2488L457.145 23.3213ZM457.193 23.5029L459.212 23.5029L459.212 23.5024L457.193 23.5029ZM457.145 23.6846L455.396 22.6753L455.332 22.7966L457.145 23.6846ZM457.01 23.8262L457.989 25.591L457.99 25.5907L457.01 23.8262ZM456.818 23.8662L457.023 21.8581L456.887 21.8489L456.818 23.8662ZM455.222 23.8115L455.12 25.8275L455.153 25.8288L455.222 23.8115ZM454.497 23.9326L453.747 22.0588L453.746 22.059L454.497 23.9326ZM453.89 24.3447L452.425 22.9561L452.416 22.9658L453.89 24.3447ZM453.567 24.6748L454.948 26.1469L454.97 26.126L453.567 24.6748ZM453.18 25.2334L451.317 24.4562L451.317 24.4563L453.18 25.2334ZM453.056 25.9014L451.038 25.9553L451.038 25.972L453.056 25.9014ZM453.117 27.6582L451.1 27.7288L451.1 27.7425L453.117 27.6582ZM453.073 27.8477L454.844 28.8166L454.844 28.8161L453.073 27.8477ZM452.937 27.9873L453.949 29.7335L453.951 29.7321L452.937 27.9873ZM452.749 28.0361L452.716 30.0544L452.718 30.0544L452.749 28.0361ZM452.562 27.9805L453.633 26.2699L453.631 26.2688L452.562 27.9805ZM451.129 27.085L450.029 28.7775L450.059 28.7966L451.129 27.085ZM450.479 26.8389L450.775 24.8423L450.775 24.8422L450.479 26.8389ZM449.786 26.8848L450.319 28.8317L450.346 28.8241L449.786 26.8848ZM449.361 27.001L449.866 28.9553L449.894 28.9479L449.361 27.001ZM448.724 27.3203L447.463 25.7441L447.462 25.7444L448.724 27.3203ZM448.272 27.8721L450.056 28.8166L450.068 28.7935L448.272 27.8721ZM447.456 29.4141L449.238 30.3627L449.24 30.3585L447.456 29.4141ZM447.323 29.5547L448.364 31.2841L448.365 31.2838L447.323 29.5547ZM447.137 29.6064L447.131 27.5879L447.124 27.588L447.137 29.6064ZM446.948 29.5557L445.914 31.2891L445.915 31.2899L446.948 29.5557ZM446.814 29.4141L445.032 30.3612L445.033 30.3628L446.814 29.4141ZM445.979 27.8428L447.762 26.8956L447.75 26.8743L445.979 27.8428ZM445.508 27.2949L446.731 25.6889L446.73 25.6886L445.508 27.2949ZM444.854 26.9863L444.375 28.9471L444.392 28.9512L444.854 26.9863ZM444.372 26.8525L443.732 28.767L443.8 28.7883L444.372 26.8525ZM443.663 26.7773L443.437 24.7716L443.436 24.7716L443.663 26.7773ZM442.989 27.0088L441.939 25.2851L441.919 25.2974L442.989 27.0088ZM441.498 27.9414L442.568 29.6532L442.568 29.6528L441.498 27.9414ZM441.312 27.9961L441.35 30.0142L441.351 30.0142L441.312 27.9961ZM441.125 27.9482L440.119 29.698L440.121 29.6992L441.125 27.9482ZM440.988 27.8096L439.224 28.7895L439.225 28.7919L440.988 27.8096ZM440.943 27.6221L438.926 27.553L438.926 27.5592L440.943 27.6221ZM441.008 25.7383L438.991 25.6525L438.99 25.6693L441.008 25.7383ZM440.902 25.0811L442.79 24.3674L442.79 24.3668L440.902 25.0811ZM440.548 24.5195L442.004 23.1218L441.942 23.0595L440.548 24.5195ZM440.312 24.2725L441.802 22.9115L441.774 22.8812L440.312 24.2725ZM439.754 23.8936L440.51 22.022L440.509 22.0217L439.754 23.8936ZM439.089 23.7793L439.16 25.7966L439.176 25.7959L439.089 23.7793ZM437.249 23.8438L437.317 25.8611L437.32 25.861L437.249 23.8438ZM437.061 23.7988L436.08 25.5633L436.081 25.5636L437.061 23.7988ZM436.922 23.6631L438.67 22.6545L438.67 22.6539L436.922 23.6631ZM436.874 23.4814L434.856 23.4814L434.856 23.4825L436.874 23.4814ZM436.922 23.2998L435.211 22.2295L435.173 22.2917L436.922 23.2998ZM437.964 21.6338L436.257 20.5557L436.253 20.5634L437.964 21.6338ZM438.19 21.0322L440.184 21.3462L440.184 21.3461L438.19 21.0322ZM438.16 20.3896L436.2 20.8705L436.205 20.8916L438.16 20.3896ZM438.109 20.1826L436.143 20.6373L436.149 20.6635L438.109 20.1826ZM437.797 19.5156L439.404 18.2948L439.404 18.2948L437.797 19.5156ZM437.238 19.0361L438.204 17.2638L438.177 17.2494L437.238 19.0361ZM435.616 18.1836L434.657 19.9599L434.677 19.9703L435.616 18.1836ZM435.477 18.0498L433.743 19.0831L433.743 19.084L435.477 18.0498ZM435.426 17.8643L433.407 17.8643L433.407 17.8658L435.426 17.8643ZM435.477 17.6777L433.744 16.6427L433.743 16.6435L435.477 17.6777ZM435.616 17.5449L434.67 15.762L434.657 15.7686L435.616 17.5449ZM437.34 16.6299L438.286 18.4127L438.31 18.4002L437.34 16.6299ZM437.874 16.1738L439.471 17.4088L439.471 17.4086L437.874 16.1738ZM438.182 15.542L436.371 14.649L436.224 15.0487L438.182 15.542ZM438.203 15.4658L436.277 14.8632L436.195 15.2637L438.203 15.4658ZM438.271 14.7256L440.274 14.4783L440.274 14.4781L438.271 14.7256ZM438.025 14.0244L439.747 12.9714L439.736 12.9535L438.025 14.0244ZM437.035 12.4424L435.287 13.4512L435.324 13.5133L437.035 12.4424ZM436.986 12.2607L434.968 12.2581V12.2607H436.986ZM437.035 12.0801L438.783 13.0889L438.784 13.0882L437.035 12.0801ZM437.173 11.9434L436.193 10.1786L436.193 10.1789L437.173 11.9434ZM437.361 11.8984L437.43 9.8811L437.429 9.88106L437.361 11.8984ZM439.292 11.9639L439.224 13.9812L439.25 13.9819L439.292 11.9639ZM439.982 11.8359L440.744 13.7052L440.744 13.7052L439.982 11.8359ZM440.565 11.4443L439.138 10.017L439.125 10.0301L440.565 11.4443ZM440.652 11.3574L439.276 9.88086L439.225 9.93013L440.652 11.3574ZM441.067 10.7646L442.926 11.5516L442.926 11.5511L441.067 10.7646ZM441.204 10.0547L443.222 10.0153L443.221 9.98321L441.204 10.0547ZM441.139 8.20801L439.121 8.25273L439.121 8.27948L441.139 8.20801ZM441.186 8.02051L439.43 7.02424L439.43 7.02493L441.186 8.02051ZM441.322 7.88477L440.325 6.13011L440.324 6.13054L441.322 7.88477ZM441.509 7.83691L441.551 5.81885L441.549 5.81881L441.509 7.83691ZM441.694 7.89258L440.624 9.60394L440.626 9.60545L441.694 7.89258ZM443.276 8.87891L444.372 7.18352L444.344 7.16603L443.276 8.87891ZM443.911 9.12109L443.602 11.1158L443.603 11.1159L443.911 9.12109ZM444.59 9.08203L445.122 11.0292L445.179 11.0127L444.59 9.08203ZM444.647 9.06445L444.143 7.11004L444.058 7.1338L444.647 9.06445ZM444.916 8.99512L444.418 7.03906L444.411 7.0407L444.916 8.99512ZM445.534 8.68945L446.789 10.2704L446.789 10.2703L445.534 8.68945ZM445.973 8.15723L444.188 7.21438L444.181 7.22822L445.973 8.15723ZM446.803 6.58594L445.021 5.63731L445.018 5.64309L446.803 6.58594ZM446.938 6.44434L445.905 4.71007L445.904 4.71039L446.938 6.44434ZM447.126 6.39355L447.1 8.41188C446.803 8.40801 446.507 8.32424 446.246 8.16123L447.313 6.44824L448.381 4.73526C448.007 4.50216 447.581 4.38083 447.152 4.37523L447.126 6.39355ZM447.313 6.44824L446.244 8.15992C445.986 7.99861 445.779 7.77094 445.644 7.50293L447.445 6.59277L449.247 5.68262C449.052 5.29633 448.754 4.96812 448.383 4.73657L447.313 6.44824ZM447.445 6.59277L445.663 7.53995L446.498 9.11124L448.28 8.16406L450.063 7.21688L449.228 5.64559L447.445 6.59277ZM448.28 8.16406L446.513 9.13936C446.766 9.59793 447.112 9.99864 447.529 10.3156L448.751 8.70898L449.973 7.10234C450.004 7.12564 450.029 7.15497 450.048 7.18876L448.28 8.16406ZM448.751 8.70898L447.529 10.3157C447.943 10.6301 448.42 10.8588 448.934 10.9811L449.401 9.01758L449.869 7.05404C449.911 7.06393 449.945 7.08143 449.973 7.10223L448.751 8.70898ZM449.401 9.01758V11.0361H449.431V9.01758V6.99908H449.401V9.01758ZM449.431 9.01758L448.885 10.961C449.383 11.1007 449.904 11.1352 450.415 11.0632L450.133 9.06445L449.851 7.06571C449.892 7.0599 449.935 7.06258 449.976 7.0742L449.431 9.01758ZM450.133 9.06445L450.415 11.0632C450.925 10.9912 451.416 10.8142 451.857 10.5418L450.795 8.8252L449.733 7.1086C449.77 7.08573 449.81 7.07148 449.851 7.06572L450.133 9.06445ZM450.795 8.8252L451.871 10.5329L453.432 9.54951L452.355 7.8418L451.279 6.13409L449.719 7.11748L450.795 8.8252ZM452.355 7.8418L453.364 9.59039C453.12 9.7311 452.836 9.81119 452.538 9.81147L452.536 7.79297L452.534 5.77447C452.109 5.77487 451.701 5.88903 451.347 6.0932L452.355 7.8418ZM452.536 7.79297V9.81147C452.242 9.81147 451.957 9.73351 451.709 9.58986L452.718 7.8418L453.727 6.09373C453.368 5.88639 452.957 5.77447 452.536 5.77447V7.79297ZM452.718 7.8418L451.709 9.59034C451.452 9.44167 451.237 9.22484 451.09 8.961L452.854 7.97949L454.617 6.99799C454.407 6.61933 454.098 6.30757 453.726 6.09326L452.718 7.8418ZM452.854 7.97949L451.089 8.95975C450.947 8.70494 450.872 8.40893 450.882 8.10035L452.899 8.16797L454.917 8.23559C454.932 7.7955 454.823 7.36907 454.618 6.99924L452.854 7.97949ZM452.899 8.16797L450.882 8.09821L450.824 9.79254L452.841 9.8623L454.858 9.93207L454.917 8.23773L452.899 8.16797ZM452.841 9.8623L450.827 9.72433C450.79 10.2605 450.872 10.7983 451.067 11.2987L452.948 10.5684L454.83 9.83801C454.85 9.88948 454.858 9.94456 454.855 10.0003L452.841 9.8623ZM452.948 10.5684L451.067 11.2989C451.261 11.8004 451.564 12.2525 451.953 12.6228L453.346 11.1621L454.739 9.70138C454.778 9.73923 454.81 9.78534 454.83 9.83779L452.948 10.5684ZM453.346 11.1621L451.995 12.6624C452.075 12.7337 452.157 12.8123 452.263 12.915L453.665 11.4629L455.067 10.0108C454.963 9.91042 454.834 9.78631 454.696 9.66185L453.346 11.1621ZM453.665 11.4629L452.219 12.8716C452.568 13.2298 452.987 13.5138 453.452 13.7051L454.221 11.8389L454.99 9.97268C455.036 9.99171 455.077 10.0197 455.111 10.0542L453.665 11.4629ZM454.221 11.8389L453.452 13.7052C453.915 13.8959 454.413 13.9905 454.915 13.9821L454.881 11.9639L454.847 9.94565C454.897 9.94481 454.945 9.95408 454.99 9.97252L454.221 11.8389ZM454.881 11.9639L454.954 13.9811L456.768 13.9156L456.695 11.8984L456.623 9.88125L454.808 9.94668L454.881 11.9639ZM456.695 11.8984L456.761 13.9159C456.475 13.9252 456.177 13.8599 455.904 13.7078L456.884 11.9434L457.864 10.1789C457.475 9.96298 457.047 9.86742 456.63 9.88101L456.695 11.8984ZM456.884 11.9434L455.903 13.7074C455.626 13.5533 455.414 13.3331 455.273 13.0882L457.021 12.0801L458.77 11.072C458.563 10.7131 458.257 10.3973 457.865 10.1793L456.884 11.9434ZM457.021 12.0801L455.273 13.0881C455.132 12.844 455.052 12.5605 455.052 12.2634L457.07 12.2607L459.089 12.2581C459.088 11.8341 458.974 11.4261 458.77 11.072L457.021 12.0801ZM457.07 12.2607H455.052C455.052 11.9658 455.13 11.6816 455.273 11.4343L457.021 12.4424L458.77 13.4505C458.976 13.0929 459.089 12.6829 459.089 12.2607H457.07ZM457.021 12.4424L455.308 11.3749L454.456 12.7431L456.169 13.8105L457.882 14.878L458.735 13.5099L457.021 12.4424ZM456.169 13.8105L454.479 12.7072C454.184 13.1579 453.992 13.6683 453.916 14.2019L455.914 14.4873L457.912 14.7728C457.905 14.8236 457.887 14.8715 457.859 14.9139L456.169 13.8105ZM455.914 14.4873L453.916 14.2021C453.84 14.7325 453.88 15.2761 454.037 15.794L455.969 15.208L457.9 14.622C457.916 14.6734 457.919 14.7247 457.912 14.7725L455.914 14.4873ZM455.969 15.208L454.059 15.8613C454.083 15.9314 454.112 16.0326 454.15 16.1734L456.1 15.6504L458.049 15.1273C458.007 14.9707 457.949 14.7603 457.879 14.5547L455.969 15.208ZM456.1 15.6504L454.141 16.1397C454.266 16.6391 454.493 17.1088 454.809 17.5179L456.406 16.2832L458.003 15.0485C458.03 15.0829 458.048 15.1213 458.058 15.1611L456.1 15.6504ZM456.406 16.2832L454.809 17.518C455.125 17.9265 455.523 18.2647 455.975 18.5114L456.941 16.7393L457.908 14.9671C457.944 14.9871 457.977 15.0146 458.003 15.0484L456.406 16.2832ZM456.941 16.7393L455.997 18.523L457.51 19.3247L458.455 17.541L459.4 15.7573L457.886 14.9555L456.941 16.7393ZM458.455 17.541L456.65 16.6383L456.639 16.6598L458.444 17.5625L460.25 18.4652L460.26 18.4437L458.455 17.541ZM458.444 17.5625L457.485 19.3382C457.21 19.1899 456.995 18.9749 456.85 18.7306L458.583 17.6963L460.316 16.662C460.104 16.3054 459.794 15.9973 459.404 15.7868L458.444 17.5625ZM458.583 17.6963L456.85 18.7305C456.702 18.4839 456.617 18.1927 456.616 17.8835L458.635 17.8818L460.653 17.8802C460.653 17.4403 460.531 17.0209 460.316 16.6621L458.583 17.6963ZM458.635 17.8818H456.616C456.616 17.5761 456.7 17.2845 456.85 17.0342L458.583 18.0684L460.316 19.1025C460.533 18.7398 460.653 18.3185 460.653 17.8818H458.635ZM458.583 18.0684L456.851 17.0324C457.004 16.7763 457.223 16.5673 457.483 16.4262L458.444 18.2012L459.405 19.9761C459.781 19.773 460.095 19.4723 460.315 19.1043L458.583 18.0684ZM458.444 18.2012L457.489 16.4231L456.037 17.2034L456.992 18.9814L457.948 20.7595L459.4 19.9792L458.444 18.2012ZM456.992 18.9814L456.013 17.2165C455.56 17.4679 455.164 17.8123 454.853 18.2273L456.468 19.4385L458.083 20.6496C458.053 20.6896 458.015 20.7225 457.972 20.7464L456.992 18.9814ZM456.468 19.4385L454.853 18.2274C454.541 18.643 454.322 19.1194 454.207 19.6245L456.176 20.0703L458.144 20.5161C458.134 20.5638 458.113 20.6092 458.083 20.6496L456.468 19.4385ZM456.176 20.0703L454.202 19.6474C454.175 19.7724 454.151 19.8725 454.126 19.9566L456.063 20.5234L458.001 21.0903C458.063 20.8771 458.111 20.6727 458.149 20.4933L456.176 20.0703ZM456.063 20.5234L454.135 19.926C453.981 20.4248 453.935 20.9516 454 21.4695L456.003 21.2158L458.005 20.9621C458.012 21.0157 458.008 21.0693 457.992 21.1209L456.063 20.5234ZM456.003 21.2158L454 21.4699C454.067 21.9902 454.244 22.4875 454.516 22.9295L456.234 21.8701L457.953 20.8108C457.98 20.8545 457.998 20.9056 458.005 20.9617L456.003 21.2158ZM456.234 21.8701L454.524 22.9426L455.435 24.3938L457.145 23.3213L458.855 22.2488L457.944 20.7976L456.234 21.8701ZM457.145 23.3213L455.396 24.3305C455.253 24.0814 455.175 23.7967 455.175 23.5035L457.193 23.5029L459.212 23.5024C459.212 23.0818 459.1 22.6714 458.893 22.3121L457.145 23.3213ZM457.193 23.5029H455.175C455.175 23.2089 455.253 22.9241 455.396 22.6753L457.145 23.6846L458.893 24.6938C459.1 24.3347 459.212 23.9243 459.212 23.5029H457.193ZM457.145 23.6846L455.332 22.7966C455.486 22.4822 455.731 22.2274 456.029 22.0617L457.01 23.8262L457.99 25.5907C458.405 25.3601 458.744 25.0068 458.957 24.5726L457.145 23.6846ZM457.01 23.8262L456.03 22.0613C456.319 21.9009 456.664 21.8216 457.023 21.8581L456.818 23.8662L456.614 25.8743C457.105 25.9244 457.584 25.8162 457.989 25.591L457.01 23.8262ZM456.818 23.8662L456.887 21.8489L455.291 21.7942L455.222 23.8115L455.153 25.8288L456.749 25.8835L456.818 23.8662ZM455.222 23.8115L455.323 21.7956C454.784 21.7685 454.246 21.8588 453.747 22.0588L454.497 23.9326L455.248 25.8064C455.208 25.8223 455.165 25.8297 455.12 25.8275L455.222 23.8115ZM454.497 23.9326L453.746 22.059C453.248 22.2585 452.797 22.5636 452.425 22.9561L453.89 24.3447L455.355 25.7334C455.323 25.7666 455.286 25.7909 455.248 25.8062L454.497 23.9326ZM453.89 24.3447L452.416 22.9658C452.322 23.0654 452.239 23.1511 452.164 23.2236L453.567 24.6748L454.97 26.126C455.113 25.9882 455.247 25.8487 455.364 25.7237L453.89 24.3447ZM453.567 24.6748L452.186 23.2027C451.813 23.5532 451.515 23.9801 451.317 24.4562L453.18 25.2334L455.043 26.0106C455.02 26.064 454.988 26.1098 454.948 26.1469L453.567 24.6748ZM453.18 25.2334L451.317 24.4563C451.118 24.9331 451.024 25.4443 451.038 25.9553L453.056 25.9014L455.073 25.8475C455.075 25.9007 455.065 25.9564 455.043 26.0105L453.18 25.2334ZM453.056 25.9014L451.038 25.972L451.1 27.7288L453.117 27.6582L455.134 27.5876L455.073 25.8307L453.056 25.9014ZM453.117 27.6582L451.1 27.7425C451.088 27.4474 451.155 27.1484 451.302 26.8792L453.073 27.8477L454.844 28.8161C455.055 28.4311 455.152 28.0008 455.134 27.5739L453.117 27.6582ZM453.073 27.8477L451.302 26.8787C451.452 26.6051 451.67 26.389 451.922 26.2425L452.937 27.9873L453.951 29.7321C454.318 29.5191 454.631 29.2062 454.844 28.8166L453.073 27.8477ZM452.937 27.9873L451.924 26.2411C452.185 26.0897 452.481 26.0133 452.78 26.0179L452.749 28.0361L452.718 30.0544C453.149 30.0609 453.574 29.9509 453.949 29.7335L452.937 27.9873ZM452.749 28.0361L452.782 26.0179C453.086 26.0229 453.379 26.111 453.633 26.2699L452.562 27.9805L451.49 29.691C451.856 29.9202 452.28 30.0472 452.716 30.0544L452.749 28.0361ZM452.562 27.9805L453.631 26.2688L452.199 25.3733L451.129 27.085L450.059 28.7966L451.492 29.6921L452.562 27.9805ZM451.129 27.085L452.229 25.3924C451.789 25.1067 451.293 24.9192 450.775 24.8423L450.479 26.8389L450.182 28.8354C450.128 28.8274 450.076 28.808 450.029 28.7775L451.129 27.085ZM450.479 26.8389L450.775 24.8422C450.26 24.7658 449.732 24.7996 449.227 24.9454L449.786 26.8848L450.346 28.8241C450.29 28.8402 450.234 28.8432 450.182 28.8355L450.479 26.8389ZM449.786 26.8848L449.254 24.9378L448.829 25.054L449.361 27.001L449.894 28.9479L450.319 28.8317L449.786 26.8848ZM449.361 27.001L448.857 25.0466C448.346 25.1785 447.871 25.4173 447.463 25.7441L448.724 27.3203L449.985 28.8965C449.951 28.9231 449.911 28.9436 449.866 28.9553L449.361 27.001ZM448.724 27.3203L447.462 25.7444C447.054 26.0712 446.717 26.4817 446.477 26.9506L448.272 27.8721L450.068 28.7935C450.047 28.8351 450.018 28.8696 449.985 28.8962L448.724 27.3203ZM448.272 27.8721L446.489 26.9276L445.672 28.4696L447.456 29.4141L449.24 30.3585L450.056 28.8166L448.272 27.8721ZM447.456 29.4141L445.674 28.4654C445.811 28.209 446.018 27.9847 446.282 27.8256L447.323 29.5547L448.365 31.2838C448.741 31.0569 449.039 30.7351 449.238 30.3627L447.456 29.4141ZM447.323 29.5547L446.282 27.8253C446.544 27.6676 446.838 27.5887 447.131 27.588L447.137 29.6064L447.142 31.6249C447.566 31.6238 447.99 31.5095 448.364 31.2841L447.323 29.5547ZM447.137 29.6064L447.124 27.588C447.417 27.5861 447.714 27.6624 447.981 27.8214L446.948 29.5557L445.915 31.2899C446.296 31.5166 446.725 31.6277 447.15 31.6249L447.137 29.6064ZM446.948 29.5557L447.982 27.8222C448.256 27.9854 448.462 28.2139 448.596 28.4653L446.814 29.4141L445.033 30.3628C445.229 30.731 445.527 31.0581 445.914 31.2891L446.948 29.5557ZM446.814 29.4141L448.597 28.4669L447.762 26.8956L445.979 27.8428L444.197 28.79L445.032 30.3612L446.814 29.4141ZM445.979 27.8428L447.75 26.8743C447.497 26.41 447.148 26.0067 446.731 25.6889L445.508 27.2949L444.285 28.901C444.255 28.8782 444.229 28.8482 444.209 28.8113L445.979 27.8428ZM445.508 27.2949L446.73 25.6886C446.313 25.3711 445.832 25.1425 445.316 25.0214L444.854 26.9863L444.392 28.9512C444.351 28.9416 444.315 28.9239 444.285 28.9012L445.508 27.2949ZM444.854 26.9863L445.334 25.0256C445.223 24.9985 445.106 24.9647 444.944 24.9168L444.372 26.8525L443.8 28.7883C443.957 28.8347 444.159 28.8943 444.375 28.9471L444.854 26.9863ZM444.372 26.8525L445.012 24.9381C444.508 24.7696 443.97 24.7114 443.437 24.7716L443.663 26.7773L443.889 28.7831C443.834 28.7894 443.781 28.7831 443.732 28.767L444.372 26.8525ZM443.663 26.7773L443.436 24.7716C442.902 24.832 442.392 25.0092 441.939 25.2851L442.989 27.0088L444.04 28.7324C443.997 28.7583 443.947 28.7766 443.89 28.7831L443.663 26.7773ZM442.989 27.0088L441.919 25.2974L440.428 26.23L441.498 27.9414L442.568 29.6528L444.06 28.7202L442.989 27.0088ZM441.498 27.9414L440.428 26.2296C440.69 26.0662 440.984 25.9835 441.274 25.978L441.312 27.9961L441.351 30.0142C441.773 30.0062 442.195 29.8862 442.568 29.6532L441.498 27.9414ZM441.312 27.9961L441.275 25.9779C441.569 25.9725 441.865 26.0459 442.129 26.1973L441.125 27.9482L440.121 29.6992C440.499 29.9159 440.924 30.0222 441.35 30.0142L441.312 27.9961ZM441.125 27.9482L442.131 26.1985C442.392 26.3487 442.606 26.5659 442.752 26.8273L440.988 27.8096L439.225 28.7919C439.435 29.1682 439.744 29.4822 440.119 29.698L441.125 27.9482ZM440.988 27.8096L442.753 26.8296C442.903 27.1006 442.97 27.3977 442.961 27.685L440.943 27.6221L438.926 27.5592C438.913 27.9773 439.01 28.404 439.224 28.7895L440.988 27.8096ZM440.943 27.6221L442.961 27.6911L443.025 25.8073L441.008 25.7383L438.99 25.6693L438.926 27.553L440.943 27.6221ZM441.008 25.7383L443.024 25.824C443.046 25.3291 442.967 24.8332 442.79 24.3674L440.902 25.0811L439.014 25.7947C438.997 25.748 438.989 25.6998 438.991 25.6525L441.008 25.7383ZM440.902 25.0811L442.79 24.3668C442.615 23.9037 442.348 23.48 442.004 23.1218L440.548 24.5195L439.092 25.9172C439.057 25.8817 439.031 25.8401 439.014 25.7953L440.902 25.0811ZM440.548 24.5195L441.942 23.0595C441.919 23.0383 441.884 23.0009 441.802 22.9115L440.312 24.2725L438.821 25.6335C438.892 25.7109 439.017 25.8484 439.154 25.9796L440.548 24.5195ZM440.312 24.2725L441.774 22.8812C441.418 22.507 440.987 22.2146 440.51 22.022L439.754 23.8936L438.998 25.7651C438.943 25.7428 438.892 25.7085 438.849 25.6637L440.312 24.2725ZM439.754 23.8936L440.509 22.0217C440.031 21.8286 439.517 21.7405 439.002 21.7627L439.089 23.7793L439.176 25.7959C439.116 25.7985 439.055 25.7883 438.998 25.7654L439.754 23.8936ZM439.089 23.7793L439.018 21.762L437.178 21.8265L437.249 23.8438L437.32 25.861L439.16 25.7966L439.089 23.7793ZM437.249 23.8438L437.181 21.8264C437.47 21.8167 437.769 21.8832 438.04 22.034L437.061 23.7988L436.081 25.5636C436.468 25.7783 436.896 25.8753 437.317 25.8611L437.249 23.8438ZM437.061 23.7988L438.041 22.0343C438.294 22.1748 438.515 22.3852 438.67 22.6545L436.922 23.6631L435.173 24.6717C435.394 25.0549 435.712 25.359 436.08 25.5633L437.061 23.7988ZM436.922 23.6631L438.67 22.6539C438.824 22.9211 438.892 23.2088 438.893 23.4804L436.874 23.4814L434.856 23.4825C434.856 23.8813 434.956 24.2948 435.174 24.6723L436.922 23.6631ZM436.874 23.4814H438.893C438.893 23.7554 438.824 24.0427 438.671 24.308L436.922 23.2998L435.173 22.2917C434.957 22.6672 434.856 23.0802 434.856 23.4814H436.874ZM436.922 23.2998L438.633 24.3701L439.675 22.7041L437.964 21.6338L436.253 20.5634L435.211 22.2295L436.922 23.2998ZM437.964 21.6338L439.67 22.7119C439.932 22.2977 440.108 21.8332 440.184 21.3462L438.19 21.0322L436.197 20.7182C436.206 20.659 436.227 20.6038 436.257 20.5557L437.964 21.6338ZM438.19 21.0322L440.184 21.3461C440.261 20.8624 440.238 20.366 440.115 19.8877L438.16 20.3896L436.205 20.8916C436.19 20.833 436.188 20.7741 436.196 20.7183L438.19 21.0322ZM438.16 20.3896L440.121 19.9088L440.07 19.7018L438.109 20.1826L436.149 20.6635L436.2 20.8705L438.16 20.3896ZM438.109 20.1826L440.076 19.728C439.956 19.2091 439.727 18.7203 439.404 18.2948L437.797 19.5156L436.189 20.7365C436.166 20.7063 436.151 20.6725 436.143 20.6373L438.109 20.1826ZM437.797 19.5156L439.404 18.2948C439.08 17.8676 438.67 17.5174 438.204 17.2638L437.238 19.0361L436.272 20.8085C436.243 20.7923 436.214 20.7685 436.189 20.7365L437.797 19.5156ZM437.238 19.0361L438.177 17.2494L436.555 16.3968L435.616 18.1836L434.677 19.9703L436.299 20.8229L437.238 19.0361ZM435.616 18.1836L436.575 16.4073C436.838 16.5493 437.057 16.7594 437.21 17.0156L435.477 18.0498L433.743 19.084C433.963 19.4527 434.279 19.7557 434.657 19.9599L435.616 18.1836ZM435.477 18.0498L437.211 17.0165C437.367 17.2793 437.444 17.5729 437.444 17.8627L435.426 17.8643L433.407 17.8658C433.408 18.2863 433.519 18.7081 433.743 19.0831L435.477 18.0498ZM435.426 17.8643L437.444 17.8643C437.444 18.1498 437.37 18.4443 437.21 18.7119L435.477 17.6777L433.743 16.6435C433.516 17.0236 433.407 17.4478 433.407 17.8643L435.426 17.8643ZM435.477 17.6777L437.209 18.7128C437.049 18.9808 436.825 19.1861 436.575 19.3212L435.616 17.5449L434.657 15.7686C434.292 15.9659 433.971 16.2624 433.744 16.6427L435.477 17.6777ZM435.616 17.5449L436.563 19.3278L438.286 18.4127L437.34 16.6299L436.393 14.847L434.67 15.7621L435.616 17.5449ZM437.34 16.6299L438.31 18.4002C438.76 18.1533 439.156 17.8161 439.471 17.4088L437.874 16.1738L436.277 14.9389C436.303 14.9059 436.335 14.8791 436.37 14.8596L437.34 16.6299ZM437.874 16.1738L439.471 17.4086C439.784 17.0033 440.013 16.5361 440.139 16.0353L438.182 15.542L436.224 15.0487C436.235 15.0069 436.253 14.9699 436.277 14.939L437.874 16.1738ZM438.182 15.542L439.992 16.435C440.118 16.1789 440.186 15.9165 440.211 15.6679L438.203 15.4658L436.195 15.2637C436.214 15.0679 436.269 14.8576 436.371 14.649L438.182 15.542ZM438.203 15.4658L440.13 16.0685C440.289 15.5573 440.34 15.0147 440.274 14.4783L438.271 14.7256L436.267 14.9728C436.262 14.9334 436.266 14.8965 436.277 14.8632L438.203 15.4658ZM438.271 14.7256L440.274 14.4781C440.208 13.9425 440.027 13.4288 439.747 12.9714L438.025 14.0244L436.303 15.0774C436.285 15.047 436.272 15.012 436.267 14.9731L438.271 14.7256ZM438.025 14.0244L439.736 12.9535L438.746 11.3714L437.035 12.4424L435.324 13.5133L436.314 15.0954L438.025 14.0244ZM437.035 12.4424L438.783 11.4336C438.927 11.6818 439.005 11.9664 439.005 12.2607H436.986H434.968C434.968 12.6824 435.08 13.0927 435.287 13.4512L437.035 12.4424ZM436.986 12.2607L439.005 12.2634C439.004 12.5599 438.925 12.8438 438.783 13.0889L437.035 12.0801L435.287 11.0713C435.082 11.4264 434.968 11.8346 434.968 12.2581L436.986 12.2607ZM437.035 12.0801L438.784 13.0882C438.643 13.3325 438.431 13.5533 438.153 13.7078L437.173 11.9434L436.193 10.1789C435.799 10.3973 435.493 10.7137 435.286 11.072L437.035 12.0801ZM437.173 11.9434L438.153 13.7081C437.881 13.8592 437.582 13.9254 437.294 13.9158L437.361 11.8984L437.429 9.88106C437.009 9.86703 436.58 9.96371 436.193 10.1786L437.173 11.9434ZM437.361 11.8984L437.293 13.9158L439.224 13.9812L439.292 11.9639L439.36 9.94653L437.43 9.8811L437.361 11.8984ZM439.292 11.9639L439.25 13.9819C439.762 13.9925 440.271 13.8981 440.744 13.7052L439.982 11.8359L439.221 9.96663C439.256 9.9522 439.295 9.94499 439.334 9.9458L439.292 11.9639ZM439.982 11.8359L440.744 13.7052C441.221 13.511 441.649 13.2215 442.006 12.8585L440.565 11.4443L439.125 10.0301C439.15 10.0047 439.182 9.98241 439.221 9.96665L439.982 11.8359ZM440.565 11.4443L441.993 12.8716L442.08 12.7847L440.652 11.3574L439.225 9.93013L439.138 10.017L440.565 11.4443ZM440.652 11.3574L442.029 12.834C442.413 12.4753 442.72 12.0385 442.926 11.5516L441.067 10.7646L439.209 9.97767C439.225 9.93974 439.248 9.90719 439.276 9.88086L440.652 11.3574ZM441.067 10.7646L442.926 11.5511C443.132 11.0653 443.232 10.5418 443.222 10.0153L441.204 10.0547L439.186 10.0941C439.185 10.0547 439.193 10.0153 439.208 9.97818L441.067 10.7646ZM441.204 10.0547L443.221 9.98321L443.156 8.13654L441.139 8.20801L439.121 8.27948L439.187 10.1262L441.204 10.0547ZM441.139 8.20801L443.157 8.16329C443.163 8.45423 443.093 8.74966 442.941 9.01609L441.186 8.02051L439.43 7.02493C439.214 7.40526 439.111 7.83088 439.121 8.25273L441.139 8.20801ZM441.186 8.02051L442.941 9.01678C442.785 9.29121 442.565 9.50023 442.321 9.639L441.322 7.88477L440.324 6.13054C439.966 6.33397 439.65 6.63611 439.43 7.02424L441.186 8.02051ZM441.322 7.88477L442.32 9.63942C442.07 9.78164 441.777 9.8611 441.469 9.85502L441.509 7.83691L441.549 5.81881C441.11 5.81015 440.688 5.92331 440.325 6.13011L441.322 7.88477ZM441.509 7.83691L441.467 9.85497C441.162 9.84859 440.872 9.75893 440.624 9.60394L441.694 7.89258L442.765 6.18121C442.406 5.9568 441.987 5.82798 441.551 5.81886L441.509 7.83691ZM441.694 7.89258L440.626 9.60545L442.208 10.5918L443.276 8.87891L444.344 7.16603L442.762 6.17971L441.694 7.89258ZM443.276 8.87891L442.181 10.5743C442.608 10.8505 443.092 11.0369 443.602 11.1158L443.911 9.12109L444.22 7.12634C444.278 7.13527 444.329 7.15583 444.372 7.18352L443.276 8.87891ZM443.911 9.12109L443.603 11.1159C444.113 11.1948 444.631 11.1634 445.122 11.0292L444.59 9.08203L444.058 7.13489C444.107 7.12143 444.162 7.1174 444.22 7.12632L443.911 9.12109ZM444.59 9.08203L445.179 11.0127L445.236 10.9951L444.647 9.06445L444.058 7.1338L444.001 7.15138L444.59 9.08203ZM444.647 9.06445L445.152 11.0189L445.421 10.9495L444.916 8.99512L444.411 7.0407L444.143 7.11004L444.647 9.06445ZM444.916 8.99512L445.414 10.9512C445.911 10.8245 446.381 10.5943 446.789 10.2704L445.534 8.68945L444.279 7.10852C444.323 7.07351 444.371 7.051 444.418 7.03907L444.916 8.99512ZM445.534 8.68945L446.789 10.2703C447.194 9.9491 447.527 9.54553 447.765 9.08623L445.973 8.15723L444.181 7.22822C444.205 7.18146 444.238 7.14089 444.279 7.10856L445.534 8.68945ZM445.973 8.15723L447.757 9.10008L448.587 7.52879L446.803 6.58594L445.018 5.64309L444.188 7.21438L445.973 8.15723ZM446.803 6.58594L448.584 7.53456C448.444 7.79892 448.233 8.02225 447.971 8.17828L446.938 6.44434L445.904 4.71039C445.529 4.93423 445.224 5.25605 445.021 5.63731L446.803 6.58594ZM446.938 6.44434L447.97 8.17861C447.704 8.33728 447.406 8.41403 447.112 8.41201L447.126 6.39355L447.14 4.3751C446.713 4.37218 446.285 4.48364 445.905 4.71007L446.938 6.44434Z" fill="#E9E9E9" mask="url(#path-1-inside-1_1133_34486)"/>
<path d="M447.128 9.9613C447.253 10.0885 447.387 10.2071 447.529 10.3151C447.943 10.6301 448.421 10.8583 448.933 10.9804L448.987 10.9863C449.452 11.103 449.937 11.1305 450.415 11.0632C450.596 11.0376 450.775 10.9976 450.95 10.9459C450.983 11.0652 451.022 11.1829 451.067 11.2988C451.262 11.8 451.565 12.2521 451.953 12.6224L451.996 12.6618C452.075 12.7335 452.158 12.8128 452.263 12.9141C452.602 13.2509 453.005 13.5212 453.452 13.7056L453.627 13.7716C453.742 13.8124 453.859 13.8479 453.978 13.8771C453.953 13.984 453.932 14.0922 453.917 14.2013C453.84 14.7348 453.882 15.2791 454.038 15.7941L454.06 15.8611C454.082 15.9273 454.11 16.0239 454.15 16.1735C454.277 16.6602 454.5 17.1177 454.81 17.5179C454.911 17.6495 455.023 17.7729 455.141 17.8894C455.083 17.9496 455.028 18.0117 454.974 18.0757L454.854 18.2275C454.545 18.6398 454.323 19.116 454.207 19.6251L454.202 19.6477C454.175 19.773 454.15 19.8735 454.126 19.9572C453.978 20.4483 453.937 20.9631 454 21.4681L454.03 21.6603C454.047 21.7541 454.069 21.847 454.093 21.9392C454.04 21.9546 453.988 21.9708 453.935 21.9885L453.746 22.0585C453.307 22.2347 452.907 22.4924 452.567 22.8145L452.416 22.9662C452.329 23.0593 452.245 23.1449 452.168 23.2195C451.8 23.5693 451.512 23.9909 451.318 24.4555C451.255 24.6061 451.202 24.7619 451.16 24.9197C451.034 24.8868 450.905 24.8611 450.776 24.8418L450.58 24.8182C450.191 24.7816 449.798 24.8079 449.416 24.896L449.226 24.9453L448.856 25.0468C448.351 25.1774 447.875 25.4137 447.463 25.7436C447.346 25.837 447.236 25.9373 447.132 26.0433C447.007 25.9165 446.874 25.7978 446.732 25.6894L446.571 25.5741C446.191 25.3154 445.767 25.1269 445.317 25.0212C445.212 24.995 445.098 24.9624 444.944 24.9167C444.522 24.7849 444.079 24.7296 443.637 24.7551L443.437 24.7719C443.268 24.7909 443.102 24.8226 442.938 24.8645C442.914 24.7564 442.886 24.649 442.852 24.5432L442.791 24.3678L442.72 24.1953C442.546 23.7967 442.303 23.4323 442.003 23.12L441.941 23.0589L441.802 22.911L441.774 22.8805L441.637 22.7445C441.358 22.4804 441.037 22.2616 440.687 22.0979L440.509 22.0211L440.328 21.953C440.24 21.9227 440.15 21.8975 440.059 21.8742C440.114 21.7025 440.156 21.5264 440.184 21.3469C440.251 20.9221 440.242 20.488 440.157 20.0676L440.115 19.8882L440.068 19.698C439.962 19.2559 439.777 18.8347 439.521 18.4571L439.404 18.2945L439.279 18.1398C439.202 18.0488 439.12 17.9618 439.035 17.8786C439.193 17.7344 439.34 17.5782 439.471 17.4085C439.761 17.0325 439.978 16.6033 440.108 16.1439C440.131 16.0756 440.15 16.0073 440.166 15.9389C440.278 15.5296 440.322 15.1041 440.293 14.6794L440.274 14.4783L440.243 14.2792C440.22 14.1475 440.19 14.0171 440.153 13.8889C440.354 13.8434 440.553 13.7836 440.744 13.7056C441.212 13.5148 441.637 13.2306 441.993 12.8718L442.08 12.785L442.079 12.784C442.441 12.4333 442.73 12.0141 442.926 11.5511L442.998 11.3677C443.042 11.2478 443.079 11.1257 443.11 11.0021C443.271 11.0505 443.435 11.0896 443.601 11.1154C444.108 11.1938 444.627 11.1649 445.122 11.0297L445.179 11.0129L445.209 11.0031L445.413 10.9508L445.414 10.9518C445.916 10.824 446.385 10.5905 446.789 10.2698C446.909 10.1747 447.021 10.0703 447.128 9.9613Z" fill="#21082B"/>
<text fill="white" xml:space="preserve" style="white-space: pre" font-family="Manrope" font-size="26" font-weight="bold" letter-spacing="0em"><tspan x="611.059" y="27.958"> Integrata</tspan></text>
<text fill="white" xml:space="preserve" style="white-space: pre" font-family="Manrope" font-size="26" font-weight="300" letter-spacing="0em"><tspan x="476.285" y="27.958">Intelligenza</tspan></text>
<text fill="white" xml:space="preserve" style="white-space: pre" font-family="Manrope" font-size="32" font-weight="600" letter-spacing="0em"><tspan x="535.789" y="69.1325">Synergy map</tspan></text>
<line opacity="0.3" x1="743.886" y1="3.53235" x2="743.886" y2="69.1336" stroke="white" stroke-width="1.00925"/>
<path d="M798.973 1.90049L799.171 2.02512L778.255 35.3409L778.056 35.2162L798.973 1.90049Z" fill="#21082B" stroke="white" stroke-width="0.504625"/>
<path d="M793.737 8.42744L830.316 20.851L830.286 20.9407L793.706 8.51714L793.737 8.42744Z" fill="#21082B" stroke="white" stroke-width="0.504625"/>
<path d="M775.361 30.2851C776.192 26.7658 779.718 24.5866 783.238 25.4174C786.757 26.2484 788.936 29.7751 788.105 33.2944C787.274 36.8136 783.747 38.9931 780.228 38.1621C776.709 37.331 774.53 33.8042 775.361 30.2851Z" fill="#21082B" stroke="white" stroke-width="0.504625"/>
<path d="M828.561 18.2684C830.601 16.2285 833.909 16.2291 835.949 18.2691C837.989 20.3092 837.989 23.6164 835.949 25.6564C833.909 27.6964 830.601 27.697 828.561 25.6571C826.521 23.617 826.521 20.3085 828.561 18.2684Z" fill="#21082B" stroke="white" stroke-width="0.504625"/>
<path d="M777.718 25.8398C777.599 25.8454 777.44 25.8687 777.277 25.9209C777.023 26.0026 776.839 26.1266 776.769 26.2627C776.658 26.4759 776.573 26.7157 776.456 27.002C776.343 27.278 776.205 27.5786 776.001 27.8623C775.85 28.0723 775.353 28.8276 774.855 29.5469C774.61 29.9014 774.367 30.2443 774.174 30.4941C774.078 30.6179 773.99 30.7253 773.918 30.8008C773.883 30.8372 773.842 30.8761 773.801 30.9053C773.781 30.9193 773.748 30.9396 773.707 30.9531C773.668 30.9659 773.581 30.9852 773.489 30.9355C773.44 30.9085 773.408 30.8716 773.393 30.8506C773.375 30.8274 773.362 30.804 773.353 30.7852C773.334 30.7475 773.319 30.7046 773.306 30.6641C773.279 30.5816 773.252 30.4741 773.225 30.3545C773.17 30.1201 773.102 29.7859 773.028 29.4561C772.952 29.1169 772.865 28.7596 772.765 28.4365C772.663 28.1095 772.552 27.8344 772.435 27.6514C772.181 27.2567 771.831 26.9145 771.538 26.668C771.463 26.6047 771.393 26.5469 771.329 26.498L771.134 27.3848C771.135 27.3937 771.136 27.4045 771.138 27.416C771.144 27.4655 771.154 27.5385 771.167 27.6309C771.192 27.816 771.229 28.081 771.274 28.3994C771.365 29.0369 771.488 29.8891 771.621 30.749C771.754 31.6096 771.897 32.4753 772.025 33.1406C772.09 33.4737 772.149 33.7528 772.202 33.9541C772.229 34.0554 772.252 34.1318 772.271 34.1836H772.272C772.275 34.1836 772.278 34.1847 772.281 34.1846C772.336 34.1831 772.417 34.1705 772.522 34.1387C772.731 34.0755 773.001 33.9492 773.287 33.7588C773.86 33.3772 774.46 32.7585 774.75 31.9316C775.069 31.0204 775.702 29.7461 776.248 28.71C776.522 28.1895 776.778 27.7249 776.964 27.3906C777.057 27.2237 777.133 27.089 777.186 26.9961C777.212 26.9497 777.232 26.9131 777.246 26.8887C777.253 26.8766 777.259 26.8676 777.263 26.8613C777.264 26.8582 777.266 26.8551 777.267 26.8535C777.267 26.853 777.267 26.8517 777.268 26.8506C777.269 26.8484 777.271 26.8452 777.273 26.8408C777.279 26.8316 777.286 26.8174 777.296 26.7998C777.315 26.7647 777.342 26.714 777.373 26.6533C777.436 26.531 777.517 26.3697 777.587 26.208C777.647 26.0682 777.692 25.9389 777.718 25.8398Z" fill="#21082B" stroke="white" stroke-width="0.504625"/>
<path d="M776.934 26.2218C776.934 26.2215 776.925 26.2247 776.909 26.2433C776.892 26.2628 776.874 26.291 776.857 26.3253C776.841 26.3589 776.829 26.3928 776.821 26.4181C776.817 26.4303 776.814 26.4403 776.812 26.4464C776.812 26.4492 776.812 26.4513 776.812 26.4523L776.804 26.4874L776.794 26.504C776.793 26.5071 776.79 26.5158 776.79 26.5294C776.79 26.551 776.797 26.6001 776.843 26.6749C776.89 26.6533 776.956 26.6124 777.032 26.5499C777.117 26.4804 777.198 26.4008 777.259 26.337C777.289 26.3056 777.313 26.2786 777.33 26.2599C777.333 26.2563 777.336 26.2531 777.339 26.2501L777.354 26.2208C777.351 26.2203 777.347 26.2204 777.344 26.2198C777.308 26.2148 777.26 26.2086 777.207 26.2052C777.092 26.1978 776.99 26.2032 776.934 26.2218Z" fill="#21082B" stroke="white" stroke-width="0.504625"/>
<mask id="path-13-inside-2_1133_34486" fill="white">
<path d="M777.998 25.8011C777.998 25.8011 778.235 27.0033 778.175 27.2551C778.115 27.5078 777.964 27.3723 777.936 27.3174C777.82 27.0915 777.739 26.3204 777.739 26.3204L777.998 25.8011Z"/>
</mask>
<path d="M777.998 25.8011C777.998 25.8011 778.235 27.0033 778.175 27.2551C778.115 27.5078 777.964 27.3723 777.936 27.3174C777.82 27.0915 777.739 26.3204 777.739 26.3204L777.998 25.8011Z" fill="#21082B"/>
<path d="M777.998 25.8011L777.547 25.5755L778.208 24.2528L778.493 25.7038L777.998 25.8011ZM778.175 27.2551L778.666 27.3715L778.666 27.3716L778.175 27.2551ZM777.936 27.3174L778.385 27.0867L778.385 27.0869L777.936 27.3174ZM777.739 26.3204L777.237 26.3732L777.221 26.2265L777.287 26.0947L777.739 26.3204ZM777.998 25.8011C778.493 25.7038 778.493 25.7039 778.493 25.7039C778.493 25.7039 778.494 25.7039 778.494 25.704C778.494 25.704 778.494 25.7041 778.494 25.7042C778.494 25.7044 778.494 25.7047 778.494 25.705C778.494 25.7057 778.494 25.7067 778.494 25.708C778.495 25.7105 778.495 25.7141 778.496 25.7188C778.498 25.7282 778.501 25.7418 778.504 25.759C778.511 25.7935 778.52 25.8428 778.531 25.9026C778.552 26.0219 778.581 26.1846 778.608 26.3562C778.634 26.5265 778.66 26.712 778.675 26.875C778.683 26.9563 778.688 27.0384 778.689 27.1137C778.69 27.1792 778.688 27.277 778.666 27.3715L778.175 27.2551L777.684 27.1387C777.676 27.1703 777.681 27.1754 777.68 27.127C777.679 27.0883 777.676 27.0352 777.67 26.9684C777.658 26.8352 777.636 26.6729 777.61 26.5112C777.585 26.3508 777.559 26.1972 777.538 26.0832C777.528 26.0264 777.519 25.9798 777.513 25.9476C777.51 25.9314 777.507 25.919 777.506 25.9106C777.505 25.9064 777.504 25.9033 777.504 25.9012C777.504 25.9002 777.503 25.8995 777.503 25.899C777.503 25.8988 777.503 25.8986 777.503 25.8985C777.503 25.8985 777.503 25.8984 777.503 25.8984C777.503 25.8984 777.503 25.8984 777.503 25.8984C777.503 25.8984 777.503 25.8985 777.998 25.8011ZM778.175 27.2551L778.666 27.3716C778.641 27.4781 778.589 27.6257 778.465 27.744C778.316 27.8861 778.123 27.93 777.95 27.8976C777.806 27.8705 777.703 27.7968 777.647 27.748C777.59 27.699 777.53 27.6311 777.487 27.548L777.936 27.3174L778.385 27.0869C778.356 27.0312 778.326 27.0008 778.307 26.9848C778.289 26.9689 778.232 26.9236 778.137 26.9056C778.013 26.8824 777.87 26.9161 777.768 27.0143C777.69 27.0886 777.679 27.1584 777.684 27.1387L778.175 27.2551ZM777.936 27.3174L777.487 27.5481C777.427 27.4311 777.389 27.2867 777.364 27.1794C777.337 27.0594 777.314 26.929 777.295 26.8127C777.277 26.6952 777.262 26.5861 777.252 26.5066C777.247 26.4667 777.244 26.434 777.241 26.4109C777.24 26.3994 777.239 26.3902 777.238 26.3838C777.238 26.3807 777.237 26.3781 777.237 26.3763C777.237 26.3754 777.237 26.3747 777.237 26.3742C777.237 26.3739 777.237 26.3737 777.237 26.3735C777.237 26.3735 777.237 26.3734 777.237 26.3733C777.237 26.3733 777.237 26.3733 777.237 26.3732C777.237 26.3732 777.237 26.3732 777.739 26.3204C778.241 26.2675 778.241 26.2675 778.241 26.2675C778.241 26.2675 778.241 26.2675 778.241 26.2675C778.241 26.2674 778.241 26.2674 778.241 26.2674C778.241 26.2675 778.241 26.2675 778.241 26.2676C778.241 26.2678 778.241 26.2682 778.241 26.2688C778.241 26.2699 778.241 26.2718 778.241 26.2743C778.242 26.2793 778.243 26.287 778.244 26.297C778.246 26.317 778.25 26.3462 778.254 26.3821C778.263 26.4543 778.276 26.5521 778.292 26.6557C778.309 26.7603 778.328 26.8651 778.348 26.9532C778.371 27.0541 778.387 27.0908 778.385 27.0867L777.936 27.3174ZM777.739 26.3204L777.287 26.0947L777.547 25.5755L777.998 25.8011L778.45 26.0268L778.19 26.546L777.739 26.3204Z" fill="white" mask="url(#path-13-inside-2_1133_34486)"/>
<mask id="path-15-inside-3_1133_34486" fill="white">
<path d="M777.49 26.8009C777.49 26.8009 777.603 27.5464 777.719 27.6343C777.794 27.6915 777.89 27.6577 777.921 27.5071C777.952 27.3566 777.771 26.4374 777.771 26.4374L777.49 26.8009Z"/>
</mask>
<path d="M777.49 26.8009C777.49 26.8009 777.603 27.5464 777.719 27.6343C777.794 27.6915 777.89 27.6577 777.921 27.5071C777.952 27.3566 777.771 26.4374 777.771 26.4374L777.49 26.8009Z" fill="#21082B"/>
<path d="M777.49 26.8009L776.991 26.8763L776.959 26.6633L777.091 26.4928L777.49 26.8009ZM777.719 27.6343L778.024 27.2323L778.024 27.2324L777.719 27.6343ZM777.771 26.4374L777.371 26.1292L778.05 25.2488L778.266 26.3395L777.771 26.4374ZM777.49 26.8009C777.989 26.7255 777.989 26.7255 777.989 26.7255C777.989 26.7255 777.989 26.7255 777.989 26.7254C777.989 26.7254 777.989 26.7254 777.989 26.7254C777.989 26.7254 777.989 26.7255 777.989 26.7256C777.989 26.7257 777.989 26.7261 777.989 26.7266C777.989 26.7276 777.99 26.7294 777.99 26.7317C777.991 26.7364 777.992 26.7436 777.993 26.753C777.997 26.7718 778.001 26.7992 778.007 26.8325C778.018 26.8996 778.035 26.9883 778.054 27.0781C778.074 27.1704 778.095 27.2524 778.114 27.3104C778.123 27.3402 778.129 27.3516 778.128 27.3505C778.128 27.3497 778.122 27.3383 778.111 27.3214C778.101 27.307 778.073 27.2698 778.024 27.2323L777.719 27.6343L777.414 28.0364C777.3 27.9503 777.243 27.8377 777.223 27.7961C777.194 27.7374 777.172 27.6762 777.154 27.6236C777.12 27.5172 777.09 27.3963 777.068 27.2912C777.044 27.1836 777.025 27.0805 777.012 27.0051C777.006 26.9671 777.001 26.9355 776.997 26.9132C776.995 26.9021 776.994 26.8932 776.993 26.8869C776.992 26.8838 776.992 26.8813 776.992 26.8795C776.992 26.8786 776.991 26.8779 776.991 26.8774C776.991 26.8771 776.991 26.8769 776.991 26.8767C776.991 26.8766 776.991 26.8765 776.991 26.8764C776.991 26.8764 776.991 26.8764 776.991 26.8764C776.991 26.8763 776.991 26.8763 777.49 26.8009ZM777.719 27.6343L778.024 27.2324C777.935 27.1651 777.766 27.1134 777.597 27.2044C777.453 27.2821 777.428 27.401 777.427 27.405L777.921 27.5071L778.415 27.6093C778.383 27.7639 778.295 27.975 778.076 28.0929C777.832 28.2241 777.578 28.1608 777.414 28.0363L777.719 27.6343ZM777.921 27.5071L777.427 27.405C777.417 27.4554 777.422 27.4821 777.42 27.4433C777.419 27.4196 777.415 27.3838 777.41 27.3356C777.398 27.2401 777.38 27.1203 777.36 26.999C777.34 26.8789 777.319 26.7627 777.302 26.6761C777.294 26.633 777.288 26.5975 777.283 26.5729C777.28 26.5606 777.279 26.551 777.277 26.5446C777.277 26.5414 777.276 26.539 777.276 26.5374C777.276 26.5366 777.276 26.5361 777.276 26.5357C777.276 26.5355 777.276 26.5354 777.276 26.5353C777.275 26.5353 777.275 26.5353 777.275 26.5353C777.275 26.5353 777.275 26.5353 777.275 26.5353C777.275 26.5353 777.275 26.5353 777.771 26.4374C778.266 26.3395 778.266 26.3395 778.266 26.3395C778.266 26.3395 778.266 26.3395 778.266 26.3396C778.266 26.3396 778.266 26.3397 778.266 26.3397C778.266 26.3399 778.266 26.3401 778.266 26.3404C778.266 26.3409 778.266 26.3416 778.266 26.3426C778.267 26.3445 778.267 26.3473 778.268 26.3509C778.269 26.358 778.271 26.3683 778.274 26.3815C778.279 26.4077 778.286 26.4452 778.294 26.4906C778.311 26.5811 778.334 26.704 778.355 26.8326C778.377 26.9599 778.398 27.0981 778.412 27.2173C778.419 27.2765 778.425 27.3371 778.428 27.3925C778.43 27.4329 778.434 27.5212 778.415 27.6093L777.921 27.5071ZM777.771 26.4374L778.17 26.7455L777.89 27.1091L777.49 26.8009L777.091 26.4928L777.371 26.1292L777.771 26.4374Z" fill="white" mask="url(#path-15-inside-3_1133_34486)"/>
<mask id="path-17-inside-4_1133_34486" fill="white">
<path d="M776.801 28.9163L776.409 28.7253L778.074 25.3083C778.291 25.4139 778.381 25.675 778.275 25.8916L776.801 28.9163Z"/>
</mask>
<path d="M776.801 28.9163L776.409 28.7253L778.074 25.3083C778.291 25.4139 778.381 25.675 778.275 25.8916L776.801 28.9163Z" fill="#21082B"/>
<path d="M776.801 28.9163L777.254 29.1374L777.033 29.5909L776.58 29.37L776.801 28.9163ZM776.409 28.7253L776.188 29.1789L775.734 28.9579L775.955 28.5042L776.409 28.7253ZM778.074 25.3083L777.621 25.0872L777.842 24.6335L778.295 24.8548L778.074 25.3083ZM778.275 25.8916L778.729 26.1127L778.729 26.1127L778.275 25.8916ZM776.801 28.9163L776.58 29.37L776.188 29.1789L776.409 28.7253L776.63 28.2716L777.022 28.4627L776.801 28.9163ZM776.409 28.7253L775.955 28.5042L777.621 25.0872L778.074 25.3083L778.528 25.5295L776.862 28.9464L776.409 28.7253ZM778.074 25.3083L778.295 24.8548C778.762 25.0825 778.956 25.6455 778.729 26.1127L778.275 25.8916L777.822 25.6706C777.805 25.7046 777.819 25.7454 777.853 25.7619L778.074 25.3083ZM778.275 25.8916L778.729 26.1127L777.254 29.1374L776.801 28.9163L776.347 28.6952L777.822 25.6705L778.275 25.8916Z" fill="white" mask="url(#path-17-inside-4_1133_34486)"/>
<path d="M770.06 17.337C769.39 17.2576 768.947 17.356 768.595 17.5392C768.23 17.7285 767.943 18.0159 767.586 18.3693C767.235 18.7167 766.831 19.1118 766.256 19.4532C765.679 19.7959 764.94 20.0797 763.917 20.2277C762.675 20.4072 761.578 20.5742 760.598 21.1583H760.597C759.706 21.6888 759.118 22.363 758.886 23.2286C758.652 24.1001 758.766 25.2091 759.37 26.6281C760.105 28.3533 761.091 29.246 762.146 29.6281C763.207 30.0128 764.384 29.896 765.526 29.5099C766.667 29.1241 767.752 28.4767 768.609 27.837C769.473 27.1925 770.081 26.5751 770.286 26.2628C770.618 25.7572 771.104 24.846 771.528 23.9689C771.74 23.5319 771.934 23.1069 772.084 22.7501C772.237 22.3871 772.337 22.1115 772.369 21.965C772.605 20.8909 772.81 19.9024 772.238 18.8195C771.778 17.9471 770.985 17.4469 770.06 17.337Z" fill="#21082B" stroke="white" stroke-width="0.504625"/>
<path d="M761.457 67.1989C761.429 67.401 761.387 67.6758 761.328 67.9635C761.269 68.2498 761.191 68.5568 761.093 68.8199C761 69.0686 760.868 69.3322 760.673 69.4742C760.468 69.623 760.187 70.0165 760 70.486C759.811 70.9613 759.758 71.414 759.886 71.693C759.953 71.8388 760.094 71.941 760.304 72.0055C760.906 72.1907 761.556 71.8803 761.818 71.2916C761.98 70.9279 762.125 70.4377 762.154 69.8151C762.194 68.956 762.348 68.3035 762.495 67.8619C762.547 67.7051 762.601 67.5755 762.646 67.4723L761.463 67.1559C761.461 67.1698 761.459 67.1842 761.457 67.1989Z" fill="#21082B" stroke="white" stroke-width="0.504625"/>
<path d="M769.562 68.79C769.586 69.3841 769.596 70.1034 769.522 70.4756C769.501 70.5865 769.456 70.7176 769.412 70.8408C769.366 70.9709 769.318 71.1007 769.277 71.2314C769.236 71.3623 769.207 71.4799 769.197 71.5781C769.187 71.6803 769.2 71.7309 769.211 71.751C769.287 71.8925 769.365 71.9739 769.416 72.0176C769.429 72.0287 769.442 72.0361 769.451 72.043L773.614 72.1094C773.354 71.9374 773.011 71.7524 772.173 71.3477C772.123 71.3236 772.028 71.2657 771.948 71.2168C771.858 71.1615 771.778 71.1103 771.73 71.0811C771.464 70.9188 771.208 70.6728 770.999 70.4404V70.4395C770.927 70.3594 770.876 70.2574 770.838 70.1592C770.799 70.0577 770.766 69.9425 770.739 69.8232C770.686 69.5847 770.649 69.3091 770.624 69.0527C770.599 68.7954 770.583 68.5509 770.575 68.3711C770.573 68.3334 770.573 68.2982 770.572 68.2666L769.521 68.0068C769.534 68.2123 769.549 68.4909 769.562 68.79Z" fill="#21082B" stroke="white" stroke-width="0.504625"/>
<path d="M769.176 48.6895L769.381 55.5508L769.383 55.5938L769.37 55.6338L769.369 55.6348C769.369 55.6356 769.369 55.637 769.368 55.6387C769.367 55.6423 769.365 55.648 769.363 55.6553C769.359 55.6697 769.352 55.691 769.344 55.7188C769.327 55.7747 769.303 55.8565 769.273 55.958C769.215 56.1612 769.136 56.4449 769.055 56.7646C768.891 57.4091 768.722 58.1837 768.685 58.7529C768.647 59.3295 768.735 61.7441 768.835 64.04C768.885 65.1822 768.937 66.2878 768.977 67.1074C768.996 67.5168 769.013 67.855 769.024 68.0908C769.027 68.1327 769.029 68.1718 769.03 68.207L770.642 68.1162C770.642 68.1118 770.642 68.1071 770.643 68.1025C770.656 67.9521 770.677 67.7311 770.703 67.4492C770.755 66.8853 770.83 66.077 770.921 65.1006C771.103 63.1476 771.349 60.5202 771.607 57.8242C772.124 52.4412 772.691 46.7583 772.889 45.6416C773.078 44.5721 773.029 43.2058 772.93 42.0928C772.88 41.5394 772.819 41.0539 772.77 40.707C772.745 40.5337 772.723 40.3948 772.708 40.2998C772.708 40.2983 772.708 40.2964 772.708 40.2949L771.716 39.9229L769.176 48.6895Z" fill="#21082B" stroke="white" stroke-width="0.504625"/>
<path d="M766.963 39.6372C766.961 39.6407 766.958 39.6443 766.956 39.6479C766.911 39.7178 766.846 39.8202 766.768 39.9497C766.61 40.209 766.395 40.5767 766.169 41.0063C765.714 41.8705 765.221 42.9686 765.033 43.9497C764.941 44.4331 764.908 45.185 764.905 46.1021C764.902 47.0148 764.927 48.0668 764.94 49.1479C764.967 51.2902 764.951 53.5643 764.563 54.9419C764.352 55.6924 763.849 56.6445 763.394 57.5972C762.928 58.5712 762.501 59.5622 762.39 60.4507C762.272 61.3922 761.982 63.089 761.724 64.5444C761.594 65.2733 761.473 65.9439 761.383 66.4321C761.341 66.6581 761.306 66.8453 761.281 66.981L762.911 67.3032L767.669 55.2788L771.452 44.2671L772.363 38.9321L766.963 39.6372Z" fill="#21082B" stroke="white" stroke-width="0.504625"/>
<path d="M768.116 25.6503C768.079 25.656 768.023 25.6655 767.953 25.6796C767.813 25.7078 767.618 25.7553 767.396 25.83C766.95 25.9807 766.421 26.237 766.032 26.66C766.015 26.6791 765.988 26.723 765.964 26.8085C765.94 26.8923 765.922 27.0021 765.912 27.1395C765.893 27.4152 765.91 27.7737 765.955 28.1942C766.046 29.0336 766.248 30.0855 766.484 31.1542C766.72 32.2217 766.989 33.2981 767.208 34.1844C767.425 35.0599 767.599 35.7713 767.641 36.0868C767.686 36.4346 767.615 36.8704 767.501 37.3046C767.385 37.7457 767.216 38.2145 767.044 38.6405C766.872 39.0674 766.695 39.4566 766.562 39.7382C766.536 39.7929 766.511 39.8433 766.488 39.8895C766.626 39.9123 766.803 39.941 767.01 39.9716C767.532 40.0489 768.243 40.1428 768.997 40.2059C769.753 40.2692 770.547 40.302 771.237 40.2606C771.863 40.2231 772.365 40.1248 772.683 39.9628C772.684 39.9041 772.685 39.8281 772.687 39.7372C772.69 39.5019 772.696 39.1647 772.702 38.7577C772.714 37.9434 772.73 36.8491 772.739 35.7284C772.749 34.6073 772.753 33.4605 772.746 32.5419C772.742 32.0826 772.736 31.6817 772.726 31.37C772.715 31.0509 772.7 30.8441 772.685 30.7596C772.611 30.3618 772.256 29.3078 771.87 28.2909C771.679 27.7875 771.484 27.3014 771.318 26.9218C771.235 26.7318 771.16 26.5713 771.098 26.4491C771.066 26.3879 771.039 26.3379 771.017 26.3007C771.006 26.2824 770.997 26.2682 770.989 26.2577C770.982 26.2467 770.978 26.2421 770.978 26.2421C770.98 26.2449 770.951 26.2204 770.85 26.1796C770.759 26.1431 770.638 26.1048 770.494 26.0663C770.207 25.9894 769.847 25.9166 769.491 25.8534C769.137 25.7904 768.79 25.7379 768.533 25.701C768.405 25.6826 768.299 25.6679 768.225 25.6581C768.19 25.6534 768.162 25.6489 768.143 25.6464C768.135 25.6474 768.126 25.6487 768.116 25.6503Z" fill="#21082B" stroke="white" stroke-width="0.504625"/>
<path d="M767.028 26.981C766.754 26.8625 766.441 27.0014 766.351 27.2729C766.105 28.0143 766.265 29.001 766.71 30.1021C767.151 31.1938 767.855 32.3537 768.633 33.4165C769.41 34.4784 770.253 35.4342 770.966 36.1167C771.323 36.4585 771.643 36.7267 771.902 36.9058C772.032 36.9954 772.141 37.0592 772.228 37.0981C772.271 37.1175 772.304 37.1298 772.33 37.1362C772.356 37.1428 772.368 37.1421 772.368 37.1421C772.383 37.1409 772.423 37.1308 772.491 37.0864C772.558 37.0432 772.638 36.9766 772.73 36.8833C772.915 36.6963 773.127 36.4251 773.355 36.0913C773.812 35.4253 774.316 34.5394 774.788 33.6489C775.259 32.7598 775.694 31.872 776.012 31.2065C776.17 30.8741 776.299 30.5974 776.389 30.4038C776.433 30.307 776.469 30.2309 776.492 30.1792C776.504 30.1536 776.513 30.1338 776.519 30.1206C776.522 30.114 776.524 30.1083 776.525 30.105C776.526 30.1036 776.527 30.1028 776.527 30.1021V30.1001L776.536 30.0815L776.548 30.064L776.549 30.063C776.549 30.0624 776.549 30.0611 776.55 30.0601C776.551 30.0577 776.554 30.0542 776.558 30.0493C776.564 30.0395 776.574 30.0247 776.588 30.0044C776.615 29.9636 776.656 29.9003 776.713 29.814C776.826 29.6411 777.001 29.3729 777.248 28.9917C777.449 28.6809 777.459 28.3475 777.41 28.0776C777.409 28.0707 777.407 28.064 777.405 28.0571C777.339 28.1234 777.262 28.1886 777.173 28.2417C776.998 28.3452 776.826 28.3922 776.679 28.3862C776.607 28.3833 776.526 28.367 776.455 28.3237C776.383 28.2799 776.298 28.1901 776.298 28.0532C776.227 28.1375 776.166 28.223 776.126 28.3052C776.033 28.4956 775.995 28.7832 775.985 29.0493C775.981 29.1772 775.983 29.2913 775.986 29.3735C775.988 29.4146 775.991 29.4481 775.992 29.4702C775.993 29.481 775.993 29.4893 775.993 29.4946C775.993 29.4973 775.994 29.4993 775.994 29.5005V29.5015L776.001 29.5806L775.962 29.6509H775.961C775.961 29.6515 775.961 29.6527 775.96 29.6538C775.959 29.6562 775.957 29.66 775.954 29.6646C775.949 29.6738 775.94 29.6878 775.93 29.7056C775.909 29.7411 775.879 29.7933 775.841 29.8589C775.764 29.9908 775.653 30.1788 775.518 30.4038C775.247 30.8538 774.88 31.4529 774.49 32.0474C774.102 32.6404 773.687 33.236 773.324 33.6743C773.144 33.892 772.969 34.0801 772.811 34.2104C772.732 34.2754 772.648 34.3339 772.562 34.3726C772.48 34.4099 772.367 34.4417 772.247 34.4116C772.155 34.3884 772.073 34.3356 772.008 34.2837C771.939 34.2292 771.87 34.1603 771.802 34.0835C771.665 33.9299 771.514 33.7255 771.356 33.4897C771.04 33.0168 770.679 32.3929 770.323 31.7397C769.611 30.432 768.906 28.9835 768.594 28.3315C768.26 27.6356 767.564 27.2126 767.028 26.981Z" fill="#21082B" stroke="white" stroke-width="0.504625"/>
<path d="M769.075 22.7446C769.023 23.0204 768.908 23.5674 768.775 24.1089C768.706 24.3894 768.632 24.6717 768.559 24.9146C768.487 25.1517 768.41 25.369 768.335 25.5112C768.328 25.5249 768.316 25.5622 768.323 25.6362C768.33 25.709 768.354 25.8021 768.399 25.9106C768.49 26.1278 768.652 26.3797 768.866 26.6128C769.279 27.0622 769.816 27.3753 770.311 27.3374C770.31 27.326 770.311 27.3133 770.31 27.2993C770.3 27.1643 770.255 26.9726 770.192 26.7573C770.131 26.5445 770.06 26.3321 770.002 26.1499C769.974 26.0614 769.949 25.978 769.932 25.9097C769.923 25.8758 769.914 25.8409 769.909 25.8081C769.905 25.7834 769.899 25.7293 769.91 25.6724C769.975 25.345 770.063 24.898 770.154 24.4399C770.206 24.1816 770.258 23.9196 770.307 23.6733C770.376 23.3236 770.439 23.0055 770.484 22.7749C770.489 22.7523 770.494 22.7303 770.498 22.7095L769.075 22.7446Z" fill="#21082B" stroke="white" stroke-width="0.504625"/>
<path d="M769.075 22.7446C769.064 22.8045 769.051 22.8757 769.035 22.9556C769.159 23.2789 769.353 23.5786 769.642 23.8306C769.838 24.0021 770.027 24.1117 770.206 24.1753C770.24 24.0048 770.274 23.8357 770.306 23.6733C770.375 23.3236 770.438 23.0055 770.483 22.7749C770.488 22.7523 770.493 22.7303 770.497 22.7095L769.075 22.7446Z" fill="#21082B" stroke="white" stroke-width="0.504625"/>
<path d="M770.045 18.1388C770.027 18.1423 769.999 18.1479 769.963 18.1573C769.891 18.1763 769.787 18.2092 769.666 18.2628C769.425 18.3702 769.121 18.5602 768.865 18.8898C768.615 19.2125 768.331 19.9181 768.285 20.6974C768.24 21.4704 768.432 22.2648 769.065 22.8185C769.387 23.0998 769.691 23.2168 769.961 23.2325C770.231 23.2483 770.493 23.1644 770.732 22.9991C771.22 22.6631 771.594 22.0059 771.69 21.3156C771.794 20.5756 771.827 19.7477 771.604 19.1222C771.495 18.8153 771.329 18.5692 771.089 18.4005C770.853 18.2343 770.523 18.1274 770.055 18.1368C770.052 18.1374 770.049 18.1381 770.045 18.1388Z" fill="#21082B" stroke="white" stroke-width="0.504625"/>
<path d="M772.25 20.2783C772.239 20.2807 772.219 20.2877 772.188 20.3076C772.117 20.3529 772.03 20.4435 771.961 20.5771C771.892 20.7105 771.866 20.8394 771.868 20.9326C771.87 20.9826 771.879 21.0092 771.885 21.0225C771.896 21.0197 771.917 21.014 771.946 20.9951C772.017 20.9498 772.103 20.8583 772.172 20.7246C772.241 20.5913 772.267 20.4623 772.265 20.3691C772.263 20.3187 772.256 20.2913 772.25 20.2783Z" fill="#21082B" stroke="white" stroke-width="0.504625"/>
<path d="M769.661 18.0873C769.315 18.1104 768.882 18.1938 768.495 18.4232C768.346 18.5116 768.191 18.7159 768.045 19.0267C767.907 19.3208 767.794 19.6741 767.704 20.0228C767.831 19.9512 767.977 19.8971 768.148 19.8773C768.283 19.8617 768.473 19.7543 768.703 19.5433C768.924 19.3404 769.148 19.0733 769.351 18.8011C769.545 18.5397 769.716 18.2796 769.841 18.0804C769.785 18.0812 769.725 18.083 769.661 18.0873Z" fill="#21082B" stroke="white" stroke-width="0.504625"/>
<path d="M767.936 20.2852C767.923 20.2879 767.878 20.3068 767.84 20.4023C767.802 20.4953 767.786 20.6315 767.814 20.7842C767.843 20.9372 767.906 21.0548 767.972 21.124C768.038 21.1941 768.081 21.1934 768.092 21.1914C768.104 21.1889 768.15 21.1707 768.188 21.0742C768.226 20.9812 768.242 20.8451 768.214 20.6924C768.186 20.5394 768.122 20.4208 768.057 20.3516C767.989 20.2808 767.946 20.2831 767.936 20.2852Z" fill="#21082B" stroke="white" stroke-width="0.504625"/>
<path d="M759.983 70.5311C759.921 70.6938 759.872 70.8589 759.844 71.0184C759.795 71.2958 759.81 71.528 759.886 71.6932C759.944 71.8192 760.055 71.9114 760.22 71.9764C760.387 72.0423 760.59 72.0725 760.79 72.08C761.15 72.0933 761.487 71.905 761.666 71.5917L761.667 71.5907C761.714 71.5091 761.761 71.4178 761.808 71.3163C760.988 71.3291 760.383 70.9283 759.983 70.5311Z" fill="#21082B" stroke="white" stroke-width="0.504625"/>
<path d="M769.328 71.0831C769.289 71.1981 769.251 71.3119 769.225 71.421C769.177 71.6155 769.174 71.7383 769.195 71.7999C769.243 71.9396 769.292 71.9966 769.318 72.0187C769.34 72.0366 769.359 72.0424 769.386 72.0431C770.385 72.0693 772.843 72.1025 774.019 72.1183C773.989 72.103 773.959 72.0857 773.927 72.0695C773.679 71.9448 773.364 71.7999 773.05 71.6603C772.736 71.5209 772.426 71.3876 772.188 71.2853C772.069 71.2344 771.967 71.1909 771.893 71.1583C771.871 71.1487 771.851 71.1389 771.833 71.131C770.744 71.3916 769.892 71.2639 769.328 71.0831Z" fill="#21082B" stroke="white" stroke-width="0.504625"/>
<path d="M805.033 22.1351C804.929 22.1492 804.797 22.1775 804.65 22.2181C804.356 22.2997 804.019 22.4274 803.741 22.5804C803.602 22.657 803.484 22.7369 803.395 22.8158C803.303 22.8963 803.256 22.964 803.236 23.014C803.221 23.054 803.222 23.0836 803.241 23.1205C803.26 23.1562 803.301 23.208 803.385 23.2699L803.483 23.3353C803.868 23.563 804.988 24.0621 806.268 24.5814C807.541 25.0983 808.946 25.6238 809.89 25.9047C810.466 26.0742 811.051 26.2315 811.612 26.3549L811.615 26.3558C812.397 26.5373 813.146 26.6823 813.766 26.7377H813.768C814.391 26.7995 814.73 26.6709 814.905 26.5062C815.077 26.3442 815.146 26.0944 815.11 25.7826C815.075 25.4708 814.936 25.1308 814.742 24.85C814.544 24.5638 814.314 24.3757 814.123 24.3168L814.124 24.3158C813.664 24.1813 812.92 23.9904 812.061 23.7982L812.055 23.7972C811.647 23.6954 811.216 23.5937 810.773 23.4916L810.774 23.4906C808.502 22.9907 805.494 22.2112 805.198 22.1254L805.197 22.1263C805.202 22.1278 805.192 22.1241 805.158 22.1244C805.127 22.1247 805.085 22.1281 805.033 22.1351Z" fill="#21082B" stroke="white" stroke-width="0.504625"/>
<path d="M811.024 23.7834C810.926 24.138 810.791 24.6086 810.641 25.0706C810.51 25.4737 810.53 25.9072 810.588 26.2512C810.617 26.4212 810.654 26.5651 810.684 26.6653C810.687 26.6775 810.692 26.6886 810.695 26.6995C810.768 26.7189 810.869 26.7465 810.995 26.7766C811.265 26.841 811.644 26.923 812.083 26.9905C812.967 27.1264 814.068 27.201 814.992 26.9866C815.39 26.8941 815.603 26.6642 815.704 26.3684C815.81 26.0568 815.796 25.6537 815.68 25.2415C815.564 24.8318 815.356 24.4409 815.112 24.1624C814.861 23.876 814.612 23.7513 814.415 23.7639C813.368 23.8306 812.481 23.7315 811.855 23.6155C811.543 23.5575 811.294 23.4948 811.123 23.4465C811.121 23.4459 811.119 23.4443 811.116 23.4436C811.091 23.537 811.061 23.6525 811.024 23.7834Z" fill="#21082B" stroke="white" stroke-width="0.504625"/>
<path d="M807.084 70.9622C806.588 70.9697 806.434 71.1792 806.412 71.2776C806.396 71.3528 806.432 71.5426 806.797 71.6184C807.223 71.7067 808.067 71.7986 808.828 71.8508C809.207 71.8768 809.559 71.8925 809.822 71.8938C809.955 71.8944 810.06 71.8914 810.132 71.885C810.138 71.8844 810.144 71.8827 810.149 71.8821C810.166 71.8509 810.185 71.8102 810.205 71.762C810.248 71.656 810.289 71.5256 810.312 71.3997C810.335 71.2687 810.333 71.1677 810.314 71.1057C810.301 71.061 810.286 71.0506 810.253 71.0432C809.987 70.9843 809.483 70.9579 808.884 70.9504C808.293 70.9431 807.638 70.9538 807.084 70.9622Z" fill="#21082B" stroke="white" stroke-width="0.504625"/>
<path d="M826.2 70.4309C825.934 70.4878 825.464 70.674 824.916 70.9163C824.376 71.155 823.784 71.4373 823.284 71.675C822.836 71.8881 822.783 72.1433 822.805 72.2415C822.821 72.3167 822.933 72.4746 823.296 72.3918C823.72 72.2952 824.526 72.0272 825.24 71.7581C825.596 71.6242 825.922 71.4922 826.162 71.384C826.283 71.3296 826.377 71.2831 826.439 71.2473C826.445 71.2441 826.45 71.2404 826.455 71.2375C826.457 71.2022 826.457 71.157 826.455 71.1047C826.45 70.9903 826.434 70.8545 826.402 70.7307C826.369 70.6022 826.325 70.5117 826.282 70.4631C826.267 70.4456 826.255 70.4353 826.242 70.4309H826.2Z" fill="#21082B" stroke="white" stroke-width="0.504625"/>
<path d="M815.438 38.0494C814.79 38.048 814.127 38.1827 813.612 38.4332C813.093 38.6858 812.765 39.0337 812.69 39.4401C812.221 42.0116 811.653 45.2397 811.202 47.8658C810.977 49.179 810.781 50.3419 810.642 51.1959C810.572 51.6229 810.517 51.9721 810.479 52.2242C810.461 52.3505 810.446 52.4515 810.437 52.525C810.433 52.5541 810.431 52.5766 810.429 52.5934C810.445 52.6153 810.469 52.6467 810.506 52.6852C810.592 52.7756 810.721 52.8923 810.884 53.0231C811.209 53.2844 811.651 53.5873 812.113 53.8278C812.581 54.0707 813.045 54.2365 813.421 54.2526C813.606 54.2604 813.757 54.2314 813.875 54.1696C813.989 54.1097 814.09 54.0105 814.165 53.8463C814.347 53.4462 814.635 52.5142 814.972 51.278C815.306 50.05 815.684 48.5434 816.05 47.0114C816.782 43.9427 817.459 40.7883 817.634 39.568C817.671 39.3067 817.632 39.0925 817.542 38.9156C817.451 38.737 817.303 38.5812 817.101 38.4518C816.691 38.1895 816.088 38.0509 815.438 38.0494Z" fill="#21082B" stroke="white" stroke-width="0.504625"/>
<path d="M812.601 49.6508C812.194 49.486 811.782 49.5256 811.429 49.7924C811.067 50.0657 810.738 50.6014 810.577 51.4857C809.91 55.1393 809.58 62.1624 809.409 66.5951V66.598C809.375 67.2933 809.349 67.928 809.326 68.476L809.261 69.8334C809.25 70.1655 809.238 70.4154 809.225 70.5199C809.205 70.6759 809.25 70.7744 809.31 70.8373C809.374 70.9054 809.478 70.9532 809.605 70.9613C809.859 70.9773 810.142 70.8332 810.232 70.4916L810.234 70.4847L810.237 70.4769L810.251 70.4252C810.258 70.3997 810.268 70.3677 810.279 70.3314H810.278C810.403 69.8674 810.736 68.6963 811.155 67.1566C811.73 65.0472 812.468 62.2426 813.074 59.6146C813.682 56.9787 814.151 54.5449 814.195 53.1625V53.1615L814.198 52.8041C814.162 51.0642 813.379 49.9665 812.601 49.6508Z" fill="#21082B" stroke="white" stroke-width="0.504625"/>
<path d="M821.013 37.6094C820.537 37.5097 819.925 37.5939 819.316 37.8232C818.711 38.0517 818.139 38.413 817.746 38.8301C817.35 39.2506 817.166 39.6922 817.241 40.0986C817.715 42.6663 818.47 46.2578 819.121 49.2471C819.447 50.7413 819.746 52.0843 819.972 53.0723C820.085 53.5664 820.179 53.9713 820.249 54.2617C820.284 54.407 820.312 54.5228 820.334 54.6064C820.339 54.6265 820.344 54.6443 820.349 54.6602C820.356 54.6618 820.365 54.6653 820.374 54.667C820.463 54.6826 820.596 54.6917 820.766 54.6885C821.103 54.6821 821.55 54.6277 821.996 54.5088C822.444 54.3893 822.875 54.2092 823.196 53.9609C823.513 53.7156 823.71 53.4148 823.734 53.043C823.763 52.6041 823.7 51.6307 823.576 50.3555C823.453 49.0886 823.272 47.5455 823.069 45.9834C822.664 42.8548 822.178 39.6659 821.908 38.4629C821.85 38.2054 821.737 38.0193 821.591 37.8857C821.443 37.7508 821.248 37.6587 821.013 37.6094Z" fill="#21082B" stroke="white" stroke-width="0.504625"/>
<path d="M822.401 50.5906C822.006 50.2946 821.613 50.254 821.271 50.3904C820.92 50.531 820.581 50.8767 820.352 51.4304C820.123 51.982 820.01 52.7254 820.104 53.6218C820.589 58.2711 823.157 65.2352 824.379 68.5574V68.5583C824.549 69.0228 824.696 69.4084 824.81 69.7039L824.812 69.7117C824.867 69.8685 824.916 70.0072 824.955 70.1218L825.035 70.3816C825.073 70.5336 825.149 70.6106 825.228 70.6482C825.312 70.6889 825.426 70.6962 825.548 70.6589C825.791 70.5844 826.007 70.349 825.974 69.9988L825.928 69.6072L825.927 69.5945C825.91 69.3409 825.879 68.982 825.838 68.5398L825.688 66.9851C825.478 64.8355 825.168 61.8665 824.795 59.0906C824.444 56.4799 824.039 54.063 823.612 52.6541L823.527 52.3865C823.213 51.4651 822.805 50.8926 822.401 50.5906Z" fill="#21082B" stroke="white" stroke-width="0.504625"/>
<path opacity="0.5" d="M809.396 66.8978C809.342 68.0521 809.307 69.0195 809.27 69.6693C809.611 69.8474 809.986 69.9817 810.347 70.0853C810.494 69.5522 810.763 68.5928 811.093 67.3842C810.554 67.1986 809.956 67.0255 809.396 66.8978Z" fill="#21082B" stroke="white" stroke-width="0.504625"/>
<path opacity="0.5" d="M824.438 68.7137C824.553 69.0267 824.657 69.2999 824.745 69.5302C825.152 69.5049 825.544 69.4505 825.909 69.3759C825.875 68.9341 825.815 68.2857 825.738 67.496L824.438 68.7137Z" fill="#21082B" stroke="white" stroke-width="0.504625"/>
<path d="M814.227 39.7587C813.732 39.7622 813.287 39.7872 812.967 39.827C812.805 39.8471 812.684 39.8699 812.606 39.8925C812.605 39.8929 812.603 39.893 812.602 39.8934C812.526 40.2431 812.279 41.3447 811.974 42.7333V42.7352C811.313 45.653 810.37 49.8629 810.145 51.2753C809.976 52.3746 809.607 56.5566 809.291 60.5809C809.133 62.5906 808.989 64.5564 808.89 66.0702C808.84 66.8271 808.801 67.4703 808.778 67.9491C808.767 68.1886 808.759 68.3859 808.756 68.535C808.752 68.6882 808.754 68.7757 808.758 68.8085C808.761 68.8375 808.782 68.891 808.903 68.9559C809.025 69.0209 809.205 69.0727 809.43 69.1093C809.876 69.1819 810.425 69.1828 810.841 69.1659H810.844L811.284 69.1454C811.286 69.1375 811.289 69.1293 811.291 69.121C811.328 68.9962 811.381 68.8142 811.449 68.5868C811.585 68.132 811.777 67.4937 812.003 66.7596C812.341 65.6592 812.756 64.3419 813.171 63.1044L813.583 61.9042C814.109 60.3925 814.4 58.7206 814.614 57.2528C814.72 56.5254 814.81 55.8349 814.898 55.2587C814.987 54.685 815.079 54.1915 815.197 53.8436H815.196C815.439 53.0942 816.544 50.3769 817.278 47.3153L817.42 46.6991C817.748 45.1608 817.971 43.5789 817.927 42.1747V42.1718C817.916 41.5166 817.837 40.8895 817.685 40.3339L817.686 40.3329C817.681 40.3181 817.656 40.2725 817.553 40.2098C817.45 40.1474 817.299 40.0867 817.101 40.0331L817.099 40.0321C816.377 39.8313 815.222 39.7516 814.227 39.7587Z" fill="#21082B" stroke="white" stroke-width="0.504625"/>
<path d="M817.434 40.0111C817.44 40.1149 817.449 40.2509 817.46 40.4154C817.487 40.8246 817.527 41.4107 817.578 42.1156V42.1176C817.658 43.3897 817.783 45.0493 817.919 46.7328V46.7338C818.136 49.5255 818.408 52.3428 818.654 53.5883C818.935 55.0061 820.142 58.6847 821.343 62.097C821.942 63.7987 822.537 65.4265 823.01 66.6625C823.246 67.2806 823.451 67.7991 823.61 68.1791C823.69 68.3693 823.757 68.5231 823.811 68.6361C823.837 68.6927 823.86 68.7371 823.878 68.7699C823.891 68.7935 823.9 68.8062 823.903 68.8119C823.908 68.8171 823.933 68.8392 824.016 68.8461C824.102 68.8533 824.221 68.8412 824.369 68.806C824.59 68.7536 824.844 68.6567 825.094 68.5375L825.341 68.4115L825.347 68.4086L825.533 68.309C825.713 68.2077 825.872 68.1041 825.992 68.0121C826.073 67.9502 826.131 67.898 826.165 67.8597C826.168 67.8562 826.171 67.853 826.174 67.85C826.174 67.849 826.173 67.8481 826.173 67.847C826.17 67.813 826.165 67.7658 826.159 67.7064C826.147 67.5875 826.13 67.4212 826.107 67.2142C826.063 66.8005 825.999 66.2249 825.922 65.5385C825.768 64.1659 825.561 62.3491 825.354 60.5004C824.942 56.8126 824.521 52.9628 824.504 52.2543C824.47 50.8892 824.314 45.5776 821.94 39.4711L817.434 40.0111Z" fill="#21082B" stroke="white" stroke-width="0.504625"/>
<path d="M817.247 23.2163C816.5 23.1995 815.765 23.2324 815.165 23.3267C814.865 23.3738 814.605 23.4351 814.396 23.5103C814.238 23.5676 814.12 23.6293 814.039 23.6899L813.97 23.7505L813.96 23.7593C813.383 24.2981 813.02 24.829 812.798 25.3853C812.575 25.943 812.487 26.5407 812.479 27.2222C812.47 27.9066 812.542 28.6641 812.631 29.5435C812.72 30.4191 812.824 31.4091 812.879 32.5405V32.5415C812.96 34.2703 812.761 36.5063 812.545 38.3003C812.436 39.1995 812.323 39.9918 812.236 40.5591C812.208 40.7441 812.183 40.9054 812.162 41.0386C812.218 41.0189 812.278 40.9959 812.344 40.9741C812.715 40.8508 813.237 40.7002 813.836 40.5874C815.024 40.3637 816.563 40.2833 817.839 40.9302H817.84C819.017 41.5349 820.115 41.5243 820.98 41.3296H820.982C821.536 41.2102 821.993 41.0138 822.311 40.8481C822.453 40.7738 822.567 40.7056 822.648 40.6538C822.643 40.6386 822.637 40.6229 822.632 40.606C822.584 40.4565 822.516 40.2396 822.437 39.9692C822.278 39.4288 822.073 38.6729 821.889 37.8101C821.522 36.0931 821.227 33.9174 821.562 32.1753V32.1743L821.926 30.4438C822.046 29.8792 822.158 29.3259 822.243 28.7817V28.7788L822.306 28.3774C822.436 27.4521 822.462 26.6065 822.285 25.8667C822.086 25.0348 821.626 24.324 820.725 23.7798L820.724 23.7808C820.493 23.6428 820.014 23.5062 819.373 23.4019C818.744 23.2994 817.993 23.2332 817.247 23.2163Z" fill="#21082B" stroke="white" stroke-width="0.504625"/>
<path d="M818.15 19.1903C817.871 19.1527 817.604 19.2044 817.435 19.3251C817.286 19.4313 817.182 19.6108 817.244 19.9315C817.465 21.0605 817.072 22.0448 816.774 22.5917L816.773 22.5936C816.684 22.7548 816.602 22.8809 816.543 22.9677C816.513 23.0111 816.489 23.0449 816.472 23.0682C816.469 23.0716 816.467 23.075 816.465 23.078L816.464 23.079C816.457 23.0966 816.448 23.1233 816.439 23.1552C816.422 23.222 816.411 23.2983 816.422 23.3661C816.431 23.427 816.457 23.4804 816.517 23.5253C816.583 23.5747 816.715 23.6313 816.972 23.6415C817.475 23.6615 817.852 23.4784 818.106 23.288C818.228 23.1968 818.321 23.1039 818.384 23.0331C818.363 22.9936 818.341 22.948 818.32 22.8954L818.318 22.8895C818.143 22.4174 818.018 21.5001 818.798 20.1473C818.954 19.8461 818.902 19.645 818.793 19.5067C818.668 19.3482 818.43 19.228 818.15 19.1903Z" fill="#21082B" stroke="white" stroke-width="0.504625"/>
<path d="M818.111 15.0576C817.361 14.9757 816.83 15.0818 816.453 15.2793C816.078 15.4758 815.831 15.7749 815.668 16.1211C815.335 16.8291 815.364 17.7082 815.393 18.209C815.451 19.2366 815.264 19.5993 815.174 20.2148C815.136 20.4723 815.24 20.8491 815.411 21.1963C815.494 21.364 815.585 21.5111 815.668 21.6172C815.71 21.6704 815.746 21.7101 815.774 21.7354C815.807 21.7641 815.814 21.761 815.797 21.7559C816.271 21.8962 816.574 21.9014 816.862 21.7432C817.065 21.632 817.553 21.3902 818.039 21.083C818.28 20.9304 818.513 20.7664 818.701 20.6016C818.893 20.4327 819.017 20.281 819.069 20.1572C819.367 19.4506 819.733 18.6645 820.007 17.9541C820.143 17.6015 820.252 17.28 820.314 17.0098C820.379 16.7297 820.384 16.5446 820.354 16.4434C820.279 16.1881 820.023 15.8722 819.609 15.5977C819.203 15.328 818.677 15.1194 818.111 15.0576Z" fill="#21082B" stroke="white" stroke-width="0.504625"/>
<path opacity="0.4" d="M817.071 17.3252H817.07V17.3242C817.071 17.3264 817.073 17.3313 817.077 17.3379C817.085 17.3523 817.1 17.3755 817.123 17.4033C817.169 17.4587 817.248 17.5329 817.377 17.5908C817.518 17.6538 817.762 17.7148 817.99 17.7607C818.101 17.7829 818.202 17.8004 818.274 17.8125C818.31 17.8185 818.339 17.8231 818.359 17.8262C818.369 17.8277 818.378 17.8283 818.383 17.8291C818.385 17.8295 818.387 17.8299 818.389 17.8301L818.39 17.8311L818.8 17.8896L818.56 18.2256L818.561 18.2246L818.559 18.2275C818.556 18.2316 818.552 18.2393 818.547 18.249C818.536 18.2695 818.524 18.2967 818.518 18.3252C818.505 18.3774 818.51 18.4154 818.55 18.4551C818.626 18.5316 818.621 18.5073 818.741 18.5605C818.888 18.6258 819.009 18.7443 819.175 19.0088C819.263 19.15 819.323 19.3105 819.368 19.4688C819.577 18.9917 819.791 18.5022 819.971 18.041C820.104 17.7 820.213 17.3843 820.282 17.1133C820.338 16.8958 820.363 16.7234 820.361 16.5967C820.357 16.5943 820.354 16.5908 820.35 16.5889C820.34 16.5842 820.333 16.5808 820.328 16.5791L820.104 16.5176L820.146 16.29L820.147 16.2793C820.149 16.2684 820.15 16.2503 820.151 16.2266C820.153 16.1903 820.152 16.1412 820.146 16.084C819.776 15.6152 819.004 15.1551 818.111 15.0576C817.143 14.9518 816.539 15.1585 816.155 15.4775C815.784 15.7866 815.583 16.2318 815.479 16.7061C815.528 16.8441 815.588 16.9395 815.665 17.0049C815.729 17.0594 815.817 17.1048 815.945 17.1309L816.088 17.1504C816.441 17.1768 816.624 17.1807 816.715 17.1787C816.728 17.1784 816.738 17.1772 816.747 17.1768L816.957 17.0371L817.071 17.3252ZM816.708 17.2031C816.706 17.2041 816.704 17.2049 816.702 17.2061L816.7 17.208L816.698 17.209H816.699L816.708 17.2031Z" fill="#21082B" stroke="white" stroke-width="0.504625"/>
<path d="M820.401 16.3224C820.407 16.3245 820.419 16.3282 820.432 16.3351C820.459 16.3492 820.491 16.3726 820.518 16.4083C820.559 16.4646 820.639 16.6267 820.485 17.0255C820.311 17.4764 820.117 17.9822 819.966 18.3751C819.89 18.5716 819.826 18.7403 819.78 18.8595C819.758 18.9188 819.739 18.9658 819.727 18.9982C819.72 19.0141 819.716 19.0269 819.713 19.0353C819.711 19.0393 819.71 19.0429 819.709 19.045L819.708 19.048V19.049L819.706 19.0509C819.647 19.2118 819.574 19.3634 819.5 19.4991C819.457 19.2523 819.38 18.975 819.239 18.7491C819.074 18.4847 818.953 18.3661 818.806 18.3009C818.686 18.2479 818.691 18.2729 818.614 18.1964C818.574 18.1566 818.57 18.118 818.582 18.0656C818.589 18.0372 818.601 18.0107 818.611 17.9904C818.616 17.9806 818.62 17.973 818.623 17.9689L818.624 17.9679L818.864 17.631L818.454 17.5714H818.453C818.452 17.5712 818.45 17.5708 818.447 17.5704C818.442 17.5697 818.434 17.569 818.424 17.5675C818.404 17.5644 818.375 17.5588 818.339 17.5529C818.266 17.5408 818.166 17.5232 818.056 17.5011C817.827 17.4552 817.582 17.3952 817.441 17.3322C817.312 17.2743 817.233 17.2 817.188 17.1447C817.164 17.1167 817.15 17.0927 817.142 17.0782C817.138 17.0717 817.137 17.0667 817.136 17.0646V17.0656L817.021 16.7775L816.81 16.9181C816.801 16.9185 816.791 16.9198 816.779 16.92C816.688 16.922 816.506 16.9182 816.152 16.8917C815.855 16.8694 815.71 16.77 815.618 16.632C815.512 16.4721 815.453 16.2219 815.422 15.8458C815.396 15.5297 815.495 15.4502 815.527 15.4288C815.554 15.4115 815.583 15.4027 815.608 15.3986C815.62 15.3967 815.63 15.3958 815.635 15.3956L815.848 15.4113L815.897 15.2023C815.898 15.2011 815.899 15.1985 815.899 15.1954C815.901 15.1893 815.903 15.179 815.907 15.1661C815.915 15.14 815.927 15.1013 815.944 15.0548C815.979 14.9607 816.032 14.8376 816.107 14.7169C816.262 14.4697 816.478 14.2773 816.782 14.2804C817.174 14.2844 817.495 14.3838 817.718 14.4816C817.829 14.5304 817.915 14.5784 817.972 14.6134C818 14.6309 818.021 14.6452 818.034 14.6544C818.041 14.659 818.045 14.6623 818.048 14.6642C818.049 14.6651 818.051 14.6659 818.051 14.6661L818.05 14.6652L818.15 14.7433L818.272 14.7091H818.271L818.272 14.7081H818.274C818.278 14.7072 818.284 14.7061 818.293 14.7042C818.311 14.7004 818.339 14.6948 818.376 14.6896C818.45 14.679 818.56 14.6685 818.692 14.674C818.957 14.6848 819.311 14.7554 819.67 14.9962C820.019 15.2304 820.146 15.4973 820.193 15.6945C820.217 15.7956 820.222 15.8824 820.22 15.9425C820.219 15.9724 820.216 15.996 820.214 16.0099C820.213 16.0158 820.213 16.0202 820.213 16.0226L820.159 16.2667L820.398 16.3204V16.3214H820.399L820.401 16.3224ZM820.401 16.3224H820.402L820.403 16.3214H820.401V16.3224Z" fill="#21082B" stroke="white" stroke-width="0.504625"/>
<path d="M818.796 18.9287C818.765 18.9425 818.724 18.9732 818.697 19.0654C818.697 19.0654 818.697 19.0667 818.696 19.0684C818.695 19.0721 818.693 19.0798 818.691 19.0908C818.687 19.1128 818.682 19.1494 818.679 19.1992C818.671 19.2988 818.67 19.4528 818.702 19.6553C818.713 19.7227 818.737 19.7582 818.752 19.7734C818.759 19.781 818.766 19.7844 818.77 19.7861C818.773 19.7878 818.775 19.7881 818.775 19.7881L818.784 19.7812C818.794 19.7711 818.818 19.7382 818.828 19.6621C818.846 19.5277 818.875 19.4189 818.924 19.3301C818.977 19.2332 819.043 19.1794 819.094 19.1436C819.148 19.1056 819.143 19.1107 819.148 19.1045C819.149 19.1037 819.152 19.1009 819.155 19.0938C819.159 19.0859 819.164 19.072 819.17 19.0508C819.167 19.0452 819.162 19.0352 819.149 19.0225C819.113 18.9843 819.048 18.9447 818.973 18.9248C818.897 18.905 818.836 18.9109 818.796 18.9287Z" fill="#21082B" stroke="white" stroke-width="0.504625"/>
<path d="M813.628 23.5977C813.588 23.6178 813.532 23.6575 813.467 23.7207C813.336 23.8466 813.197 24.0373 813.102 24.252C813.006 24.4674 812.962 24.6871 812.993 24.8799C813.023 25.0623 813.123 25.2438 813.361 25.3936C813.924 25.7468 815.139 26.2056 816.515 26.6123C817.883 27.0167 819.375 27.3591 820.475 27.4873C820.996 27.5479 821.265 27.4376 821.398 27.3066C821.532 27.1754 821.591 26.9645 821.559 26.6885C821.527 26.4141 821.408 26.1132 821.243 25.8643C821.074 25.6091 820.884 25.4475 820.733 25.3975C819.958 25.1391 818.284 24.7159 816.743 24.3408C815.285 23.9859 813.937 23.6698 813.648 23.5889C813.644 23.5907 813.637 23.5932 813.628 23.5977Z" fill="#21082B" stroke="white" stroke-width="0.504625"/>
<path d="M799.805 1.14746C806.065 1.14765 811.141 6.22368 811.141 12.4844C811.14 18.7449 806.065 23.8201 799.805 23.8203C793.544 23.8203 788.468 18.745 788.468 12.4844C788.468 6.22356 793.544 1.14746 799.805 1.14746Z" fill="#21082B" stroke="white" stroke-width="0.504625"/>
<path d="M817.456 24.5608C817.357 24.9149 817.219 25.3854 817.067 25.8469C816.935 26.2493 816.953 26.6825 817.01 27.0266C817.038 27.1966 817.075 27.3403 817.104 27.4407C817.108 27.4531 817.113 27.4648 817.116 27.4758C817.188 27.4956 817.29 27.5233 817.416 27.554C817.685 27.6195 818.064 27.7025 818.503 27.7717C819.387 27.9112 820.486 27.9912 821.411 27.7805C821.81 27.6897 822.024 27.4606 822.126 27.1653C822.233 26.8541 822.221 26.4509 822.106 26.0383C821.993 25.6281 821.786 25.2359 821.543 24.9563C821.293 24.669 821.045 24.5433 820.848 24.5549C819.8 24.6175 818.914 24.5152 818.289 24.3967C817.976 24.3375 817.728 24.2738 817.557 24.2249C817.554 24.2242 817.552 24.2226 817.55 24.2219C817.525 24.3152 817.493 24.4301 817.456 24.5608Z" fill="#21082B" stroke="white" stroke-width="0.504625"/>
<path d="M810.81 17.3215C810.772 17.3538 810.716 17.4418 810.68 17.593C810.654 17.7013 810.644 17.8262 810.652 17.9534L810.668 18.0813C810.701 18.2649 810.845 18.7516 811.059 19.4114C811.269 20.0621 811.539 20.8606 811.813 21.6526C812.363 23.2393 812.921 24.7751 813.052 25.0618C813.054 25.0632 813.06 25.0663 813.068 25.0686C813.102 25.0775 813.163 25.0808 813.256 25.0637C813.441 25.0296 813.681 24.9254 813.906 24.7698C814.132 24.614 814.32 24.423 814.419 24.2327C814.514 24.05 814.522 23.8864 814.436 23.7336C814.36 23.6 811.717 19.0548 811.112 17.8118L811.107 17.802L811.104 17.7903C810.989 17.4867 810.884 17.3635 810.828 17.3245C810.823 17.321 810.819 17.3183 810.816 17.3167C810.815 17.318 810.812 17.3193 810.81 17.3215Z" fill="#21082B" stroke="white" stroke-width="0.504625"/>
<path d="M810.845 17.5521C810.851 17.5579 810.857 17.5645 810.863 17.5707C810.894 17.5988 810.927 17.6274 810.961 17.6537C810.956 17.2542 810.992 16.8392 811.012 16.4984C811.023 16.3112 811.029 16.1467 811.023 16.0082C811.018 15.8655 811 15.7729 810.978 15.7191C810.948 15.6491 810.9 15.5919 810.845 15.5433V17.5521Z" fill="#21082B" stroke="white" stroke-width="0.504625"/>
<path d="M810.779 15.483C810.422 15.25 810.208 15.2667 810.095 15.3053C810.031 15.327 809.98 15.3612 809.938 15.3981C810.175 15.3535 810.414 15.3883 810.607 15.4459C810.671 15.4648 810.733 15.4878 810.791 15.5123C810.786 15.497 810.782 15.4879 810.779 15.483Z" fill="#21082B" stroke="white" stroke-width="0.504625"/>
<path d="M810.651 15.917C810.294 15.6839 810.08 15.7007 809.967 15.7393C809.903 15.761 809.852 15.7952 809.811 15.832C810.047 15.7875 810.286 15.8223 810.479 15.8799C810.543 15.8988 810.605 15.9218 810.663 15.9463C810.658 15.9309 810.654 15.9219 810.651 15.917Z" fill="#21082B" stroke="white" stroke-width="0.504625"/>
<path d="M810.761 16.3899C810.403 16.1568 810.19 16.1736 810.076 16.2122C810.012 16.2339 809.961 16.2681 809.92 16.3049C810.156 16.2604 810.395 16.2952 810.589 16.3528C810.652 16.3717 810.714 16.3947 810.772 16.4192C810.768 16.4038 810.763 16.3948 810.761 16.3899Z" fill="#21082B" stroke="white" stroke-width="0.504625"/>
<path d="M810.761 16.8807C810.403 16.6477 810.19 16.6644 810.076 16.703C810.012 16.7247 809.961 16.7589 809.92 16.7958C810.156 16.7512 810.395 16.7861 810.589 16.8436C810.652 16.8625 810.714 16.8856 810.772 16.91C810.768 16.8947 810.763 16.8856 810.761 16.8807Z" fill="#21082B" stroke="white" stroke-width="0.504625"/>
</svg>
