<svg width="840" height="78" viewBox="0 0 840 78" fill="none" xmlns="http://www.w3.org/2000/svg">
<mask id="path-1-inside-1_1084_23434" fill="white">
<path d="M447.128 6.39355C447.194 6.39448 447.259 6.41311 447.315 6.44824C447.372 6.48341 447.417 6.53353 447.447 6.59277L448.281 8.16406C448.398 8.37638 448.559 8.56216 448.752 8.70898C448.945 8.85572 449.167 8.96035 449.402 9.0166H449.432C449.66 9.08072 449.899 9.09748 450.134 9.06445C450.368 9.03137 450.594 8.94984 450.796 8.8252L452.356 7.8418C452.412 7.80995 452.474 7.79297 452.538 7.79297C452.602 7.79299 452.665 7.80997 452.72 7.8418C452.777 7.87466 452.824 7.92211 452.855 7.97949C452.887 8.03702 452.903 8.1022 452.9 8.16797L452.843 9.8623C452.826 10.1026 452.863 10.3438 452.95 10.5684C453.037 10.7929 453.172 10.9959 453.347 11.1621C453.455 11.26 453.561 11.3614 453.666 11.4629C453.824 11.6248 454.014 11.7528 454.223 11.8389C454.432 11.9249 454.656 11.9676 454.882 11.9639L456.696 11.8984C456.762 11.8962 456.827 11.9115 456.885 11.9434C456.942 11.9753 456.991 12.0231 457.023 12.0801C457.055 12.135 457.071 12.1974 457.071 12.2607C457.071 12.3243 457.055 12.3873 457.023 12.4424L456.17 13.8105C456.037 14.0147 455.95 14.246 455.916 14.4873C455.882 14.7286 455.9 14.9748 455.971 15.208C456.018 15.3458 456.062 15.5017 456.102 15.6504C456.159 15.8802 456.263 16.0958 456.408 16.2832C456.553 16.4705 456.735 16.6259 456.943 16.7393L458.456 17.541L458.445 17.5625C458.503 17.5936 458.551 17.6401 458.585 17.6963C458.618 17.7524 458.636 17.8165 458.636 17.8818C458.636 17.9473 458.619 18.0121 458.585 18.0684C458.551 18.1245 458.503 18.1701 458.445 18.2012L456.994 18.9814C456.789 19.0951 456.61 19.251 456.47 19.4385C456.329 19.6261 456.23 19.8416 456.178 20.0703C456.145 20.2225 456.109 20.3748 456.065 20.5234C455.996 20.747 455.975 20.9836 456.005 21.2158C456.034 21.4478 456.113 21.671 456.235 21.8701L457.146 23.3213C457.178 23.3764 457.195 23.4392 457.195 23.5029C457.195 23.5666 457.178 23.6294 457.146 23.6846C457.117 23.7445 457.07 23.7937 457.012 23.8262C456.953 23.8586 456.886 23.873 456.819 23.8662L455.224 23.8115C454.976 23.7991 454.729 23.8405 454.499 23.9326C454.269 24.0247 454.062 24.1651 453.892 24.3447C453.786 24.4572 453.677 24.5696 453.568 24.6748C453.401 24.8315 453.27 25.0221 453.182 25.2334C453.093 25.4447 453.051 25.6725 453.057 25.9014L453.118 27.6582C453.121 27.7242 453.106 27.7897 453.074 27.8477C453.042 27.9056 452.996 27.9541 452.938 27.9873C452.881 28.0205 452.816 28.0372 452.75 28.0361C452.684 28.035 452.619 28.0156 452.563 27.9805L451.13 27.085C450.934 26.9574 450.712 26.8733 450.48 26.8389C450.249 26.8044 450.012 26.8198 449.787 26.8848L449.363 27.001C449.131 27.0611 448.913 27.1702 448.726 27.3203C448.538 27.4704 448.384 27.6583 448.274 27.8721L447.458 29.4141C447.427 29.4719 447.381 29.5208 447.325 29.5547C447.269 29.5885 447.204 29.6062 447.139 29.6064C447.072 29.6069 447.007 29.5895 446.95 29.5557C446.893 29.5218 446.847 29.4726 446.815 29.4141L445.981 27.8428C445.865 27.629 445.704 27.4425 445.51 27.2949C445.316 27.1474 445.093 27.0421 444.856 26.9863C444.693 26.9464 444.533 26.8997 444.373 26.8525C444.145 26.7765 443.904 26.7504 443.665 26.7773C443.426 26.8043 443.196 26.8837 442.991 27.0088L441.5 27.9404C441.444 27.9753 441.379 27.9949 441.313 27.9961C441.248 27.9973 441.183 27.981 441.126 27.9482C441.069 27.9154 441.022 27.867 440.99 27.8096C440.958 27.7521 440.942 27.6868 440.944 27.6211L441.01 25.7383C441.019 25.5145 440.984 25.2906 440.904 25.0811C440.825 24.8716 440.704 24.68 440.549 24.5186C440.469 24.4425 440.39 24.3557 440.313 24.2725C440.157 24.1077 439.966 23.9777 439.755 23.8926C439.544 23.8075 439.317 23.7685 439.09 23.7783L437.25 23.8438C437.184 23.8459 437.119 23.8307 437.062 23.7988C437.004 23.7669 436.957 23.7199 436.924 23.6631C436.892 23.608 436.875 23.5451 436.875 23.4814C436.875 23.4178 436.892 23.355 436.924 23.2998L437.965 21.6338C438.081 21.4507 438.158 21.2462 438.191 21.0322C438.225 20.8182 438.215 20.5995 438.161 20.3896L438.11 20.1826C438.054 19.9408 437.948 19.7133 437.798 19.5156C437.648 19.3181 437.457 19.1548 437.239 19.0361L435.617 18.1836C435.56 18.1525 435.512 18.1059 435.479 18.0498C435.445 17.9937 435.427 17.9296 435.427 17.8643C435.427 17.7988 435.445 17.734 435.479 17.6777C435.512 17.6218 435.56 17.576 435.617 17.5449L437.341 16.6299C437.549 16.5162 437.731 16.3612 437.876 16.1738C438.021 15.9867 438.125 15.7714 438.183 15.542C438.194 15.5182 438.202 15.4922 438.205 15.4658C438.28 15.2269 438.302 14.974 438.271 14.7256C438.241 14.4772 438.158 14.2379 438.027 14.0244L437.036 12.4424C437.004 12.3873 436.987 12.3243 436.987 12.2607C436.987 12.1973 437.004 12.135 437.036 12.0801C437.069 12.0231 437.117 11.9753 437.175 11.9434C437.232 11.9116 437.298 11.8962 437.363 11.8984L439.293 11.9639C439.529 11.9688 439.764 11.9251 439.983 11.8359C440.202 11.7467 440.402 11.6131 440.567 11.4443L440.654 11.3574C440.833 11.1913 440.973 10.989 441.068 10.7646C441.163 10.5402 441.211 10.2983 441.206 10.0547L441.141 8.20801C441.139 8.14256 441.155 8.07746 441.188 8.02051C441.22 7.96369 441.267 7.91707 441.324 7.88477C441.381 7.85248 441.445 7.83555 441.511 7.83691C441.576 7.83829 441.64 7.85787 441.695 7.89258L443.277 8.87891C443.47 9.0032 443.687 9.08608 443.913 9.12109C444.139 9.15602 444.37 9.1423 444.591 9.08203L444.649 9.06445L444.918 8.99512C445.143 8.93778 445.353 8.83375 445.535 8.68945C445.717 8.54502 445.867 8.36345 445.974 8.15723L446.805 6.58594C446.836 6.52745 446.883 6.47824 446.939 6.44434C446.996 6.41052 447.062 6.39307 447.128 6.39355Z"/>
</mask>
<path d="M447.128 6.39355L447.156 4.37521L447.143 4.37511L447.128 6.39355ZM447.315 6.44824L448.385 4.73657L448.385 4.73651L447.315 6.44824ZM447.447 6.59277L445.645 7.50165L445.664 7.53909L447.447 6.59277ZM448.281 8.16406L446.498 9.11038L446.514 9.13936L448.281 8.16406ZM448.752 8.70898L447.53 10.3155L447.53 10.3156L448.752 8.70898ZM449.402 9.0166L448.934 10.98L449.402 11.0351V9.0166ZM449.432 9.0166L449.978 7.07336L449.432 6.9981V9.0166ZM450.134 9.06445L450.415 11.0633L450.416 11.0632L450.134 9.06445ZM450.796 8.8252L451.857 10.5421L451.872 10.5329L450.796 8.8252ZM452.356 7.8418L451.347 6.09373L451.28 6.13409L452.356 7.8418ZM452.538 7.79297L452.539 5.77447H452.538V7.79297ZM452.72 7.8418L453.73 6.09446L453.729 6.09373L452.72 7.8418ZM452.855 7.97949L454.62 6.99932L454.62 6.99924L452.855 7.97949ZM452.9 8.16797L454.918 8.23657L454.918 8.23589L452.9 8.16797ZM452.843 9.8623L454.857 10.0003L454.86 9.93091L452.843 9.8623ZM452.95 10.5684L451.069 11.2989L451.069 11.299L452.95 10.5684ZM453.347 11.1621L451.954 12.6228L451.996 12.6624L453.347 11.1621ZM453.666 11.4629L455.112 10.0542L455.068 10.0108L453.666 11.4629ZM454.223 11.8389L453.454 13.7052L453.454 13.7053L454.223 11.8389ZM454.882 11.9639L454.916 13.9821L454.955 13.9811L454.882 11.9639ZM456.696 11.8984L456.628 9.88107L456.624 9.88125L456.696 11.8984ZM456.885 11.9434L457.865 10.1789L457.864 10.1782L456.885 11.9434ZM457.023 12.0801L458.773 11.0734L458.772 11.072L457.023 12.0801ZM457.071 12.2607L459.09 12.2607L459.09 12.2583L457.071 12.2607ZM457.023 12.4424L458.736 13.5108L458.773 13.4496L457.023 12.4424ZM456.17 13.8105L457.86 14.9138L457.882 14.8789L456.17 13.8105ZM455.916 14.4873L453.918 14.2019L453.918 14.2021L455.916 14.4873ZM455.971 15.208L454.039 15.794L454.061 15.8612L455.971 15.208ZM456.102 15.6504L458.06 15.161L458.051 15.1273L456.102 15.6504ZM456.408 16.2832L454.811 17.518L454.812 17.5182L456.408 16.2832ZM456.943 16.7393L455.977 18.5115L455.998 18.5227L456.943 16.7393ZM458.456 17.541L460.261 18.4437L459.401 15.7575L458.456 17.541ZM458.445 17.5625L456.64 16.6598L457.487 19.3388L458.445 17.5625ZM458.585 17.6963L460.319 16.6633L460.318 16.6621L458.585 17.6963ZM458.636 17.8818L460.654 17.8818L460.654 17.8805L458.636 17.8818ZM458.585 18.0684L460.318 19.1034L460.318 19.1025L458.585 18.0684ZM458.445 18.2012L459.401 19.979L459.404 19.9774L458.445 18.2012ZM456.994 18.9814L456.038 17.2036L456.015 17.2164L456.994 18.9814ZM456.47 19.4385L454.855 18.2271L454.855 18.2274L456.47 19.4385ZM456.178 20.0703L454.209 19.6245L454.204 19.6474L456.178 20.0703ZM456.065 20.5234L457.993 21.1209L458.003 21.0902L456.065 20.5234ZM456.005 21.2158L454.002 21.4695L454.002 21.4701L456.005 21.2158ZM456.235 21.8701L454.517 22.9294L454.526 22.9434L456.235 21.8701ZM457.146 23.3213L458.895 22.3121L458.856 22.248L457.146 23.3213ZM457.195 23.5029L459.214 23.5029L459.214 23.5027L457.195 23.5029ZM457.146 23.6846L455.398 22.6753L455.333 22.7975L457.146 23.6846ZM457.012 23.8262L457.992 25.5907L457.993 25.5899L457.012 23.8262ZM456.819 23.8662L457.025 21.8582L456.888 21.8489L456.819 23.8662ZM455.224 23.8115L455.122 25.8275L455.154 25.8288L455.224 23.8115ZM454.499 23.9326L453.748 22.0588L453.748 22.0588L454.499 23.9326ZM453.892 24.3447L452.427 22.9559L452.418 22.9658L453.892 24.3447ZM453.568 24.6748L454.949 26.1469L454.971 26.1261L453.568 24.6748ZM453.182 25.2334L451.319 24.456L451.319 24.4563L453.182 25.2334ZM453.057 25.9014L451.039 25.9553L451.039 25.972L453.057 25.9014ZM453.118 27.6582L451.101 27.7288L451.101 27.7424L453.118 27.6582ZM453.074 27.8477L454.844 28.8175L454.845 28.8166L453.074 27.8477ZM452.938 27.9873L453.953 29.7325L453.953 29.7321L452.938 27.9873ZM452.75 28.0361L452.717 30.0544L452.717 30.0544L452.75 28.0361ZM452.563 27.9805L453.635 26.2699L453.633 26.2685L452.563 27.9805ZM451.13 27.085L450.03 28.7775L450.06 28.7969L451.13 27.085ZM450.48 26.8389L450.777 24.8423L450.777 24.8423L450.48 26.8389ZM449.787 26.8848L450.321 28.8314L450.347 28.8241L449.787 26.8848ZM449.363 27.001L449.868 28.9553L449.897 28.9476L449.363 27.001ZM448.726 27.3203L447.465 25.7441L447.465 25.7442L448.726 27.3203ZM448.274 27.8721L450.058 28.8166L450.07 28.7935L448.274 27.8721ZM447.458 29.4141L449.24 30.3627L449.242 30.3585L447.458 29.4141ZM447.325 29.5547L448.367 31.2838L448.368 31.283L447.325 29.5547ZM447.139 29.6064L447.132 27.5879L447.124 27.588L447.139 29.6064ZM446.95 29.5557L445.917 31.2899L445.918 31.2903L446.95 29.5557ZM446.815 29.4141L445.033 30.3604L445.034 30.3627L446.815 29.4141ZM445.981 27.8428L447.764 26.8965L447.753 26.8745L445.981 27.8428ZM445.51 27.2949L446.732 25.6889L446.732 25.6889L445.51 27.2949ZM444.856 26.9863L444.377 28.9471L444.394 28.9512L444.856 26.9863ZM444.373 26.8525L443.734 28.7671L443.801 28.7883L444.373 26.8525ZM443.665 26.7773L443.439 24.7716L443.439 24.7716L443.665 26.7773ZM442.991 27.0088L441.941 25.2851L441.922 25.2969L442.991 27.0088ZM441.5 27.9404L440.43 26.2286L440.429 26.2294L441.5 27.9404ZM441.313 27.9961L441.349 30.0143L441.351 30.0142L441.313 27.9961ZM441.126 27.9482L440.12 29.698L440.12 29.6981L441.126 27.9482ZM440.99 27.8096L439.226 28.7908L439.227 28.7919L440.99 27.8096ZM440.944 27.6211L438.927 27.551L438.927 27.5558L440.944 27.6211ZM441.01 25.7383L438.993 25.6525L438.992 25.6682L441.01 25.7383ZM440.904 25.0811L442.792 24.3674L442.792 24.367L440.904 25.0811ZM440.549 24.5186L442.005 23.1203L441.943 23.0587L440.549 24.5186ZM440.313 24.2725L441.804 22.9115L441.776 22.8812L440.313 24.2725ZM439.755 23.8926L440.51 22.0208L440.51 22.0206L439.755 23.8926ZM439.09 23.7783L439.162 25.7955L439.177 25.7949L439.09 23.7783ZM437.25 23.8438L437.316 25.8612L437.322 25.861L437.25 23.8438ZM437.062 23.7988L436.08 25.5625L436.081 25.5633L437.062 23.7988ZM436.924 23.6631L435.176 24.6723L435.176 24.673L436.924 23.6631ZM436.875 23.4814L434.856 23.4814L434.857 23.4828L436.875 23.4814ZM436.924 23.2998L435.212 22.2302L435.176 22.2908L436.924 23.2998ZM437.965 21.6338L436.259 20.5554L436.253 20.5642L437.965 21.6338ZM438.191 21.0322L440.185 21.3464L440.185 21.3461L438.191 21.0322ZM438.161 20.3896L436.201 20.8705L436.206 20.8917L438.161 20.3896ZM438.11 20.1826L436.144 20.6373L436.15 20.6635L438.11 20.1826ZM437.798 19.5156L439.405 18.2948L439.405 18.2945L437.798 19.5156ZM437.239 19.0361L438.205 17.2637L438.178 17.2494L437.239 19.0361ZM435.617 18.1836L434.658 19.9595L434.678 19.9703L435.617 18.1836ZM435.479 18.0498L433.745 19.084L433.745 19.0844L435.479 18.0498ZM435.427 17.8643L433.408 17.8643L433.408 17.8661L435.427 17.8643ZM435.479 17.6777L433.746 16.6418L433.745 16.6435L435.479 17.6777ZM435.617 17.5449L434.671 15.7621L434.656 15.7698L435.617 17.5449ZM437.341 16.6299L438.287 18.4127L438.31 18.4003L437.341 16.6299ZM437.876 16.1738L439.473 17.4086L439.473 17.4085L437.876 16.1738ZM438.183 15.542L436.372 14.649L436.225 15.0485L438.183 15.542ZM438.205 15.4658L436.279 14.8632L436.197 15.2637L438.205 15.4658ZM438.271 14.7256L440.275 14.4783L440.275 14.4781L438.271 14.7256ZM438.027 14.0244L439.749 12.9714L439.738 12.9527L438.027 14.0244ZM437.036 12.4424L435.287 13.4502L435.326 13.5141L437.036 12.4424ZM436.987 12.2607L434.969 12.2583V12.2607H436.987ZM437.036 12.0801L435.287 11.072L435.287 11.0727L437.036 12.0801ZM437.175 11.9434L436.197 10.1776L436.195 10.1789L437.175 11.9434ZM437.363 11.8984L437.432 9.8811L437.431 9.88108L437.363 11.8984ZM439.293 11.9639L439.225 13.9812L439.251 13.9819L439.293 11.9639ZM439.983 11.8359L440.745 13.7054L440.745 13.7052L439.983 11.8359ZM440.567 11.4443L439.14 10.017L439.127 10.0301L440.567 11.4443ZM440.654 11.3574L439.278 9.88108L439.227 9.93013L440.654 11.3574ZM441.068 10.7646L442.927 11.5516L442.927 11.5514L441.068 10.7646ZM441.206 10.0547L443.224 10.0153L443.223 9.98321L441.206 10.0547ZM441.141 8.20801L439.123 8.25273L439.123 8.27948L441.141 8.20801ZM441.188 8.02051L439.433 7.02334L439.432 7.02493L441.188 8.02051ZM441.324 7.88477L440.328 6.12949L440.326 6.13011L441.324 7.88477ZM441.511 7.83691L441.553 5.81886L441.553 5.81886L441.511 7.83691ZM441.695 7.89258L440.625 9.60394L440.627 9.60545L441.695 7.89258ZM443.277 8.87891L444.373 7.18352L444.345 7.16603L443.277 8.87891ZM443.913 9.12109L443.604 11.1159L443.605 11.1159L443.913 9.12109ZM444.591 9.08203L445.122 11.0293L445.171 11.0154L444.591 9.08203ZM444.649 9.06445L444.145 7.11004L444.069 7.13108L444.649 9.06445ZM444.918 8.99512L444.419 7.03913L444.413 7.0407L444.918 8.99512ZM445.535 8.68945L446.79 10.2707L446.79 10.2704L445.535 8.68945ZM445.974 8.15723L444.189 7.21351L444.182 7.22804L445.974 8.15723ZM446.805 6.58594L445.023 5.63731L445.02 5.64222L446.805 6.58594ZM446.939 6.44434L445.908 4.70932L445.907 4.71007L446.939 6.44434ZM447.128 6.39355L447.1 8.41186C446.808 8.40779 446.511 8.32559 446.246 8.15998L447.315 6.44824L448.385 4.73651C448.008 4.50063 447.581 4.38116 447.156 4.37525L447.128 6.39355ZM447.315 6.44824L446.246 8.15992C445.988 7.99918 445.781 7.77144 445.645 7.50165L447.447 6.59277L449.25 5.6839C449.054 5.29563 448.755 4.96763 448.385 4.73657L447.315 6.44824ZM447.447 6.59277L445.664 7.53909L446.498 9.11038L448.281 8.16406L450.064 7.21775L449.23 5.64646L447.447 6.59277ZM448.281 8.16406L446.514 9.13936C446.767 9.59801 447.113 9.99869 447.53 10.3155L448.752 8.70898L449.974 7.10249C450.004 7.12563 450.03 7.15476 450.048 7.18876L448.281 8.16406ZM448.752 8.70898L447.53 10.3156C447.948 10.6334 448.427 10.8589 448.934 10.98L449.402 9.0166L449.871 7.05321C449.907 7.06175 449.942 7.07799 449.974 7.10234L448.752 8.70898ZM449.402 9.0166V11.0351H449.432V9.0166V6.9981H449.402V9.0166ZM449.432 9.0166L448.886 10.9598C449.379 11.0985 449.9 11.1358 450.415 11.0633L450.134 9.06445L449.853 7.06564C449.898 7.05919 449.941 7.06299 449.978 7.07336L449.432 9.0166ZM450.134 9.06445L450.416 11.0632C450.926 10.9912 451.418 10.8139 451.857 10.5421L450.796 8.8252L449.734 7.10832C449.771 7.08579 449.811 7.07155 449.852 7.06571L450.134 9.06445ZM450.796 8.8252L451.872 10.5329L453.433 9.54951L452.356 7.8418L451.28 6.13409L449.72 7.11748L450.796 8.8252ZM452.356 7.8418L453.366 9.58986C453.117 9.73351 452.832 9.81147 452.538 9.81147V7.79297V5.77447C452.117 5.77447 451.706 5.88639 451.347 6.09373L452.356 7.8418ZM452.538 7.79297L452.537 9.81147C452.244 9.81136 451.96 9.73378 451.71 9.58986L452.72 7.8418L453.729 6.09373C453.369 5.88616 452.959 5.77462 452.539 5.77447L452.538 7.79297ZM452.72 7.8418L451.709 9.58913C451.455 9.44229 451.239 9.2269 451.091 8.95975L452.855 7.97949L454.62 6.99924C454.408 6.61732 454.098 6.30703 453.73 6.09446L452.72 7.8418ZM452.855 7.97949L451.091 8.95967C450.94 8.68742 450.873 8.38875 450.883 8.10005L452.9 8.16797L454.918 8.23589C454.932 7.81566 454.835 7.38661 454.62 6.99932L452.855 7.97949ZM452.9 8.16797L450.883 8.09937L450.825 9.7937L452.843 9.8623L454.86 9.93091L454.918 8.23657L452.9 8.16797ZM452.843 9.8623L450.829 9.72433C450.792 10.2604 450.874 10.7982 451.069 11.2989L452.95 10.5684L454.832 9.83779C454.852 9.8895 454.86 9.94479 454.857 10.0003L452.843 9.8623ZM452.95 10.5684L451.069 11.299C451.262 11.796 451.562 12.2493 451.954 12.6228L453.347 11.1621L454.74 9.70141C454.783 9.74247 454.813 9.78967 454.832 9.83776L452.95 10.5684ZM453.347 11.1621L451.996 12.6624C452.076 12.7337 452.158 12.8122 452.264 12.915L453.666 11.4629L455.068 10.0108C454.964 9.91049 454.835 9.7863 454.697 9.66178L453.347 11.1621ZM453.666 11.4629L452.22 12.8716C452.572 13.2321 452.992 13.5151 453.454 13.7052L454.223 11.8389L454.991 9.97252C455.035 9.99043 455.076 10.0175 455.112 10.0542L453.666 11.4629ZM454.223 11.8389L453.454 13.7053C453.916 13.8954 454.413 13.9905 454.916 13.9821L454.882 11.9639L454.848 9.94565C454.899 9.9448 454.948 9.95441 454.991 9.97247L454.223 11.8389ZM454.882 11.9639L454.955 13.9811L456.769 13.9156L456.696 11.8984L456.624 9.88125L454.809 9.94668L454.882 11.9639ZM456.696 11.8984L456.764 13.9158C456.475 13.9255 456.177 13.8588 455.906 13.7085L456.885 11.9434L457.864 10.1782C457.478 9.9642 457.049 9.8669 456.628 9.88108L456.696 11.8984ZM456.885 11.9434L455.904 13.7078C455.639 13.5604 455.423 13.3453 455.275 13.0882L457.023 12.0801L458.772 11.072C458.558 10.7008 458.246 10.3903 457.865 10.1789L456.885 11.9434ZM457.023 12.0801L455.274 13.0868C455.124 12.8264 455.053 12.5408 455.053 12.2631L457.071 12.2607L459.09 12.2583C459.089 11.8539 458.986 11.4436 458.773 11.0734L457.023 12.0801ZM457.071 12.2607H455.053C455.053 11.9859 455.122 11.6993 455.274 11.4352L457.023 12.4424L458.773 13.4496C458.988 13.0753 459.09 12.6627 459.09 12.2607H457.071ZM457.023 12.4424L455.311 11.374L454.457 12.7422L456.17 13.8105L457.882 14.8789L458.736 13.5108L457.023 12.4424ZM456.17 13.8105L454.48 12.7073C454.183 13.1622 453.993 13.6734 453.918 14.2019L455.916 14.4873L457.914 14.7728C457.908 14.8185 457.891 14.8671 457.86 14.9138L456.17 13.8105ZM455.916 14.4873L453.918 14.2021C453.842 14.7325 453.882 15.2761 454.039 15.794L455.971 15.208L457.902 14.622C457.918 14.6734 457.921 14.7247 457.914 14.7725L455.916 14.4873ZM455.971 15.208L454.061 15.8612C454.085 15.9314 454.114 16.0328 454.152 16.1734L456.102 15.6504L458.051 15.1273C458.009 14.9706 457.951 14.7602 457.881 14.5548L455.971 15.208ZM456.102 15.6504L454.143 16.1398C454.268 16.639 454.495 17.1087 454.811 17.518L456.408 16.2832L458.005 15.0484C458.032 15.083 458.05 15.1214 458.06 15.161L456.102 15.6504ZM456.408 16.2832L454.812 17.5182C455.127 17.9262 455.524 18.2646 455.977 18.5115L456.943 16.7393L457.91 14.967C457.947 14.9873 457.979 15.0148 458.005 15.0482L456.408 16.2832ZM456.943 16.7393L455.998 18.5227L457.511 19.3245L458.456 17.541L459.401 15.7575L457.889 14.9558L456.943 16.7393ZM458.456 17.541L456.651 16.6383L456.64 16.6598L458.445 17.5625L460.251 18.4652L460.261 18.4437L458.456 17.541ZM458.445 17.5625L457.487 19.3388C457.223 19.1968 457.004 18.9867 456.852 18.7305L458.585 17.6963L460.318 16.6621C460.098 16.2934 459.782 15.9904 459.404 15.7862L458.445 17.5625ZM458.585 17.6963L456.851 18.7292C456.695 18.467 456.617 18.1736 456.617 17.8832L458.636 17.8818L460.654 17.8805C460.654 17.4595 460.542 17.0378 460.319 16.6633L458.585 17.6963ZM458.636 17.8818H456.617C456.617 17.5963 456.692 17.3018 456.852 17.0342L458.585 18.0684L460.318 19.1025C460.545 18.7225 460.654 18.2983 460.654 17.8818H458.636ZM458.585 18.0684L456.852 17.0334C457.012 16.7652 457.236 16.56 457.486 16.4249L458.445 18.2012L459.404 19.9774C459.769 19.7803 460.091 19.4838 460.318 19.1034L458.585 18.0684ZM458.445 18.2012L457.489 16.4234L456.038 17.2036L456.994 18.9814L457.95 20.7593L459.401 19.979L458.445 18.2012ZM456.994 18.9814L456.015 17.2164C455.561 17.468 455.166 17.8125 454.855 18.2271L456.47 19.4385L458.084 20.6499C458.055 20.6895 458.017 20.7223 457.973 20.7465L456.994 18.9814ZM456.47 19.4385L454.855 18.2274C454.543 18.643 454.323 19.1194 454.209 19.6245L456.178 20.0703L458.146 20.5161C458.136 20.5638 458.115 20.6092 458.085 20.6496L456.47 19.4385ZM456.178 20.0703L454.204 19.6474C454.177 19.7724 454.153 19.8725 454.128 19.9566L456.065 20.5234L458.003 21.0902C458.065 20.8771 458.113 20.6727 458.151 20.4933L456.178 20.0703ZM456.065 20.5234L454.137 19.926C453.983 20.4248 453.937 20.9516 454.002 21.4695L456.005 21.2158L458.007 20.9621C458.014 21.0157 458.009 21.0693 457.993 21.1209L456.065 20.5234ZM456.005 21.2158L454.002 21.4701C454.068 21.9847 454.242 22.4828 454.517 22.9294L456.235 21.8701L457.954 20.8108C457.983 20.8592 458.001 20.911 458.007 20.9616L456.005 21.2158ZM456.235 21.8701L454.526 22.9434L455.437 24.3946L457.146 23.3213L458.856 22.248L457.945 20.7968L456.235 21.8701ZM457.146 23.3213L455.398 24.3305C455.255 24.0816 455.177 23.7968 455.177 23.5032L457.195 23.5029L459.214 23.5027C459.214 23.0817 459.102 22.6713 458.895 22.3121L457.146 23.3213ZM457.195 23.5029H455.177C455.177 23.2089 455.255 22.9241 455.398 22.6753L457.146 23.6846L458.895 24.6938C459.102 24.3347 459.214 23.9243 459.214 23.5029H457.195ZM457.146 23.6846L455.333 22.7975C455.488 22.4807 455.734 22.227 456.03 22.0625L457.012 23.8262L457.993 25.5899C458.406 25.3605 458.746 25.0082 458.96 24.5717L457.146 23.6846ZM457.012 23.8262L456.031 22.0617C456.325 21.8988 456.67 21.8219 457.025 21.8582L456.819 23.8662L456.614 25.8743C457.102 25.9241 457.582 25.8184 457.992 25.5907L457.012 23.8262ZM456.819 23.8662L456.888 21.8489L455.293 21.7942L455.224 23.8115L455.154 25.8288L456.75 25.8835L456.819 23.8662ZM455.224 23.8115L455.325 21.7956C454.786 21.7685 454.248 21.8588 453.748 22.0588L454.499 23.9326L455.25 25.8064C455.21 25.8223 455.167 25.8297 455.122 25.8275L455.224 23.8115ZM454.499 23.9326L453.748 22.0588C453.25 22.2586 452.799 22.5639 452.427 22.9559L453.892 24.3447L455.356 25.7335C455.325 25.7663 455.289 25.7908 455.25 25.8064L454.499 23.9326ZM453.892 24.3447L452.418 22.9658C452.329 23.0604 452.244 23.1476 452.165 23.2236L453.568 24.6748L454.971 26.1261C455.11 25.9916 455.244 25.854 455.366 25.7237L453.892 24.3447ZM453.568 24.6748L452.187 23.2027C451.81 23.5565 451.516 23.9846 451.319 24.456L453.182 25.2334L455.044 26.0108C455.024 26.0595 454.993 26.1064 454.949 26.1469L453.568 24.6748ZM453.182 25.2334L451.319 24.4563C451.122 24.9277 451.025 25.4385 451.039 25.9553L453.057 25.9014L455.074 25.8474C455.076 25.9065 455.065 25.9618 455.045 26.0105L453.182 25.2334ZM453.057 25.9014L451.039 25.972L451.101 27.7288L453.118 27.6582L455.135 27.5876L455.074 25.8307L453.057 25.9014ZM453.118 27.6582L451.101 27.7424C451.089 27.4479 451.156 27.1486 451.303 26.8787L453.074 27.8477L454.845 28.8166C455.056 28.4309 455.153 28.0004 455.135 27.574L453.118 27.6582ZM453.074 27.8477L451.304 26.8778C451.446 26.6184 451.658 26.3969 451.924 26.2425L452.938 27.9873L453.953 29.7321C454.333 29.5113 454.639 29.1927 454.844 28.8175L453.074 27.8477ZM452.938 27.9873L451.924 26.2421C452.19 26.0875 452.488 26.0131 452.783 26.0179L452.75 28.0361L452.717 30.0544C453.144 30.0614 453.572 29.9535 453.953 29.7325L452.938 27.9873ZM452.75 28.0361L452.783 26.0179C453.093 26.023 453.386 26.114 453.635 26.2699L452.563 27.9805L451.492 29.691C451.853 29.9171 452.275 30.047 452.717 30.0544L452.75 28.0361ZM452.563 27.9805L453.633 26.2685L452.199 25.373L451.13 27.085L450.06 28.7969L451.494 29.6924L452.563 27.9805ZM451.13 27.085L452.23 25.3924C451.792 25.1078 451.297 24.9195 450.777 24.8423L450.48 26.8389L450.184 28.8354C450.128 28.8271 450.075 28.807 450.03 28.7775L451.13 27.085ZM450.48 26.8389L450.777 24.8423C450.262 24.7657 449.733 24.7995 449.227 24.9455L449.787 26.8848L450.347 28.8241C450.291 28.8401 450.236 28.8432 450.184 28.8354L450.48 26.8389ZM449.787 26.8848L449.253 24.9381L448.83 25.0543L449.363 27.001L449.897 28.9476L450.321 28.8314L449.787 26.8848ZM449.363 27.001L448.859 25.0466C448.348 25.1785 447.873 25.4173 447.465 25.7441L448.726 27.3203L449.987 28.8965C449.953 28.9231 449.913 28.9436 449.868 28.9553L449.363 27.001ZM448.726 27.3203L447.465 25.7442C447.056 26.0713 446.719 26.4818 446.479 26.9506L448.274 27.8721L450.07 28.7935C450.049 28.8347 450.02 28.8696 449.987 28.8965L448.726 27.3203ZM448.274 27.8721L446.491 26.9276L445.674 28.4696L447.458 29.4141L449.242 30.3585L450.058 28.8166L448.274 27.8721ZM447.458 29.4141L445.676 28.4654C445.813 28.208 446.02 27.9847 446.283 27.8263L447.325 29.5547L448.368 31.283C448.743 31.057 449.041 30.7359 449.24 30.3627L447.458 29.4141ZM447.325 29.5547L446.284 27.8256C446.547 27.6671 446.841 27.5889 447.132 27.588L447.139 29.6064L447.145 31.6249C447.567 31.6236 447.991 31.51 448.367 31.2838L447.325 29.5547ZM447.139 29.6064L447.124 27.588C447.42 27.5858 447.717 27.6633 447.982 27.821L446.95 29.5557L445.918 31.2903C446.297 31.5158 446.725 31.628 447.153 31.6249L447.139 29.6064ZM446.95 29.5557L447.983 27.8214C448.246 27.9778 448.457 28.2015 448.597 28.4654L446.815 29.4141L445.034 30.3627C445.237 30.7436 445.541 31.0657 445.917 31.2899L446.95 29.5557ZM446.815 29.4141L448.598 28.4677L447.764 26.8965L445.981 27.8428L444.199 28.7891L445.033 30.3604L446.815 29.4141ZM445.981 27.8428L447.753 26.8745C447.498 26.4098 447.15 26.0066 446.732 25.6889L445.51 27.2949L444.287 28.901C444.257 28.8783 444.231 28.8483 444.21 28.8111L445.981 27.8428ZM445.51 27.2949L446.732 25.6889C446.315 25.3707 445.833 25.1425 445.319 25.0215L444.856 26.9863L444.394 28.9512C444.354 28.9417 444.318 28.9242 444.287 28.901L445.51 27.2949ZM444.856 26.9863L445.336 25.0256C445.224 24.9982 445.104 24.9639 444.945 24.9168L444.373 26.8525L443.801 28.7883C443.961 28.8355 444.162 28.8946 444.377 28.9471L444.856 26.9863ZM444.373 26.8525L445.012 24.938C444.509 24.77 443.972 24.7114 443.439 24.7716L443.665 26.7773L443.891 28.7831C443.835 28.7895 443.781 28.783 443.734 28.7671L444.373 26.8525ZM443.665 26.7773L443.439 24.7716C442.904 24.8319 442.393 25.0093 441.941 25.2851L442.991 27.0088L444.042 28.7324C443.999 28.7581 443.949 28.7767 443.891 28.7831L443.665 26.7773ZM442.991 27.0088L441.922 25.2969L440.43 26.2286L441.5 27.9404L442.57 29.6523L444.061 28.7207L442.991 27.0088ZM441.5 27.9404L440.429 26.2294C440.68 26.0726 440.971 25.9836 441.276 25.9779L441.313 27.9961L441.351 30.0142C441.787 30.0061 442.209 29.8781 442.571 29.6514L441.5 27.9404ZM441.313 27.9961L441.278 25.9779C441.568 25.9728 441.865 26.0445 442.132 26.1984L441.126 27.9482L440.12 29.6981C440.501 29.9174 440.928 30.0217 441.349 30.0143L441.313 27.9961ZM441.126 27.9482L442.132 26.1985C442.406 26.356 442.615 26.579 442.754 26.8273L440.99 27.8096L439.227 28.7919C439.429 29.1551 439.732 29.4749 440.12 29.698L441.126 27.9482ZM440.99 27.8096L442.754 26.8283C442.897 27.0859 442.972 27.3817 442.962 27.6863L440.944 27.6211L438.927 27.5558C438.913 27.9919 439.019 28.4184 439.226 28.7908L440.99 27.8096ZM440.944 27.6211L442.962 27.6912L443.027 25.8084L441.01 25.7383L438.992 25.6682L438.927 27.551L440.944 27.6211ZM441.01 25.7383L443.026 25.8241C443.047 25.3291 442.968 24.8332 442.792 24.3674L440.904 25.0811L439.016 25.7947C438.999 25.748 438.991 25.6998 438.993 25.6525L441.01 25.7383ZM440.904 25.0811L442.792 24.367C442.616 23.902 442.348 23.4778 442.005 23.1203L440.549 24.5186L439.093 25.9168C439.06 25.8822 439.034 25.8412 439.016 25.7951L440.904 25.0811ZM440.549 24.5186L441.943 23.0587C441.921 23.0376 441.886 23.001 441.804 22.9115L440.313 24.2725L438.823 25.6335C438.893 25.7105 439.018 25.8474 439.155 25.9784L440.549 24.5186ZM440.313 24.2725L441.776 22.8812C441.421 22.5084 440.99 22.2142 440.51 22.0208L439.755 23.8926L438.999 25.7644C438.942 25.7412 438.892 25.7069 438.851 25.6637L440.313 24.2725ZM439.755 23.8926L440.51 22.0206C440.032 21.8279 439.518 21.7395 439.003 21.7617L439.09 23.7783L439.177 25.7949C439.116 25.7976 439.056 25.7872 439 25.7645L439.755 23.8926ZM439.09 23.7783L439.018 21.7611L437.178 21.8265L437.25 23.8438L437.322 25.861L439.162 25.7955L439.09 23.7783ZM437.25 23.8438L437.184 21.8263C437.47 21.817 437.768 21.8822 438.042 22.0343L437.062 23.7988L436.081 25.5633C436.47 25.7792 436.899 25.8748 437.316 25.8612L437.25 23.8438ZM437.062 23.7988L438.043 22.0352C438.308 22.1825 438.524 22.3973 438.672 22.6531L436.924 23.6631L435.176 24.673C435.39 25.0424 435.701 25.3514 436.08 25.5625L437.062 23.7988ZM436.924 23.6631L438.672 22.6539C438.816 22.9035 438.893 23.1879 438.893 23.4801L436.875 23.4814L434.857 23.4828C434.857 23.9022 434.968 24.3125 435.176 24.6723L436.924 23.6631ZM436.875 23.4814H438.894C438.894 23.7756 438.815 24.0603 438.672 24.3089L436.924 23.2998L435.176 22.2908C434.969 22.6496 434.856 23.0599 434.856 23.4814H436.875ZM436.924 23.2998L438.636 24.3694L439.677 22.7034L437.965 21.6338L436.253 20.5642L435.212 22.2302L436.924 23.2998ZM437.965 21.6338L439.671 22.7122C439.933 22.2975 440.109 21.833 440.185 21.3464L438.191 21.0322L436.198 20.7181C436.207 20.6594 436.228 20.604 436.259 20.5554L437.965 21.6338ZM438.191 21.0322L440.185 21.3461C440.261 20.8625 440.239 20.366 440.116 19.8876L438.161 20.3896L436.206 20.8917C436.191 20.833 436.189 20.774 436.197 20.7183L438.191 21.0322ZM438.161 20.3896L440.122 19.9088L440.071 19.7018L438.11 20.1826L436.15 20.6635L436.201 20.8705L438.161 20.3896ZM438.11 20.1826L440.077 19.7279C439.957 19.2092 439.728 18.7203 439.405 18.2948L437.798 19.5156L436.19 20.7365C436.167 20.7062 436.152 20.6725 436.144 20.6373L438.11 20.1826ZM437.798 19.5156L439.405 18.2945C439.081 17.8679 438.671 17.5175 438.205 17.2637L437.239 19.0361L436.274 20.8086C436.243 20.7921 436.215 20.7683 436.191 20.7367L437.798 19.5156ZM437.239 19.0361L438.178 17.2494L436.556 16.3968L435.617 18.1836L434.678 19.9703L436.3 20.8229L437.239 19.0361ZM435.617 18.1836L436.577 16.4077C436.852 16.5563 437.066 16.7717 437.212 17.0152L435.479 18.0498L433.745 19.0844C433.958 19.4402 434.268 19.7487 434.658 19.9595L435.617 18.1836ZM435.479 18.0498L437.212 17.0156C437.359 17.2623 437.445 17.5535 437.445 17.8624L435.427 17.8643L433.408 17.8661C433.409 18.3057 433.531 18.7251 433.745 19.084L435.479 18.0498ZM435.427 17.8643L437.445 17.8643C437.445 18.17 437.361 18.4616 437.212 18.7119L435.479 17.6777L433.745 16.6435C433.529 17.0063 433.408 17.4276 433.408 17.8643L435.427 17.8643ZM435.479 17.6777L437.211 18.7137C437.058 18.9696 436.839 19.1788 436.578 19.32L435.617 17.5449L434.656 15.7698C434.281 15.9731 433.966 16.274 433.746 16.6418L435.479 17.6777ZM435.617 17.5449L436.564 19.3278L438.287 18.4127L437.341 16.6299L436.394 14.847L434.671 15.7621L435.617 17.5449ZM437.341 16.6299L438.31 18.4003C438.758 18.1551 439.155 17.819 439.473 17.4086L437.876 16.1738L436.279 14.939C436.307 14.9033 436.339 14.8772 436.371 14.8594L437.341 16.6299ZM437.876 16.1738L439.473 17.4085C439.789 16.9992 440.015 16.5311 440.14 16.0355L438.183 15.542L436.225 15.0485C436.235 15.0117 436.252 14.9741 436.279 14.9391L437.876 16.1738ZM438.183 15.542L439.993 16.435C440.098 16.2227 440.184 15.9638 440.213 15.668L438.205 15.4658L436.197 15.2637C436.221 15.0205 436.291 14.8138 436.372 14.649L438.183 15.542ZM438.205 15.4658L440.132 16.0685C440.293 15.5521 440.34 15.0094 440.275 14.4783L438.271 14.7256L436.268 14.9728C436.264 14.9387 436.267 14.9017 436.279 14.8632L438.205 15.4658ZM438.271 14.7256L440.275 14.4781C440.209 13.9475 440.032 13.4332 439.749 12.9714L438.027 14.0244L436.305 15.0774C436.284 15.0427 436.272 15.0069 436.268 14.9731L438.271 14.7256ZM438.027 14.0244L439.738 12.9527L438.747 11.3707L437.036 12.4424L435.326 13.5141L436.317 15.0961L438.027 14.0244ZM437.036 12.4424L438.785 11.4346C438.927 11.6816 439.006 11.9656 439.006 12.2607H436.987H434.969C434.969 12.6831 435.081 13.093 435.287 13.4502L437.036 12.4424ZM436.987 12.2607L439.006 12.2631C439.005 12.5612 438.925 12.8443 438.785 13.0874L437.036 12.0801L435.287 11.0727C435.084 11.4257 434.969 11.8335 434.969 12.2583L436.987 12.2607ZM437.036 12.0801L438.785 13.0882C438.637 13.3453 438.421 13.5604 438.155 13.7078L437.175 11.9434L436.195 10.1789C435.814 10.3903 435.501 10.7008 435.287 11.072L437.036 12.0801ZM437.175 11.9434L438.153 13.7091C437.883 13.8584 437.586 13.9256 437.295 13.9158L437.363 11.8984L437.431 9.88108C437.009 9.86688 436.581 9.96471 436.197 10.1776L437.175 11.9434ZM437.363 11.8984L437.295 13.9158L439.225 13.9812L439.293 11.9639L439.361 9.94653L437.432 9.8811L437.363 11.8984ZM439.293 11.9639L439.251 13.9819C439.764 13.9926 440.272 13.8978 440.745 13.7054L439.983 11.8359L439.222 9.96644C439.257 9.95228 439.295 9.94497 439.335 9.9458L439.293 11.9639ZM439.983 11.8359L440.745 13.7052C441.219 13.5122 441.649 13.2237 442.008 12.8585L440.567 11.4443L439.127 10.0301C439.154 10.0025 439.186 9.98122 439.222 9.96663L439.983 11.8359ZM440.567 11.4443L441.995 12.8716L442.082 12.7847L440.654 11.3574L439.227 9.93013L439.14 10.017L440.567 11.4443ZM440.654 11.3574L442.031 12.8338C442.419 12.4723 442.723 12.0344 442.927 11.5516L441.068 10.7646L439.21 9.97767C439.224 9.94364 439.246 9.91027 439.278 9.88108L440.654 11.3574ZM441.068 10.7646L442.927 11.5514C443.131 11.0702 443.235 10.5471 443.224 10.0153L441.206 10.0547L439.188 10.0941C439.187 10.0495 439.196 10.0103 439.209 9.97791L441.068 10.7646ZM441.206 10.0547L443.223 9.98321L443.158 8.13654L441.141 8.20801L439.123 8.27948L439.189 10.1262L441.206 10.0547ZM441.141 8.20801L443.159 8.16329C443.165 8.45423 443.094 8.74966 442.943 9.01609L441.188 8.02051L439.432 7.02493C439.216 7.40526 439.113 7.83088 439.123 8.25273L441.141 8.20801ZM441.188 8.02051L442.942 9.01767C442.788 9.29033 442.568 9.4998 442.322 9.63942L441.324 7.88477L440.326 6.13011C439.967 6.33434 439.652 6.63705 439.433 7.02334L441.188 8.02051ZM441.324 7.88477L442.321 9.64005C442.074 9.78035 441.781 9.86151 441.468 9.85497L441.511 7.83691L441.553 5.81886C441.11 5.80958 440.688 5.92461 440.328 6.12949L441.324 7.88477ZM441.511 7.83691L441.468 9.85497C441.158 9.84844 440.868 9.75575 440.625 9.60394L441.695 7.89258L442.766 6.18121C442.412 5.96 441.995 5.82814 441.553 5.81886L441.511 7.83691ZM441.695 7.89258L440.627 9.60545L442.209 10.5918L443.277 8.87891L444.345 7.16603L442.763 6.17971L441.695 7.89258ZM443.277 8.87891L442.182 10.5743C442.611 10.8517 443.096 11.0372 443.604 11.1159L443.913 9.12109L444.222 7.12632C444.277 7.13494 444.328 7.15474 444.373 7.18352L443.277 8.87891ZM443.913 9.12109L443.605 11.1159C444.115 11.1947 444.632 11.1632 445.122 11.0293L444.591 9.08203L444.059 7.1348C444.108 7.12142 444.163 7.11732 444.221 7.12625L443.913 9.12109ZM444.591 9.08203L445.171 11.0154L445.229 10.9978L444.649 9.06445L444.069 7.13108L444.011 7.14866L444.591 9.08203ZM444.649 9.06445L445.154 11.0189L445.423 10.9495L444.918 8.99512L444.413 7.0407L444.145 7.11004L444.649 9.06445ZM444.918 8.99512L445.416 10.9511C445.916 10.8238 446.384 10.5925 446.79 10.2707L445.535 8.68945L444.281 7.10823C444.322 7.07497 444.37 7.05175 444.419 7.03914L444.918 8.99512ZM445.535 8.68945L446.79 10.2704C447.195 9.94903 447.528 9.54537 447.766 9.08641L445.974 8.15723L444.182 7.22804C444.206 7.18153 444.239 7.14101 444.28 7.10852L445.535 8.68945ZM445.974 8.15723L447.758 9.10094L448.589 7.52966L446.805 6.58594L445.02 5.64222L444.189 7.21351L445.974 8.15723ZM446.805 6.58594L448.586 7.53456C448.446 7.7985 448.235 8.02223 447.972 8.17861L446.939 6.44434L445.907 4.71007C445.53 4.93425 445.226 5.2564 445.023 5.63731L446.805 6.58594ZM446.939 6.44434L447.971 8.17935C447.707 8.33651 447.409 8.41417 447.113 8.412L447.128 6.39355L447.143 4.37511C446.714 4.37197 446.286 4.48453 445.908 4.70932L446.939 6.44434Z" fill="#E9E9E9" mask="url(#path-1-inside-1_1084_23434)"/>
<text fill="white" xml:space="preserve" style="white-space: pre" font-family="Manrope" font-size="26" font-weight="bold" letter-spacing="0em"><tspan x="611.06" y="27.958"> Integrata</tspan></text>
<text fill="white" xml:space="preserve" style="white-space: pre" font-family="Manrope" font-size="26" font-weight="300" letter-spacing="0em"><tspan x="476.287" y="27.958">Intelligenza</tspan></text>
<text fill="white" xml:space="preserve" style="white-space: pre" font-family="Manrope" font-size="32" font-weight="600" letter-spacing="0em"><tspan x="535.791" y="69.1325">Synergy map</tspan></text>
<line opacity="0.3" x1="743.887" y1="3.53235" x2="743.887" y2="69.1336" stroke="white" stroke-width="1.00925"/>
<path d="M798.973 1.90049L799.172 2.02512L778.255 35.3409L778.057 35.2162L798.973 1.90049Z" fill="#21082B" stroke="white" stroke-width="0.504625"/>
<path d="M793.737 8.42744L830.316 20.851L830.286 20.9407L793.706 8.51714L793.737 8.42744Z" fill="#21082B" stroke="white" stroke-width="0.504625"/>
<path d="M775.36 30.2851C776.191 26.7658 779.718 24.5866 783.237 25.4174C786.756 26.2484 788.936 29.7751 788.105 33.2944C787.274 36.8136 783.747 38.9931 780.228 38.1621C776.709 37.331 774.529 33.8042 775.36 30.2851Z" fill="#21082B" stroke="white" stroke-width="0.504625"/>
<path d="M828.561 18.2684C830.601 16.2285 833.909 16.2291 835.949 18.2691C837.989 20.3092 837.989 23.6164 835.949 25.6564C833.909 27.6964 830.601 27.697 828.561 25.6571C826.521 23.617 826.521 20.3085 828.561 18.2684Z" fill="#21082B" stroke="white" stroke-width="0.504625"/>
<path d="M777.718 25.8398C777.599 25.8454 777.44 25.8687 777.278 25.9209C777.024 26.0026 776.839 26.1266 776.769 26.2627C776.659 26.4759 776.574 26.7157 776.457 27.002C776.343 27.278 776.206 27.5786 776.001 27.8623C775.85 28.0723 775.353 28.8276 774.856 29.5469C774.611 29.9014 774.367 30.2443 774.174 30.4941C774.079 30.6179 773.991 30.7253 773.918 30.8008C773.884 30.8372 773.843 30.8761 773.801 30.9053C773.781 30.9193 773.749 30.9396 773.708 30.9531C773.668 30.9659 773.581 30.9852 773.49 30.9355C773.44 30.9085 773.409 30.8716 773.393 30.8506C773.376 30.8274 773.362 30.804 773.353 30.7852C773.334 30.7475 773.319 30.7046 773.306 30.6641C773.28 30.5816 773.253 30.4741 773.225 30.3545C773.171 30.1201 773.103 29.7859 773.029 29.4561C772.953 29.1169 772.866 28.7596 772.765 28.4365C772.663 28.1095 772.553 27.8344 772.435 27.6514C772.181 27.2567 771.831 26.9145 771.539 26.668C771.463 26.6047 771.393 26.5469 771.33 26.498L771.134 27.3848C771.135 27.3937 771.137 27.4045 771.138 27.416C771.145 27.4655 771.155 27.5385 771.167 27.6309C771.193 27.816 771.23 28.081 771.275 28.3994C771.365 29.0369 771.488 29.8891 771.622 30.749C771.755 31.6096 771.898 32.4753 772.026 33.1406C772.09 33.4737 772.15 33.7528 772.203 33.9541C772.229 34.0554 772.253 34.1318 772.272 34.1836H772.273C772.276 34.1836 772.279 34.1847 772.282 34.1846C772.337 34.1831 772.418 34.1705 772.523 34.1387C772.732 34.0755 773.002 33.9492 773.288 33.7588C773.86 33.3772 774.461 32.7585 774.75 31.9316C775.07 31.0204 775.702 29.7461 776.249 28.71C776.523 28.1895 776.778 27.7249 776.964 27.3906C777.057 27.2237 777.133 27.089 777.186 26.9961C777.212 26.9497 777.233 26.9131 777.247 26.8887C777.254 26.8766 777.26 26.8676 777.263 26.8613C777.265 26.8582 777.266 26.8551 777.267 26.8535C777.267 26.853 777.267 26.8517 777.268 26.8506C777.269 26.8484 777.272 26.8452 777.274 26.8408C777.279 26.8316 777.287 26.8174 777.296 26.7998C777.315 26.7647 777.342 26.714 777.374 26.6533C777.437 26.531 777.517 26.3697 777.587 26.208C777.648 26.0682 777.693 25.9389 777.718 25.8398Z" fill="#21082B" stroke="white" stroke-width="0.504625"/>
<path d="M776.934 26.2218C776.935 26.2215 776.926 26.2247 776.91 26.2433C776.893 26.2628 776.875 26.291 776.858 26.3253C776.842 26.3589 776.83 26.3928 776.822 26.4181C776.818 26.4303 776.815 26.4403 776.813 26.4464C776.812 26.4492 776.812 26.4513 776.812 26.4523L776.804 26.4874L776.794 26.504C776.794 26.5071 776.791 26.5158 776.791 26.5294C776.791 26.551 776.798 26.6001 776.843 26.6749C776.891 26.6533 776.957 26.6124 777.033 26.5499C777.117 26.4804 777.198 26.4008 777.259 26.337C777.289 26.3056 777.314 26.2786 777.331 26.2599C777.334 26.2563 777.337 26.2531 777.339 26.2501L777.355 26.2208C777.352 26.2203 777.348 26.2204 777.344 26.2198C777.309 26.2148 777.26 26.2086 777.208 26.2052C777.092 26.1978 776.99 26.2032 776.934 26.2218Z" fill="#21082B" stroke="white" stroke-width="0.504625"/>
<mask id="path-12-inside-2_1084_23434" fill="white">
<path d="M777.999 25.8011C777.999 25.8011 778.236 27.0033 778.176 27.2551C778.116 27.5078 777.965 27.3723 777.937 27.3174C777.821 27.0915 777.74 26.3204 777.74 26.3204L777.999 25.8011Z"/>
</mask>
<path d="M777.999 25.8011C777.999 25.8011 778.236 27.0033 778.176 27.2551C778.116 27.5078 777.965 27.3723 777.937 27.3174C777.821 27.0915 777.74 26.3204 777.74 26.3204L777.999 25.8011Z" fill="#21082B"/>
<path d="M777.999 25.8011L777.548 25.5755L778.209 24.2528L778.494 25.7038L777.999 25.8011ZM778.176 27.2551L778.667 27.3715L778.667 27.3716L778.176 27.2551ZM777.937 27.3174L778.386 27.0867L778.386 27.0869L777.937 27.3174ZM777.74 26.3204L777.238 26.3732L777.222 26.2265L777.288 26.0947L777.74 26.3204ZM777.999 25.8011C778.494 25.7038 778.494 25.7039 778.494 25.7039C778.494 25.7039 778.494 25.7039 778.494 25.704C778.495 25.704 778.495 25.7041 778.495 25.7042C778.495 25.7044 778.495 25.7047 778.495 25.705C778.495 25.7057 778.495 25.7067 778.495 25.708C778.496 25.7105 778.496 25.7141 778.497 25.7188C778.499 25.7282 778.502 25.7418 778.505 25.759C778.512 25.7935 778.521 25.8428 778.532 25.9026C778.553 26.0219 778.582 26.1846 778.609 26.3562C778.635 26.5265 778.661 26.712 778.676 26.875C778.683 26.9563 778.689 27.0384 778.69 27.1137C778.691 27.1792 778.689 27.277 778.667 27.3715L778.176 27.2551L777.685 27.1387C777.677 27.1703 777.681 27.1754 777.681 27.127C777.68 27.0883 777.677 27.0352 777.671 26.9684C777.659 26.8352 777.636 26.6729 777.611 26.5112C777.586 26.3508 777.56 26.1972 777.539 26.0832C777.528 26.0264 777.52 25.9798 777.514 25.9476C777.511 25.9314 777.508 25.919 777.507 25.9106C777.506 25.9064 777.505 25.9033 777.505 25.9012C777.504 25.9002 777.504 25.8995 777.504 25.899C777.504 25.8988 777.504 25.8986 777.504 25.8985C777.504 25.8985 777.504 25.8984 777.504 25.8984C777.504 25.8984 777.504 25.8984 777.504 25.8984C777.504 25.8984 777.504 25.8985 777.999 25.8011ZM778.176 27.2551L778.667 27.3716C778.642 27.4781 778.59 27.6257 778.466 27.744C778.317 27.8861 778.124 27.93 777.951 27.8976C777.807 27.8705 777.704 27.7968 777.648 27.748C777.591 27.699 777.531 27.6311 777.488 27.548L777.937 27.3174L778.386 27.0869C778.357 27.0312 778.327 27.0008 778.308 26.9848C778.29 26.9689 778.233 26.9236 778.138 26.9056C778.014 26.8824 777.871 26.9161 777.769 27.0143C777.691 27.0886 777.68 27.1584 777.685 27.1387L778.176 27.2551ZM777.937 27.3174L777.488 27.5481C777.428 27.4311 777.39 27.2867 777.365 27.1794C777.338 27.0594 777.315 26.929 777.296 26.8127C777.278 26.6952 777.263 26.5861 777.253 26.5066C777.248 26.4667 777.245 26.434 777.242 26.4109C777.241 26.3994 777.24 26.3902 777.239 26.3838C777.239 26.3807 777.238 26.3781 777.238 26.3763C777.238 26.3754 777.238 26.3747 777.238 26.3742C777.238 26.3739 777.238 26.3737 777.238 26.3735C777.238 26.3735 777.238 26.3734 777.238 26.3733C777.238 26.3733 777.238 26.3733 777.238 26.3732C777.238 26.3732 777.238 26.3732 777.74 26.3204C778.242 26.2675 778.242 26.2675 778.242 26.2675C778.242 26.2675 778.242 26.2675 778.242 26.2675C778.242 26.2674 778.242 26.2674 778.242 26.2674C778.242 26.2675 778.242 26.2675 778.242 26.2676C778.242 26.2678 778.242 26.2682 778.242 26.2688C778.242 26.2699 778.242 26.2718 778.242 26.2743C778.243 26.2793 778.244 26.287 778.245 26.297C778.247 26.317 778.251 26.3462 778.255 26.3821C778.264 26.4543 778.277 26.5521 778.293 26.6557C778.31 26.7603 778.329 26.8651 778.349 26.9532C778.372 27.0541 778.388 27.0908 778.386 27.0867L777.937 27.3174ZM777.74 26.3204L777.288 26.0947L777.548 25.5755L777.999 25.8011L778.451 26.0268L778.191 26.546L777.74 26.3204Z" fill="white" mask="url(#path-12-inside-2_1084_23434)"/>
<mask id="path-14-inside-3_1084_23434" fill="white">
<path d="M777.49 26.8009C777.49 26.8009 777.603 27.5464 777.719 27.6343C777.794 27.6915 777.89 27.6577 777.921 27.5071C777.952 27.3566 777.771 26.4374 777.771 26.4374L777.49 26.8009Z"/>
</mask>
<path d="M777.49 26.8009C777.49 26.8009 777.603 27.5464 777.719 27.6343C777.794 27.6915 777.89 27.6577 777.921 27.5071C777.952 27.3566 777.771 26.4374 777.771 26.4374L777.49 26.8009Z" fill="#21082B"/>
<path d="M777.49 26.8009L776.991 26.8763L776.959 26.6633L777.091 26.4928L777.49 26.8009ZM777.719 27.6343L778.024 27.2323L778.024 27.2324L777.719 27.6343ZM777.771 26.4374L777.371 26.1292L778.05 25.2488L778.266 26.3395L777.771 26.4374ZM777.49 26.8009C777.989 26.7255 777.989 26.7255 777.989 26.7255C777.989 26.7255 777.989 26.7255 777.989 26.7254C777.989 26.7254 777.989 26.7254 777.989 26.7254C777.989 26.7254 777.989 26.7255 777.989 26.7256C777.989 26.7257 777.989 26.7261 777.989 26.7266C777.989 26.7276 777.99 26.7294 777.99 26.7317C777.991 26.7364 777.992 26.7436 777.993 26.753C777.997 26.7718 778.001 26.7992 778.007 26.8325C778.018 26.8996 778.035 26.9883 778.054 27.0781C778.074 27.1704 778.095 27.2524 778.114 27.3104C778.123 27.3402 778.129 27.3516 778.128 27.3505C778.128 27.3497 778.122 27.3383 778.111 27.3214C778.101 27.307 778.073 27.2698 778.024 27.2323L777.719 27.6343L777.414 28.0364C777.3 27.9503 777.243 27.8377 777.223 27.7961C777.194 27.7374 777.172 27.6762 777.154 27.6236C777.12 27.5172 777.09 27.3963 777.068 27.2912C777.044 27.1836 777.025 27.0805 777.012 27.0051C777.006 26.9671 777.001 26.9355 776.997 26.9132C776.995 26.9021 776.994 26.8932 776.993 26.8869C776.992 26.8838 776.992 26.8813 776.992 26.8795C776.992 26.8786 776.991 26.8779 776.991 26.8774C776.991 26.8771 776.991 26.8769 776.991 26.8767C776.991 26.8766 776.991 26.8765 776.991 26.8764C776.991 26.8764 776.991 26.8764 776.991 26.8764C776.991 26.8763 776.991 26.8763 777.49 26.8009ZM777.719 27.6343L778.024 27.2324C777.935 27.1651 777.766 27.1134 777.597 27.2044C777.453 27.2821 777.428 27.401 777.427 27.405L777.921 27.5071L778.415 27.6093C778.383 27.7639 778.295 27.975 778.076 28.0929C777.832 28.2241 777.578 28.1608 777.414 28.0363L777.719 27.6343ZM777.921 27.5071L777.427 27.405C777.417 27.4554 777.422 27.4821 777.42 27.4433C777.419 27.4196 777.415 27.3838 777.41 27.3356C777.398 27.2401 777.38 27.1203 777.36 26.999C777.34 26.8789 777.319 26.7627 777.302 26.6761C777.294 26.633 777.288 26.5975 777.283 26.5729C777.28 26.5606 777.279 26.551 777.277 26.5446C777.277 26.5414 777.276 26.539 777.276 26.5374C777.276 26.5366 777.276 26.5361 777.276 26.5357C777.276 26.5355 777.276 26.5354 777.276 26.5353C777.275 26.5353 777.275 26.5353 777.275 26.5353C777.275 26.5353 777.275 26.5353 777.275 26.5353C777.275 26.5353 777.275 26.5353 777.771 26.4374C778.266 26.3395 778.266 26.3395 778.266 26.3395C778.266 26.3395 778.266 26.3395 778.266 26.3396C778.266 26.3396 778.266 26.3397 778.266 26.3397C778.266 26.3399 778.266 26.3401 778.266 26.3404C778.266 26.3409 778.266 26.3416 778.266 26.3426C778.267 26.3445 778.267 26.3473 778.268 26.3509C778.269 26.358 778.271 26.3683 778.274 26.3815C778.279 26.4077 778.286 26.4452 778.294 26.4906C778.311 26.5811 778.334 26.704 778.355 26.8326C778.377 26.9599 778.398 27.0981 778.412 27.2173C778.419 27.2765 778.425 27.3371 778.428 27.3925C778.43 27.4329 778.434 27.5212 778.415 27.6093L777.921 27.5071ZM777.771 26.4374L778.17 26.7455L777.89 27.1091L777.49 26.8009L777.091 26.4928L777.371 26.1292L777.771 26.4374Z" fill="white" mask="url(#path-14-inside-3_1084_23434)"/>
<mask id="path-16-inside-4_1084_23434" fill="white">
<path d="M776.802 28.9163L776.41 28.7253L778.075 25.3083C778.292 25.4139 778.382 25.675 778.276 25.8916L776.802 28.9163Z"/>
</mask>
<path d="M776.802 28.9163L776.41 28.7253L778.075 25.3083C778.292 25.4139 778.382 25.675 778.276 25.8916L776.802 28.9163Z" fill="#21082B"/>
<path d="M776.802 28.9163L777.255 29.1374L777.034 29.5909L776.581 29.37L776.802 28.9163ZM776.41 28.7253L776.189 29.1789L775.735 28.9579L775.956 28.5042L776.41 28.7253ZM778.075 25.3083L777.622 25.0872L777.843 24.6335L778.296 24.8548L778.075 25.3083ZM778.276 25.8916L778.73 26.1127L778.73 26.1127L778.276 25.8916ZM776.802 28.9163L776.581 29.37L776.189 29.1789L776.41 28.7253L776.631 28.2716L777.023 28.4627L776.802 28.9163ZM776.41 28.7253L775.956 28.5042L777.622 25.0872L778.075 25.3083L778.529 25.5295L776.863 28.9464L776.41 28.7253ZM778.075 25.3083L778.296 24.8548C778.763 25.0825 778.957 25.6455 778.73 26.1127L778.276 25.8916L777.822 25.6706C777.806 25.7046 777.82 25.7454 777.854 25.7619L778.075 25.3083ZM778.276 25.8916L778.73 26.1127L777.255 29.1374L776.802 28.9163L776.348 28.6952L777.823 25.6705L778.276 25.8916Z" fill="white" mask="url(#path-16-inside-4_1084_23434)"/>
<path d="M770.061 17.337C769.391 17.2576 768.948 17.356 768.596 17.5392C768.231 17.7285 767.944 18.0159 767.587 18.3693C767.236 18.7167 766.832 19.1118 766.257 19.4532C765.68 19.7959 764.941 20.0797 763.918 20.2277C762.676 20.4072 761.579 20.5742 760.599 21.1583H760.598C759.707 21.6888 759.119 22.363 758.887 23.2286C758.653 24.1001 758.767 25.2091 759.371 26.6281C760.106 28.3533 761.092 29.246 762.146 29.6281C763.208 30.0128 764.385 29.896 765.527 29.5099C766.668 29.1241 767.753 28.4767 768.61 27.837C769.474 27.1925 770.082 26.5751 770.287 26.2628C770.619 25.7572 771.105 24.846 771.529 23.9689C771.741 23.5319 771.935 23.1069 772.085 22.7501C772.238 22.3871 772.338 22.1115 772.37 21.965C772.606 20.8909 772.811 19.9024 772.239 18.8195C771.779 17.9471 770.986 17.4469 770.061 17.337Z" fill="#21082B" stroke="white" stroke-width="0.504625"/>
<path d="M761.457 67.1989C761.429 67.401 761.387 67.6758 761.328 67.9635C761.269 68.2498 761.191 68.5568 761.093 68.8199C761 69.0686 760.868 69.3322 760.673 69.4742C760.468 69.623 760.187 70.0165 760 70.486C759.811 70.9613 759.758 71.414 759.886 71.693C759.953 71.8388 760.094 71.941 760.304 72.0055C760.906 72.1907 761.556 71.8803 761.818 71.2916C761.98 70.9279 762.125 70.4377 762.154 69.8151C762.194 68.956 762.348 68.3035 762.495 67.8619C762.547 67.7051 762.601 67.5755 762.646 67.4723L761.463 67.1559C761.461 67.1698 761.459 67.1842 761.457 67.1989Z" fill="#21082B" stroke="white" stroke-width="0.504625"/>
<path d="M769.562 68.79C769.586 69.3841 769.596 70.1034 769.522 70.4756C769.501 70.5865 769.456 70.7176 769.412 70.8408C769.366 70.9709 769.318 71.1007 769.277 71.2314C769.236 71.3623 769.207 71.4799 769.197 71.5781C769.187 71.6803 769.2 71.7309 769.211 71.751C769.287 71.8925 769.365 71.9739 769.416 72.0176C769.429 72.0287 769.442 72.0361 769.451 72.043L773.614 72.1094C773.354 71.9374 773.011 71.7524 772.173 71.3477C772.123 71.3236 772.028 71.2657 771.948 71.2168C771.858 71.1615 771.778 71.1103 771.73 71.0811C771.464 70.9188 771.208 70.6728 770.999 70.4404V70.4395C770.927 70.3594 770.876 70.2574 770.838 70.1592C770.799 70.0577 770.766 69.9425 770.739 69.8232C770.686 69.5847 770.649 69.3091 770.624 69.0527C770.599 68.7954 770.583 68.5509 770.575 68.3711C770.573 68.3334 770.573 68.2982 770.572 68.2666L769.521 68.0068C769.534 68.2123 769.549 68.4909 769.562 68.79Z" fill="#21082B" stroke="white" stroke-width="0.504625"/>
<path d="M769.177 48.6895L769.382 55.5508L769.384 55.5938L769.371 55.6338L769.37 55.6348C769.37 55.6356 769.37 55.637 769.369 55.6387C769.368 55.6423 769.366 55.648 769.364 55.6553C769.36 55.6697 769.353 55.691 769.345 55.7188C769.328 55.7747 769.304 55.8565 769.274 55.958C769.216 56.1612 769.137 56.4449 769.056 56.7646C768.892 57.4091 768.723 58.1837 768.686 58.7529C768.648 59.3295 768.736 61.7441 768.836 64.04C768.886 65.1822 768.938 66.2878 768.978 67.1074C768.997 67.5168 769.014 67.855 769.025 68.0908C769.027 68.1327 769.029 68.1718 769.031 68.207L770.643 68.1162C770.643 68.1118 770.643 68.1071 770.644 68.1025C770.657 67.9521 770.678 67.7311 770.704 67.4492C770.756 66.8853 770.831 66.077 770.922 65.1006C771.104 63.1476 771.35 60.5202 771.608 57.8242C772.125 52.4412 772.692 46.7583 772.89 45.6416C773.079 44.5721 773.03 43.2058 772.931 42.0928C772.881 41.5394 772.82 41.0539 772.771 40.707C772.746 40.5337 772.724 40.3948 772.709 40.2998C772.709 40.2983 772.709 40.2964 772.709 40.2949L771.717 39.9229L769.177 48.6895Z" fill="#21082B" stroke="white" stroke-width="0.504625"/>
<path d="M766.964 39.6372C766.962 39.6407 766.959 39.6443 766.957 39.6479C766.912 39.7178 766.847 39.8202 766.769 39.9497C766.611 40.209 766.396 40.5767 766.17 41.0063C765.715 41.8705 765.222 42.9686 765.034 43.9497C764.942 44.4331 764.909 45.185 764.906 46.1021C764.903 47.0148 764.928 48.0668 764.941 49.1479C764.968 51.2902 764.952 53.5643 764.564 54.9419C764.353 55.6924 763.85 56.6445 763.395 57.5972C762.929 58.5712 762.502 59.5622 762.391 60.4507C762.273 61.3922 761.983 63.089 761.725 64.5444C761.595 65.2733 761.474 65.9439 761.384 66.4321C761.342 66.6581 761.307 66.8453 761.282 66.981L762.912 67.3032L767.67 55.2788L771.453 44.2671L772.364 38.9321L766.964 39.6372Z" fill="#21082B" stroke="white" stroke-width="0.504625"/>
<path d="M768.117 25.6503C768.08 25.656 768.024 25.6655 767.954 25.6796C767.814 25.7078 767.618 25.7553 767.397 25.83C766.951 25.9807 766.422 26.237 766.033 26.66C766.016 26.6791 765.989 26.723 765.965 26.8085C765.941 26.8923 765.923 27.0021 765.913 27.1395C765.894 27.4152 765.911 27.7737 765.956 28.1942C766.047 29.0336 766.249 30.0855 766.485 31.1542C766.721 32.2217 766.99 33.2981 767.209 34.1844C767.426 35.0599 767.6 35.7713 767.642 36.0868C767.687 36.4346 767.616 36.8704 767.502 37.3046C767.386 37.7457 767.217 38.2145 767.045 38.6405C766.873 39.0674 766.696 39.4566 766.562 39.7382C766.537 39.7929 766.512 39.8433 766.489 39.8895C766.627 39.9123 766.804 39.941 767.011 39.9716C767.533 40.0489 768.244 40.1428 768.998 40.2059C769.754 40.2692 770.548 40.302 771.238 40.2606C771.864 40.2231 772.366 40.1248 772.684 39.9628C772.685 39.9041 772.686 39.8281 772.688 39.7372C772.691 39.5019 772.697 39.1647 772.703 38.7577C772.715 37.9434 772.73 36.8491 772.74 35.7284C772.75 34.6073 772.754 33.4605 772.747 32.5419C772.743 32.0826 772.737 31.6817 772.727 31.37C772.716 31.0509 772.701 30.8441 772.686 30.7596C772.612 30.3618 772.257 29.3078 771.871 28.2909C771.68 27.7875 771.485 27.3014 771.319 26.9218C771.236 26.7318 771.161 26.5713 771.099 26.4491C771.067 26.3879 771.04 26.3379 771.018 26.3007C771.007 26.2824 770.998 26.2682 770.99 26.2577C770.983 26.2467 770.979 26.2421 770.979 26.2421C770.981 26.2449 770.952 26.2204 770.851 26.1796C770.76 26.1431 770.639 26.1048 770.495 26.0663C770.208 25.9894 769.848 25.9166 769.492 25.8534C769.138 25.7904 768.791 25.7379 768.534 25.701C768.406 25.6826 768.3 25.6679 768.226 25.6581C768.191 25.6534 768.163 25.6489 768.144 25.6464C768.136 25.6474 768.127 25.6487 768.117 25.6503Z" fill="#21082B" stroke="white" stroke-width="0.504625"/>
<path d="M767.029 26.981C766.755 26.8625 766.442 27.0014 766.352 27.2729C766.106 28.0143 766.266 29.001 766.711 30.1021C767.152 31.1938 767.856 32.3537 768.634 33.4165C769.411 34.4784 770.253 35.4342 770.967 36.1167C771.324 36.4585 771.644 36.7267 771.903 36.9058C772.033 36.9954 772.142 37.0592 772.229 37.0981C772.271 37.1175 772.305 37.1298 772.331 37.1362C772.357 37.1428 772.369 37.1421 772.369 37.1421C772.384 37.1409 772.423 37.1308 772.492 37.0864C772.559 37.0432 772.639 36.9766 772.731 36.8833C772.916 36.6963 773.128 36.4251 773.356 36.0913C773.813 35.4253 774.317 34.5394 774.789 33.6489C775.26 32.7598 775.695 31.872 776.013 31.2065C776.171 30.8741 776.3 30.5974 776.39 30.4038C776.434 30.307 776.47 30.2309 776.493 30.1792C776.505 30.1536 776.514 30.1338 776.52 30.1206C776.523 30.114 776.525 30.1083 776.526 30.105C776.527 30.1036 776.528 30.1028 776.528 30.1021V30.1001L776.537 30.0815L776.549 30.064L776.55 30.063C776.55 30.0624 776.55 30.0611 776.551 30.0601C776.552 30.0577 776.555 30.0542 776.559 30.0493C776.565 30.0395 776.575 30.0247 776.589 30.0044C776.616 29.9636 776.657 29.9003 776.714 29.814C776.827 29.6411 777.002 29.3729 777.249 28.9917C777.45 28.6809 777.46 28.3475 777.411 28.0776C777.41 28.0707 777.408 28.064 777.406 28.0571C777.34 28.1234 777.263 28.1886 777.174 28.2417C776.999 28.3452 776.827 28.3922 776.68 28.3862C776.608 28.3833 776.527 28.367 776.456 28.3237C776.384 28.2799 776.299 28.1901 776.299 28.0532C776.228 28.1375 776.167 28.223 776.127 28.3052C776.034 28.4956 775.996 28.7832 775.986 29.0493C775.982 29.1772 775.984 29.2913 775.987 29.3735C775.989 29.4146 775.992 29.4481 775.993 29.4702C775.994 29.481 775.994 29.4893 775.994 29.4946C775.994 29.4973 775.995 29.4993 775.995 29.5005V29.5015L776.002 29.5806L775.963 29.6509H775.962C775.962 29.6515 775.962 29.6527 775.961 29.6538C775.96 29.6562 775.958 29.66 775.955 29.6646C775.95 29.6738 775.941 29.6878 775.931 29.7056C775.91 29.7411 775.88 29.7933 775.842 29.8589C775.765 29.9908 775.654 30.1788 775.519 30.4038C775.248 30.8538 774.881 31.4529 774.491 32.0474C774.103 32.6404 773.688 33.236 773.325 33.6743C773.145 33.892 772.97 34.0801 772.812 34.2104C772.733 34.2754 772.649 34.3339 772.563 34.3726C772.481 34.4099 772.368 34.4417 772.248 34.4116C772.156 34.3884 772.074 34.3356 772.009 34.2837C771.94 34.2292 771.871 34.1603 771.803 34.0835C771.666 33.9299 771.515 33.7255 771.357 33.4897C771.041 33.0168 770.68 32.3929 770.324 31.7397C769.612 30.432 768.907 28.9835 768.595 28.3315C768.261 27.6356 767.565 27.2126 767.029 26.981Z" fill="#21082B" stroke="white" stroke-width="0.504625"/>
<path d="M769.075 22.7446C769.023 23.0204 768.908 23.5674 768.775 24.1089C768.706 24.3894 768.632 24.6717 768.559 24.9146C768.487 25.1517 768.41 25.369 768.335 25.5112C768.328 25.5249 768.316 25.5622 768.323 25.6362C768.33 25.709 768.354 25.8021 768.399 25.9106C768.49 26.1278 768.652 26.3797 768.866 26.6128C769.279 27.0622 769.816 27.3753 770.311 27.3374C770.31 27.326 770.311 27.3133 770.31 27.2993C770.3 27.1643 770.255 26.9726 770.192 26.7573C770.131 26.5445 770.06 26.3321 770.002 26.1499C769.974 26.0614 769.949 25.978 769.932 25.9097C769.923 25.8758 769.914 25.8409 769.909 25.8081C769.905 25.7834 769.899 25.7293 769.91 25.6724C769.975 25.345 770.063 24.898 770.154 24.4399C770.206 24.1816 770.258 23.9196 770.307 23.6733C770.376 23.3236 770.439 23.0055 770.484 22.7749C770.489 22.7523 770.494 22.7303 770.498 22.7095L769.075 22.7446Z" fill="#21082B" stroke="white" stroke-width="0.504625"/>
<path d="M769.076 22.7446C769.065 22.8045 769.052 22.8757 769.036 22.9556C769.16 23.2789 769.354 23.5786 769.643 23.8306C769.839 24.0021 770.028 24.1117 770.207 24.1753C770.241 24.0048 770.275 23.8357 770.307 23.6733C770.376 23.3236 770.439 23.0055 770.484 22.7749C770.489 22.7523 770.494 22.7303 770.498 22.7095L769.076 22.7446Z" fill="#21082B" stroke="white" stroke-width="0.504625"/>
<path d="M770.046 18.1388C770.028 18.1423 770 18.1479 769.964 18.1573C769.892 18.1763 769.788 18.2092 769.667 18.2628C769.426 18.3702 769.122 18.5602 768.866 18.8898C768.616 19.2125 768.332 19.9181 768.286 20.6974C768.241 21.4704 768.433 22.2648 769.066 22.8185C769.388 23.0998 769.692 23.2168 769.962 23.2325C770.232 23.2483 770.494 23.1644 770.733 22.9991C771.221 22.6631 771.595 22.0059 771.691 21.3156C771.795 20.5756 771.828 19.7477 771.605 19.1222C771.496 18.8153 771.33 18.5692 771.09 18.4005C770.854 18.2343 770.524 18.1274 770.056 18.1368C770.053 18.1374 770.05 18.1381 770.046 18.1388Z" fill="#21082B" stroke="white" stroke-width="0.504625"/>
<path d="M772.251 20.2783C772.24 20.2807 772.22 20.2877 772.188 20.3076C772.118 20.3529 772.031 20.4435 771.962 20.5771C771.893 20.7105 771.867 20.8394 771.869 20.9326C771.871 20.9826 771.88 21.0092 771.886 21.0225C771.897 21.0197 771.918 21.014 771.947 20.9951C772.018 20.9498 772.104 20.8583 772.173 20.7246C772.242 20.5913 772.268 20.4623 772.266 20.3691C772.264 20.3187 772.257 20.2913 772.251 20.2783Z" fill="#21082B" stroke="white" stroke-width="0.504625"/>
<path d="M769.661 18.0873C769.315 18.1104 768.882 18.1938 768.495 18.4232C768.346 18.5116 768.191 18.7159 768.045 19.0267C767.907 19.3208 767.794 19.6741 767.704 20.0228C767.831 19.9512 767.977 19.8971 768.148 19.8773C768.283 19.8617 768.473 19.7543 768.703 19.5433C768.924 19.3404 769.148 19.0733 769.351 18.8011C769.545 18.5397 769.716 18.2796 769.841 18.0804C769.785 18.0812 769.725 18.083 769.661 18.0873Z" fill="#21082B" stroke="white" stroke-width="0.504625"/>
<path d="M767.936 20.2852C767.923 20.2879 767.879 20.3068 767.84 20.4023C767.803 20.4953 767.787 20.6315 767.815 20.7842C767.843 20.9372 767.907 21.0548 767.972 21.124C768.039 21.1941 768.081 21.1934 768.092 21.1914C768.104 21.1889 768.15 21.1707 768.189 21.0742C768.226 20.9812 768.242 20.8451 768.214 20.6924C768.186 20.5394 768.123 20.4208 768.057 20.3516C767.99 20.2808 767.946 20.2831 767.936 20.2852Z" fill="#21082B" stroke="white" stroke-width="0.504625"/>
<path d="M759.984 70.5311C759.922 70.6938 759.873 70.8589 759.845 71.0184C759.796 71.2958 759.811 71.528 759.887 71.6932C759.945 71.8192 760.056 71.9114 760.221 71.9764C760.388 72.0423 760.591 72.0725 760.791 72.08C761.151 72.0933 761.488 71.905 761.667 71.5917L761.668 71.5907C761.715 71.5091 761.762 71.4178 761.809 71.3163C760.989 71.3291 760.384 70.9283 759.984 70.5311Z" fill="#21082B" stroke="white" stroke-width="0.504625"/>
<path d="M769.328 71.0831C769.289 71.1981 769.251 71.3119 769.225 71.421C769.177 71.6155 769.174 71.7383 769.195 71.7999C769.243 71.9396 769.292 71.9966 769.318 72.0187C769.34 72.0366 769.359 72.0424 769.386 72.0431C770.385 72.0693 772.843 72.1025 774.019 72.1183C773.989 72.103 773.959 72.0857 773.927 72.0695C773.679 71.9448 773.364 71.7999 773.05 71.6603C772.736 71.5209 772.426 71.3876 772.188 71.2853C772.069 71.2344 771.967 71.1909 771.893 71.1583C771.871 71.1487 771.851 71.1389 771.833 71.131C770.744 71.3916 769.892 71.2639 769.328 71.0831Z" fill="#21082B" stroke="white" stroke-width="0.504625"/>
<path d="M805.033 22.1351C804.929 22.1492 804.797 22.1775 804.65 22.2181C804.356 22.2997 804.019 22.4274 803.741 22.5804C803.602 22.657 803.484 22.7369 803.395 22.8158C803.303 22.8963 803.256 22.964 803.236 23.014C803.221 23.054 803.222 23.0836 803.241 23.1205C803.26 23.1562 803.301 23.208 803.385 23.2699L803.483 23.3353C803.868 23.563 804.988 24.0621 806.268 24.5814C807.541 25.0983 808.946 25.6238 809.89 25.9047C810.466 26.0742 811.051 26.2315 811.612 26.3549L811.615 26.3558C812.397 26.5373 813.146 26.6823 813.766 26.7377H813.768C814.391 26.7995 814.73 26.6709 814.905 26.5062C815.077 26.3442 815.146 26.0944 815.11 25.7826C815.075 25.4708 814.936 25.1308 814.742 24.85C814.544 24.5638 814.314 24.3757 814.123 24.3168L814.124 24.3158C813.664 24.1813 812.92 23.9904 812.061 23.7982L812.055 23.7972C811.647 23.6954 811.216 23.5937 810.773 23.4916L810.774 23.4906C808.502 22.9907 805.494 22.2112 805.198 22.1254L805.197 22.1263C805.202 22.1278 805.192 22.1241 805.158 22.1244C805.127 22.1247 805.085 22.1281 805.033 22.1351Z" fill="#21082B" stroke="white" stroke-width="0.504625"/>
<path d="M811.025 23.7834C810.927 24.138 810.791 24.6086 810.642 25.0706C810.511 25.4737 810.531 25.9072 810.589 26.2512C810.618 26.4212 810.655 26.5651 810.685 26.6653C810.688 26.6775 810.693 26.6886 810.696 26.6995C810.769 26.7189 810.87 26.7465 810.996 26.7766C811.266 26.841 811.645 26.923 812.084 26.9905C812.968 27.1264 814.069 27.201 814.993 26.9866C815.391 26.8941 815.604 26.6642 815.705 26.3684C815.811 26.0568 815.797 25.6537 815.681 25.2415C815.565 24.8318 815.357 24.4409 815.113 24.1624C814.862 23.876 814.613 23.7513 814.416 23.7639C813.369 23.8306 812.482 23.7315 811.856 23.6155C811.544 23.5575 811.295 23.4948 811.124 23.4465C811.122 23.4459 811.12 23.4443 811.117 23.4436C811.092 23.537 811.062 23.6525 811.025 23.7834Z" fill="#21082B" stroke="white" stroke-width="0.504625"/>
<path d="M807.084 70.9622C806.589 70.9697 806.434 71.1792 806.413 71.2776C806.396 71.3528 806.432 71.5426 806.797 71.6184C807.224 71.7067 808.067 71.7986 808.829 71.8508C809.208 71.8768 809.56 71.8925 809.823 71.8938C809.955 71.8944 810.06 71.8914 810.132 71.885C810.139 71.8844 810.144 71.8827 810.15 71.8821C810.166 71.8509 810.186 71.8102 810.206 71.762C810.249 71.656 810.29 71.5256 810.312 71.3997C810.335 71.2687 810.334 71.1677 810.315 71.1057C810.301 71.061 810.287 71.0506 810.253 71.0432C809.988 70.9843 809.483 70.9579 808.884 70.9504C808.294 70.9431 807.638 70.9538 807.084 70.9622Z" fill="#21082B" stroke="white" stroke-width="0.504625"/>
<path d="M826.201 70.4309C825.935 70.4878 825.465 70.674 824.917 70.9163C824.377 71.155 823.785 71.4373 823.285 71.675C822.837 71.8881 822.784 72.1433 822.806 72.2415C822.822 72.3167 822.934 72.4746 823.297 72.3918C823.721 72.2952 824.527 72.0272 825.241 71.7581C825.597 71.6242 825.923 71.4922 826.163 71.384C826.284 71.3296 826.377 71.2831 826.44 71.2473C826.446 71.2441 826.451 71.2404 826.456 71.2375C826.458 71.2022 826.458 71.157 826.456 71.1047C826.451 70.9903 826.435 70.8545 826.403 70.7307C826.37 70.6022 826.326 70.5117 826.283 70.4631C826.268 70.4456 826.256 70.4353 826.243 70.4309H826.201Z" fill="#21082B" stroke="white" stroke-width="0.504625"/>
<path d="M815.438 38.0494C814.791 38.048 814.128 38.1827 813.613 38.4332C813.094 38.6858 812.766 39.0337 812.691 39.4401C812.222 42.0116 811.654 45.2397 811.203 47.8658C810.978 49.179 810.782 50.3419 810.643 51.1959C810.573 51.6229 810.518 51.9721 810.48 52.2242C810.462 52.3505 810.447 52.4515 810.438 52.525C810.434 52.5541 810.432 52.5766 810.43 52.5934C810.446 52.6153 810.47 52.6467 810.507 52.6852C810.593 52.7756 810.722 52.8923 810.885 53.0231C811.21 53.2844 811.652 53.5873 812.114 53.8278C812.582 54.0707 813.046 54.2365 813.422 54.2526C813.607 54.2604 813.758 54.2314 813.876 54.1696C813.99 54.1097 814.091 54.0105 814.166 53.8463C814.348 53.4462 814.636 52.5142 814.973 51.278C815.307 50.05 815.685 48.5434 816.051 47.0114C816.783 43.9427 817.46 40.7883 817.635 39.568C817.672 39.3067 817.633 39.0925 817.543 38.9156C817.452 38.737 817.304 38.5812 817.102 38.4518C816.692 38.1895 816.089 38.0509 815.438 38.0494Z" fill="#21082B" stroke="white" stroke-width="0.504625"/>
<path d="M812.601 49.6508C812.195 49.486 811.782 49.5256 811.429 49.7924C811.068 50.0657 810.739 50.6014 810.578 51.4857C809.91 55.1393 809.58 62.1624 809.41 66.5951V66.598C809.376 67.2933 809.35 67.928 809.327 68.476L809.261 69.8334C809.25 70.1655 809.238 70.4154 809.225 70.5199C809.205 70.6759 809.25 70.7744 809.31 70.8373C809.375 70.9054 809.479 70.9532 809.606 70.9613C809.859 70.9773 810.142 70.8332 810.233 70.4916L810.235 70.4847L810.238 70.4769L810.251 70.4252C810.258 70.3997 810.268 70.3677 810.28 70.3314H810.279C810.403 69.8674 810.737 68.6963 811.156 67.1566C811.73 65.0472 812.468 62.2426 813.075 59.6146C813.683 56.9787 814.151 54.5449 814.196 53.1625V53.1615L814.199 52.8041C814.163 51.0642 813.379 49.9665 812.601 49.6508Z" fill="#21082B" stroke="white" stroke-width="0.504625"/>
<path d="M821.014 37.6094C820.538 37.5097 819.926 37.5939 819.317 37.8232C818.712 38.0517 818.14 38.413 817.747 38.8301C817.351 39.2506 817.167 39.6922 817.242 40.0986C817.716 42.6663 818.471 46.2578 819.122 49.2471C819.448 50.7413 819.747 52.0843 819.973 53.0723C820.086 53.5664 820.18 53.9713 820.25 54.2617C820.285 54.407 820.313 54.5228 820.335 54.6064C820.34 54.6265 820.345 54.6443 820.35 54.6602C820.357 54.6618 820.365 54.6653 820.375 54.667C820.464 54.6826 820.597 54.6917 820.767 54.6885C821.104 54.6821 821.551 54.6277 821.997 54.5088C822.445 54.3893 822.876 54.2092 823.197 53.9609C823.514 53.7156 823.711 53.4148 823.735 53.043C823.764 52.6041 823.701 51.6307 823.577 50.3555C823.454 49.0886 823.273 47.5455 823.07 45.9834C822.665 42.8548 822.179 39.6659 821.909 38.4629C821.851 38.2054 821.738 38.0193 821.592 37.8857C821.444 37.7508 821.249 37.6587 821.014 37.6094Z" fill="#21082B" stroke="white" stroke-width="0.504625"/>
<path d="M822.402 50.5906C822.007 50.2946 821.614 50.254 821.272 50.3904C820.921 50.531 820.582 50.8767 820.353 51.4304C820.124 51.982 820.011 52.7254 820.104 53.6218C820.59 58.2711 823.158 65.2352 824.38 68.5574V68.5583C824.55 69.0228 824.697 69.4084 824.811 69.7039L824.813 69.7117C824.867 69.8685 824.917 70.0072 824.956 70.1218L825.036 70.3816C825.074 70.5336 825.15 70.6106 825.229 70.6482C825.313 70.6889 825.427 70.6962 825.549 70.6589C825.792 70.5844 826.008 70.349 825.975 69.9988L825.929 69.6072L825.928 69.5945C825.911 69.3409 825.88 68.982 825.839 68.5398L825.689 66.9851C825.479 64.8355 825.169 61.8665 824.796 59.0906C824.445 56.4799 824.04 54.063 823.613 52.6541L823.528 52.3865C823.214 51.4651 822.806 50.8926 822.402 50.5906Z" fill="#21082B" stroke="white" stroke-width="0.504625"/>
<path opacity="0.5" d="M809.396 66.8978C809.342 68.0521 809.307 69.0195 809.27 69.6693C809.611 69.8474 809.986 69.9817 810.347 70.0853C810.494 69.5522 810.763 68.5928 811.093 67.3842C810.554 67.1986 809.956 67.0255 809.396 66.8978Z" fill="#21082B" stroke="white" stroke-width="0.504625"/>
<path opacity="0.5" d="M824.438 68.7137C824.554 69.0267 824.658 69.2999 824.746 69.5302C825.153 69.5049 825.545 69.4505 825.91 69.3759C825.876 68.9341 825.816 68.2857 825.739 67.496L824.438 68.7137Z" fill="#21082B" stroke="white" stroke-width="0.504625"/>
<path d="M814.228 39.7587C813.733 39.7622 813.289 39.7872 812.968 39.827C812.806 39.8471 812.685 39.8699 812.608 39.8925C812.606 39.8929 812.605 39.893 812.603 39.8934C812.528 40.2431 812.28 41.3447 811.975 42.7333V42.7352C811.314 45.653 810.372 49.8629 810.146 51.2753C809.977 52.3746 809.608 56.5566 809.292 60.5809C809.135 62.5906 808.99 64.5564 808.891 66.0702C808.842 66.8271 808.803 67.4703 808.78 67.9491C808.768 68.1886 808.761 68.3859 808.757 68.535C808.754 68.6882 808.756 68.7757 808.759 68.8085C808.763 68.8375 808.784 68.891 808.905 68.9559C809.026 69.0209 809.206 69.0727 809.431 69.1093C809.878 69.1819 810.426 69.1828 810.842 69.1659H810.845L811.286 69.1454C811.288 69.1375 811.29 69.1293 811.292 69.121C811.329 68.9962 811.383 68.8142 811.451 68.5868C811.586 68.132 811.779 67.4937 812.004 66.7596C812.343 65.6592 812.757 64.3419 813.172 63.1044L813.584 61.9042C814.111 60.3925 814.401 58.7206 814.616 57.2528C814.722 56.5254 814.811 55.8349 814.9 55.2587C814.988 54.685 815.08 54.1915 815.199 53.8436H815.198C815.44 53.0942 816.545 50.3769 817.28 47.3153L817.421 46.6991C817.749 45.1608 817.973 43.5789 817.928 42.1747V42.1718C817.917 41.5166 817.839 40.8895 817.686 40.3339L817.687 40.3329C817.682 40.3181 817.657 40.2725 817.554 40.2098C817.452 40.1474 817.3 40.0867 817.102 40.0331L817.1 40.0321C816.378 39.8313 815.223 39.7516 814.228 39.7587Z" fill="#21082B" stroke="white" stroke-width="0.504625"/>
<path d="M817.435 40.0111C817.441 40.1149 817.45 40.2509 817.461 40.4154C817.488 40.8246 817.528 41.4107 817.579 42.1156V42.1176C817.659 43.3897 817.783 45.0493 817.92 46.7328V46.7338C818.137 49.5255 818.408 52.3428 818.655 53.5883C818.936 55.0061 820.143 58.6847 821.344 62.097C821.943 63.7987 822.538 65.4265 823.011 66.6625C823.247 67.2806 823.452 67.7991 823.611 68.1791C823.691 68.3693 823.758 68.5231 823.812 68.6361C823.838 68.6927 823.861 68.7371 823.879 68.7699C823.892 68.7935 823.901 68.8062 823.904 68.8119C823.909 68.8171 823.934 68.8392 824.017 68.8461C824.103 68.8533 824.222 68.8412 824.37 68.806C824.591 68.7536 824.845 68.6567 825.095 68.5375L825.342 68.4115L825.348 68.4086L825.534 68.309C825.714 68.2077 825.873 68.1041 825.993 68.0121C826.074 67.9502 826.132 67.898 826.166 67.8597C826.169 67.8562 826.172 67.853 826.175 67.85C826.175 67.849 826.174 67.8481 826.174 67.847C826.171 67.813 826.166 67.7658 826.16 67.7064C826.148 67.5875 826.131 67.4212 826.108 67.2142C826.064 66.8005 826 66.2249 825.923 65.5385C825.769 64.1659 825.562 62.3491 825.355 60.5004C824.943 56.8126 824.522 52.9628 824.505 52.2543C824.471 50.8892 824.315 45.5776 821.941 39.4711L817.435 40.0111Z" fill="#21082B" stroke="white" stroke-width="0.504625"/>
<path d="M817.248 23.2163C816.5 23.1995 815.765 23.2324 815.166 23.3267C814.866 23.3738 814.605 23.4351 814.397 23.5103C814.238 23.5676 814.121 23.6293 814.04 23.6899L813.97 23.7505L813.96 23.7593C813.383 24.2981 813.021 24.829 812.798 25.3853C812.575 25.943 812.487 26.5407 812.479 27.2222C812.471 27.9066 812.542 28.6641 812.631 29.5435C812.72 30.4191 812.825 31.4091 812.879 32.5405V32.5415C812.96 34.2703 812.762 36.5063 812.545 38.3003C812.437 39.1995 812.323 39.9918 812.237 40.5591C812.209 40.7441 812.184 40.9054 812.163 41.0386C812.219 41.0189 812.279 40.9959 812.344 40.9741C812.716 40.8508 813.238 40.7002 813.836 40.5874C815.024 40.3637 816.564 40.2833 817.839 40.9302H817.84C819.017 41.5349 820.115 41.5243 820.981 41.3296H820.983C821.536 41.2102 821.993 41.0138 822.311 40.8481C822.454 40.7738 822.567 40.7056 822.649 40.6538C822.644 40.6386 822.638 40.6229 822.632 40.606C822.584 40.4565 822.516 40.2396 822.437 39.9692C822.278 39.4288 822.073 38.6729 821.889 37.8101C821.522 36.0931 821.228 33.9174 821.562 32.1753V32.1743L821.926 30.4438C822.046 29.8792 822.159 29.3259 822.244 28.7817V28.7788L822.306 28.3774C822.437 27.4521 822.463 26.6065 822.286 25.8667C822.086 25.0348 821.626 24.324 820.725 23.7798L820.724 23.7808C820.493 23.6428 820.015 23.5062 819.374 23.4019C818.744 23.2994 817.994 23.2332 817.248 23.2163Z" fill="#21082B" stroke="white" stroke-width="0.504625"/>
<path d="M818.151 19.1903C817.872 19.1527 817.605 19.2044 817.436 19.3251C817.287 19.4313 817.183 19.6108 817.245 19.9315C817.466 21.0605 817.073 22.0448 816.775 22.5917L816.774 22.5936C816.685 22.7548 816.603 22.8809 816.544 22.9677C816.514 23.0111 816.49 23.0449 816.473 23.0682C816.47 23.0716 816.468 23.075 816.466 23.078L816.465 23.079C816.458 23.0966 816.449 23.1233 816.44 23.1552C816.423 23.222 816.412 23.2983 816.423 23.3661C816.432 23.427 816.458 23.4804 816.518 23.5253C816.584 23.5747 816.716 23.6313 816.973 23.6415C817.476 23.6615 817.853 23.4784 818.107 23.288C818.229 23.1968 818.322 23.1039 818.385 23.0331C818.364 22.9936 818.342 22.948 818.321 22.8954L818.319 22.8895C818.144 22.4174 818.019 21.5001 818.799 20.1473C818.955 19.8461 818.903 19.645 818.794 19.5067C818.669 19.3482 818.431 19.228 818.151 19.1903Z" fill="#21082B" stroke="white" stroke-width="0.504625"/>
<path d="M818.112 15.0576C817.362 14.9757 816.831 15.0818 816.454 15.2793C816.078 15.4758 815.831 15.7749 815.668 16.1211C815.335 16.8291 815.364 17.7082 815.393 18.209C815.452 19.2366 815.264 19.5993 815.174 20.2148C815.137 20.4723 815.24 20.8491 815.412 21.1963C815.494 21.364 815.585 21.5111 815.668 21.6172C815.71 21.6704 815.746 21.7101 815.775 21.7354C815.807 21.7641 815.815 21.761 815.797 21.7559C816.272 21.8962 816.574 21.9014 816.863 21.7432C817.066 21.632 817.554 21.3902 818.04 21.083C818.281 20.9304 818.514 20.7664 818.702 20.6016C818.894 20.4327 819.018 20.281 819.07 20.1572C819.368 19.4506 819.733 18.6645 820.007 17.9541C820.143 17.6015 820.252 17.28 820.315 17.0098C820.38 16.7297 820.385 16.5446 820.355 16.4434C820.28 16.1881 820.023 15.8722 819.61 15.5977C819.204 15.328 818.677 15.1194 818.112 15.0576Z" fill="#21082B" stroke="white" stroke-width="0.504625"/>
<path opacity="0.4" d="M817.071 17.3252H817.07V17.3242C817.071 17.3264 817.073 17.3313 817.077 17.3379C817.085 17.3523 817.1 17.3755 817.123 17.4033C817.169 17.4587 817.248 17.5329 817.377 17.5908C817.518 17.6538 817.762 17.7148 817.99 17.7607C818.101 17.7829 818.202 17.8004 818.274 17.8125C818.31 17.8185 818.339 17.8231 818.359 17.8262C818.369 17.8277 818.378 17.8283 818.383 17.8291C818.385 17.8295 818.387 17.8299 818.389 17.8301L818.39 17.8311L818.8 17.8896L818.56 18.2256L818.561 18.2246L818.559 18.2275C818.556 18.2316 818.552 18.2393 818.547 18.249C818.536 18.2695 818.524 18.2967 818.518 18.3252C818.505 18.3774 818.51 18.4154 818.55 18.4551C818.626 18.5316 818.621 18.5073 818.741 18.5605C818.888 18.6258 819.009 18.7443 819.175 19.0088C819.263 19.15 819.323 19.3105 819.368 19.4688C819.577 18.9917 819.791 18.5022 819.971 18.041C820.104 17.7 820.213 17.3843 820.282 17.1133C820.338 16.8958 820.363 16.7234 820.361 16.5967C820.357 16.5943 820.354 16.5908 820.35 16.5889C820.34 16.5842 820.333 16.5808 820.328 16.5791L820.104 16.5176L820.146 16.29L820.147 16.2793C820.149 16.2684 820.15 16.2503 820.151 16.2266C820.153 16.1903 820.152 16.1412 820.146 16.084C819.776 15.6152 819.004 15.1551 818.111 15.0576C817.143 14.9518 816.539 15.1585 816.155 15.4775C815.784 15.7866 815.583 16.2318 815.479 16.7061C815.528 16.8441 815.588 16.9395 815.665 17.0049C815.729 17.0594 815.817 17.1048 815.945 17.1309L816.088 17.1504C816.441 17.1768 816.624 17.1807 816.715 17.1787C816.728 17.1784 816.738 17.1772 816.747 17.1768L816.957 17.0371L817.071 17.3252ZM816.708 17.2031C816.706 17.2041 816.704 17.2049 816.702 17.2061L816.7 17.208L816.698 17.209H816.699L816.708 17.2031Z" fill="#21082B" stroke="white" stroke-width="0.504625"/>
<path d="M820.401 16.3224C820.407 16.3245 820.419 16.3282 820.432 16.3351C820.459 16.3492 820.491 16.3726 820.518 16.4083C820.559 16.4646 820.639 16.6267 820.485 17.0255C820.311 17.4764 820.117 17.9822 819.966 18.3751C819.89 18.5716 819.826 18.7403 819.78 18.8595C819.758 18.9188 819.739 18.9658 819.727 18.9982C819.72 19.0141 819.716 19.0269 819.713 19.0353C819.711 19.0393 819.71 19.0429 819.709 19.045L819.708 19.048V19.049L819.706 19.0509C819.647 19.2118 819.574 19.3634 819.5 19.4991C819.457 19.2523 819.38 18.975 819.239 18.7491C819.074 18.4847 818.953 18.3661 818.806 18.3009C818.686 18.2479 818.691 18.2729 818.614 18.1964C818.574 18.1566 818.57 18.118 818.582 18.0656C818.589 18.0372 818.601 18.0107 818.611 17.9904C818.616 17.9806 818.62 17.973 818.623 17.9689L818.624 17.9679L818.864 17.631L818.454 17.5714H818.453C818.452 17.5712 818.45 17.5708 818.447 17.5704C818.442 17.5697 818.434 17.569 818.424 17.5675C818.404 17.5644 818.375 17.5588 818.339 17.5529C818.266 17.5408 818.166 17.5232 818.056 17.5011C817.827 17.4552 817.582 17.3952 817.441 17.3322C817.312 17.2743 817.233 17.2 817.188 17.1447C817.164 17.1167 817.15 17.0927 817.142 17.0782C817.138 17.0717 817.137 17.0667 817.136 17.0646V17.0656L817.021 16.7775L816.81 16.9181C816.801 16.9185 816.791 16.9198 816.779 16.92C816.688 16.922 816.506 16.9182 816.152 16.8917C815.855 16.8694 815.71 16.77 815.618 16.632C815.512 16.4721 815.453 16.2219 815.422 15.8458C815.396 15.5297 815.495 15.4502 815.527 15.4288C815.554 15.4115 815.583 15.4027 815.608 15.3986C815.62 15.3967 815.63 15.3958 815.635 15.3956L815.848 15.4113L815.897 15.2023C815.898 15.2011 815.899 15.1985 815.899 15.1954C815.901 15.1893 815.903 15.179 815.907 15.1661C815.915 15.14 815.927 15.1013 815.944 15.0548C815.979 14.9607 816.032 14.8376 816.107 14.7169C816.262 14.4697 816.478 14.2773 816.782 14.2804C817.174 14.2844 817.495 14.3838 817.718 14.4816C817.829 14.5304 817.915 14.5784 817.972 14.6134C818 14.6309 818.021 14.6452 818.034 14.6544C818.041 14.659 818.045 14.6623 818.048 14.6642C818.049 14.6651 818.051 14.6659 818.051 14.6661L818.05 14.6652L818.15 14.7433L818.272 14.7091H818.271L818.272 14.7081H818.274C818.278 14.7072 818.284 14.7061 818.293 14.7042C818.311 14.7004 818.339 14.6948 818.376 14.6896C818.45 14.679 818.56 14.6685 818.692 14.674C818.957 14.6848 819.311 14.7554 819.67 14.9962C820.019 15.2304 820.146 15.4973 820.193 15.6945C820.217 15.7956 820.222 15.8824 820.22 15.9425C820.219 15.9724 820.216 15.996 820.214 16.0099C820.213 16.0158 820.213 16.0202 820.213 16.0226L820.159 16.2667L820.398 16.3204V16.3214H820.399L820.401 16.3224ZM820.401 16.3224H820.402L820.403 16.3214H820.401V16.3224Z" fill="#21082B" stroke="white" stroke-width="0.504625"/>
<path d="M818.796 18.9287C818.766 18.9425 818.724 18.9732 818.698 19.0654C818.698 19.0654 818.697 19.0667 818.697 19.0684C818.696 19.0721 818.694 19.0798 818.692 19.0908C818.688 19.1128 818.683 19.1494 818.679 19.1992C818.672 19.2988 818.67 19.4528 818.703 19.6553C818.713 19.7227 818.737 19.7582 818.752 19.7734C818.76 19.781 818.766 19.7844 818.77 19.7861C818.774 19.7878 818.776 19.7881 818.776 19.7881L818.785 19.7812C818.795 19.7711 818.819 19.7382 818.829 19.6621C818.846 19.5277 818.876 19.4189 818.924 19.3301C818.977 19.2332 819.043 19.1794 819.094 19.1436C819.148 19.1056 819.143 19.1107 819.149 19.1045C819.15 19.1037 819.152 19.1009 819.156 19.0938C819.16 19.0859 819.164 19.072 819.17 19.0508C819.167 19.0452 819.162 19.0352 819.15 19.0225C819.113 18.9843 819.049 18.9447 818.973 18.9248C818.898 18.905 818.836 18.9109 818.796 18.9287Z" fill="#21082B" stroke="white" stroke-width="0.504625"/>
<path d="M813.628 23.5977C813.589 23.6178 813.533 23.6575 813.467 23.7207C813.337 23.8466 813.198 24.0373 813.102 24.252C813.006 24.4674 812.962 24.6871 812.994 24.8799C813.023 25.0623 813.123 25.2438 813.362 25.3936C813.925 25.7468 815.139 26.2056 816.515 26.6123C817.883 27.0167 819.375 27.3591 820.475 27.4873C820.996 27.5479 821.265 27.4376 821.399 27.3066C821.533 27.1754 821.591 26.9645 821.559 26.6885C821.527 26.4141 821.408 26.1132 821.244 25.8643C821.075 25.6091 820.884 25.4475 820.734 25.3975C819.959 25.1391 818.284 24.7159 816.744 24.3408C815.286 23.9859 813.937 23.6698 813.649 23.5889C813.644 23.5907 813.637 23.5932 813.628 23.5977Z" fill="#21082B" stroke="white" stroke-width="0.504625"/>
<path d="M799.805 1.14746C806.066 1.14765 811.141 6.22368 811.141 12.4844C811.141 18.7449 806.066 23.8201 799.805 23.8203C793.544 23.8203 788.468 18.745 788.468 12.4844C788.468 6.22356 793.544 1.14746 799.805 1.14746Z" fill="#21082B" stroke="white" stroke-width="0.504625"/>
<path d="M817.458 24.5608C817.358 24.9149 817.221 25.3854 817.069 25.8469C816.936 26.2493 816.954 26.6825 817.011 27.0266C817.039 27.1966 817.076 27.3403 817.106 27.4407C817.11 27.4531 817.114 27.4648 817.118 27.4758C817.19 27.4956 817.292 27.5233 817.417 27.554C817.687 27.6195 818.066 27.7025 818.504 27.7717C819.388 27.9112 820.487 27.9912 821.413 27.7805C821.811 27.6897 822.025 27.4606 822.127 27.1653C822.235 26.8541 822.222 26.4509 822.108 26.0383C821.994 25.6281 821.787 25.2359 821.544 24.9563C821.295 24.669 821.047 24.5433 820.849 24.5549C819.802 24.6175 818.916 24.5152 818.291 24.3967C817.978 24.3375 817.729 24.2738 817.558 24.2249C817.556 24.2242 817.554 24.2226 817.551 24.2219C817.526 24.3152 817.494 24.4301 817.458 24.5608Z" fill="#21082B" stroke="white" stroke-width="0.504625"/>
<path d="M810.811 17.3215C810.773 17.3538 810.717 17.4418 810.681 17.593C810.655 17.7013 810.645 17.8262 810.653 17.9534L810.669 18.0813C810.701 18.2649 810.846 18.7516 811.06 19.4114C811.27 20.0621 811.54 20.8606 811.814 21.6526C812.364 23.2393 812.922 24.7751 813.053 25.0618C813.055 25.0632 813.061 25.0663 813.069 25.0686C813.103 25.0775 813.164 25.0808 813.257 25.0637C813.442 25.0296 813.682 24.9254 813.907 24.7698C814.133 24.614 814.321 24.423 814.42 24.2327C814.515 24.05 814.523 23.8864 814.437 23.7336C814.36 23.6 811.718 19.0548 811.113 17.8118L811.108 17.802L811.104 17.7903C810.99 17.4867 810.885 17.3635 810.829 17.3245C810.824 17.321 810.82 17.3183 810.817 17.3167C810.816 17.318 810.813 17.3193 810.811 17.3215Z" fill="#21082B" stroke="white" stroke-width="0.504625"/>
<path d="M810.844 17.5521C810.85 17.5579 810.856 17.5645 810.863 17.5707C810.893 17.5988 810.927 17.6274 810.96 17.6537C810.955 17.2542 810.991 16.8392 811.011 16.4984C811.022 16.3112 811.028 16.1467 811.023 16.0082C811.017 15.8655 811 15.7729 810.977 15.7191C810.948 15.6491 810.9 15.5919 810.844 15.5433V17.5521Z" fill="#21082B" stroke="white" stroke-width="0.504625"/>
<path d="M810.779 15.483C810.422 15.25 810.208 15.2667 810.095 15.3053C810.031 15.327 809.98 15.3612 809.938 15.3981C810.175 15.3535 810.414 15.3883 810.607 15.4459C810.671 15.4648 810.733 15.4878 810.791 15.5123C810.786 15.497 810.782 15.4879 810.779 15.483Z" fill="#21082B" stroke="white" stroke-width="0.504625"/>
<path d="M810.652 15.917C810.295 15.6839 810.081 15.7007 809.968 15.7393C809.904 15.761 809.853 15.7952 809.812 15.832C810.048 15.7875 810.287 15.8223 810.48 15.8799C810.544 15.8988 810.606 15.9218 810.664 15.9463C810.659 15.9309 810.655 15.9219 810.652 15.917Z" fill="#21082B" stroke="white" stroke-width="0.504625"/>
<path d="M810.761 16.3899C810.404 16.1568 810.19 16.1736 810.077 16.2122C810.013 16.2339 809.962 16.2681 809.92 16.3049C810.156 16.2604 810.396 16.2952 810.589 16.3528C810.653 16.3717 810.715 16.3947 810.773 16.4192C810.768 16.4038 810.764 16.3948 810.761 16.3899Z" fill="#21082B" stroke="white" stroke-width="0.504625"/>
<path d="M810.761 16.8807C810.404 16.6477 810.19 16.6644 810.077 16.703C810.013 16.7247 809.962 16.7589 809.92 16.7958C810.156 16.7512 810.396 16.7861 810.589 16.8436C810.653 16.8625 810.715 16.8856 810.773 16.91C810.768 16.8947 810.764 16.8856 810.761 16.8807Z" fill="#21082B" stroke="white" stroke-width="0.504625"/>
</svg>
