<svg width="840" height="73" viewBox="0 0 840 73" fill="none" xmlns="http://www.w3.org/2000/svg">
<path d="M405.698 12.1276L414.708 16.395C414.966 16.517 415.263 16.5244 415.526 16.4154L425.883 12.1276M405.698 12.1276V15.0138C405.698 15.3927 405.91 15.7397 406.248 15.9123L408.531 17.0804L412.081 18.8971L414.682 20.2282C414.954 20.3675 415.275 20.3759 415.554 20.251L418.902 18.7535L421.934 17.3975L425.286 15.8982C425.649 15.7357 425.883 15.3749 425.883 14.9769V12.1276M405.698 12.1276C405.698 12.0312 405.756 11.9442 405.845 11.9073L415.089 8.0664C415.334 7.96457 415.61 7.96337 415.855 8.06306L425.883 12.1276M415.113 28.0925L424.925 23.3467C425.268 23.1808 425.488 22.8357 425.494 22.4546L425.533 20.0914C425.54 19.6774 425.024 19.3479 424.649 19.5222C422.845 20.3601 418.967 22.1206 418.967 22.1206L415.113 23.8523M415.113 28.0925L406.431 23.6287C406.102 23.4598 405.892 23.125 405.883 22.7558L405.839 20.939C405.82 20.1812 406.613 19.6742 407.293 20.0086L415.113 23.8523M415.113 28.0925V23.8523" stroke="#E9E9E9" stroke-width="2.0185"/>
<text fill="white" xml:space="preserve" style="white-space: pre" font-family="Manrope" font-size="26" font-weight="bold" letter-spacing="0em"><tspan x="579.794" y="27.958"> Collaborativa</tspan></text>
<text fill="white" xml:space="preserve" style="white-space: pre" font-family="Manrope" font-size="26" font-weight="300" letter-spacing="0em"><tspan x="445.021" y="27.958">Intelligenza</tspan></text>
<text fill="white" xml:space="preserve" style="white-space: pre" font-family="Manrope" font-size="32" font-weight="600" letter-spacing="0em"><tspan x="470.206" y="69.1325">The Balance Tower</tspan></text>
<line opacity="0.3" x1="764.647" y1="3.53235" x2="764.647" y2="69.1336" stroke="white" stroke-width="1.00925"/>
<path d="M821.062 17.6007H793.061C792.624 17.6009 792.303 17.9251 792.303 18.2853V44.2452C792.303 44.6054 792.624 44.9297 793.061 44.9298H821.062C821.498 44.9298 821.82 44.6055 821.82 44.2452V18.2853C821.82 17.925 821.498 17.6007 821.062 17.6007Z" fill="#21082B" stroke="white" stroke-width="0.504625"/>
<path d="M814.11 17.6007H786.109C785.673 17.6009 785.352 17.9251 785.352 18.2853V44.2452C785.352 44.6054 785.673 44.9297 786.109 44.9298H814.11C814.547 44.9298 814.869 44.6055 814.869 44.2452V18.2853C814.869 17.925 814.547 17.6007 814.11 17.6007Z" fill="#21082B" stroke="white" stroke-width="0.504625"/>
<path d="M815.244 45.0852H787.243C786.806 45.0853 786.485 45.4096 786.485 45.7698V71.7297C786.485 72.0899 786.806 72.4142 787.243 72.4143H815.244C815.681 72.4143 816.002 72.09 816.002 71.7297V45.7698C816.002 45.4095 815.681 45.0852 815.244 45.0852Z" fill="#21082B" stroke="white" stroke-width="0.504625"/>
<path d="M808.292 45.0852H780.292C779.855 45.0853 779.534 45.4095 779.534 45.7698V71.7297C779.534 72.0899 779.855 72.4142 780.292 72.4143H808.292C808.729 72.4143 809.051 72.09 809.051 71.7297V45.7698C809.051 45.4095 808.729 45.0852 808.292 45.0852Z" fill="#21082B" stroke="white" stroke-width="0.504625"/>
<path d="M816.984 11.9094L811.374 12.0803L811.387 14.6545L811.402 17.385L821.468 17.3401L821.439 11.7717L816.984 11.9094Z" fill="#21082B" stroke="white" stroke-width="0.504625"/>
<path d="M816.776 7.84619C815.631 7.852 814.639 8.18938 814.039 8.67627H814.038C813.68 8.96524 813.476 9.29407 813.432 9.62842L813.423 9.77197C813.426 10.2446 813.751 10.7155 814.368 11.0796C814.979 11.4404 815.838 11.6687 816.798 11.6636H816.799C817.76 11.6591 818.616 11.422 819.223 11.0552C819.835 10.6853 820.155 10.2123 820.152 9.73975C820.149 9.16122 819.656 8.58457 818.772 8.21533L818.59 8.14404C818.134 7.97744 817.6 7.87297 817.025 7.85107L816.776 7.84619Z" fill="#21082B" stroke="white" stroke-width="0.504625"/>
<path d="M812.623 7.40063L816.734 7.35767L820.676 7.31372L816.491 0.497314L812.623 7.40063Z" fill="#21082B" stroke="white" stroke-width="0.504625"/>
<path d="M819.703 21.5072C819.704 21.5226 819.705 21.543 819.706 21.5677C819.71 21.6336 819.717 21.7317 819.73 21.8578C819.757 22.1105 819.807 22.4754 819.899 22.9193C820.084 23.8077 820.439 25.0088 821.119 26.2592C822.465 28.7317 825.092 31.4149 830.256 32.2474L831.764 30.8676H831.762C831.502 30.7751 831.128 30.6369 830.673 30.4515C829.763 30.081 828.525 29.5228 827.21 28.7728C824.59 27.2788 821.62 24.9962 820.387 21.8754L820.361 21.8109L820.372 21.7435L820.873 18.5961L820.674 18.1586L819.703 21.5072Z" fill="#21082B" stroke="white" stroke-width="0.504625"/>
<path d="M830.074 53.7454C830.107 53.8123 830.148 53.8955 830.197 53.9934C830.34 54.2806 830.548 54.696 830.806 55.2073C831.321 56.2302 832.035 57.6381 832.832 59.178C834.427 62.2607 836.349 65.8621 837.669 67.967L837.693 68.0071L837.702 68.053H837.703V68.0549C837.703 68.0563 837.704 68.0583 837.704 68.0608C837.705 68.0661 837.707 68.0742 837.709 68.0842C837.713 68.1046 837.718 68.1351 837.725 68.1731C837.738 68.2491 837.757 68.3582 837.778 68.4915C837.82 68.7578 837.871 69.1225 837.904 69.5149C837.938 69.9063 837.955 70.332 837.929 70.717C837.91 70.9965 837.868 71.2767 837.778 71.511L838.86 71.4807C838.865 71.3918 838.87 71.2809 838.876 71.1536C838.891 70.8155 838.91 70.3629 838.924 69.9045C838.938 69.4455 838.947 68.983 838.944 68.6243C838.943 68.4443 838.938 68.2944 838.93 68.1858C838.926 68.1389 838.923 68.1034 838.919 68.0784C838.894 68.0556 838.859 68.0353 838.811 68.0237C838.782 68.0169 838.756 68.0141 838.737 68.0129C838.728 68.0124 838.722 68.012 838.718 68.012H838.717L838.487 68.0227L838.456 67.7942V67.7932C838.456 67.7925 838.455 67.7916 838.455 67.7903C838.455 67.7873 838.454 67.7826 838.453 67.7766C838.451 67.7646 838.449 67.7466 838.445 67.7229C838.438 67.6753 838.428 67.6043 838.413 67.5139C838.384 67.3332 838.339 67.0729 838.277 66.7561C838.154 66.1212 837.962 65.2608 837.69 64.3586C837.418 63.4552 837.068 62.5168 836.63 61.7219C836.189 60.9221 835.674 60.2949 835.086 59.9768L834.996 59.928L834.966 59.8303L832.546 52.1008L830.074 53.7454Z" fill="#21082B" stroke="white" stroke-width="0.504625"/>
<path d="M839.246 68.0222C839.207 68.0858 839.158 68.1689 839.114 68.2654C839.011 68.4948 838.946 68.7607 839.009 68.9988C839.099 69.3423 839.18 69.9386 839.186 70.4753C839.188 70.7436 839.172 71.0111 839.123 71.2312C839.098 71.3412 839.063 71.4498 839.011 71.5437C838.959 71.6369 838.88 71.7328 838.762 71.7869C838.625 71.8491 838.442 71.8925 838.263 71.9236C838.079 71.9556 837.878 71.9782 837.694 71.9949C837.51 72.0116 837.34 72.0218 837.217 72.0281C837.155 72.0312 837.105 72.0336 837.069 72.0349C837.052 72.0356 837.038 72.0366 837.028 72.0369C837.027 72.0369 837.025 72.0368 837.023 72.0369L837 72.0398C836.979 72.0424 836.949 72.0462 836.913 72.0525C836.9 72.0547 836.886 72.0576 836.872 72.0603C836.926 72.0604 836.982 72.0624 837.039 72.0623C837.558 72.0609 838.188 72.0522 838.633 72.0447C838.856 72.0409 839.028 71.898 839.07 71.7253L839.741 68.4539C839.774 68.2943 839.668 68.1124 839.454 68.0671L839.246 68.0222Z" fill="#21082B" stroke="white" stroke-width="0.504625"/>
<path d="M826.547 71.7911L825.376 72.4093C826.118 72.4015 827.142 72.3886 828.055 72.3654C828.583 72.3519 829.072 72.3358 829.446 72.3156C829.634 72.3054 829.79 72.294 829.907 72.2823C829.966 72.2765 830.012 72.2712 830.046 72.2657C830.047 72.2655 830.049 72.265 830.05 72.2648C830.051 72.2521 830.055 72.2344 830.055 72.2091C830.052 72.1028 830.017 71.9463 829.946 71.7638C829.823 71.4455 829.622 71.1186 829.424 70.921L826.547 71.7911Z" fill="#21082B" stroke="white" stroke-width="0.504625"/>
<path d="M824.404 53.5881C824.495 53.994 824.626 54.5769 824.787 55.2854C825.107 56.703 825.544 58.6231 826.01 60.6321C826.944 64.6572 827.988 69.02 828.446 70.4358L828.508 70.6292L828.333 70.7317L827.24 71.3674C827.466 71.3424 827.697 71.3202 827.911 71.3059C828.241 71.2837 828.581 71.0914 828.857 70.8782C828.982 70.7811 829.088 70.6852 829.165 70.6106L829.016 70.3928L828.977 70.3352L828.973 70.2659V70.2629C828.973 70.2612 828.972 70.2584 828.972 70.2551C828.972 70.2481 828.971 70.2375 828.97 70.2239C828.969 70.1962 828.967 70.1552 828.964 70.1018C828.958 69.9946 828.949 69.8368 828.938 69.636C828.916 69.2343 828.885 68.6588 828.848 67.9631C828.774 66.5712 828.678 64.6978 828.588 62.7727C828.498 60.8479 828.415 58.8702 828.366 57.2698C828.324 55.9029 828.308 54.7902 828.337 54.2278L824.349 53.3401C824.365 53.4132 824.383 53.4964 824.404 53.5881Z" fill="#21082B" stroke="white" stroke-width="0.504625"/>
<path d="M812.816 14.7827C812.773 14.7999 812.748 14.8303 812.74 14.8608L812.551 15.563C812.37 16.2317 812.55 16.9436 813.041 17.4722L814.481 19.02C814.732 19.2899 814.876 19.6416 814.867 20.0093C814.743 25.1291 816.354 28.6153 817.985 30.8188C818.802 31.9221 819.626 32.7063 820.244 33.2134C820.553 33.4669 820.811 33.651 820.989 33.771C821.004 33.781 821.019 33.7892 821.033 33.7983L822.61 30.4634C818.947 28.4836 817.203 25.6138 816.38 23.2202C815.961 22.0019 815.779 20.9073 815.703 20.1167C815.665 19.7215 815.654 19.4015 815.651 19.1792C815.65 19.0682 815.651 18.9811 815.652 18.9214C815.653 18.8915 815.655 18.868 815.655 18.8521C815.656 18.8442 815.655 18.8378 815.655 18.8335C815.655 18.8315 815.656 18.8298 815.656 18.8286V18.8267L815.663 18.7114L815.755 18.6411L816.192 18.3052C815.591 18.2371 815.052 17.8845 814.791 17.3433L814.084 15.8774C813.882 15.4585 813.54 15.1057 813.105 14.8716L812.955 14.7905C812.912 14.7672 812.86 14.7655 812.816 14.7827Z" fill="#21082B" stroke="white" stroke-width="0.504625"/>
<path d="M822.617 30.0282C822.551 30.0114 822.494 30.0347 822.462 30.0692L822.438 30.1063L821.148 33.7655C821.09 33.9313 821.154 34.1222 821.329 34.2303L821.594 34.3944L821.769 34.5018L821.698 34.6952C821.596 34.9767 821.497 35.2161 821.457 35.4491C821.419 35.6688 821.442 35.8455 821.559 36.0038C822.16 36.8217 822.835 38.0407 823.355 39.0448C823.617 39.5489 823.841 40.0033 824 40.3309C824.079 40.4947 824.143 40.6271 824.187 40.7186C824.191 40.7276 824.195 40.7359 824.199 40.744C825.843 41.0739 827.446 40.9927 829.052 40.7714L828.944 39.6259L828.941 39.5907L828.948 39.5555L830.517 31.3466C827.821 31.3118 823.815 30.3363 822.617 30.0282Z" fill="#21082B" stroke="white" stroke-width="0.504625"/>
<path d="M826.843 27.894C826.738 28.1873 826.599 28.5785 826.459 28.9702C826.32 29.3623 826.181 29.7549 826.079 30.0503C826.028 30.195 825.987 30.3154 825.958 30.4009C826.118 30.5484 826.34 30.659 826.612 30.7339C826.935 30.8231 827.305 30.8572 827.66 30.8608C828.013 30.8645 828.344 30.8378 828.586 30.8101C828.639 30.8041 828.687 30.7963 828.73 30.7905L828.179 27.6899L826.955 27.5864C826.925 27.6674 826.887 27.7723 826.843 27.894Z" fill="#21082B" stroke="white" stroke-width="0.504625"/>
<path d="M828.924 22.5132C828.602 22.4618 828.331 22.4935 828.133 22.6079C828.038 22.6628 827.237 22.9661 826.509 23.6665C825.795 24.3524 825.191 25.3897 825.525 26.8862C825.549 26.9921 825.628 27.0883 825.746 27.1372C826.215 27.3312 827.226 27.6628 828.431 27.5493C829.178 27.4786 829.844 26.825 830.333 26.0103C830.572 25.6116 830.759 25.1924 830.881 24.8257C831.006 24.451 831.056 24.1571 831.047 24.0005C831.04 23.8878 830.948 23.7027 830.731 23.478C830.524 23.263 830.236 23.0459 829.913 22.8696C829.59 22.6933 829.243 22.5642 828.924 22.5132Z" fill="#21082B" stroke="white" stroke-width="0.504625"/>
<path d="M832.058 21.8448C831.168 21.2788 830.18 21.2553 829.061 21.3907C829.059 21.3911 829.058 21.3913 829.057 21.3917C829.043 21.3956 829.024 21.4017 828.999 21.4103C828.949 21.4277 828.88 21.4543 828.802 21.4894C828.644 21.5603 828.457 21.663 828.304 21.7941C828.149 21.9263 828.046 22.0707 828.016 22.2238C827.987 22.3677 828.013 22.5658 828.21 22.8322C828.666 23.4505 829.001 23.9678 829.16 24.4103C829.325 24.8676 829.315 25.2855 829.028 25.6466C828.893 25.8164 828.722 25.912 828.569 25.9786C828.494 26.0116 828.416 26.0397 828.35 26.0646C828.28 26.0904 828.221 26.1135 828.167 26.1388C828.06 26.1885 827.996 26.2375 827.955 26.3038C827.914 26.3706 827.877 26.4882 827.894 26.712C827.916 27.0096 827.776 27.2997 827.511 27.4659C827.111 27.7168 826.456 28.2108 826.133 28.8878C825.974 29.2201 825.896 29.5944 825.965 30.0109C826.034 30.4288 826.254 30.91 826.727 31.4484C826.953 31.7067 827.01 32.0799 826.823 32.3898C826.31 33.2435 826.14 34.4062 826.281 35.5636C826.422 36.7204 826.871 37.8357 827.551 38.5919C828.335 39.4636 829.525 39.9546 830.755 40.3351C831.812 40.6622 832.889 40.9158 833.97 40.8849C835.051 40.854 836.13 40.5097 836.843 39.8116C837.106 39.554 837.31 39.2563 837.413 38.9366C837.51 38.6365 837.523 38.3073 837.49 37.9679C837.333 36.319 836.207 34.853 834.879 33.629C834.59 33.3629 834.264 33.0751 833.989 32.7618C833.712 32.4461 833.47 32.086 833.356 31.6593C833.275 31.3544 833.269 31.0449 833.274 30.7628C833.287 30.1411 833.363 29.4878 833.63 28.882C833.737 28.6384 833.872 28.4096 833.999 28.1954C834.129 27.977 834.251 27.7734 834.348 27.5616C834.784 26.6092 834.71 25.4827 834.3 24.4816C833.867 23.423 833.071 22.4898 832.058 21.8448Z" fill="#21082B" stroke="white" stroke-width="0.504625"/>
<path d="M829.488 41.0569C829.214 41.2261 828.828 41.4514 828.398 41.6331C827.981 41.8097 827.5 41.9526 827.029 41.9563L827.424 49.2727L836.858 66.6096C837.277 66.5656 837.723 66.3875 838.197 66.0774C837.78 64.6854 837.36 63.3372 836.866 62.2444C836.346 61.0926 835.773 60.2899 835.1 59.9817L834.978 59.926L834.956 59.7932C833.927 53.5429 832.906 47.3038 831.65 43.676C830.847 42.2468 829.973 41.4244 829.488 41.0569Z" fill="#21082B" stroke="white" stroke-width="0.504625"/>
<path d="M824.021 41.0071C823.999 41.0018 823.979 41.0086 823.968 41.0178C823.962 41.0222 823.961 41.0262 823.96 41.0276C823.96 41.0282 823.959 41.0287 823.959 41.0305L823.965 41.0774L823.953 41.1233C823.087 44.486 823.297 48.6448 824.078 53.2317C824.854 57.7841 826.187 62.7306 827.564 67.6995C827.971 67.9288 828.407 67.9214 828.9 67.7063L828.683 49.9436V49.9036L828.694 49.8655C829.153 48.3839 829.108 47.0379 828.854 45.6145C828.726 44.9002 828.546 44.1689 828.351 43.3899C828.173 42.6822 827.984 41.9354 827.812 41.136C826.965 41.2771 826.351 41.3252 825.798 41.2991C825.194 41.2705 824.674 41.1572 824.021 41.0071Z" fill="#21082B" stroke="white" stroke-width="0.504625"/>
<path d="M829.23 40.6224C828.048 40.9816 826.137 41.0482 823.981 41.0082L823.888 41.4017C825.272 41.4527 826.511 41.4551 827.518 41.3744C828.446 41.3 829.141 41.1585 829.573 40.9476L829.23 40.6224Z" fill="#21082B" stroke="white" stroke-width="0.504625"/>
</svg>
