<svg width="1503" height="135" viewBox="0 0 1503 135" fill="none" xmlns="http://www.w3.org/2000/svg">
<path d="M694.277 22.1254L710.961 30.028C711.438 30.2539 711.989 30.2676 712.476 30.0658L731.656 22.1254M694.277 22.1254V27.4703C694.277 28.1719 694.67 28.8144 695.294 29.1341L699.522 31.2972L706.096 34.6615L710.913 37.1265C711.417 37.3843 712.011 37.3999 712.528 37.1688L718.729 34.3955L724.343 31.8844L730.55 29.108C731.223 28.8071 731.656 28.1389 731.656 27.4019V22.1254M694.277 22.1254C694.277 21.9468 694.384 21.7858 694.549 21.7173L711.667 14.6046C712.121 14.416 712.631 14.4138 713.086 14.5984L731.656 22.1254M711.711 51.6899L729.881 42.9015C730.517 42.5942 730.925 41.9551 730.936 41.2494L731.007 36.8731C731.02 36.1065 730.065 35.4962 729.37 35.8191C726.029 37.3707 718.849 40.6309 718.849 40.6309L711.711 43.8378M711.711 51.6899L695.633 43.4237C695.024 43.111 694.636 42.491 694.619 41.8072L694.537 38.4429C694.502 37.0395 695.97 36.1006 697.23 36.7199L711.711 43.8378M711.711 51.6899V43.8378" stroke="#6C6363" stroke-width="3.73796"/>
<path d="M769.615 52V17.0127H772.41V52H769.615ZM798.931 52V38.3452C798.931 36.693 798.76 35.219 798.42 33.9232C798.096 32.6274 797.594 31.5259 796.914 30.6189C796.25 29.7118 795.408 29.0234 794.387 28.5536C793.383 28.0839 792.192 27.849 790.815 27.849C789.39 27.849 788.151 28.1001 787.098 28.6022C786.061 29.0882 785.203 29.7766 784.523 30.6674C783.858 31.5583 783.356 32.6193 783.016 33.8503C782.692 35.0652 782.53 36.3934 782.53 37.835L780.319 37.5677C780.319 34.7331 780.797 32.4006 781.753 30.5703C782.725 28.7237 784.029 27.3631 785.665 26.4884C787.301 25.5975 789.139 25.1521 791.18 25.1521C792.622 25.1521 793.909 25.3627 795.043 25.7838C796.193 26.2049 797.189 26.8043 798.032 27.5818C798.874 28.3431 799.57 29.2501 800.121 30.303C800.672 31.3397 801.077 32.4816 801.336 33.7288C801.611 34.9761 801.749 36.28 801.749 37.6406V52H798.931ZM779.712 52V25.7595H782.263V31.6636H782.53V52H779.712ZM821.964 52C820.571 52.3078 819.194 52.4211 817.834 52.3402C816.473 52.2754 815.258 51.9757 814.189 51.4412C813.136 50.8904 812.343 50.0482 811.808 48.9143C811.371 47.991 811.128 47.0597 811.079 46.1202C811.031 45.1807 811.006 44.1036 811.006 42.8887V18.4705H813.825V42.8401C813.825 43.9416 813.833 44.8568 813.849 45.5857C813.882 46.2984 814.052 46.9544 814.359 47.5537C814.943 48.6713 815.866 49.3517 817.129 49.5946C818.393 49.8214 820.004 49.7809 821.964 49.4731V52ZM805.127 28.3107V25.7595H821.964V28.3107H805.127ZM836.934 52.7289C834.424 52.7289 832.253 52.1701 830.423 51.0524C828.593 49.9186 827.175 48.3231 826.171 46.266C825.167 44.1926 824.665 41.7468 824.665 38.9283C824.665 36.0613 825.159 33.5912 826.147 31.5178C827.151 29.4283 828.56 27.8247 830.374 26.7071C832.205 25.5894 834.375 25.0306 836.886 25.0306C839.429 25.0306 841.599 25.6137 843.397 26.78C845.212 27.93 846.588 29.5984 847.528 31.7851C848.484 33.9718 848.937 36.604 848.888 39.6815H845.973V38.7097C845.892 35.1138 845.082 32.3763 843.543 30.4974C842.004 28.6184 839.802 27.6789 836.934 27.6789C833.97 27.6789 831.678 28.6589 830.059 30.6189C828.455 32.5626 827.653 35.3162 827.653 38.8798C827.653 42.4109 828.455 45.1483 830.059 47.0921C831.678 49.0358 833.954 50.0077 836.886 50.0077C838.911 50.0077 840.676 49.5379 842.183 48.5985C843.705 47.6428 844.912 46.2822 845.803 44.5166L848.33 45.6342C847.277 47.9019 845.754 49.6513 843.762 50.8823C841.77 52.1134 839.494 52.7289 836.934 52.7289ZM826.584 39.6815V37.1547H847.309V39.6815H826.584ZM854.749 52V16.2838H857.543V52H854.749ZM865.331 52V16.2838H868.125V52H865.331ZM875.914 20.4628V16.8912H878.708V20.4628H875.914ZM875.914 52V25.7595H878.708V52H875.914ZM896.215 64.3913C894.919 64.3913 893.623 64.197 892.327 63.8082C891.048 63.4357 889.849 62.8202 888.731 61.9617C887.614 61.1194 886.666 59.9936 885.889 58.5844L888.416 57.078C889.209 58.6978 890.335 59.856 891.793 60.5525C893.251 61.249 894.733 61.5972 896.239 61.5972C898.361 61.5972 900.037 61.2004 901.269 60.4067C902.516 59.6292 903.407 58.4548 903.941 56.8836C904.476 55.3287 904.743 53.393 904.743 51.0767V44.2007H905.035V25.7595H907.586V51.0767C907.586 51.8542 907.569 52.5993 907.537 53.312C907.505 54.0247 907.432 54.7374 907.318 55.4501C907.027 57.4749 906.428 59.1432 905.52 60.4553C904.613 61.7835 903.382 62.7716 901.827 63.4195C900.289 64.0674 898.418 64.3913 896.215 64.3913ZM896.093 52.7289C893.615 52.7289 891.517 52.1215 889.8 50.9066C888.1 49.6756 886.796 48.0153 885.889 45.9258C884.998 43.8201 884.552 41.4552 884.552 38.8312C884.552 36.2395 884.998 33.8989 885.889 31.8094C886.78 29.7199 888.059 28.0677 889.728 26.8529C891.412 25.638 893.445 25.0306 895.826 25.0306C898.272 25.0306 900.337 25.6299 902.022 26.8286C903.706 28.0272 904.978 29.6713 905.836 31.7608C906.695 33.8341 907.124 36.1909 907.124 38.8312C907.124 41.4552 906.695 43.812 905.836 45.9015C904.978 47.991 903.731 49.6513 902.095 50.8823C900.459 52.1134 898.458 52.7289 896.093 52.7289ZM896.263 50.0563C898.223 50.0563 899.851 49.5703 901.147 48.5985C902.459 47.6104 903.431 46.2741 904.063 44.5895C904.711 42.8887 905.035 40.9693 905.035 38.8312C905.035 36.6768 904.711 34.7574 904.063 33.0728C903.415 31.3883 902.443 30.0762 901.147 29.1368C899.851 28.1811 898.24 27.7032 896.312 27.7032C894.32 27.7032 892.676 28.1973 891.38 29.1853C890.084 30.1572 889.12 31.4854 888.488 33.17C887.857 34.8384 887.541 36.7254 887.541 38.8312C887.541 40.9531 887.865 42.8644 888.513 44.5652C889.177 46.2498 890.149 47.5861 891.428 48.5742C892.724 49.5622 894.336 50.0563 896.263 50.0563ZM925.2 52.7289C922.689 52.7289 920.519 52.1701 918.689 51.0524C916.858 49.9186 915.441 48.3231 914.437 46.266C913.432 44.1926 912.93 41.7468 912.93 38.9283C912.93 36.0613 913.424 33.5912 914.412 31.5178C915.417 29.4283 916.826 27.8247 918.64 26.7071C920.47 25.5894 922.641 25.0306 925.151 25.0306C927.695 25.0306 929.865 25.6137 931.663 26.78C933.477 27.93 934.854 29.5984 935.793 31.7851C936.749 33.9718 937.203 36.604 937.154 39.6815H934.238V38.7097C934.157 35.1138 933.348 32.3763 931.809 30.4974C930.27 28.6184 928.067 27.6789 925.2 27.6789C922.236 27.6789 919.944 28.6589 918.324 30.6189C916.72 32.5626 915.919 35.3162 915.919 38.8798C915.919 42.4109 916.72 45.1483 918.324 47.0921C919.944 49.0358 922.22 50.0077 925.151 50.0077C927.176 50.0077 928.942 49.5379 930.448 48.5985C931.971 47.6428 933.177 46.2822 934.068 44.5166L936.595 45.6342C935.542 47.9019 934.02 49.6513 932.027 50.8823C930.035 52.1134 927.759 52.7289 925.2 52.7289ZM914.85 39.6815V37.1547H935.575V39.6815H914.85ZM961.035 52V38.3452C961.035 36.693 960.865 35.219 960.525 33.9232C960.201 32.6274 959.699 31.5259 959.019 30.6189C958.355 29.7118 957.512 29.0234 956.492 28.5536C955.488 28.0839 954.297 27.849 952.92 27.849C951.495 27.849 950.256 28.1001 949.203 28.6022C948.166 29.0882 947.308 29.7766 946.628 30.6674C945.963 31.5583 945.461 32.6193 945.121 33.8503C944.797 35.0652 944.635 36.3934 944.635 37.835L942.424 37.5677C942.424 34.7331 942.902 32.4006 943.858 30.5703C944.83 28.7237 946.133 27.3631 947.769 26.4884C949.405 25.5975 951.244 25.1521 953.285 25.1521C954.726 25.1521 956.014 25.3627 957.148 25.7838C958.298 26.2049 959.294 26.8043 960.137 27.5818C960.979 28.3431 961.675 29.2501 962.226 30.303C962.777 31.3397 963.182 32.4816 963.441 33.7288C963.716 34.9761 963.854 36.28 963.854 37.6406V52H961.035ZM941.817 52V25.7595H944.368V31.6636H944.635V52H941.817ZM967.717 52V51.2468L985.648 28.505H968.932V25.7595H990.484V26.5856L972.553 49.2545H989.414V52H967.717ZM1001.93 52.7289C999.905 52.7289 998.22 52.3726 996.876 51.6598C995.548 50.9471 994.551 50.0077 993.887 48.8414C993.223 47.659 992.891 46.3793 992.891 45.0025C992.891 43.5123 993.199 42.2651 993.814 41.2608C994.446 40.2566 995.28 39.4467 996.317 38.8312C997.37 38.2156 998.528 37.754 999.791 37.4462C1001.23 37.1223 1002.79 36.8469 1004.46 36.6202C1006.12 36.3772 1007.71 36.1666 1009.22 35.9884C1010.74 35.8103 1011.98 35.6564 1012.94 35.5268L1011.92 36.1342C1011.98 33.2996 1011.45 31.1939 1010.31 29.8171C1009.19 28.424 1007.22 27.7275 1004.38 27.7275C1002.39 27.7275 1000.75 28.1811 999.451 29.0882C998.172 29.979 997.273 31.364 996.754 33.2429L993.887 32.4411C994.487 30.06 995.693 28.2297 997.508 26.95C999.322 25.6704 1001.65 25.0306 1004.48 25.0306C1006.89 25.0306 1008.92 25.5003 1010.55 26.4398C1012.21 27.3793 1013.36 28.6994 1014.01 30.4002C1014.28 31.0967 1014.47 31.9147 1014.56 32.8542C1014.66 33.7774 1014.71 34.7088 1014.71 35.6483V52H1012.16V45.0997L1013.11 45.3427C1012.31 47.7076 1010.93 49.5298 1008.95 50.8095C1006.98 52.0891 1004.63 52.7289 1001.93 52.7289ZM1002.08 50.1534C1003.86 50.1534 1005.42 49.8376 1006.76 49.2059C1008.11 48.558 1009.19 47.659 1010.02 46.5089C1010.86 45.3427 1011.4 43.974 1011.62 42.4028C1011.79 41.5281 1011.88 40.5805 1011.89 39.5601C1011.91 38.5396 1011.92 37.7864 1011.92 37.3005L1013.13 38.078C1012.08 38.2075 1010.81 38.3452 1009.34 38.491C1007.88 38.6368 1006.39 38.815 1004.87 39.0255C1003.35 39.2361 1001.97 39.5034 1000.74 39.8273C999.978 40.0379 999.208 40.3457 998.431 40.7506C997.67 41.1393 997.03 41.682 996.511 42.3785C996.009 43.075 995.758 43.9578 995.758 45.0268C995.758 45.8205 995.953 46.6142 996.341 47.4079C996.746 48.2016 997.41 48.8576 998.334 49.376C999.257 49.8943 1000.5 50.1534 1002.08 50.1534ZM1045.54 52.7289C1042.04 52.7289 1039.05 51.9676 1036.55 50.445C1034.06 48.9062 1032.14 46.7681 1030.8 44.0307C1029.47 41.2932 1028.8 38.1185 1028.8 34.5063C1028.8 30.8942 1029.47 27.7194 1030.8 24.982C1032.14 22.2446 1034.06 20.1146 1036.55 18.592C1039.05 17.0532 1042.04 16.2838 1045.54 16.2838C1049.58 16.2838 1052.94 17.2961 1055.63 19.3209C1058.32 21.3294 1060.2 24.0425 1061.29 27.4603L1055.38 29.0882C1054.7 26.8043 1053.55 25.0225 1051.91 23.7429C1050.27 22.447 1048.15 21.7991 1045.54 21.7991C1043.19 21.7991 1041.23 22.3256 1039.66 23.3784C1038.11 24.4313 1036.93 25.9134 1036.14 27.8247C1035.36 29.7199 1034.97 31.9471 1034.95 34.5063C1034.95 37.0656 1035.34 39.3009 1036.12 41.2122C1036.91 43.1074 1038.09 44.5814 1039.66 45.6342C1041.23 46.6871 1043.19 47.2135 1045.54 47.2135C1048.15 47.2135 1050.27 46.5656 1051.91 45.2698C1053.55 43.974 1054.7 42.1922 1055.38 39.9245L1061.29 41.5524C1060.2 44.9701 1058.32 47.6914 1055.63 49.7161C1052.94 51.7246 1049.58 52.7289 1045.54 52.7289ZM1078.21 52.7289C1075.59 52.7289 1073.3 52.1377 1071.34 50.9552C1069.38 49.7728 1067.85 48.1449 1066.77 46.0716C1065.7 43.9821 1065.16 41.5848 1065.16 38.8798C1065.16 36.1261 1065.72 33.7126 1066.82 31.6393C1067.92 29.566 1069.45 27.9462 1071.41 26.78C1073.37 25.6137 1075.64 25.0306 1078.21 25.0306C1080.85 25.0306 1083.15 25.6218 1085.11 26.8043C1087.07 27.9867 1088.59 29.6227 1089.68 31.7122C1090.77 33.7855 1091.31 36.1747 1091.31 38.8798C1091.31 41.601 1090.76 44.0064 1089.66 46.0959C1088.57 48.1692 1087.05 49.7971 1085.09 50.9795C1083.13 52.1458 1080.84 52.7289 1078.21 52.7289ZM1078.21 47.2378C1080.54 47.2378 1082.28 46.4603 1083.41 44.9053C1084.55 43.3504 1085.11 41.3418 1085.11 38.8798C1085.11 36.3367 1084.54 34.312 1083.39 32.8056C1082.24 31.283 1080.51 30.5217 1078.21 30.5217C1076.64 30.5217 1075.34 30.878 1074.32 31.5907C1073.32 32.2872 1072.58 33.2672 1072.09 34.5306C1071.6 35.7779 1071.36 37.2276 1071.36 38.8798C1071.36 41.4228 1071.94 43.4556 1073.09 44.9782C1074.25 46.4846 1075.96 47.2378 1078.21 47.2378ZM1097.15 52V16.2838H1103V52H1097.15ZM1110.77 52V16.2838H1116.62V52H1110.77ZM1131.24 52.7289C1129.34 52.7289 1127.74 52.3726 1126.43 51.6598C1125.11 50.9309 1124.12 49.9672 1123.44 48.7685C1122.77 47.5699 1122.44 46.2498 1122.44 44.8082C1122.44 43.5447 1122.65 42.4109 1123.07 41.4066C1123.5 40.3861 1124.14 39.5115 1125.02 38.7826C1125.89 38.0375 1127.03 37.43 1128.42 36.9603C1129.47 36.6202 1130.7 36.3124 1132.11 36.037C1133.54 35.7617 1135.08 35.5106 1136.73 35.2838C1138.4 35.0409 1140.14 34.7817 1141.95 34.5063L1139.86 35.6969C1139.88 33.8827 1139.47 32.5464 1138.65 31.6879C1137.82 30.8294 1136.43 30.4002 1134.47 30.4002C1133.29 30.4002 1132.14 30.6755 1131.04 31.2263C1129.94 31.777 1129.17 32.7246 1128.74 34.069L1123.39 32.3925C1124.04 30.1734 1125.27 28.3916 1127.08 27.0472C1128.91 25.7028 1131.38 25.0306 1134.47 25.0306C1136.8 25.0306 1138.85 25.4112 1140.62 26.1725C1142.4 26.9338 1143.72 28.1811 1144.58 29.9142C1145.05 30.8375 1145.33 31.7851 1145.43 32.757C1145.52 33.7126 1145.57 34.7574 1145.57 35.8912V52H1140.45V46.3146L1141.3 47.2378C1140.11 49.133 1138.73 50.526 1137.14 51.4169C1135.57 52.2916 1133.6 52.7289 1131.24 52.7289ZM1132.4 48.0639C1133.73 48.0639 1134.87 47.8291 1135.81 47.3593C1136.74 46.8896 1137.49 46.3146 1138.04 45.6342C1138.61 44.9539 1138.99 44.3141 1139.18 43.7148C1139.49 42.9697 1139.66 42.1193 1139.69 41.1636C1139.74 40.1918 1139.77 39.4062 1139.77 38.8069L1141.56 39.3414C1139.8 39.6168 1138.28 39.8597 1137.02 40.0703C1135.76 40.2809 1134.67 40.4833 1133.76 40.6777C1132.86 40.8559 1132.06 41.0584 1131.36 41.2851C1130.68 41.5281 1130.1 41.8116 1129.63 42.1355C1129.16 42.4595 1128.8 42.832 1128.54 43.2532C1128.3 43.6743 1128.18 44.1683 1128.18 44.7353C1128.18 45.3832 1128.34 45.9582 1128.66 46.4603C1128.99 46.9463 1129.46 47.335 1130.07 47.6266C1130.7 47.9181 1131.48 48.0639 1132.4 48.0639ZM1164.51 52.7289C1161.95 52.7289 1159.8 52.1215 1158.07 50.9066C1156.34 49.6918 1155.03 48.0396 1154.16 45.9501C1153.28 43.8444 1152.85 41.4876 1152.85 38.8798C1152.85 36.2395 1153.28 33.8746 1154.16 31.7851C1155.03 29.6956 1156.31 28.0515 1158 26.8529C1159.7 25.638 1161.8 25.0306 1164.29 25.0306C1166.77 25.0306 1168.91 25.638 1170.73 26.8529C1172.56 28.0515 1173.98 29.6956 1174.98 31.7851C1175.98 33.8584 1176.49 36.2233 1176.49 38.8798C1176.49 41.5038 1175.99 43.8606 1175 45.9501C1174.02 48.0396 1172.62 49.6918 1170.83 50.9066C1169.03 52.1215 1166.92 52.7289 1164.51 52.7289ZM1151.85 52V17.0127H1157.75V33.5831H1157.02V52H1151.85ZM1163.61 47.4808C1165.13 47.4808 1166.39 47.1002 1167.38 46.3389C1168.36 45.5776 1169.09 44.549 1169.56 43.2532C1170.05 41.9411 1170.29 40.4833 1170.29 38.8798C1170.29 37.2924 1170.05 35.8508 1169.56 34.5549C1169.08 33.2429 1168.32 32.2062 1167.3 31.4449C1166.28 30.6674 1164.99 30.2787 1163.41 30.2787C1161.92 30.2787 1160.71 30.6431 1159.77 31.3721C1158.83 32.0848 1158.13 33.089 1157.68 34.3849C1157.24 35.6645 1157.02 37.1628 1157.02 38.8798C1157.02 40.5805 1157.24 42.0788 1157.68 43.3747C1158.13 44.6705 1158.84 45.6828 1159.79 46.4117C1160.77 47.1245 1162.04 47.4808 1163.61 47.4808ZM1193.43 52.7289C1190.81 52.7289 1188.52 52.1377 1186.56 50.9552C1184.6 49.7728 1183.07 48.1449 1181.99 46.0716C1180.92 43.9821 1180.38 41.5848 1180.38 38.8798C1180.38 36.1261 1180.94 33.7126 1182.04 31.6393C1183.14 29.566 1184.67 27.9462 1186.63 26.78C1188.59 25.6137 1190.86 25.0306 1193.43 25.0306C1196.07 25.0306 1198.37 25.6218 1200.33 26.8043C1202.29 27.9867 1203.81 29.6227 1204.9 31.7122C1205.99 33.7855 1206.53 36.1747 1206.53 38.8798C1206.53 41.601 1205.98 44.0064 1204.88 46.0959C1203.79 48.1692 1202.27 49.7971 1200.31 50.9795C1198.35 52.1458 1196.06 52.7289 1193.43 52.7289ZM1193.43 47.2378C1195.76 47.2378 1197.5 46.4603 1198.63 44.9053C1199.77 43.3504 1200.33 41.3418 1200.33 38.8798C1200.33 36.3367 1199.76 34.312 1198.61 32.8056C1197.46 31.283 1195.73 30.5217 1193.43 30.5217C1191.86 30.5217 1190.56 30.878 1189.54 31.5907C1188.54 32.2872 1187.79 33.2672 1187.31 34.5306C1186.82 35.7779 1186.58 37.2276 1186.58 38.8798C1186.58 41.4228 1187.16 43.4556 1188.31 44.9782C1189.47 46.4846 1191.18 47.2378 1193.43 47.2378ZM1211.88 52V25.7595H1217.06V32.1495L1216.42 31.3235C1216.75 30.4488 1217.18 29.6551 1217.71 28.9424C1218.26 28.2135 1218.92 27.6142 1219.68 27.1444C1220.33 26.7071 1221.04 26.3669 1221.82 26.124C1222.61 25.8648 1223.42 25.7109 1224.25 25.6623C1225.07 25.5975 1225.88 25.6299 1226.65 25.7595V31.2263C1225.88 30.9995 1224.98 30.9266 1223.96 31.0076C1222.95 31.0886 1222.05 31.3721 1221.24 31.858C1220.43 32.2953 1219.76 32.8542 1219.24 33.5345C1218.74 34.2148 1218.37 34.9923 1218.13 35.867C1217.88 36.7254 1217.76 37.6568 1217.76 38.6611V52H1211.88ZM1238.01 52.7289C1236.12 52.7289 1234.51 52.3726 1233.2 51.6598C1231.89 50.9309 1230.89 49.9672 1230.21 48.7685C1229.55 47.5699 1229.22 46.2498 1229.22 44.8082C1229.22 43.5447 1229.43 42.4109 1229.85 41.4066C1230.27 40.3861 1230.92 39.5115 1231.79 38.7826C1232.67 38.0375 1233.8 37.43 1235.19 36.9603C1236.24 36.6202 1237.48 36.3124 1238.89 36.037C1240.31 35.7617 1241.85 35.5106 1243.5 35.2838C1245.17 35.0409 1246.91 34.7817 1248.73 34.5063L1246.64 35.6969C1246.65 33.8827 1246.25 32.5464 1245.42 31.6879C1244.59 30.8294 1243.2 30.4002 1241.24 30.4002C1240.06 30.4002 1238.92 30.6755 1237.82 31.2263C1236.71 31.777 1235.95 32.7246 1235.51 34.069L1230.16 32.3925C1230.81 30.1734 1232.04 28.3916 1233.86 27.0472C1235.69 25.7028 1238.15 25.0306 1241.24 25.0306C1243.57 25.0306 1245.62 25.4112 1247.39 26.1725C1249.17 26.9338 1250.49 28.1811 1251.35 29.9142C1251.82 30.8375 1252.1 31.7851 1252.2 32.757C1252.3 33.7126 1252.35 34.7574 1252.35 35.8912V52H1247.22V46.3146L1248.07 47.2378C1246.89 49.133 1245.5 50.526 1243.91 51.4169C1242.34 52.2916 1240.38 52.7289 1238.01 52.7289ZM1239.18 48.0639C1240.5 48.0639 1241.64 47.8291 1242.58 47.3593C1243.52 46.8896 1244.26 46.3146 1244.81 45.6342C1245.38 44.9539 1245.76 44.3141 1245.96 43.7148C1246.26 42.9697 1246.43 42.1193 1246.47 41.1636C1246.51 40.1918 1246.54 39.4062 1246.54 38.8069L1248.34 39.3414C1246.57 39.6168 1245.06 39.8597 1243.79 40.0703C1242.53 40.2809 1241.44 40.4833 1240.54 40.6777C1239.63 40.8559 1238.83 41.0584 1238.13 41.2851C1237.45 41.5281 1236.88 41.8116 1236.41 42.1355C1235.94 42.4595 1235.57 42.832 1235.31 43.2532C1235.07 43.6743 1234.95 44.1683 1234.95 44.7353C1234.95 45.3832 1235.11 45.9582 1235.44 46.4603C1235.76 46.9463 1236.23 47.335 1236.84 47.6266C1237.48 47.9181 1238.25 48.0639 1239.18 48.0639ZM1274.05 52C1272.32 52.324 1270.62 52.4616 1268.95 52.413C1267.3 52.3806 1265.81 52.081 1264.5 51.5141C1263.19 50.9309 1262.19 50.0158 1261.51 48.7685C1260.91 47.6347 1260.6 46.4765 1260.57 45.2941C1260.53 44.1117 1260.52 42.7753 1260.52 41.2851V18.4705H1266.35V40.945C1266.35 41.9978 1266.36 42.9211 1266.37 43.7148C1266.41 44.5085 1266.58 45.1564 1266.88 45.6585C1267.47 46.6304 1268.4 47.173 1269.68 47.2864C1270.96 47.3998 1272.42 47.335 1274.05 47.0921V52ZM1255.76 30.3516V25.7595H1274.05V30.3516H1255.76ZM1280.18 21.7748V16.4053H1286.03V21.7748H1280.18ZM1280.18 52V25.7595H1286.03V52H1280.18ZM1300.41 52L1290.88 25.7595H1296.74L1303.35 44.7839L1309.93 25.7595H1315.81L1306.29 52H1300.41ZM1326.04 52.7289C1324.14 52.7289 1322.54 52.3726 1321.23 51.6598C1319.92 50.9309 1318.92 49.9672 1318.24 48.7685C1317.58 47.5699 1317.24 46.2498 1317.24 44.8082C1317.24 43.5447 1317.45 42.4109 1317.88 41.4066C1318.3 40.3861 1318.94 39.5115 1319.82 38.7826C1320.69 38.0375 1321.83 37.43 1323.22 36.9603C1324.27 36.6202 1325.5 36.3124 1326.91 36.037C1328.34 35.7617 1329.88 35.5106 1331.53 35.2838C1333.2 35.0409 1334.94 34.7817 1336.75 34.5063L1334.66 35.6969C1334.68 33.8827 1334.28 32.5464 1333.45 31.6879C1332.62 30.8294 1331.23 30.4002 1329.27 30.4002C1328.09 30.4002 1326.95 30.6755 1325.84 31.2263C1324.74 31.777 1323.97 32.7246 1323.54 34.069L1318.19 32.3925C1318.84 30.1734 1320.07 28.3916 1321.88 27.0472C1323.71 25.7028 1326.18 25.0306 1329.27 25.0306C1331.6 25.0306 1333.65 25.4112 1335.42 26.1725C1337.2 26.9338 1338.52 28.1811 1339.38 29.9142C1339.85 30.8375 1340.13 31.7851 1340.23 32.757C1340.33 33.7126 1340.37 34.7574 1340.37 35.8912V52H1335.25V46.3146L1336.1 47.2378C1334.92 49.133 1333.53 50.526 1331.94 51.4169C1330.37 52.2916 1328.4 52.7289 1326.04 52.7289ZM1327.21 48.0639C1328.53 48.0639 1329.67 47.8291 1330.61 47.3593C1331.55 46.8896 1332.29 46.3146 1332.84 45.6342C1333.41 44.9539 1333.79 44.3141 1333.98 43.7148C1334.29 42.9697 1334.46 42.1193 1334.49 41.1636C1334.54 40.1918 1334.57 39.4062 1334.57 38.8069L1336.36 39.3414C1334.6 39.6168 1333.08 39.8597 1331.82 40.0703C1330.56 40.2809 1329.47 40.4833 1328.57 40.6777C1327.66 40.8559 1326.86 41.0584 1326.16 41.2851C1325.48 41.5281 1324.91 41.8116 1324.44 42.1355C1323.97 42.4595 1323.6 42.832 1323.34 43.2532C1323.1 43.6743 1322.98 44.1683 1322.98 44.7353C1322.98 45.3832 1323.14 45.9582 1323.46 46.4603C1323.79 46.9463 1324.26 47.335 1324.87 47.6266C1325.5 47.9181 1326.28 48.0639 1327.21 48.0639Z" fill="#373737"/>
<path d="M827.721 127.69V90.5194H813.397V84.6284H848.295V90.5194H833.971V127.69H827.721ZM875.747 127.69V111.811C875.747 110.555 875.638 109.269 875.418 107.953C875.219 106.618 874.82 105.382 874.222 104.245C873.644 103.109 872.817 102.192 871.74 101.494C870.684 100.796 869.298 100.447 867.584 100.447C866.467 100.447 865.411 100.637 864.414 101.016C863.417 101.374 862.54 101.963 861.782 102.78C861.045 103.597 860.457 104.674 860.018 106.01C859.599 107.345 859.39 108.97 859.39 110.884L855.503 109.419C855.503 106.488 856.051 103.906 857.147 101.673C858.244 99.4207 859.819 97.6664 861.872 96.4104C863.925 95.1545 866.407 94.5265 869.318 94.5265C871.551 94.5265 873.425 94.8853 874.94 95.603C876.455 96.3207 877.681 97.2677 878.618 98.4439C879.575 99.6002 880.303 100.866 880.801 102.242C881.3 103.617 881.638 104.963 881.818 106.279C881.997 107.594 882.087 108.751 882.087 109.747V127.69H875.747ZM853.051 127.69V84.6284H858.643V107.864H859.39V127.69H853.051ZM904.2 128.587C900.99 128.587 898.169 127.889 895.737 126.494C893.325 125.078 891.441 123.114 890.085 120.603C888.75 118.071 888.082 115.14 888.082 111.811C888.082 108.282 888.74 105.222 890.055 102.63C891.391 100.039 893.245 98.0352 895.617 96.6198C897.99 95.2043 900.751 94.4966 903.901 94.4966C907.19 94.4966 909.991 95.2641 912.304 96.7992C914.616 98.3143 916.341 100.477 917.477 103.288C918.633 106.099 919.092 109.438 918.853 113.306H912.603V111.033C912.563 107.285 911.845 104.514 910.45 102.72C909.074 100.926 906.971 100.029 904.14 100.029C901.01 100.029 898.658 101.016 897.083 102.989C895.508 104.963 894.72 107.814 894.72 111.542C894.72 115.09 895.508 117.841 897.083 119.795C898.658 121.729 900.93 122.696 903.901 122.696C905.855 122.696 907.539 122.257 908.955 121.38C910.39 120.483 911.506 119.207 912.304 117.552L918.434 119.496C917.178 122.387 915.274 124.63 912.722 126.224C910.171 127.799 907.33 128.587 904.2 128.587ZM892.687 113.306V108.432H915.743V113.306H892.687ZM937.535 127.69V84.6284H954.461C957.192 84.6284 959.484 85.1866 961.338 86.303C963.192 87.4194 964.588 88.8647 965.525 90.639C966.462 92.3934 966.93 94.2474 966.93 96.2011C966.93 98.5735 966.342 100.607 965.166 102.301C964.01 103.996 962.445 105.152 960.471 105.77L960.411 104.305C963.162 104.983 965.276 106.309 966.751 108.282C968.226 110.236 968.964 112.519 968.964 115.13C968.964 117.662 968.455 119.865 967.439 121.739C966.442 123.613 964.977 125.078 963.043 126.135C961.129 127.171 958.807 127.69 956.075 127.69H937.535ZM943.875 121.739H955.118C956.534 121.739 957.8 121.47 958.916 120.931C960.053 120.393 960.94 119.626 961.578 118.629C962.235 117.612 962.564 116.406 962.564 115.011C962.564 113.715 962.275 112.548 961.697 111.512C961.139 110.455 960.322 109.628 959.245 109.03C958.189 108.412 956.943 108.103 955.507 108.103H943.875V121.739ZM943.875 102.212H954.371C955.527 102.212 956.564 101.982 957.481 101.524C958.418 101.045 959.155 100.368 959.694 99.4905C960.252 98.5934 960.531 97.5169 960.531 96.2609C960.531 94.5863 959.973 93.2107 958.856 92.1342C957.74 91.0577 956.245 90.5194 954.371 90.5194H943.875V102.212ZM984.035 128.587C981.643 128.587 979.639 128.148 978.025 127.271C976.41 126.374 975.184 125.198 974.346 123.742C973.529 122.267 973.12 120.652 973.12 118.898C973.12 117.263 973.409 115.828 973.988 114.592C974.566 113.356 975.423 112.309 976.559 111.452C977.696 110.575 979.091 109.867 980.746 109.329C982.181 108.91 983.806 108.541 985.62 108.222C987.434 107.903 989.338 107.604 991.332 107.325C993.345 107.046 995.339 106.767 997.313 106.488L995.04 107.744C995.08 105.212 994.541 103.338 993.425 102.122C992.329 100.886 990.435 100.268 987.743 100.268C986.049 100.268 984.494 100.667 983.078 101.464C981.663 102.242 980.676 103.537 980.118 105.352L974.287 103.557C975.084 100.786 976.599 98.5834 978.832 96.9487C981.085 95.314 984.075 94.4966 987.803 94.4966C990.694 94.4966 993.206 94.995 995.339 95.9918C997.492 96.9686 999.067 98.5236 1000.06 100.657C1000.58 101.713 1000.9 102.83 1001.02 104.006C1001.14 105.182 1001.2 106.448 1001.2 107.804V127.69H995.668V120.303L996.744 121.26C995.409 123.732 993.704 125.577 991.631 126.793C989.577 127.989 987.046 128.587 984.035 128.587ZM985.142 123.473C986.916 123.473 988.441 123.164 989.717 122.546C990.993 121.908 992.02 121.101 992.797 120.124C993.575 119.147 994.083 118.13 994.322 117.074C994.661 116.117 994.85 115.04 994.89 113.844C994.95 112.648 994.98 111.691 994.98 110.974L997.013 111.721C995.04 112.02 993.246 112.289 991.631 112.529C990.016 112.768 988.551 113.007 987.235 113.246C985.939 113.466 984.783 113.735 983.766 114.054C982.909 114.353 982.141 114.711 981.464 115.13C980.806 115.549 980.277 116.057 979.879 116.655C979.5 117.253 979.31 117.981 979.31 118.838C979.31 119.676 979.52 120.453 979.938 121.171C980.357 121.868 980.995 122.427 981.852 122.845C982.71 123.264 983.806 123.473 985.142 123.473ZM1009.56 127.69V83.7313H1015.81V127.69H1009.56ZM1033.91 128.587C1031.52 128.587 1029.52 128.148 1027.9 127.271C1026.29 126.374 1025.06 125.198 1024.22 123.742C1023.41 122.267 1023 120.652 1023 118.898C1023 117.263 1023.29 115.828 1023.87 114.592C1024.44 113.356 1025.3 112.309 1026.44 111.452C1027.57 110.575 1028.97 109.867 1030.62 109.329C1032.06 108.91 1033.68 108.541 1035.5 108.222C1037.31 107.903 1039.22 107.604 1041.21 107.325C1043.22 107.046 1045.22 106.767 1047.19 106.488L1044.92 107.744C1044.96 105.212 1044.42 103.338 1043.3 102.122C1042.21 100.886 1040.31 100.268 1037.62 100.268C1035.93 100.268 1034.37 100.667 1032.96 101.464C1031.54 102.242 1030.55 103.537 1030 105.352L1024.17 103.557C1024.96 100.786 1026.48 98.5834 1028.71 96.9487C1030.96 95.314 1033.95 94.4966 1037.68 94.4966C1040.57 94.4966 1043.08 94.995 1045.22 95.9918C1047.37 96.9686 1048.95 98.5236 1049.94 100.657C1050.46 101.713 1050.78 102.83 1050.9 104.006C1051.02 105.182 1051.08 106.448 1051.08 107.804V127.69H1045.55V120.303L1046.62 121.26C1045.29 123.732 1043.58 125.577 1041.51 126.793C1039.46 127.989 1036.92 128.587 1033.91 128.587ZM1035.02 123.473C1036.79 123.473 1038.32 123.164 1039.6 122.546C1040.87 121.908 1041.9 121.101 1042.68 120.124C1043.45 119.147 1043.96 118.13 1044.2 117.074C1044.54 116.117 1044.73 115.04 1044.77 113.844C1044.83 112.648 1044.86 111.691 1044.86 110.974L1046.89 111.721C1044.92 112.02 1043.12 112.289 1041.51 112.529C1039.89 112.768 1038.43 113.007 1037.11 113.246C1035.82 113.466 1034.66 113.735 1033.64 114.054C1032.79 114.353 1032.02 114.711 1031.34 115.13C1030.68 115.549 1030.16 116.057 1029.76 116.655C1029.38 117.253 1029.19 117.981 1029.19 118.838C1029.19 119.676 1029.4 120.453 1029.82 121.171C1030.24 121.868 1030.87 122.427 1031.73 122.845C1032.59 123.264 1033.68 123.473 1035.02 123.473ZM1081.51 127.69V111.811C1081.51 110.555 1081.4 109.269 1081.18 107.953C1080.98 106.618 1080.58 105.382 1079.99 104.245C1079.41 103.109 1078.58 102.192 1077.5 101.494C1076.45 100.796 1075.06 100.447 1073.35 100.447C1072.23 100.447 1071.17 100.637 1070.18 101.016C1069.18 101.374 1068.3 101.963 1067.55 102.78C1066.81 103.597 1066.22 104.674 1065.78 106.01C1065.36 107.345 1065.15 108.97 1065.15 110.884L1061.27 109.419C1061.27 106.488 1061.81 103.906 1062.91 101.673C1064.01 99.4207 1065.58 97.6664 1067.64 96.4104C1069.69 95.1545 1072.17 94.5265 1075.08 94.5265C1077.31 94.5265 1079.19 94.8853 1080.7 95.603C1082.22 96.3207 1083.44 97.2677 1084.38 98.4439C1085.34 99.6002 1086.07 100.866 1086.56 102.242C1087.06 103.617 1087.4 104.963 1087.58 106.279C1087.76 107.594 1087.85 108.751 1087.85 109.747V127.69H1081.51ZM1058.81 127.69V95.3937H1064.41V104.724H1065.15V127.69H1058.81ZM1109.05 128.587C1105.74 128.587 1102.93 127.849 1100.61 126.374C1098.3 124.899 1096.53 122.875 1095.29 120.303C1094.07 117.732 1093.46 114.811 1093.44 111.542C1093.46 108.212 1094.09 105.272 1095.35 102.72C1096.61 100.148 1098.4 98.1349 1100.73 96.6796C1103.07 95.2242 1105.87 94.4966 1109.14 94.4966C1112.66 94.4966 1115.67 95.3738 1118.17 97.1281C1120.68 98.8825 1122.33 101.285 1123.13 104.335L1116.91 106.129C1116.29 104.315 1115.28 102.909 1113.86 101.913C1112.46 100.896 1110.86 100.388 1109.05 100.388C1106.99 100.388 1105.31 100.876 1103.99 101.853C1102.68 102.81 1101.7 104.126 1101.06 105.8C1100.42 107.475 1100.09 109.389 1100.07 111.542C1100.09 114.871 1100.85 117.562 1102.35 119.616C1103.86 121.669 1106.1 122.696 1109.05 122.696C1111.06 122.696 1112.68 122.237 1113.92 121.32C1115.18 120.383 1116.13 119.048 1116.79 117.313L1123.13 118.808C1122.07 121.958 1120.33 124.38 1117.9 126.075C1115.47 127.75 1112.51 128.587 1109.05 128.587ZM1142.67 128.587C1139.46 128.587 1136.64 127.889 1134.21 126.494C1131.8 125.078 1129.91 123.114 1128.56 120.603C1127.22 118.071 1126.55 115.14 1126.55 111.811C1126.55 108.282 1127.21 105.222 1128.53 102.63C1129.86 100.039 1131.72 98.0352 1134.09 96.6198C1136.46 95.2043 1139.22 94.4966 1142.37 94.4966C1145.66 94.4966 1148.46 95.2641 1150.77 96.7992C1153.09 98.3143 1154.81 100.477 1155.95 103.288C1157.1 106.099 1157.56 109.438 1157.32 113.306H1151.07V111.033C1151.03 107.285 1150.32 104.514 1148.92 102.72C1147.54 100.926 1145.44 100.029 1142.61 100.029C1139.48 100.029 1137.13 101.016 1135.55 102.989C1133.98 104.963 1133.19 107.814 1133.19 111.542C1133.19 115.09 1133.98 117.841 1135.55 119.795C1137.13 121.729 1139.4 122.696 1142.37 122.696C1144.32 122.696 1146.01 122.257 1147.42 121.38C1148.86 120.483 1149.98 119.207 1150.77 117.552L1156.9 119.496C1155.65 122.387 1153.74 124.63 1151.19 126.224C1148.64 127.799 1145.8 128.587 1142.67 128.587ZM1131.16 113.306V108.432H1154.21V113.306H1131.16ZM1186.74 127.69V90.5194H1172.42V84.6284H1207.31V90.5194H1192.99V127.69H1186.74ZM1221.34 128.587C1218.11 128.587 1215.31 127.859 1212.93 126.404C1210.56 124.949 1208.73 122.945 1207.43 120.393C1206.15 117.821 1205.52 114.861 1205.52 111.512C1205.52 108.143 1206.17 105.182 1207.49 102.63C1208.81 100.059 1210.65 98.0651 1213.02 96.6497C1215.39 95.2143 1218.17 94.4966 1221.34 94.4966C1224.57 94.4966 1227.37 95.2242 1229.74 96.6796C1232.11 98.1349 1233.95 100.138 1235.24 102.69C1236.54 105.242 1237.18 108.183 1237.18 111.512C1237.18 114.881 1236.53 117.851 1235.21 120.423C1233.92 122.975 1232.08 124.978 1229.71 126.434C1227.34 127.869 1224.55 128.587 1221.34 128.587ZM1221.34 122.696C1224.43 122.696 1226.73 121.659 1228.24 119.586C1229.78 117.493 1230.55 114.801 1230.55 111.512C1230.55 108.143 1229.77 105.451 1228.21 103.438C1226.68 101.404 1224.39 100.388 1221.34 100.388C1219.24 100.388 1217.52 100.866 1216.16 101.823C1214.81 102.76 1213.8 104.066 1213.14 105.74C1212.48 107.395 1212.16 109.319 1212.16 111.512C1212.16 114.901 1212.93 117.612 1214.49 119.646C1216.04 121.679 1218.33 122.696 1221.34 122.696ZM1249.47 127.69L1239.6 95.3638L1245.79 95.3937L1252.55 117.552L1259.36 95.3937H1264.75L1271.56 117.552L1278.32 95.3937H1284.48L1274.61 127.69H1269.59L1262.06 104.305L1254.49 127.69H1249.47ZM1302.99 128.587C1299.78 128.587 1296.96 127.889 1294.53 126.494C1292.12 125.078 1290.23 123.114 1288.88 120.603C1287.54 118.071 1286.88 115.14 1286.88 111.811C1286.88 108.282 1287.53 105.222 1288.85 102.63C1290.19 100.039 1292.04 98.0352 1294.41 96.6198C1296.78 95.2043 1299.54 94.4966 1302.69 94.4966C1305.98 94.4966 1308.79 95.2641 1311.1 96.7992C1313.41 98.3143 1315.13 100.477 1316.27 103.288C1317.43 106.099 1317.89 109.438 1317.65 113.306H1311.4V111.033C1311.36 107.285 1310.64 104.514 1309.24 102.72C1307.87 100.926 1305.76 100.029 1302.93 100.029C1299.8 100.029 1297.45 101.016 1295.88 102.989C1294.3 104.963 1293.51 107.814 1293.51 111.542C1293.51 115.09 1294.3 117.841 1295.88 119.795C1297.45 121.729 1299.72 122.696 1302.69 122.696C1304.65 122.696 1306.33 122.257 1307.75 121.38C1309.18 120.483 1310.3 119.207 1311.1 117.552L1317.23 119.496C1315.97 122.387 1314.07 124.63 1311.52 126.224C1308.96 127.799 1306.12 128.587 1302.99 128.587ZM1291.48 113.306V108.432H1314.54V113.306H1291.48ZM1324.36 127.69V95.3937H1329.92V103.228L1329.14 102.212C1329.54 101.175 1330.06 100.228 1330.7 99.3709C1331.33 98.4937 1332.07 97.776 1332.91 97.2178C1333.73 96.6198 1334.63 96.1612 1335.63 95.8423C1336.65 95.5033 1337.68 95.304 1338.74 95.2442C1339.8 95.1644 1340.81 95.2143 1341.79 95.3937V101.255C1340.73 100.976 1339.56 100.896 1338.26 101.016C1336.99 101.135 1335.81 101.544 1334.73 102.242C1333.72 102.9 1332.91 103.697 1332.31 104.634C1331.73 105.571 1331.31 106.618 1331.05 107.774C1330.8 108.91 1330.67 110.116 1330.67 111.392V127.69H1324.36Z" fill="#373737"/>
<line opacity="0.3" x1="1362.92" y1="6.5415" x2="1362.92" y2="128.025" stroke="#373737" stroke-width="1.86898"/>
<path d="M1467.39 32.5935H1415.54C1414.73 32.5935 1414.14 33.1946 1414.14 33.8621V81.9343C1414.14 82.6017 1414.73 83.2019 1415.54 83.2019H1467.39C1468.2 83.2017 1468.8 82.6016 1468.8 81.9343V33.8621C1468.8 33.1947 1468.2 32.5937 1467.39 32.5935Z" fill="#E1E1E1" stroke="#373737" stroke-width="0.934491"/>
<path d="M1454.52 32.5935H1402.67C1401.86 32.5935 1401.26 33.1946 1401.26 33.8621V81.9343C1401.26 82.6017 1401.86 83.2019 1402.67 83.2019H1454.52C1455.33 83.2017 1455.92 82.6016 1455.92 81.9343V33.8621C1455.92 33.1947 1455.33 32.5937 1454.52 32.5935Z" fill="#E1E1E1" stroke="#373737" stroke-width="0.934491"/>
<path d="M1456.62 83.491H1404.77C1403.96 83.491 1403.36 84.092 1403.36 84.7595V132.832C1403.36 133.499 1403.96 134.099 1404.77 134.099H1456.62C1457.43 134.099 1458.02 133.499 1458.02 132.832V84.7595C1458.02 84.0921 1457.43 83.4911 1456.62 83.491Z" fill="#E1E1E1" stroke="#373737" stroke-width="0.934491"/>
<path d="M1443.75 83.491H1391.89C1391.08 83.491 1390.49 84.092 1390.49 84.7595V132.832C1390.49 133.499 1391.08 134.099 1391.89 134.099H1443.75C1444.56 134.099 1445.15 133.499 1445.15 132.832V84.7595C1445.15 84.0921 1444.56 83.4911 1443.75 83.491Z" fill="#E1E1E1" stroke="#373737" stroke-width="0.934491"/>
<path d="M1459.84 22.0535L1449.45 22.3708L1449.48 27.1375L1449.5 32.1951L1468.14 32.1111L1468.09 21.7996L1459.84 22.0535Z" fill="#E1E1E1" stroke="#373737" stroke-width="0.934491"/>
<path d="M1459.46 14.5303C1457.34 14.5411 1455.5 15.1638 1454.39 16.0654L1454.39 16.0664C1453.67 16.6397 1453.29 17.2974 1453.25 17.9619L1453.25 18.0957C1453.25 18.971 1453.85 19.8424 1455 20.5166C1456.13 21.185 1457.72 21.6082 1459.5 21.5986C1461.28 21.5905 1462.86 21.151 1463.99 20.4717C1465.05 19.8293 1465.64 19.0191 1465.7 18.1992L1465.71 18.0352C1465.7 16.8925 1464.66 15.754 1462.82 15.0811V15.0801C1461.97 14.7715 1460.98 14.5786 1459.92 14.5381L1459.46 14.5303Z" fill="#E1E1E1" stroke="#373737" stroke-width="0.934491"/>
<path d="M1451.76 13.7046L1459.38 13.6235L1466.68 13.5454L1458.93 0.921387L1451.76 13.7046Z" fill="#E1E1E1" stroke="#373737" stroke-width="0.934491"/>
<path d="M1464.88 39.8293C1464.88 39.8577 1464.88 39.8947 1464.88 39.9397C1464.89 40.0616 1464.9 40.2432 1464.93 40.4768C1464.98 40.9447 1465.07 41.6208 1465.24 42.4426C1465.58 44.0877 1466.24 46.3119 1467.5 48.6272C1469.99 53.2059 1474.86 58.1761 1484.42 59.718L1487.21 57.1624H1487.21C1486.72 56.9911 1486.03 56.7341 1485.19 56.3909C1483.51 55.7047 1481.21 54.6713 1478.78 53.2825C1473.93 50.5158 1468.43 46.2892 1466.14 40.51L1466.1 40.3909L1466.12 40.2649L1467.04 34.4358L1466.68 33.6272L1464.88 39.8293Z" fill="#E1E1E1" stroke="#373737" stroke-width="0.934491"/>
<path d="M1484.08 99.5286C1484.14 99.6525 1484.22 99.8063 1484.31 99.9875C1484.58 100.519 1484.96 101.289 1485.44 102.236C1486.39 104.13 1487.71 106.738 1489.19 109.589C1492.14 115.298 1495.7 121.968 1498.15 125.865L1498.19 125.939L1498.21 126.024L1498.21 126.028C1498.21 126.03 1498.21 126.035 1498.21 126.039C1498.21 126.049 1498.22 126.064 1498.22 126.082C1498.23 126.12 1498.24 126.175 1498.25 126.245C1498.28 126.386 1498.31 126.588 1498.35 126.835C1498.43 127.329 1498.52 128.005 1498.58 128.732C1498.64 129.456 1498.68 130.244 1498.63 130.957C1498.59 131.475 1498.51 131.994 1498.35 132.428L1500.35 132.372C1500.36 132.207 1500.37 132.001 1500.38 131.765C1500.41 131.139 1500.44 130.301 1500.47 129.452C1500.5 128.602 1500.51 127.746 1500.51 127.081C1500.51 126.748 1500.5 126.471 1500.48 126.27C1500.48 126.177 1500.47 126.109 1500.46 126.062C1500.41 126.022 1500.35 125.991 1500.26 125.97C1500.21 125.957 1500.16 125.952 1500.13 125.949L1500.09 125.948L1499.66 125.968L1499.6 125.544V125.543C1499.6 125.542 1499.6 125.54 1499.6 125.537C1499.6 125.532 1499.6 125.523 1499.6 125.512C1499.6 125.49 1499.59 125.456 1499.58 125.412C1499.57 125.324 1499.55 125.194 1499.53 125.027C1499.47 124.692 1499.39 124.209 1499.27 123.621C1499.04 122.445 1498.69 120.853 1498.19 119.182C1497.68 117.509 1497.03 115.771 1496.22 114.299C1495.41 112.818 1494.45 111.657 1493.36 111.068L1493.2 110.978L1493.14 110.797L1488.66 96.4836L1484.08 99.5286Z" fill="#E1E1E1" stroke="#373737" stroke-width="0.934491"/>
<path d="M1501.07 125.968C1500.99 126.085 1500.9 126.239 1500.82 126.417C1500.63 126.842 1500.51 127.334 1500.63 127.775C1500.79 128.412 1500.95 129.516 1500.96 130.51C1500.96 131.007 1500.93 131.503 1500.84 131.91C1500.79 132.114 1500.73 132.315 1500.63 132.489C1500.54 132.662 1500.39 132.839 1500.17 132.939C1499.92 133.055 1499.58 133.134 1499.25 133.191C1498.9 133.251 1498.53 133.293 1498.19 133.324C1497.85 133.355 1497.54 133.374 1497.31 133.386C1497.2 133.392 1497.1 133.396 1497.04 133.398C1497 133.4 1496.98 133.401 1496.96 133.401C1496.96 133.401 1496.95 133.401 1496.95 133.401L1496.91 133.406C1496.87 133.411 1496.81 133.419 1496.75 133.431C1496.72 133.435 1496.69 133.442 1496.66 133.447C1496.76 133.447 1496.87 133.449 1496.98 133.448C1497.94 133.446 1499.11 133.429 1499.93 133.415C1500.3 133.409 1500.59 133.203 1500.7 132.936L1500.74 132.817L1501.98 126.767C1502.05 126.471 1501.85 126.135 1501.45 126.051L1501.07 125.968Z" fill="#E1E1E1" stroke="#373737" stroke-width="0.934491"/>
<path d="M1477.55 132.947L1475.38 134.092C1476.76 134.077 1478.65 134.053 1480.34 134.01C1481.32 133.985 1482.23 133.954 1482.92 133.917C1483.27 133.898 1483.56 133.878 1483.77 133.856C1483.88 133.845 1483.97 133.835 1484.03 133.825C1484.03 133.824 1484.04 133.823 1484.04 133.822C1484.04 133.799 1484.05 133.766 1484.05 133.72C1484.04 133.524 1483.98 133.234 1483.84 132.896C1483.62 132.307 1483.25 131.701 1482.88 131.335L1477.55 132.947Z" fill="#E1E1E1" stroke="#373737" stroke-width="0.934491"/>
<path d="M1473.58 99.2358C1473.75 99.9876 1473.99 101.068 1474.29 102.38C1474.88 105.006 1475.69 108.561 1476.56 112.282C1478.28 119.736 1480.22 127.814 1481.07 130.436L1481.18 130.794L1480.86 130.984L1478.83 132.162C1479.25 132.115 1479.68 132.074 1480.08 132.047C1480.69 132.006 1481.32 131.65 1481.83 131.255C1482.06 131.076 1482.25 130.898 1482.4 130.76L1482.12 130.357L1482.05 130.25L1482.04 130.122V130.121C1482.04 130.12 1482.04 130.118 1482.04 130.117C1482.04 130.113 1482.04 130.108 1482.04 130.102C1482.04 130.089 1482.04 130.07 1482.04 130.044C1482.04 129.993 1482.03 129.917 1482.03 129.818C1482.01 129.619 1482 129.328 1481.98 128.956C1481.94 128.212 1481.88 127.146 1481.81 125.857C1481.68 123.279 1481.5 119.81 1481.33 116.246C1481.16 112.681 1481.01 109.018 1480.92 106.054C1480.84 103.524 1480.81 101.464 1480.87 100.422L1473.48 98.7778C1473.51 98.913 1473.54 99.0662 1473.58 99.2358Z" fill="#E1E1E1" stroke="#373737" stroke-width="0.934491"/>
<path d="M1452.38 27.3901C1452.3 27.3469 1452.21 27.3439 1452.13 27.3755C1452.04 27.4072 1452 27.4633 1451.98 27.52L1451.63 28.8208C1451.3 30.0591 1451.63 31.3762 1452.54 32.355L1455.21 35.2231C1455.67 35.7231 1455.94 36.3739 1455.92 37.0552C1455.69 46.5367 1458.67 52.9921 1461.7 57.0728C1463.21 59.1157 1464.74 60.5674 1465.88 61.5063C1466.45 61.9756 1466.93 62.3163 1467.26 62.5386C1467.29 62.5571 1467.31 62.5735 1467.34 62.5903L1470.26 56.4136C1463.48 52.7472 1460.25 47.432 1458.72 42.9995C1457.95 40.7436 1457.61 38.7173 1457.47 37.2534C1457.4 36.5211 1457.38 35.9279 1457.37 35.5161C1457.37 35.3106 1457.37 35.15 1457.38 35.0396C1457.38 34.9843 1457.38 34.9411 1457.38 34.9116C1457.38 34.8969 1457.38 34.8855 1457.38 34.8774C1457.38 34.8734 1457.38 34.87 1457.38 34.8677C1457.38 34.8666 1457.38 34.8654 1457.38 34.8647V34.8638L1457.4 34.6499L1457.57 34.52L1458.38 33.8999C1457.26 33.7739 1456.26 33.1194 1455.78 32.1167L1454.47 29.4038C1454.1 28.628 1453.47 27.9741 1452.66 27.5405L1452.38 27.3901Z" fill="#E1E1E1" stroke="#373737" stroke-width="0.934491"/>
<path d="M1470.27 55.6074C1470.11 55.5657 1469.98 55.6568 1469.94 55.752L1467.55 62.5283C1467.45 62.8354 1467.56 63.1894 1467.89 63.3896L1468.38 63.6924L1468.7 63.8916L1468.57 64.249C1468.38 64.7706 1468.2 65.2149 1468.13 65.6465C1468.06 66.0534 1468.1 66.3806 1468.31 66.6738C1469.43 68.1886 1470.68 70.4462 1471.64 72.3057C1472.12 73.2389 1472.54 74.0788 1472.83 74.6855C1472.98 74.989 1473.1 75.2347 1473.18 75.4043C1473.19 75.4211 1473.2 75.4368 1473.2 75.4521C1476.25 76.0631 1479.21 75.9128 1482.19 75.5029L1481.99 73.3809L1481.98 73.3154L1482 73.25L1484.9 58.0547C1479.91 57.9903 1472.49 56.1779 1470.27 55.6074Z" fill="#E1E1E1" stroke="#373737" stroke-width="0.934491"/>
<path d="M1478.1 51.6545C1477.9 52.1978 1477.65 52.9228 1477.39 53.6487C1477.13 54.3748 1476.87 55.1017 1476.68 55.6487C1476.59 55.9166 1476.51 56.1397 1476.46 56.2981C1476.76 56.5709 1477.17 56.7747 1477.67 56.9133C1478.27 57.0785 1478.95 57.1419 1479.61 57.1487C1480.27 57.1554 1480.88 57.1064 1481.33 57.0549C1481.42 57.0439 1481.51 57.0294 1481.59 57.0188L1480.57 51.2786L1478.3 51.0872C1478.25 51.2369 1478.18 51.43 1478.1 51.6545Z" fill="#E1E1E1" stroke="#373737" stroke-width="0.934491"/>
<path d="M1481.95 41.6899C1481.36 41.5949 1480.85 41.6549 1480.49 41.8667C1480.31 41.969 1478.83 42.5298 1477.48 43.8257C1476.16 45.0959 1475.04 47.017 1475.66 49.7886C1475.7 49.9846 1475.85 50.1637 1476.07 50.2544C1476.94 50.6136 1478.81 51.2281 1481.04 51.0181C1482.42 50.8876 1483.66 49.6759 1484.56 48.1665C1485.01 47.4284 1485.35 46.653 1485.58 45.9741C1485.81 45.2803 1485.9 44.7359 1485.88 44.4458C1485.87 44.2371 1485.7 43.8935 1485.3 43.4771C1484.92 43.079 1484.38 42.6783 1483.78 42.3521C1483.19 42.0255 1482.54 41.7843 1481.95 41.6899Z" fill="#E1E1E1" stroke="#373737" stroke-width="0.934491"/>
<path d="M1487.76 40.4539C1486.11 39.4068 1484.28 39.3604 1482.21 39.6101C1482.23 39.6076 1482.23 39.6072 1482.2 39.615C1482.17 39.6221 1482.14 39.633 1482.09 39.6492C1482 39.6814 1481.87 39.7299 1481.73 39.7947C1481.43 39.9261 1481.09 40.1163 1480.8 40.3591C1480.52 40.6039 1480.33 40.8708 1480.27 41.1541C1480.22 41.4208 1480.27 41.7881 1480.63 42.282C1481.48 43.4269 1482.09 44.3846 1482.39 45.2039C1482.7 46.0508 1482.68 46.8242 1482.15 47.4929C1481.89 47.8076 1481.58 47.9848 1481.29 48.1082C1481.15 48.169 1481.01 48.2214 1480.89 48.2673C1480.76 48.3153 1480.65 48.3573 1480.55 48.4041C1480.35 48.4961 1480.23 48.588 1480.16 48.7107C1480.08 48.8343 1480.01 49.0526 1480.04 49.4675C1480.08 50.0184 1479.83 50.5552 1479.34 50.863C1478.6 51.3276 1477.38 52.2421 1476.78 53.4958C1476.49 54.1112 1476.34 54.804 1476.47 55.575C1476.6 56.3491 1477.01 57.2406 1477.88 58.238C1478.3 58.7163 1478.41 59.4065 1478.06 59.9802C1477.11 61.5613 1476.8 63.7154 1477.06 65.8591C1477.32 68.0012 1478.15 70.0662 1479.41 71.4666C1480.86 73.0811 1483.07 73.9903 1485.34 74.6951C1487.3 75.3009 1489.3 75.7699 1491.3 75.7126C1493.3 75.6553 1495.3 75.0179 1496.62 73.7253C1497.1 73.2482 1497.48 72.6962 1497.67 72.1042C1497.85 71.5485 1497.88 70.9396 1497.82 70.3113C1497.52 67.2577 1495.44 64.5418 1492.98 62.2751C1492.45 61.7823 1491.84 61.2508 1491.33 60.6707C1490.82 60.0859 1490.37 59.419 1490.16 58.6287C1490.01 58.0641 1490 57.4909 1490.01 56.9685C1490.03 55.8172 1490.17 54.608 1490.67 53.4861C1490.87 53.0348 1491.12 52.6113 1491.35 52.2146C1491.59 51.8099 1491.82 51.4331 1492 51.0408C1492.8 49.2768 1492.67 47.191 1491.91 45.3367C1491.1 43.3764 1489.63 41.6482 1487.76 40.4539Z" fill="#E1E1E1" stroke="#373737" stroke-width="0.934491"/>
<path d="M1483 76.0322C1482.49 76.3456 1481.78 76.762 1480.98 77.0986C1480.21 77.4257 1479.32 77.6953 1478.44 77.7021L1479.17 91.2441L1496.65 123.354C1497.42 123.272 1498.25 122.94 1499.13 122.365C1498.35 119.788 1497.57 117.291 1496.66 115.268C1495.7 113.135 1494.64 111.648 1493.39 111.077L1493.16 110.974L1493.12 110.728C1491.22 99.1554 1489.33 87.6045 1487 80.8857C1485.51 78.2385 1483.9 76.7138 1483 76.0322Z" fill="#E1E1E1" stroke="#373737" stroke-width="0.934491"/>
<path d="M1472.87 75.9395C1472.83 75.9297 1472.8 75.942 1472.77 75.959C1472.76 75.967 1472.76 75.9739 1472.76 75.9766C1472.76 75.9777 1472.76 75.9785 1472.76 75.9814L1472.77 76.0693L1472.75 76.1543C1471.14 82.3816 1471.53 90.0837 1472.98 98.5781C1474.41 107.011 1476.89 116.173 1479.44 125.377C1480.19 125.799 1481 125.783 1481.91 125.386L1481.51 92.4883L1481.51 92.4141L1481.53 92.3438C1482.38 89.5998 1482.29 87.1069 1481.82 84.4707C1481.59 83.148 1481.25 81.7951 1480.89 80.3525C1480.56 79.0431 1480.21 77.6609 1479.9 76.1816C1478.32 76.443 1477.19 76.528 1476.16 76.4795C1475.05 76.4266 1474.08 76.2175 1472.87 75.9395Z" fill="#E1E1E1" stroke="#373737" stroke-width="0.934491"/>
<path d="M1482.52 75.2263C1480.33 75.8915 1476.79 76.0162 1472.8 75.9421L1472.63 76.6716C1475.19 76.7661 1477.48 76.7694 1479.35 76.6199C1481.07 76.4822 1482.35 76.2192 1483.15 75.8289L1482.52 75.2263Z" fill="#E1E1E1" stroke="#373737" stroke-width="0.934491"/>
</svg>
