<svg width="840" height="73" viewBox="0 0 840 73" fill="none" xmlns="http://www.w3.org/2000/svg">
<path d="M405.698 12.0868L414.708 16.3542C414.966 16.4762 415.263 16.4836 415.526 16.3746L425.883 12.0868M405.698 12.0868V14.973C405.698 15.3519 405.91 15.6988 406.248 15.8715L408.531 17.0395L412.081 18.8562L414.682 20.1873C414.954 20.3265 415.275 20.335 415.554 20.2102L418.902 18.7126L421.934 17.3566L425.286 15.8574C425.649 15.6949 425.883 15.3341 425.883 14.9361V12.0868M405.698 12.0868C405.698 11.9904 405.757 11.9034 405.846 11.8664L415.089 8.02562C415.334 7.92378 415.61 7.92259 415.856 8.02227L425.883 12.0868M415.113 28.0515L424.925 23.3058C425.268 23.1399 425.488 22.7947 425.494 22.4137L425.533 20.0505C425.54 19.6365 425.024 19.307 424.649 19.4813C422.845 20.3192 418.967 22.0797 418.967 22.0797L415.113 23.8114M415.113 28.0515L406.43 23.5878C406.102 23.4189 405.892 23.0841 405.883 22.7149L405.839 20.8982C405.82 20.1403 406.612 19.6333 407.293 19.9678L415.113 23.8114M415.113 28.0515V23.8114" stroke="#6C6363" stroke-width="2.0185"/>
<path d="M424.486 22.3155L416.122 26.3603V24.3823L419.38 22.9187L419.385 22.9167L419.387 22.9157C419.39 22.9149 419.393 22.9134 419.397 22.9118C419.404 22.9084 419.415 22.9034 419.429 22.897C419.458 22.8839 419.5 22.8647 419.555 22.8398C419.664 22.79 419.823 22.718 420.019 22.6289C420.411 22.4507 420.953 22.2037 421.551 21.9311C422.522 21.4886 423.641 20.9732 424.514 20.571L424.486 22.3155Z" fill="#E1E1E1"/>
<path d="M414.104 24.3576V26.315L406.892 22.6082L406.848 20.7917L414.104 24.3576Z" fill="#E1E1E1"/>
<path d="M424.874 14.8547L415.143 19.207L406.708 14.8912V13.599L414.277 17.1846C414.792 17.4285 415.386 17.443 415.913 17.225L424.874 13.5153V14.8547Z" fill="#E1E1E1"/>
<path d="M423.22 12.0151L415.14 15.3601L408.005 11.9796L415.477 8.87598L423.22 12.0151Z" fill="#E1E1E1"/>
<text fill="#373737" xml:space="preserve" style="white-space: pre" font-family="Manrope" font-size="26" font-weight="bold" letter-spacing="0em"><tspan x="579.794" y="27.958"> Collaborativa</tspan></text>
<text fill="#373737" xml:space="preserve" style="white-space: pre" font-family="Manrope" font-size="26" font-weight="300" letter-spacing="0em"><tspan x="445.021" y="27.958">Intelligenza</tspan></text>
<text fill="#373737" xml:space="preserve" style="white-space: pre" font-family="Manrope" font-size="32" font-weight="600" letter-spacing="0em"><tspan x="470.206" y="69.1325">The Balance Tower</tspan></text>
<line opacity="0.3" x1="764.647" y1="3.53235" x2="764.647" y2="69.1336" stroke="#373737" stroke-width="1.00925"/>
<path d="M821.062 17.6006H793.061C792.624 17.6007 792.303 17.9249 792.303 18.2852V44.2451C792.303 44.6053 792.624 44.9295 793.061 44.9297H821.062C821.498 44.9297 821.82 44.6054 821.82 44.2451V18.2852C821.82 17.9249 821.498 17.6006 821.062 17.6006Z" fill="#E1E1E1" stroke="#373737" stroke-width="0.504625"/>
<path d="M814.11 17.6006H786.109C785.673 17.6007 785.352 17.9249 785.352 18.2852V44.2451C785.352 44.6053 785.673 44.9295 786.109 44.9297H814.11C814.547 44.9297 814.869 44.6054 814.869 44.2451V18.2852C814.869 17.9249 814.547 17.6006 814.11 17.6006Z" fill="#E1E1E1" stroke="#373737" stroke-width="0.504625"/>
<path d="M815.244 45.0851H787.243C786.806 45.0852 786.486 45.4094 786.485 45.7697V71.7296C786.486 72.0898 786.806 72.414 787.243 72.4142H815.244C815.681 72.4142 816.003 72.0899 816.003 71.7296V45.7697C816.003 45.4094 815.681 45.0851 815.244 45.0851Z" fill="#E1E1E1" stroke="#373737" stroke-width="0.504625"/>
<path d="M808.293 45.0851H780.292C779.855 45.0852 779.534 45.4094 779.534 45.7697V71.7296C779.534 72.0898 779.855 72.4141 780.292 72.4142H808.293C808.73 72.4142 809.051 72.0899 809.052 71.7296V45.7697C809.052 45.4094 808.73 45.0851 808.293 45.0851Z" fill="#E1E1E1" stroke="#373737" stroke-width="0.504625"/>
<path d="M816.984 11.9093L811.374 12.0802L811.388 14.6544L811.402 17.3849L821.469 17.34L821.439 11.7716L816.984 11.9093Z" fill="#E1E1E1" stroke="#373737" stroke-width="0.504625"/>
<path d="M816.776 7.84607C815.631 7.85188 814.64 8.18926 814.039 8.67615H814.038C813.68 8.96512 813.476 9.29394 813.433 9.6283L813.424 9.77185C813.427 10.2445 813.752 10.7154 814.368 11.0795C814.979 11.4403 815.838 11.6686 816.799 11.6635H816.8C817.761 11.659 818.617 11.4219 819.224 11.0551C819.835 10.6851 820.155 10.2121 820.152 9.73962C820.149 9.1611 819.657 8.58445 818.772 8.21521L818.591 8.14392C818.134 7.97732 817.601 7.87284 817.025 7.85095L816.776 7.84607Z" fill="#E1E1E1" stroke="#373737" stroke-width="0.504625"/>
<path d="M812.623 7.40051L816.734 7.35754L820.677 7.3136L816.491 0.497192L812.623 7.40051Z" fill="#E1E1E1" stroke="#373737" stroke-width="0.504625"/>
<path d="M819.704 21.5071C819.705 21.5225 819.705 21.5428 819.707 21.5676C819.711 21.6335 819.718 21.7316 819.731 21.8577C819.758 22.1103 819.808 22.4753 819.9 22.9192C820.085 23.8076 820.44 25.0087 821.12 26.259C822.466 28.7315 825.093 31.4148 830.257 32.2473L831.765 30.8674H831.763C831.503 30.7749 831.129 30.6368 830.674 30.4514C829.764 30.0809 828.526 29.5227 827.211 28.7727C824.591 27.2787 821.621 24.9961 820.388 21.8752L820.362 21.8108L820.373 21.7434L820.874 18.5959L820.675 18.1584L819.704 21.5071Z" fill="#E1E1E1" stroke="#373737" stroke-width="0.504625"/>
<path d="M830.075 53.7452C830.108 53.8122 830.149 53.8954 830.198 53.9933C830.341 54.2805 830.549 54.6958 830.807 55.2072C831.322 56.23 832.036 57.638 832.833 59.1779C834.428 62.2606 836.35 65.862 837.67 67.9669L837.694 68.007L837.703 68.0529H837.704V68.0548C837.704 68.0562 837.705 68.0582 837.705 68.0607C837.706 68.066 837.708 68.0741 837.71 68.0841C837.714 68.1045 837.719 68.135 837.726 68.173C837.739 68.249 837.758 68.358 837.779 68.4913C837.821 68.7577 837.872 69.1224 837.905 69.5148C837.939 69.9061 837.956 70.3318 837.93 70.7169C837.911 70.9963 837.869 71.2766 837.779 71.5109L838.861 71.4806C838.866 71.3917 838.871 71.2807 838.877 71.1534C838.892 70.8154 838.911 70.3628 838.925 69.9044C838.939 69.4454 838.948 68.9829 838.945 68.6241C838.944 68.4442 838.939 68.2943 838.931 68.1857C838.927 68.1388 838.924 68.1033 838.92 68.0782C838.895 68.0555 838.86 68.0351 838.812 68.0236C838.783 68.0168 838.757 68.014 838.738 68.0128C838.729 68.0122 838.723 68.0119 838.719 68.0118H838.718L838.488 68.0226L838.457 67.7941V67.7931C838.457 67.7924 838.456 67.7915 838.456 67.7902C838.456 67.7872 838.455 67.7825 838.454 67.7765C838.452 67.7645 838.45 67.7464 838.446 67.7228C838.439 67.6752 838.429 67.6042 838.414 67.5138C838.385 67.3331 838.34 67.0728 838.278 66.756C838.155 66.1211 837.963 65.2607 837.691 64.3585C837.419 63.455 837.069 62.5167 836.631 61.7218C836.19 60.9219 835.675 60.2948 835.087 59.9767L834.997 59.9279L834.967 59.8302L832.547 52.1007L830.075 53.7452Z" fill="#E1E1E1" stroke="#373737" stroke-width="0.504625"/>
<path d="M839.246 68.0221C839.207 68.0857 839.158 68.1688 839.114 68.2653C839.011 68.4947 838.946 68.7605 839.009 68.9987C839.099 69.3422 839.18 69.9385 839.186 70.4752C839.188 70.7434 839.172 71.011 839.123 71.2311C839.098 71.3411 839.063 71.4497 839.011 71.5436C838.959 71.6368 838.88 71.7327 838.762 71.7867C838.625 71.849 838.442 71.8924 838.263 71.9235C838.079 71.9555 837.878 71.9781 837.694 71.9948C837.51 72.0114 837.34 72.0216 837.217 72.028C837.155 72.0311 837.105 72.0335 837.069 72.0348C837.052 72.0355 837.038 72.0364 837.028 72.0367C837.027 72.0368 837.025 72.0367 837.023 72.0367L837 72.0397C836.979 72.0423 836.949 72.0461 836.913 72.0524C836.9 72.0546 836.886 72.0574 836.872 72.0602C836.926 72.0602 836.982 72.0623 837.039 72.0621C837.558 72.0608 838.188 72.0521 838.633 72.0446C838.856 72.0408 839.028 71.8979 839.07 71.7252L839.741 68.4537C839.774 68.2941 839.668 68.1123 839.454 68.067L839.246 68.0221Z" fill="#E1E1E1" stroke="#373737" stroke-width="0.504625"/>
<path d="M826.547 71.791L825.376 72.4092C826.118 72.4014 827.142 72.3885 828.055 72.3652C828.583 72.3518 829.072 72.3356 829.446 72.3154C829.634 72.3053 829.79 72.2938 829.907 72.2822C829.966 72.2764 830.012 72.2711 830.046 72.2656C830.047 72.2654 830.049 72.2648 830.05 72.2646C830.051 72.252 830.055 72.2343 830.055 72.209C830.052 72.1027 830.017 71.9462 829.946 71.7637C829.823 71.4454 829.622 71.1185 829.424 70.9209L826.547 71.791Z" fill="#E1E1E1" stroke="#373737" stroke-width="0.504625"/>
<path d="M824.404 53.588C824.495 53.9939 824.627 54.5768 824.787 55.2853C825.108 56.7029 825.545 58.623 826.011 60.632C826.944 64.6571 827.988 69.0199 828.446 70.4357L828.509 70.629L828.333 70.7316L827.24 71.3673C827.466 71.3423 827.698 71.3201 827.911 71.3058C828.241 71.2836 828.582 71.0913 828.857 70.8781C828.983 70.781 829.089 70.6851 829.165 70.6105L829.017 70.3927L828.978 70.3351L828.974 70.2657V70.2628C828.974 70.2611 828.973 70.2583 828.973 70.255C828.972 70.248 828.971 70.2374 828.971 70.2238C828.969 70.1961 828.968 70.1551 828.965 70.1017C828.959 69.9945 828.949 69.8367 828.938 69.6359C828.916 69.2342 828.885 68.6587 828.849 67.963C828.775 66.5711 828.679 64.6977 828.589 62.7726C828.499 60.8478 828.415 58.8701 828.366 57.2697C828.325 55.9028 828.308 54.7901 828.338 54.2277L824.35 53.34C824.366 53.413 824.384 53.4962 824.404 53.588Z" fill="#E1E1E1" stroke="#373737" stroke-width="0.504625"/>
<path d="M812.816 14.7826C812.773 14.7998 812.748 14.8302 812.74 14.8607L812.551 15.5629C812.37 16.2315 812.55 16.9435 813.041 17.472L814.481 19.0199C814.732 19.2898 814.876 19.6414 814.867 20.0092C814.743 25.129 816.354 28.6152 817.985 30.8187C818.802 31.9219 819.626 32.7062 820.244 33.2133C820.553 33.4667 820.811 33.6509 820.989 33.7709C821.004 33.7809 821.019 33.7891 821.033 33.7982L822.61 30.4633C818.947 28.4835 817.203 25.6137 816.38 23.2201C815.961 22.0018 815.779 20.9071 815.703 20.1166C815.665 19.7214 815.654 19.4014 815.651 19.1791C815.65 19.068 815.651 18.9809 815.652 18.9213C815.653 18.8914 815.655 18.8679 815.655 18.8519C815.656 18.8441 815.655 18.8377 815.655 18.8334C815.655 18.8313 815.656 18.8297 815.656 18.8285V18.8265L815.663 18.7113L815.755 18.641L816.192 18.3051C815.591 18.237 815.052 17.8843 814.791 17.3431L814.084 15.8773C813.882 15.4584 813.54 15.1055 813.105 14.8715L812.955 14.7904C812.912 14.767 812.86 14.7654 812.816 14.7826Z" fill="#E1E1E1" stroke="#373737" stroke-width="0.504625"/>
<path d="M822.618 30.0281C822.552 30.0113 822.495 30.0346 822.463 30.0691L822.439 30.1062L821.149 33.7654C821.091 33.9312 821.155 34.1221 821.33 34.2302L821.595 34.3943L821.77 34.5017L821.699 34.6951C821.597 34.9766 821.498 35.216 821.458 35.449C821.42 35.6687 821.443 35.8453 821.56 36.0037C822.161 36.8216 822.836 38.0406 823.356 39.0447C823.618 39.5488 823.842 40.0031 824.001 40.3308C824.08 40.4946 824.144 40.6269 824.188 40.7185C824.192 40.7274 824.196 40.7357 824.2 40.7439C825.844 41.0738 827.447 40.9926 829.053 40.7712L828.945 39.6257L828.942 39.5906L828.949 39.5554L830.518 31.3464C827.822 31.3117 823.816 30.3361 822.618 30.0281Z" fill="#E1E1E1" stroke="#373737" stroke-width="0.504625"/>
<path d="M826.844 27.8939C826.739 28.1872 826.599 28.5784 826.46 28.9701C826.321 29.3622 826.182 29.7548 826.079 30.0502C826.029 30.1949 825.987 30.3152 825.959 30.4008C826.118 30.5483 826.34 30.6588 826.612 30.7338C826.936 30.823 827.305 30.857 827.66 30.8607C828.014 30.8644 828.344 30.8377 828.587 30.8099C828.639 30.804 828.687 30.7962 828.73 30.7904L828.18 27.6898L826.955 27.5863C826.926 27.6673 826.887 27.7722 826.844 27.8939Z" fill="#E1E1E1" stroke="#373737" stroke-width="0.504625"/>
<path d="M828.925 22.5131C828.603 22.4617 828.332 22.4934 828.134 22.6078C828.039 22.6626 827.238 22.966 826.51 23.6664C825.796 24.3523 825.192 25.3896 825.526 26.8861C825.55 26.9919 825.629 27.0881 825.747 27.1371C826.216 27.3311 827.227 27.6626 828.432 27.5492C829.179 27.4785 829.845 26.8249 830.334 26.0101C830.573 25.6115 830.76 25.1923 830.882 24.8256C831.007 24.4509 831.057 24.157 831.048 24.0004C831.041 23.8876 830.949 23.7026 830.732 23.4779C830.525 23.2629 830.237 23.0457 829.914 22.8695C829.591 22.6932 829.244 22.5641 828.925 22.5131Z" fill="#E1E1E1" stroke="#373737" stroke-width="0.504625"/>
<path d="M832.058 21.8447C831.168 21.2787 830.18 21.2552 829.061 21.3906C829.059 21.3909 829.058 21.3912 829.057 21.3916C829.043 21.3954 829.024 21.4016 828.999 21.4102C828.949 21.4275 828.88 21.4542 828.802 21.4893C828.644 21.5602 828.457 21.6629 828.304 21.7939C828.149 21.9262 828.046 22.0706 828.016 22.2236C827.987 22.3676 828.013 22.5656 828.21 22.832C828.666 23.4504 829.001 23.9677 829.16 24.4102C829.325 24.8675 829.315 25.2853 829.028 25.6465C828.893 25.8163 828.722 25.9119 828.569 25.9785C828.494 26.0115 828.416 26.0396 828.35 26.0645C828.28 26.0903 828.221 26.1134 828.167 26.1387C828.06 26.1884 827.996 26.2374 827.955 26.3037C827.914 26.3704 827.877 26.4881 827.894 26.7119C827.916 27.0095 827.776 27.2995 827.511 27.4658C827.111 27.7167 826.456 28.2107 826.133 28.8877C825.974 29.22 825.896 29.5943 825.965 30.0107C826.034 30.4287 826.254 30.9098 826.727 31.4482C826.953 31.7066 827.01 32.0798 826.823 32.3896C826.31 33.2434 826.14 34.406 826.281 35.5635C826.422 36.7203 826.871 37.8356 827.551 38.5918C828.335 39.4635 829.525 39.9544 830.755 40.335C831.812 40.6621 832.889 40.9157 833.97 40.8848C835.051 40.8538 836.13 40.5096 836.843 39.8115C837.106 39.5539 837.31 39.2561 837.413 38.9365C837.51 38.6363 837.523 38.3072 837.49 37.9678C837.333 36.3189 836.207 34.8529 834.879 33.6289C834.59 33.3628 834.264 33.075 833.989 32.7617C833.712 32.446 833.47 32.0859 833.356 31.6592C833.275 31.3543 833.269 31.0448 833.274 30.7627C833.287 30.141 833.363 29.4877 833.63 28.8818C833.737 28.6382 833.872 28.4095 833.999 28.1953C834.129 27.9769 834.251 27.7733 834.348 27.5615C834.784 26.6091 834.71 25.4826 834.3 24.4814C833.867 23.4229 833.071 22.4897 832.058 21.8447Z" fill="#E1E1E1" stroke="#373737" stroke-width="0.504625"/>
<path d="M829.488 41.0568C829.214 41.2259 828.828 41.4513 828.398 41.6329C827.981 41.8096 827.5 41.9524 827.029 41.9562L827.424 49.2726L836.858 66.6095C837.277 66.5655 837.723 66.3874 838.197 66.0773C837.78 64.6853 837.36 63.337 836.866 62.2443C836.346 61.0925 835.773 60.2897 835.1 59.9816L834.978 59.9259L834.956 59.7931C833.927 53.5428 832.906 47.3037 831.65 43.6759C830.847 42.2467 829.973 41.4243 829.488 41.0568Z" fill="#E1E1E1" stroke="#373737" stroke-width="0.504625"/>
<path d="M824.022 41.007C823.999 41.0017 823.98 41.0084 823.969 41.0177C823.963 41.0221 823.962 41.0261 823.961 41.0275C823.961 41.0281 823.96 41.0286 823.96 41.0304L823.966 41.0773L823.954 41.1232C823.088 44.4859 823.298 48.6447 824.079 53.2316C824.855 57.784 826.188 62.7304 827.565 67.6993C827.972 67.9287 828.408 67.9213 828.901 67.7062L828.684 49.9435V49.9034L828.695 49.8654C829.154 48.3838 829.109 47.0378 828.854 45.6144C828.727 44.9001 828.547 44.1688 828.352 43.3898C828.174 42.6821 827.985 41.9353 827.813 41.1359C826.966 41.277 826.352 41.3251 825.799 41.299C825.195 41.2704 824.675 41.1571 824.022 41.007Z" fill="#E1E1E1" stroke="#373737" stroke-width="0.504625"/>
<path d="M829.23 40.6223C828.049 40.9815 826.138 41.048 823.981 41.0081L823.889 41.4016C825.272 41.4526 826.511 41.455 827.519 41.3743C828.446 41.2999 829.141 41.1583 829.573 40.9475L829.23 40.6223Z" fill="#E1E1E1" stroke="#373737" stroke-width="0.504625"/>
</svg>
