<svg width="997" height="700" viewBox="0 0 997 700" fill="none" xmlns="http://www.w3.org/2000/svg">
<path d="M349.783 340.234L344.861 331.582L354.844 331.504L364.417 342.852L349.783 340.234Z" fill="#D295F7"/>
<path d="M354.844 331.504L364.417 342.852L354.102 332.948L344.869 331.587L354.844 331.504Z" fill="#3B3A3A" fill-opacity="0.2"/>
<path d="M349.785 340.233L364.418 342.852L350.664 338.905L344.87 331.586L349.785 340.233Z" fill="white" fill-opacity="0.2"/>
<path d="M354.096 332.954L364.415 342.851L353.209 334.49L344.867 331.586L354.096 332.954Z" fill="#3B3A3A" fill-opacity="0.1"/>
<path d="M350.661 338.91L364.418 342.852L351.552 337.367L344.87 331.586L350.661 338.91Z" fill="white" fill-opacity="0.1"/>
<path d="M344.867 331.588L354.1 332.949L364.407 342.849" stroke="#B077D3" stroke-width="0.5"/>
<path d="M344.87 331.585L350.661 338.908L364.41 342.846" stroke="#B077D3" stroke-width="0.5"/>
<path d="M344.868 331.585L353.206 334.498L364.408 342.846" stroke="#B077D3" stroke-width="0.5"/>
<path d="M344.87 331.585L351.551 337.365L364.402 342.842" stroke="#B077D3" stroke-width="0.5"/>
</svg>
