<svg width="997" height="700" viewBox="0 0 997 700" fill="none" xmlns="http://www.w3.org/2000/svg">
<path d="M398.129 425.455L344.793 331.701L452.97 330.859L556.696 453.818L398.129 425.455Z" fill="#D295F7"/>
<path d="M452.97 330.859L556.696 453.818L444.929 346.498L344.877 331.75L452.97 330.859Z" fill="#3B3A3A" fill-opacity="0.2"/>
<path d="M398.145 425.428L556.707 453.801L407.67 411.033L344.888 331.732L398.145 425.428Z" fill="white" fill-opacity="0.2"/>
<path d="M444.887 346.572L556.698 453.817L435.276 363.219L344.879 331.748L444.887 346.572Z" fill="#3B3A3A" fill-opacity="0.1"/>
<path d="M407.638 411.09L556.707 453.801L417.292 394.367L344.888 331.732L407.638 411.09Z" fill="white" fill-opacity="0.1"/>
<path d="M344.877 331.753L444.929 346.502L556.612 453.773" stroke="#B077D3" stroke-width="0.5"/>
<path d="M344.887 331.734L407.636 411.092L556.621 453.754" stroke="#B077D3" stroke-width="0.5"/>
<path d="M344.885 331.733L435.233 363.289L556.62 453.753" stroke="#B077D3" stroke-width="0.5"/>
<path d="M344.889 331.734L417.284 394.364L556.539 453.705" stroke="#B077D3" stroke-width="0.5"/>
</svg>
