<svg width="997" height="700" viewBox="0 0 997 700" fill="none" xmlns="http://www.w3.org/2000/svg">
<path d="M355.008 349.449L344.851 331.596L365.45 331.436L385.202 354.849L355.008 349.449Z" fill="#D295F7"/>
<path d="M365.45 331.436L385.202 354.849L363.919 334.414L344.868 331.605L365.45 331.436Z" fill="#3B3A3A" fill-opacity="0.2"/>
<path d="M355.01 349.443L385.203 354.846L356.824 346.702L344.869 331.602L355.01 349.443Z" fill="white" fill-opacity="0.2"/>
<path d="M363.912 334.427L385.203 354.849L362.082 337.597L344.868 331.605L363.912 334.427Z" fill="#3B3A3A" fill-opacity="0.1"/>
<path d="M356.818 346.713L385.203 354.846L358.656 343.528L344.869 331.602L356.818 346.713Z" fill="white" fill-opacity="0.1"/>
<path d="M344.868 331.605L363.92 334.413L385.187 354.84" stroke="#B077D3" stroke-width="0.5"/>
<path d="M344.869 331.603L356.818 346.714L385.188 354.838" stroke="#B077D3" stroke-width="0.5"/>
<path d="M344.868 331.602L362.072 337.611L385.187 354.837" stroke="#B077D3" stroke-width="0.5"/>
<path d="M344.87 331.603L358.655 343.528L385.172 354.828" stroke="#B077D3" stroke-width="0.5"/>
</svg>
