<svg width="997" height="700" viewBox="0 0 997 700" fill="none" xmlns="http://www.w3.org/2000/svg">
<path d="M360.453 359.045L344.844 331.609L376.501 331.362L406.855 367.345L360.453 359.045Z" fill="#D295F7"/>
<path d="M376.501 331.362L406.855 367.345L374.148 335.939L344.869 331.623L376.501 331.362Z" fill="#3B3A3A" fill-opacity="0.2"/>
<path d="M360.458 359.037L406.859 367.34L363.245 354.824L344.873 331.618L360.458 359.037Z" fill="white" fill-opacity="0.2"/>
<path d="M374.136 335.962L406.856 367.346L371.323 340.834L344.87 331.624L374.136 335.962Z" fill="#3B3A3A" fill-opacity="0.1"/>
<path d="M363.236 354.841L406.859 367.34L366.061 349.947L344.873 331.618L363.236 354.841Z" fill="white" fill-opacity="0.1"/>
<path d="M344.87 331.625L374.149 335.941L406.832 367.333" stroke="#B077D3" stroke-width="0.5"/>
<path d="M344.87 331.619L363.233 354.842L406.832 367.326" stroke="#B077D3" stroke-width="0.5"/>
<path d="M344.874 331.619L371.313 340.854L406.835 367.327" stroke="#B077D3" stroke-width="0.5"/>
<path d="M344.872 331.619L366.057 349.947L406.809 367.312" stroke="#B077D3" stroke-width="0.5"/>
</svg>
