<svg width="997" height="700" viewBox="0 0 997 700" fill="none" xmlns="http://www.w3.org/2000/svg">
<path d="M365.681 368.259L344.839 331.623L387.111 331.294L427.644 379.343L365.681 368.259Z" fill="#D295F7"/>
<path d="M387.111 331.294L427.644 379.343L383.969 337.405L344.872 331.642L387.111 331.294Z" fill="#3B3A3A" fill-opacity="0.2"/>
<path d="M365.687 368.247L427.648 379.334L369.409 362.622L344.876 331.633L365.687 368.247Z" fill="white" fill-opacity="0.2"/>
<path d="M383.951 337.434L427.644 379.342L380.196 343.939L344.871 331.641L383.951 337.434Z" fill="#3B3A3A" fill-opacity="0.1"/>
<path d="M369.397 362.644L427.648 379.334L373.169 356.109L344.876 331.633L369.397 362.644Z" fill="white" fill-opacity="0.1"/>
<path d="M344.872 331.643L383.969 337.406L427.611 379.324" stroke="#B077D3" stroke-width="0.5"/>
<path d="M344.878 331.635L369.398 362.645L427.617 379.316" stroke="#B077D3" stroke-width="0.5"/>
<path d="M344.878 331.634L380.184 343.965L427.618 379.315" stroke="#B077D3" stroke-width="0.5"/>
<path d="M344.876 331.634L373.165 356.108L427.582 379.297" stroke="#B077D3" stroke-width="0.5"/>
</svg>
