<svg width="997" height="700" viewBox="0 0 997 700" fill="none" xmlns="http://www.w3.org/2000/svg">
<path d="M370.905 377.471L344.829 331.635L397.717 331.223L448.429 391.338L370.905 377.471Z" fill="#D295F7"/>
<path d="M397.717 331.223L448.429 391.338L393.785 338.869L344.87 331.659L397.717 331.223Z" fill="#3B3A3A" fill-opacity="0.2"/>
<path d="M370.913 377.457L448.434 391.328L375.569 370.419L344.875 331.649L370.913 377.457Z" fill="white" fill-opacity="0.2"/>
<path d="M393.763 338.905L448.427 391.337L389.064 347.044L344.869 331.658L393.763 338.905Z" fill="#3B3A3A" fill-opacity="0.1"/>
<path d="M375.553 370.447L448.434 391.328L380.274 362.271L344.875 331.649L375.553 370.447Z" fill="white" fill-opacity="0.1"/>
<path d="M344.869 331.66L393.785 338.87L448.386 391.315" stroke="#B077D3" stroke-width="0.5"/>
<path d="M344.874 331.651L375.552 370.449L448.391 391.307" stroke="#B077D3" stroke-width="0.5"/>
<path d="M344.875 331.65L389.046 347.077L448.392 391.306" stroke="#B077D3" stroke-width="0.5"/>
<path d="M344.876 331.65L380.27 362.269L448.352 391.281" stroke="#B077D3" stroke-width="0.5"/>
</svg>
