<svg width="997" height="700" viewBox="0 0 997 700" fill="none" xmlns="http://www.w3.org/2000/svg">
<path d="M376.354 387.066L344.826 331.646L408.771 331.148L470.086 403.832L376.354 387.066Z" fill="#D295F7"/>
<path d="M408.771 331.148L470.086 403.832L404.018 340.393L344.876 331.675L408.771 331.148Z" fill="#3B3A3A" fill-opacity="0.2"/>
<path d="M376.361 387.051L470.09 403.822L381.991 378.541L344.879 331.665L376.361 387.051Z" fill="white" fill-opacity="0.2"/>
<path d="M403.991 340.438L470.084 403.833L398.309 350.279L344.874 331.676L403.991 340.438Z" fill="#3B3A3A" fill-opacity="0.1"/>
<path d="M381.972 378.575L470.09 403.822L387.679 368.69L344.879 331.665L381.972 378.575Z" fill="white" fill-opacity="0.1"/>
<path d="M344.875 331.677L404.017 340.395L470.035 403.805" stroke="#B077D3" stroke-width="0.5"/>
<path d="M344.882 331.667L381.975 378.576L470.043 403.795" stroke="#B077D3" stroke-width="0.5"/>
<path d="M344.88 331.666L398.287 350.319L470.041 403.794" stroke="#B077D3" stroke-width="0.5"/>
<path d="M344.882 331.666L387.676 368.688L469.992 403.766" stroke="#B077D3" stroke-width="0.5"/>
</svg>
