<svg width="997" height="700" viewBox="0 0 997 700" fill="none" xmlns="http://www.w3.org/2000/svg">
<path d="M381.362 395.896L344.818 331.659L418.936 331.082L490.006 415.329L381.362 395.896Z" fill="#D295F7"/>
<path d="M418.936 331.082L490.006 415.329L413.427 341.798L344.876 331.693L418.936 331.082Z" fill="#3B3A3A" fill-opacity="0.2"/>
<path d="M381.371 395.877L490.012 415.316L387.897 386.014L344.881 331.68L381.371 395.877Z" fill="white" fill-opacity="0.2"/>
<path d="M413.398 341.848L490.006 415.328L406.812 353.254L344.876 331.691L413.398 341.848Z" fill="#3B3A3A" fill-opacity="0.1"/>
<path d="M387.875 386.052L490.012 415.316L394.49 374.595L344.881 331.68L387.875 386.052Z" fill="white" fill-opacity="0.1"/>
<path d="M344.877 331.694L413.428 341.799L489.949 415.298" stroke="#B077D3" stroke-width="0.5"/>
<path d="M344.881 331.682L387.874 386.054L489.953 415.285" stroke="#B077D3" stroke-width="0.5"/>
<path d="M344.88 331.681L406.784 353.301L489.953 415.284" stroke="#B077D3" stroke-width="0.5"/>
<path d="M344.884 331.682L394.486 374.593L489.898 415.252" stroke="#B077D3" stroke-width="0.5"/>
</svg>
