<svg width="997" height="700" viewBox="0 0 997 700" fill="none" xmlns="http://www.w3.org/2000/svg">
<path d="M386.807 405.492L344.811 331.672L429.987 331.009L511.66 427.825L386.807 405.492Z" fill="#D295F7"/>
<path d="M429.987 331.009L511.66 427.825L423.656 343.323L344.877 331.71L429.987 331.009Z" fill="#3B3A3A" fill-opacity="0.2"/>
<path d="M386.819 405.473L511.668 427.812L394.319 394.138L344.885 331.698L386.819 405.473Z" fill="white" fill-opacity="0.2"/>
<path d="M423.622 343.383L511.66 427.826L416.054 356.491L344.877 331.711L423.622 343.383Z" fill="#3B3A3A" fill-opacity="0.1"/>
<path d="M394.293 394.182L511.668 427.812L401.895 381.016L344.885 331.698L394.293 394.182Z" fill="white" fill-opacity="0.1"/>
<path d="M344.874 331.713L423.653 343.326L511.59 427.789" stroke="#B077D3" stroke-width="0.5"/>
<path d="M344.886 331.699L394.293 394.184L511.602 427.775" stroke="#B077D3" stroke-width="0.5"/>
<path d="M344.882 331.698L416.02 356.544L511.598 427.775" stroke="#B077D3" stroke-width="0.5"/>
<path d="M344.882 331.698L401.884 381.012L511.531 427.736" stroke="#B077D3" stroke-width="0.5"/>
</svg>
