<svg width="997" height="700" viewBox="0 0 997 700" fill="none" xmlns="http://www.w3.org/2000/svg">
<path d="M392.035 414.709L344.805 331.688L440.597 330.942L532.448 439.824L392.035 414.709Z" fill="#D295F7"/>
<path d="M440.597 330.942L532.448 439.824L433.477 344.791L344.88 331.731L440.597 330.942Z" fill="#3B3A3A" fill-opacity="0.2"/>
<path d="M392.049 414.684L532.457 439.809L400.483 401.937L344.888 331.715L392.049 414.684Z" fill="white" fill-opacity="0.2"/>
<path d="M433.437 344.856L532.447 439.823L424.926 359.598L344.879 331.73L433.437 344.856Z" fill="#3B3A3A" fill-opacity="0.1"/>
<path d="M400.454 401.987L532.457 439.809L409.003 387.179L344.888 331.715L400.454 401.987Z" fill="white" fill-opacity="0.1"/>
<path d="M344.88 331.732L433.477 344.792L532.374 439.782" stroke="#B077D3" stroke-width="0.5"/>
<path d="M344.889 331.716L400.455 401.988L532.383 439.766" stroke="#B077D3" stroke-width="0.5"/>
<path d="M344.886 331.715L424.891 359.657L532.38 439.765" stroke="#B077D3" stroke-width="0.5"/>
<path d="M344.89 331.716L408.996 387.175L532.309 439.723" stroke="#B077D3" stroke-width="0.5"/>
</svg>
