<svg width="997" height="700" viewBox="0 0 997 700" fill="none" xmlns="http://www.w3.org/2000/svg">
<path d="M339.935 321.618L344.857 330.27L334.873 330.348L325.301 319L339.935 321.618Z" fill="#66DE80"/>
<path d="M334.873 330.348L325.301 319L335.616 328.904L344.849 330.265L334.873 330.348Z" fill="#3B3A3A" fill-opacity="0.2"/>
<path d="M339.934 321.62L325.301 319.002L339.055 322.949L344.849 330.267L339.934 321.62Z" fill="white" fill-opacity="0.2"/>
<path d="M335.62 328.898L325.301 319.001L336.507 327.362L344.849 330.266L335.62 328.898Z" fill="#3B3A3A" fill-opacity="0.1"/>
<path d="M339.058 322.944L325.301 319.002L338.167 324.487L344.849 330.267L339.058 322.944Z" fill="white" fill-opacity="0.1"/>
<path d="M344.849 330.266L335.616 328.905L325.309 319.005" stroke="#45BE5F" stroke-width="0.5"/>
<path d="M344.849 330.268L339.058 322.944L325.309 319.007" stroke="#45BE5F" stroke-width="0.5"/>
<path d="M344.849 330.268L336.511 327.356L325.309 319.007" stroke="#45BE5F" stroke-width="0.5"/>
<path d="M344.849 330.267L338.168 324.487L325.316 319.011" stroke="#45BE5F" stroke-width="0.5"/>
</svg>
