<svg width="997" height="700" viewBox="0 0 997 700" fill="none" xmlns="http://www.w3.org/2000/svg">
<path d="M291.593 236.693L344.93 330.447L236.753 331.29L133.026 208.33L291.593 236.693Z" fill="#66DE80"/>
<path d="M236.753 331.29L133.026 208.33L244.794 315.65L344.845 330.399L236.753 331.29Z" fill="#3B3A3A" fill-opacity="0.2"/>
<path d="M291.577 236.72L133.016 208.348L282.053 251.115L344.835 330.416L291.577 236.72Z" fill="white" fill-opacity="0.2"/>
<path d="M244.836 315.576L133.025 208.332L254.447 298.929L344.844 330.4L244.836 315.576Z" fill="#3B3A3A" fill-opacity="0.1"/>
<path d="M282.085 251.059L133.016 208.348L272.43 267.781L344.835 330.416L282.085 251.059Z" fill="white" fill-opacity="0.1"/>
<path d="M344.845 330.396L244.794 315.648L133.111 208.377" stroke="#45BE5F" stroke-width="0.5"/>
<path d="M344.836 330.415L282.087 251.058L133.102 208.396" stroke="#45BE5F" stroke-width="0.5"/>
<path d="M344.834 330.415L254.486 298.86L133.099 208.395" stroke="#45BE5F" stroke-width="0.5"/>
<path d="M344.834 330.415L272.439 267.786L133.184 208.444" stroke="#45BE5F" stroke-width="0.5"/>
</svg>
