<svg width="997" height="700" viewBox="0 0 997 700" fill="none" xmlns="http://www.w3.org/2000/svg">
<path d="M334.723 312.695L344.879 330.547L324.28 330.708L304.529 307.294L334.723 312.695Z" fill="#66DE80"/>
<path d="M324.28 330.708L304.529 307.294L325.811 327.73L344.863 330.538L324.28 330.708Z" fill="#3B3A3A" fill-opacity="0.2"/>
<path d="M334.72 312.7L304.527 307.298L332.907 315.442L344.862 330.542L334.72 312.7Z" fill="white" fill-opacity="0.2"/>
<path d="M325.819 327.716L304.528 307.295L327.649 324.546L344.862 330.539L325.819 327.716Z" fill="#3B3A3A" fill-opacity="0.1"/>
<path d="M332.913 315.431L304.527 307.298L331.074 318.615L344.862 330.542L332.913 315.431Z" fill="white" fill-opacity="0.1"/>
<path d="M344.862 330.538L325.81 327.729L304.544 307.303" stroke="#45BE5F" stroke-width="0.5"/>
<path d="M344.861 330.541L332.912 315.43L304.543 307.307" stroke="#45BE5F" stroke-width="0.5"/>
<path d="M344.862 330.541L327.658 324.532L304.544 307.306" stroke="#45BE5F" stroke-width="0.5"/>
<path d="M344.861 330.541L331.075 318.615L304.559 307.315" stroke="#45BE5F" stroke-width="0.5"/>
</svg>
