<svg width="997" height="700" viewBox="0 0 997 700" fill="none" xmlns="http://www.w3.org/2000/svg">
<path d="M329.278 303.099L344.886 330.535L313.23 330.781L282.875 294.798L329.278 303.099Z" fill="#66DE80"/>
<path d="M313.23 330.781L282.875 294.798L315.583 326.204L344.862 330.52L313.23 330.781Z" fill="#3B3A3A" fill-opacity="0.2"/>
<path d="M329.272 303.107L282.871 294.804L326.485 307.319L344.857 330.526L329.272 303.107Z" fill="white" fill-opacity="0.2"/>
<path d="M315.595 326.183L282.874 294.799L318.407 321.312L344.861 330.521L315.595 326.183Z" fill="#3B3A3A" fill-opacity="0.1"/>
<path d="M326.495 307.303L282.871 294.804L323.669 312.196L344.857 330.526L326.495 307.303Z" fill="white" fill-opacity="0.1"/>
<path d="M344.861 330.52L315.582 326.204L282.899 294.812" stroke="#45BE5F" stroke-width="0.5"/>
<path d="M344.856 330.526L326.493 307.303L282.895 294.818" stroke="#45BE5F" stroke-width="0.5"/>
<path d="M344.857 330.525L318.418 321.291L282.895 294.818" stroke="#45BE5F" stroke-width="0.5"/>
<path d="M344.859 330.525L323.673 312.198L282.922 294.832" stroke="#45BE5F" stroke-width="0.5"/>
</svg>
