<svg width="997" height="700" viewBox="0 0 997 700" fill="none" xmlns="http://www.w3.org/2000/svg">
<path d="M324.05 293.885L344.892 330.522L302.62 330.851L262.087 282.802L324.05 293.885Z" fill="#66DE80"/>
<path d="M302.62 330.851L262.087 282.802L305.762 324.739L344.859 330.503L302.62 330.851Z" fill="#3B3A3A" fill-opacity="0.2"/>
<path d="M324.043 293.896L262.082 282.809L320.321 299.521L344.854 330.509L324.043 293.896Z" fill="white" fill-opacity="0.2"/>
<path d="M305.779 324.711L262.087 282.803L309.535 318.206L344.859 330.503L305.779 324.711Z" fill="#3B3A3A" fill-opacity="0.1"/>
<path d="M320.334 299.499L262.082 282.809L316.561 306.033L344.854 330.509L320.334 299.499Z" fill="white" fill-opacity="0.1"/>
<path d="M344.859 330.502L305.762 324.739L262.119 282.82" stroke="#45BE5F" stroke-width="0.5"/>
<path d="M344.857 330.509L320.336 299.498L262.117 282.827" stroke="#45BE5F" stroke-width="0.5"/>
<path d="M344.856 330.509L309.551 318.178L262.117 282.827" stroke="#45BE5F" stroke-width="0.5"/>
<path d="M344.855 330.509L316.565 306.035L262.148 282.847" stroke="#45BE5F" stroke-width="0.5"/>
</svg>
