<svg width="997" height="700" viewBox="0 0 997 700" fill="none" xmlns="http://www.w3.org/2000/svg">
<path d="M318.821 284.673L344.898 330.509L292.01 330.921L241.298 270.806L318.821 284.673Z" fill="#66DE80"/>
<path d="M292.01 330.921L241.298 270.806L295.941 323.275L344.856 330.486L292.01 330.921Z" fill="#3B3A3A" fill-opacity="0.2"/>
<path d="M318.814 284.687L241.293 270.815L314.157 291.725L344.851 330.495L318.814 284.687Z" fill="white" fill-opacity="0.2"/>
<path d="M295.964 323.239L241.299 270.807L300.663 315.101L344.858 330.487L295.964 323.239Z" fill="#3B3A3A" fill-opacity="0.1"/>
<path d="M314.173 291.697L241.293 270.815L309.453 299.873L344.851 330.495L314.173 291.697Z" fill="white" fill-opacity="0.1"/>
<path d="M344.857 330.485L295.942 323.274L241.34 270.829" stroke="#45BE5F" stroke-width="0.5"/>
<path d="M344.853 330.494L314.175 291.697L241.336 270.839" stroke="#45BE5F" stroke-width="0.5"/>
<path d="M344.851 330.494L300.68 315.067L241.334 270.839" stroke="#45BE5F" stroke-width="0.5"/>
<path d="M344.851 330.494L309.457 299.874L241.375 270.862" stroke="#45BE5F" stroke-width="0.5"/>
</svg>
