<svg width="997" height="700" viewBox="0 0 997 700" fill="none" xmlns="http://www.w3.org/2000/svg">
<path d="M313.376 275.078L344.905 330.498L280.959 330.996L219.644 258.312L313.376 275.078Z" fill="#66DE80"/>
<path d="M280.959 330.996L219.644 258.312L285.712 321.751L344.855 330.469L280.959 330.996Z" fill="#3B3A3A" fill-opacity="0.2"/>
<path d="M313.366 275.094L219.637 258.322L307.735 283.603L344.847 330.479L313.366 275.094Z" fill="white" fill-opacity="0.2"/>
<path d="M285.736 321.707L219.642 258.313L291.417 311.867L344.853 330.47L285.736 321.707Z" fill="#3B3A3A" fill-opacity="0.1"/>
<path d="M307.755 283.57L219.637 258.322L302.048 293.455L344.847 330.479L307.755 283.57Z" fill="white" fill-opacity="0.1"/>
<path d="M344.856 330.467L285.713 321.749L219.695 258.339" stroke="#45BE5F" stroke-width="0.5"/>
<path d="M344.848 330.478L307.756 283.568L219.688 258.35" stroke="#45BE5F" stroke-width="0.5"/>
<path d="M344.846 330.479L291.44 311.826L219.686 258.351" stroke="#45BE5F" stroke-width="0.5"/>
<path d="M344.849 330.478L302.055 293.457L219.738 258.379" stroke="#45BE5F" stroke-width="0.5"/>
</svg>
