<svg width="997" height="700" viewBox="0 0 997 700" fill="none" xmlns="http://www.w3.org/2000/svg">
<path d="M308.365 266.249L344.909 330.485L270.79 331.062L199.721 246.815L308.365 266.249Z" fill="#66DE80"/>
<path d="M270.79 331.062L199.721 246.815L276.3 320.347L344.851 330.452L270.79 331.062Z" fill="#3B3A3A" fill-opacity="0.2"/>
<path d="M308.355 266.267L199.715 246.827L301.829 276.13L344.845 330.464L308.355 266.267Z" fill="white" fill-opacity="0.2"/>
<path d="M276.329 320.296L199.72 246.816L282.914 308.891L344.851 330.453L276.329 320.296Z" fill="#3B3A3A" fill-opacity="0.1"/>
<path d="M301.852 276.091L199.715 246.827L295.237 287.549L344.845 330.464L301.852 276.091Z" fill="white" fill-opacity="0.1"/>
<path d="M344.854 330.45L276.302 320.345L199.781 246.847" stroke="#45BE5F" stroke-width="0.5"/>
<path d="M344.846 330.464L301.852 276.091L199.773 246.86" stroke="#45BE5F" stroke-width="0.5"/>
<path d="M344.846 330.464L282.943 308.843L199.774 246.86" stroke="#45BE5F" stroke-width="0.5"/>
<path d="M344.843 330.464L295.241 287.552L199.828 246.894" stroke="#45BE5F" stroke-width="0.5"/>
</svg>
