<svg width="997" height="700" viewBox="0 0 997 700" fill="none" xmlns="http://www.w3.org/2000/svg">
<path d="M302.92 256.652L344.916 330.472L259.739 331.136L178.067 234.32L302.92 256.652Z" fill="#66DE80"/>
<path d="M259.739 331.136L178.067 234.32L266.071 318.821L344.849 330.434L259.739 331.136Z" fill="#3B3A3A" fill-opacity="0.2"/>
<path d="M302.907 256.674L178.059 234.334L295.408 268.008L344.841 330.449L302.907 256.674Z" fill="white" fill-opacity="0.2"/>
<path d="M266.105 318.763L178.067 234.321L273.673 305.656L344.849 330.435L266.105 318.763Z" fill="#3B3A3A" fill-opacity="0.1"/>
<path d="M295.433 267.964L178.059 234.334L287.831 281.131L344.841 330.449L295.433 267.964Z" fill="white" fill-opacity="0.1"/>
<path d="M344.852 330.433L266.074 318.82L178.136 234.356" stroke="#45BE5F" stroke-width="0.5"/>
<path d="M344.841 330.447L295.433 267.963L178.125 234.371" stroke="#45BE5F" stroke-width="0.5"/>
<path d="M344.841 330.447L273.702 305.601L178.125 234.371" stroke="#45BE5F" stroke-width="0.5"/>
<path d="M344.841 330.447L287.839 281.134L178.191 234.409" stroke="#45BE5F" stroke-width="0.5"/>
</svg>
