<svg width="997" height="700" viewBox="0 0 997 700" fill="none" xmlns="http://www.w3.org/2000/svg">
<path d="M297.692 247.44L344.922 330.46L249.13 331.206L157.278 222.324L297.692 247.44Z" fill="#66DE80"/>
<path d="M249.13 331.206L157.278 222.324L256.25 317.357L344.847 330.417L249.13 331.206Z" fill="#3B3A3A" fill-opacity="0.2"/>
<path d="M297.678 247.464L157.27 222.34L289.244 260.211L344.838 330.433L297.678 247.464Z" fill="white" fill-opacity="0.2"/>
<path d="M256.29 317.292L157.279 222.325L264.8 302.551L344.848 330.419L256.29 317.292Z" fill="#3B3A3A" fill-opacity="0.1"/>
<path d="M289.273 260.161L157.27 222.34L280.723 274.969L344.838 330.433L289.273 260.161Z" fill="white" fill-opacity="0.1"/>
<path d="M344.847 330.415L256.25 317.355L157.353 222.365" stroke="#45BE5F" stroke-width="0.5"/>
<path d="M344.838 330.432L289.272 260.16L157.344 222.382" stroke="#45BE5F" stroke-width="0.5"/>
<path d="M344.84 330.432L264.836 302.489L157.346 222.382" stroke="#45BE5F" stroke-width="0.5"/>
<path d="M344.837 330.432L280.73 274.972L157.418 222.425" stroke="#45BE5F" stroke-width="0.5"/>
</svg>
