<svg width="87" height="55" viewBox="0 0 87 55" fill="none" xmlns="http://www.w3.org/2000/svg">
<path d="M57.6218 32.8616L43.5362 49.5826L29.375 32.8271L43.4858 5.64258L57.6218 32.8616Z" fill="#66DE80"/>
<path d="M29.375 32.8271L43.4858 5.64258L33.9106 32.6739L43.5362 49.5653L29.375 32.8271Z" fill="#3B3A3A" fill-opacity="0.2"/>
<path d="M57.6211 32.8616L43.4851 5.64258L53.1692 32.6739L43.5355 49.5653L57.6211 32.8616Z" fill="white" fill-opacity="0.2"/>
<path d="M33.9375 32.6739L43.4875 5.64258L38.9015 32.6739L43.5379 49.5653L33.9375 32.6739Z" fill="#3B3A3A" fill-opacity="0.1"/>
<path d="M53.1875 32.6739L43.4863 5.64258L48.1975 32.6739L43.5367 49.5653L53.1875 32.6739Z" fill="white" fill-opacity="0.1"/>
<path d="M43.5396 49.5658L33.9141 32.6744L43.4892 5.66016" stroke="#45BE5F" stroke-width="0.78"/>
<path d="M43.5367 49.5658L53.1875 32.6744L43.4863 5.66016" stroke="#45BE5F" stroke-width="0.78"/>
<path d="M43.537 49.5658L38.9258 32.6744L43.4866 5.66016" stroke="#45BE5F" stroke-width="0.78"/>
<path d="M43.5376 49.5643L48.1992 32.6729L43.4872 5.67578" stroke="#45BE5F" stroke-width="0.78"/>
</svg>
