<svg width="31" height="46" viewBox="0 0 31 46" fill="none" xmlns="http://www.w3.org/2000/svg">
<path d="M29.6241 28.1945L15.5378 44.9163L1.37598 28.16L15.4874 0.974121L29.6241 28.1945Z" stroke="#373737" stroke-width="0.73237"/>
<path d="M1.37598 28.16L15.4874 0.974121L5.9118 28.0068L15.5378 44.899L1.37598 28.16Z" stroke="#373737" stroke-width="0.73237"/>
<path d="M29.6245 28.1945L15.4878 0.974121L25.1724 28.0068L15.5382 44.899L29.6245 28.1945Z" stroke="#373737" stroke-width="0.73237"/>
<path d="M5.93994 28.0068L15.4904 0.974121L10.9042 28.0068L15.5408 44.899L5.93994 28.0068Z" stroke="#373737" stroke-width="0.73237"/>
<path d="M25.1895 28.0068L15.4878 0.974121L20.1992 28.0068L15.5382 44.899L25.1895 28.0068Z" stroke="#373737" stroke-width="0.73237"/>
<path d="M15.5416 44.899L5.91553 28.0068L15.4912 0.991211" stroke="#373737" stroke-width="0.73237"/>
<path d="M15.5382 44.899L25.1895 28.0068L15.4878 0.991211" stroke="#373737" stroke-width="0.73237"/>
<path d="M15.5387 44.899L10.9272 28.0068L15.4883 0.991211" stroke="#373737" stroke-width="0.73237"/>
<path d="M15.5374 44.8985L20.1992 28.0062L15.487 1.00781" stroke="#373737" stroke-width="0.73237"/>
</svg>
