<svg width="87" height="62" viewBox="0 0 87 62" fill="none" xmlns="http://www.w3.org/2000/svg">
<path d="M30 36.1859L44.1115 9L34.5358 36.0327L44.1619 52.9249L30 36.1859Z" stroke="currentColor" stroke-width="0.73237"/>
<path d="M58.2485 36.2203L44.1119 9L53.7964 36.0327L44.1623 52.9249L58.2485 36.2203Z" stroke="currentColor" stroke-width="0.73237"/>
<path d="M34.564 36.0327L44.1144 9L39.5282 36.0327L44.1648 52.9249L34.564 36.0327Z" stroke="currentColor" stroke-width="0.73237"/>
<path d="M53.8135 36.0327L44.1118 9L48.8233 36.0327L44.1622 52.9249L53.8135 36.0327Z" stroke="currentColor" stroke-width="0.73237"/>
<path d="M44.1656 52.9249L34.5396 36.0326L44.1152 9.01709" stroke="currentColor" stroke-width="0.73237"/>
<path d="M44.1622 52.9249L53.8135 36.0326L44.1118 9.01709" stroke="currentColor" stroke-width="0.73237"/>
<path d="M44.1627 52.9249L39.5513 36.0326L44.1123 9.01709" stroke="currentColor" stroke-width="0.73237"/>
<path d="M44.1614 52.9243L48.8232 36.0321L44.111 9.03369" stroke="currentColor" stroke-width="0.73237"/>
</svg>
