<svg width="87" height="62" viewBox="0 0 87 62" fill="none" xmlns="http://www.w3.org/2000/svg">
<path d="M58.526 23.4998V38.5002C58.5261 38.6731 58.4799 38.8429 58.3922 38.9919C58.3045 39.1409 58.1785 39.2637 58.0273 39.3476L44.4697 46.8785C44.326 46.9582 44.1644 47 44.0001 47C43.8357 47 43.6741 46.9582 43.5304 46.8785L29.9728 39.3476C29.8216 39.2637 29.6956 39.1409 29.6079 38.9919C29.5202 38.8429 29.474 38.6731 29.4741 38.5002V23.4998C29.4743 23.3271 29.5207 23.1577 29.6084 23.009C29.696 22.8603 29.8219 22.7378 29.9728 22.654L43.5304 15.1215C43.6741 15.0418 43.8357 15 44.0001 15C44.1644 15 44.326 15.0418 44.4697 15.1215L58.0273 22.654C58.1783 22.7378 58.3041 22.8603 58.3918 23.009C58.4795 23.1577 58.5258 23.3271 58.526 23.4998Z" stroke="#373737" stroke-width="1.5" stroke-linecap="round" stroke-linejoin="round"/>
<path d="M30.3257 23.4047L43.5282 30.7387C43.6721 30.8187 43.834 30.8607 43.9986 30.8607C44.1633 30.8607 44.3252 30.8187 44.4691 30.7387L57.7184 23.3789M43.9994 45.5261V31.0002" stroke="#373737" stroke-width="1.5" stroke-linecap="round" stroke-linejoin="round"/>
</svg>
