<svg width="37" height="37" viewBox="0 0 37 37" fill="none" xmlns="http://www.w3.org/2000/svg">
<path d="M33.026 11.4451V26.4455C33.0261 26.6184 32.9799 26.7882 32.8922 26.9372C32.8045 27.0862 32.6785 27.209 32.5273 27.2929L18.9697 34.8238C18.826 34.9035 18.6644 34.9453 18.5001 34.9453C18.3357 34.9453 18.1741 34.9035 18.0304 34.8238L4.47285 27.2929C4.32164 27.209 4.19565 27.0862 4.10795 26.9372C4.02025 26.7882 3.97404 26.6184 3.97412 26.4455V11.4451C3.97433 11.2725 4.02067 11.103 4.10836 10.9543C4.19604 10.8056 4.32188 10.6831 4.47285 10.5993L18.0304 3.06683C18.1741 2.98713 18.3357 2.94531 18.5001 2.94531C18.6644 2.94531 18.826 2.98713 18.9697 3.06683L32.5273 10.5993C32.6783 10.6831 32.8041 10.8056 32.8918 10.9543C32.9795 11.103 33.0258 11.2725 33.026 11.4451Z" stroke="#373737" stroke-width="1.5" stroke-linecap="round" stroke-linejoin="round"/>
<path d="M4.82568 11.35L18.0282 18.684C18.1721 18.764 18.334 18.806 18.4986 18.806C18.6633 18.806 18.8252 18.764 18.9691 18.684L32.2184 11.3242M18.4994 33.4715V18.9455" stroke="#373737" stroke-width="1.5" stroke-linecap="round" stroke-linejoin="round"/>
</svg>
