<svg width="87" height="47" viewBox="0 0 87 47" fill="none" xmlns="http://www.w3.org/2000/svg">
<g filter="url(#filter0_n_753_17791)">
<rect x="34.2153" y="24.0923" width="16.42" height="16.42" transform="rotate(136.329 34.2153 24.0923)" stroke="#373737" stroke-width="1.5" stroke-linejoin="round"/>
<path d="M63.9164 39.9453C63.0239 39.9453 62.1741 39.7602 61.3671 39.3901C60.56 39.02 59.892 38.4806 59.3631 37.7721L51.9614 27.9952C51.8475 27.8331 51.7938 27.6601 51.8004 27.4761C51.807 27.2922 51.8771 27.1323 52.0107 26.9965C52.2844 26.6953 52.6102 26.5114 52.988 26.4446C53.3658 26.3778 53.7245 26.444 54.064 26.6433L59.0296 29.0908V16.5707C59.0296 16.3386 59.1085 16.1437 59.2662 15.986C59.4238 15.8283 59.6193 15.7494 59.8526 15.7494C60.0858 15.7494 60.2824 15.8283 60.4423 15.986C60.6022 16.1437 60.6821 16.3386 60.6821 16.5707V29.7118C60.6821 30.2155 60.4702 30.5933 60.0464 30.8452C59.6226 31.097 59.189 31.1107 58.7454 30.8862L54.8031 28.9726L60.7807 36.867C61.1552 37.3532 61.6206 37.7146 62.1769 37.9512C62.7321 38.1866 63.3125 38.3043 63.9181 38.3043H71.0027C72.1591 38.3043 73.1376 37.909 73.9381 37.1184C74.7397 36.3266 75.1405 35.3525 75.1405 34.1961V28.3845C75.1405 27.722 74.916 27.1668 74.467 26.7189C74.0202 26.2699 73.4656 26.0454 72.803 26.0454H66.0518C65.8197 26.0454 65.6248 25.9671 65.4671 25.8105C65.3094 25.6539 65.2305 25.4584 65.2305 25.2241C65.2305 24.9898 65.3094 24.7948 65.4671 24.6393C65.6248 24.4838 65.8197 24.4055 66.0518 24.4044H72.803C73.9091 24.4044 74.8487 24.791 75.6218 25.5641C76.3949 26.3373 76.782 27.2774 76.7831 28.3845V34.1945C76.7831 35.7922 76.217 37.1501 75.0846 38.2682C73.9534 39.3863 72.5928 39.9453 71.0027 39.9453H63.9164ZM59.8476 7.94696C62.2448 7.94696 64.2805 8.78469 65.9549 10.4602C67.6293 12.1378 68.4665 14.1747 68.4665 16.5707C68.4665 17.2125 68.3981 17.8443 68.2612 18.4663C68.1243 19.0883 67.908 19.6934 67.6123 20.2814C67.539 20.4566 67.4114 20.564 67.2296 20.6034C67.0467 20.6428 66.8682 20.6209 66.6941 20.5377C66.5189 20.4534 66.4012 20.3154 66.3409 20.1237C66.2807 19.9321 66.2878 19.7421 66.3623 19.5538C66.5682 19.0741 66.7281 18.5835 66.8419 18.082C66.9558 17.5815 67.0128 17.0778 67.0128 16.5707C67.0128 14.5777 66.3158 12.8841 64.9217 11.4901C63.5277 10.0961 61.8352 9.39904 59.8444 9.39904C57.8535 9.39904 56.1599 10.0961 54.7637 11.4901C53.3675 12.8841 52.6699 14.5771 52.671 16.5691C52.671 17.098 52.7263 17.6094 52.8369 18.1033C52.9475 18.5961 53.1063 19.0692 53.3133 19.5225C53.4075 19.7098 53.419 19.9014 53.3478 20.0975C53.2766 20.2935 53.1539 20.4309 52.9798 20.5098C52.8057 20.5886 52.6278 20.6078 52.446 20.5673C52.2631 20.5234 52.135 20.4139 52.0616 20.2387C51.7944 19.6802 51.5869 19.0894 51.439 18.4663C51.2912 17.8443 51.2173 17.2119 51.2173 16.5691C51.2173 14.1742 52.0567 12.1384 53.7354 10.4618C55.4142 8.78524 57.4516 7.94805 59.8476 7.94696ZM59.8476 11.8318C61.1585 11.8318 62.2749 12.2944 63.197 13.2198C64.119 14.144 64.58 15.261 64.58 16.5707C64.58 16.8642 64.5598 17.1347 64.5193 17.3822C64.4788 17.6297 64.4098 17.8761 64.3123 18.1214C64.2411 18.3338 64.1086 18.4893 63.9148 18.5879C63.721 18.6864 63.5227 18.7023 63.3202 18.6355C63.1176 18.5687 62.9752 18.4428 62.8931 18.2577C62.8109 18.0727 62.8027 17.8887 62.8684 17.7058C62.9166 17.593 62.9894 17.2141 63.0869 16.5691C63.0869 15.6657 62.7649 14.8925 62.121 14.2497C61.4771 13.6069 60.704 13.2849 59.8016 13.2838C58.8993 13.2828 58.1256 13.6031 57.4806 14.2448C56.8356 14.8865 56.5142 15.6613 56.5164 16.5691C56.5164 16.7695 56.5334 16.9661 56.5673 17.1588C56.6024 17.3515 56.6577 17.5476 56.7332 17.7469C56.7945 17.9286 56.7852 18.1093 56.7053 18.2889C56.6254 18.4674 56.4896 18.5868 56.2979 18.647C56.1063 18.7083 55.9245 18.6886 55.7526 18.5879C55.5817 18.4871 55.452 18.3251 55.3633 18.1017C55.2866 17.8892 55.2242 17.656 55.176 17.4019C55.1278 17.1479 55.1037 16.8702 55.1037 16.5691C55.1037 15.2484 55.567 14.1287 56.4934 13.2099C57.4198 12.2912 58.5379 11.8329 59.8476 11.8318Z" fill="#373737"/>
</g>
<defs>
<filter id="filter0_n_753_17791" x="0" y="0.945312" width="87" height="46" filterUnits="userSpaceOnUse" color-interpolation-filters="sRGB">
<feFlood flood-opacity="0" result="BackgroundImageFix"/>
<feBlend mode="normal" in="SourceGraphic" in2="BackgroundImageFix" result="shape"/>
<feTurbulence type="fractalNoise" baseFrequency="2 2" stitchTiles="stitch" numOctaves="3" result="noise" seed="9508" />
<feComponentTransfer in="noise" result="coloredNoise1">
<feFuncR type="linear" slope="2" intercept="-0.5" />
<feFuncG type="linear" slope="2" intercept="-0.5" />
<feFuncB type="linear" slope="2" intercept="-0.5" />
<feFuncA type="discrete" tableValues="1 1 1 1 1 1 1 1 1 1 1 1 1 1 1 1 1 1 1 1 1 1 1 1 1 1 1 1 1 1 1 1 1 1 1 1 1 1 1 1 1 1 1 1 1 1 1 1 1 1 1 0 0 0 0 0 0 0 0 0 0 0 0 0 0 0 0 0 0 0 0 0 0 0 0 0 0 0 0 0 0 0 0 0 0 0 0 0 0 0 0 0 0 0 0 0 0 0 0 0 "/>
</feComponentTransfer>
<feComposite operator="in" in2="shape" in="coloredNoise1" result="noise1Clipped" />
<feComponentTransfer in="noise1Clipped" result="color1">
<feFuncA type="table" tableValues="0 0.15" />
</feComponentTransfer>
<feMerge result="effect1_noise_753_17791">
<feMergeNode in="shape" />
<feMergeNode in="color1" />
</feMerge>
</filter>
</defs>
</svg>
