<svg width="87" height="46" viewBox="0 0 87 46" fill="none" xmlns="http://www.w3.org/2000/svg">
<circle cx="23.5" cy="23.77" r="11.75" stroke="#373737" stroke-width="1.5"/>
<path d="M63.9159 39C63.0234 39 62.1737 38.8149 61.3666 38.4448C60.5595 38.0747 59.8915 37.5353 59.3626 36.8268L51.9609 27.0499C51.847 26.8878 51.7934 26.7148 51.7999 26.5308C51.8065 26.3469 51.8766 26.187 52.0102 26.0512C52.284 25.75 52.6097 25.5661 52.9875 25.4993C53.3654 25.4325 53.724 25.4987 54.0635 25.698L59.0291 28.1455V15.6254C59.0291 15.3933 59.108 15.1983 59.2657 15.0407C59.4234 14.883 59.6188 14.8041 59.8521 14.8041C60.0853 14.8041 60.2819 14.883 60.4418 15.0407C60.6017 15.1983 60.6816 15.3933 60.6816 15.6254V28.7664C60.6816 29.2702 60.4697 29.648 60.0459 29.8999C59.6221 30.1517 59.1885 30.1654 58.745 29.9409L54.8026 28.0273L60.7802 35.9217C61.1547 36.4079 61.6201 36.7693 62.1764 37.0059C62.7316 37.2413 63.312 37.359 63.9176 37.359H71.0022C72.1586 37.359 73.1371 36.9637 73.9376 36.173C74.7392 35.3813 75.14 34.4072 75.14 33.2508V27.4392C75.14 26.7767 74.9155 26.2215 74.4665 25.7736C74.0197 25.3246 73.4651 25.1001 72.8025 25.1001H66.0514C65.8192 25.1001 65.6243 25.0218 65.4666 24.8652C65.3089 24.7086 65.23 24.5131 65.23 24.2788C65.23 24.0444 65.3089 23.8495 65.4666 23.694C65.6243 23.5385 65.8192 23.4602 66.0514 23.4591H72.8025C73.9086 23.4591 74.8482 23.8457 75.6213 24.6188C76.3944 25.3919 76.7815 26.3321 76.7826 27.4392V33.2492C76.7826 34.8469 76.2165 36.2048 75.0842 37.3229C73.9529 38.441 72.5923 39 71.0022 39H63.9159ZM59.8472 7.00164C62.2443 7.00164 64.2801 7.83938 65.9544 9.51486C67.6288 11.1925 68.466 13.2294 68.466 15.6254C68.466 16.2671 68.3976 16.899 68.2607 17.521C68.1238 18.143 67.9075 18.7481 67.6118 19.3361C67.5385 19.5113 67.4109 19.6187 67.2291 19.6581C67.0462 19.6975 66.8677 19.6756 66.6936 19.5924C66.5184 19.5081 66.4007 19.3701 66.3405 19.1784C66.2802 18.9868 66.2873 18.7968 66.3618 18.6084C66.5677 18.1288 66.7276 17.6382 66.8415 17.1366C66.9553 16.6362 67.0123 16.1325 67.0123 15.6254C67.0123 13.6324 66.3153 11.9388 64.9212 10.5448C63.5272 9.15075 61.8347 8.45372 59.8439 8.45372C57.853 8.45372 56.1595 9.15075 54.7632 10.5448C53.367 11.9388 52.6694 13.6318 52.6705 15.6238C52.6705 16.1527 52.7258 16.6641 52.8364 17.158C52.947 17.6508 53.1058 18.1239 53.3128 18.5772C53.407 18.7645 53.4185 18.9561 53.3473 19.1521C53.2761 19.3482 53.1535 19.4856 52.9793 19.5644C52.8052 19.6433 52.6273 19.6625 52.4455 19.6219C52.2626 19.5781 52.1345 19.4686 52.0611 19.2934C51.7939 18.7349 51.5864 18.1441 51.4386 17.521C51.2907 16.899 51.2168 16.2666 51.2168 15.6238C51.2168 13.2288 52.0562 11.1931 53.7349 9.5165C55.4137 7.83993 57.4511 7.00274 59.8472 7.00164ZM59.8472 10.8865C61.158 10.8865 62.2744 11.3491 63.1965 12.2745C64.1185 13.1987 64.5796 14.3157 64.5796 15.6254C64.5796 15.9189 64.5593 16.1894 64.5188 16.4369C64.4783 16.6844 64.4093 16.9308 64.3118 17.1761C64.2406 17.3885 64.1081 17.544 63.9143 17.6426C63.7205 17.7411 63.5223 17.757 63.3197 17.6902C63.1171 17.6234 62.9747 17.4975 62.8926 17.3124C62.8105 17.1273 62.8022 16.9434 62.8679 16.7605C62.9161 16.6477 62.989 16.2688 63.0864 15.6238C63.0864 14.7203 62.7645 13.9472 62.1206 13.3044C61.4766 12.6616 60.7035 12.3396 59.8012 12.3385C58.8988 12.3374 58.1251 12.6578 57.4801 13.2995C56.8351 13.9412 56.5137 14.716 56.5159 15.6238C56.5159 15.8242 56.5329 16.0208 56.5668 16.2135C56.6019 16.4062 56.6572 16.6022 56.7327 16.8016C56.7941 16.9833 56.7848 17.164 56.7048 17.3436C56.6249 17.5221 56.4891 17.6415 56.2974 17.7017C56.1058 17.763 55.924 17.7433 55.7521 17.6426C55.5813 17.5418 55.4515 17.3798 55.3628 17.1564C55.2861 16.9439 55.2237 16.7107 55.1755 16.4566C55.1273 16.2025 55.1033 15.9249 55.1033 15.6238C55.1033 14.3031 55.5665 13.1834 56.4929 12.2646C57.4194 11.3458 58.5374 10.8875 59.8472 10.8865Z" fill="#373737"/>
</svg>
