<svg width="87" height="62" viewBox="0 0 87 62" fill="none" xmlns="http://www.w3.org/2000/svg">
<rect x="34.2153" y="31.147" width="16.42" height="16.42" transform="rotate(136.329 34.2153 31.147)" stroke="#373737" stroke-width="1.5" stroke-linejoin="round"/>
<path d="M63.9164 47C63.0239 47 62.1741 46.8149 61.3671 46.4448C60.56 46.0747 59.892 45.5353 59.3631 44.8268L51.9614 35.0499C51.8475 34.8878 51.7938 34.7148 51.8004 34.5308C51.807 34.3469 51.8771 34.187 52.0107 34.0512C52.2844 33.75 52.6102 33.5661 52.988 33.4993C53.3658 33.4325 53.7245 33.4987 54.064 33.698L59.0296 36.1455V23.6254C59.0296 23.3933 59.1085 23.1983 59.2662 23.0407C59.4238 22.883 59.6193 22.8041 59.8526 22.8041C60.0858 22.8041 60.2824 22.883 60.4423 23.0407C60.6022 23.1983 60.6821 23.3933 60.6821 23.6254V36.7664C60.6821 37.2702 60.4702 37.648 60.0464 37.8999C59.6226 38.1517 59.189 38.1654 58.7454 37.9409L54.8031 36.0273L60.7807 43.9217C61.1552 44.4079 61.6206 44.7693 62.1769 45.0059C62.7321 45.2413 63.3125 45.359 63.9181 45.359H71.0027C72.1591 45.359 73.1376 44.9637 73.9381 44.173C74.7397 43.3813 75.1405 42.4072 75.1405 41.2508V35.4392C75.1405 34.7767 74.916 34.2215 74.467 33.7736C74.0202 33.3246 73.4656 33.1001 72.803 33.1001H66.0518C65.8197 33.1001 65.6248 33.0218 65.4671 32.8652C65.3094 32.7086 65.2305 32.5131 65.2305 32.2788C65.2305 32.0444 65.3094 31.8495 65.4671 31.694C65.6248 31.5385 65.8197 31.4602 66.0518 31.4591H72.803C73.9091 31.4591 74.8487 31.8457 75.6218 32.6188C76.3949 33.3919 76.782 34.3321 76.7831 35.4392V41.2492C76.7831 42.8469 76.217 44.2048 75.0846 45.3229C73.9534 46.441 72.5928 47 71.0027 47H63.9164ZM59.8476 15.0016C62.2448 15.0016 64.2805 15.8394 65.9549 17.5149C67.6293 19.1925 68.4665 21.2294 68.4665 23.6254C68.4665 24.2671 68.3981 24.899 68.2612 25.521C68.1243 26.143 67.908 26.7481 67.6123 27.3361C67.539 27.5113 67.4114 27.6187 67.2296 27.6581C67.0467 27.6975 66.8682 27.6756 66.6941 27.5924C66.5189 27.5081 66.4012 27.3701 66.3409 27.1784C66.2807 26.9868 66.2878 26.7968 66.3623 26.6084C66.5682 26.1288 66.7281 25.6382 66.8419 25.1366C66.9558 24.6362 67.0128 24.1325 67.0128 23.6254C67.0128 21.6324 66.3158 19.9388 64.9217 18.5448C63.5277 17.1507 61.8352 16.4537 59.8444 16.4537C57.8535 16.4537 56.1599 17.1507 54.7637 18.5448C53.3675 19.9388 52.6699 21.6318 52.671 23.6238C52.671 24.1527 52.7263 24.6641 52.8369 25.158C52.9475 25.6508 53.1063 26.1239 53.3133 26.5772C53.4075 26.7645 53.419 26.9561 53.3478 27.1521C53.2766 27.3482 53.1539 27.4856 52.9798 27.5644C52.8057 27.6433 52.6278 27.6625 52.446 27.6219C52.2631 27.5781 52.135 27.4686 52.0616 27.2934C51.7944 26.7349 51.5869 26.1441 51.439 25.521C51.2912 24.899 51.2173 24.2666 51.2173 23.6238C51.2173 21.2288 52.0567 19.1931 53.7354 17.5165C55.4142 15.8399 57.4516 15.0027 59.8476 15.0016ZM59.8476 18.8865C61.1585 18.8865 62.2749 19.3491 63.197 20.2745C64.119 21.1987 64.58 22.3157 64.58 23.6254C64.58 23.9189 64.5598 24.1894 64.5193 24.4369C64.4788 24.6844 64.4098 24.9308 64.3123 25.1761C64.2411 25.3885 64.1086 25.544 63.9148 25.6426C63.721 25.7411 63.5227 25.757 63.3202 25.6902C63.1176 25.6234 62.9752 25.4975 62.8931 25.3124C62.8109 25.1273 62.8027 24.9434 62.8684 24.7605C62.9166 24.6477 62.9894 24.2688 63.0869 23.6238C63.0869 22.7203 62.7649 21.9472 62.121 21.3044C61.4771 20.6616 60.704 20.3396 59.8016 20.3385C58.8993 20.3374 58.1256 20.6578 57.4806 21.2995C56.8356 21.9412 56.5142 22.716 56.5164 23.6238C56.5164 23.8242 56.5334 24.0208 56.5673 24.2135C56.6024 24.4062 56.6577 24.6022 56.7332 24.8016C56.7945 24.9833 56.7852 25.164 56.7053 25.3436C56.6254 25.5221 56.4896 25.6415 56.2979 25.7017C56.1063 25.763 55.9245 25.7433 55.7526 25.6426C55.5817 25.5418 55.452 25.3798 55.3633 25.1564C55.2866 24.9439 55.2242 24.7107 55.176 24.4566C55.1278 24.2025 55.1037 23.9249 55.1037 23.6238C55.1037 22.3031 55.567 21.1834 56.4934 20.2646C57.4198 19.3458 58.5379 18.8875 59.8476 18.8865Z" fill="#373737"/>
</svg>
