<svg width="997" height="700" viewBox="0 0 997 700" fill="none" xmlns="http://www.w3.org/2000/svg">
<path d="M334.907 331.497L344.861 331.56L339.937 340.245L325.323 342.861L334.907 331.497Z" fill="#979CAB"/>
<path d="M339.937 340.245L325.323 342.861L339.058 338.88L344.854 331.564L339.937 340.245Z" fill="#3B3A3A" fill-opacity="0.2"/>
<path d="M334.908 331.498L325.324 342.861L335.619 332.923L344.854 331.565L334.908 331.498Z" fill="white" fill-opacity="0.2"/>
<path d="M339.056 338.874L325.325 342.862L338.169 337.338L344.856 331.565L339.056 338.874Z" fill="#3B3A3A" fill-opacity="0.1"/>
<path d="M335.616 332.918L325.324 342.861L336.507 334.461L344.854 331.565L335.616 332.918Z" fill="white" fill-opacity="0.1"/>
<path d="M344.855 331.564L339.06 338.88L325.333 342.857" stroke="#7D818C" stroke-width="0.5"/>
<path d="M344.854 331.565L335.616 332.919L325.332 342.857" stroke="#7D818C" stroke-width="0.5"/>
<path d="M344.856 331.565L338.165 337.33L325.334 342.857" stroke="#7D818C" stroke-width="0.5"/>
<path d="M344.855 331.566L336.508 334.462L325.34 342.854" stroke="#7D818C" stroke-width="0.5"/>
</svg>
