<svg width="997" height="700" viewBox="0 0 997 700" fill="none" xmlns="http://www.w3.org/2000/svg">
<path d="M236.938 330.755L344.799 331.441L291.44 425.546L133.091 453.897L236.938 330.755Z" fill="#979CAB"/>
<path d="M291.44 425.546L133.091 453.896L281.917 410.763L344.715 331.49L291.44 425.546Z" fill="#3B3A3A" fill-opacity="0.2"/>
<path d="M236.954 330.782L133.102 453.914L244.658 346.228L344.725 331.508L236.954 330.782Z" fill="white" fill-opacity="0.2"/>
<path d="M281.871 410.689L133.089 453.898L272.26 394.042L344.712 331.492L281.871 410.689Z" fill="#3B3A3A" fill-opacity="0.1"/>
<path d="M244.625 346.172L133.102 453.914L254.28 362.894L344.725 331.508L244.625 346.172Z" fill="white" fill-opacity="0.1"/>
<path d="M344.714 331.491L281.915 410.763L133.174 453.848" stroke="#7D818C" stroke-width="0.5"/>
<path d="M344.723 331.51L244.623 346.174L133.184 453.867" stroke="#7D818C" stroke-width="0.5"/>
<path d="M344.726 331.51L272.224 393.976L133.186 453.868" stroke="#7D818C" stroke-width="0.5"/>
<path d="M344.725 331.51L254.288 362.89L133.27 453.818" stroke="#7D818C" stroke-width="0.5"/>
</svg>
