<svg width="997" height="700" viewBox="0 0 997 700" fill="none" xmlns="http://www.w3.org/2000/svg">
<path d="M324.32 331.415L344.859 331.546L334.698 349.465L304.546 354.863L324.32 331.415Z" fill="#979CAB"/>
<path d="M334.694 349.465L304.542 354.863L332.881 346.65L344.839 331.555L334.694 349.465Z" fill="#3B3A3A" fill-opacity="0.2"/>
<path d="M324.322 331.419L304.547 354.865L325.789 334.36L344.844 331.557L324.322 331.419Z" fill="white" fill-opacity="0.2"/>
<path d="M332.873 346.634L304.542 354.862L331.043 343.465L344.84 331.554L332.873 346.634Z" fill="#3B3A3A" fill-opacity="0.1"/>
<path d="M325.783 334.349L304.547 354.865L327.621 337.533L344.844 331.557L325.783 334.349Z" fill="white" fill-opacity="0.1"/>
<path d="M344.839 331.555L332.881 346.65L304.558 354.854" stroke="#7D818C" stroke-width="0.5"/>
<path d="M344.843 331.558L325.783 334.351L304.562 354.857" stroke="#7D818C" stroke-width="0.5"/>
<path d="M344.843 331.558L331.037 343.452L304.562 354.857" stroke="#7D818C" stroke-width="0.5"/>
<path d="M344.843 331.558L327.622 337.533L304.578 354.848" stroke="#7D818C" stroke-width="0.5"/>
</svg>
