<svg width="997" height="700" viewBox="0 0 997 700" fill="none" xmlns="http://www.w3.org/2000/svg">
<path d="M313.284 331.332L344.848 331.533L329.233 359.071L282.894 367.368L313.284 331.332Z" fill="#979CAB"/>
<path d="M329.233 359.071L282.894 367.368L326.446 354.745L344.824 331.547L329.233 359.071Z" fill="#3B3A3A" fill-opacity="0.2"/>
<path d="M313.29 331.34L282.898 367.373L315.544 335.86L344.828 331.552L313.29 331.34Z" fill="white" fill-opacity="0.2"/>
<path d="M326.434 354.724L282.895 367.369L323.622 349.852L344.824 331.548L326.434 354.724Z" fill="#3B3A3A" fill-opacity="0.1"/>
<path d="M315.535 335.843L282.898 367.373L318.36 340.737L344.828 331.552L315.535 335.843Z" fill="white" fill-opacity="0.1"/>
<path d="M344.822 331.548L326.445 354.746L282.918 367.354" stroke="#7D818C" stroke-width="0.5"/>
<path d="M344.826 331.553L315.533 335.844L282.922 367.359" stroke="#7D818C" stroke-width="0.5"/>
<path d="M344.826 331.552L323.609 349.832L282.921 367.359" stroke="#7D818C" stroke-width="0.5"/>
<path d="M344.825 331.553L318.36 340.737L282.945 367.346" stroke="#7D818C" stroke-width="0.5"/>
</svg>
