<svg width="997" height="700" viewBox="0 0 997 700" fill="none" xmlns="http://www.w3.org/2000/svg">
<path d="M302.693 331.252L344.842 331.52L323.991 368.294L262.113 379.372L302.693 331.252Z" fill="#979CAB"/>
<path d="M323.991 368.294L262.113 379.372L320.269 362.517L344.809 331.54L323.991 368.294Z" fill="#3B3A3A" fill-opacity="0.2"/>
<path d="M302.699 331.263L262.117 379.379L305.71 337.299L344.813 331.546L302.699 331.263Z" fill="white" fill-opacity="0.2"/>
<path d="M320.252 362.488L262.112 379.373L316.496 355.983L344.808 331.54L320.252 362.488Z" fill="#3B3A3A" fill-opacity="0.1"/>
<path d="M305.697 337.276L262.117 379.379L309.47 343.811L344.813 331.546L305.697 337.276Z" fill="white" fill-opacity="0.1"/>
<path d="M344.809 331.54L320.27 362.517L262.146 379.353" stroke="#7D818C" stroke-width="0.5"/>
<path d="M344.812 331.546L305.695 337.276L262.148 379.359" stroke="#7D818C" stroke-width="0.5"/>
<path d="M344.812 331.547L316.481 355.957L262.149 379.36" stroke="#7D818C" stroke-width="0.5"/>
<path d="M344.814 331.547L309.474 343.81L262.184 379.342" stroke="#7D818C" stroke-width="0.5"/>
</svg>
