<svg width="997" height="700" viewBox="0 0 997 700" fill="none" xmlns="http://www.w3.org/2000/svg">
<path d="M292.102 331.173L344.835 331.508L318.748 377.516L241.331 391.377L292.102 331.173Z" fill="#979CAB"/>
<path d="M318.748 377.516L241.331 391.377L314.092 370.289L344.794 331.532L318.748 377.516Z" fill="#3B3A3A" fill-opacity="0.2"/>
<path d="M292.109 331.185L241.336 391.385L295.876 338.737L344.799 331.54L292.109 331.185Z" fill="white" fill-opacity="0.2"/>
<path d="M314.073 370.251L241.333 391.376L309.374 362.112L344.797 331.531L314.073 370.251Z" fill="#3B3A3A" fill-opacity="0.1"/>
<path d="M295.86 338.709L241.336 391.385L300.58 346.885L344.799 331.54L295.86 338.709Z" fill="white" fill-opacity="0.1"/>
<path d="M344.793 331.532L314.09 370.288L241.371 391.353" stroke="#7D818C" stroke-width="0.5"/>
<path d="M344.801 331.541L295.862 338.71L241.379 391.361" stroke="#7D818C" stroke-width="0.5"/>
<path d="M344.798 331.54L309.352 362.079L241.377 391.36" stroke="#7D818C" stroke-width="0.5"/>
<path d="M344.798 331.541L300.584 346.883L241.418 391.338" stroke="#7D818C" stroke-width="0.5"/>
</svg>
