<svg width="997" height="700" viewBox="0 0 997 700" fill="none" xmlns="http://www.w3.org/2000/svg">
<path d="M281.07 331.09L344.829 331.495L313.287 387.123L219.684 403.881L281.07 331.09Z" fill="#979CAB"/>
<path d="M313.287 387.123L219.684 403.881L307.658 378.384L344.779 331.524L313.287 387.123Z" fill="#3B3A3A" fill-opacity="0.2"/>
<path d="M281.077 331.105L219.688 403.891L285.631 340.235L344.783 331.534L281.077 331.105Z" fill="white" fill-opacity="0.2"/>
<path d="M307.63 378.341L219.682 403.882L301.949 368.5L344.777 331.525L307.63 378.341Z" fill="#3B3A3A" fill-opacity="0.1"/>
<path d="M285.611 340.202L219.688 403.891L291.318 350.087L344.783 331.534L285.611 340.202Z" fill="white" fill-opacity="0.1"/>
<path d="M344.78 331.525L307.658 378.385L219.735 403.853" stroke="#7D818C" stroke-width="0.5"/>
<path d="M344.783 331.535L285.612 340.203L219.738 403.863" stroke="#7D818C" stroke-width="0.5"/>
<path d="M344.785 331.534L301.928 368.459L219.74 403.862" stroke="#7D818C" stroke-width="0.5"/>
<path d="M344.784 331.535L291.326 350.085L219.789 403.834" stroke="#7D818C" stroke-width="0.5"/>
</svg>
