<svg width="997" height="700" viewBox="0 0 997 700" fill="none" xmlns="http://www.w3.org/2000/svg">
<path d="M270.916 331.012L344.819 331.482L308.259 395.959L199.764 415.384L270.916 331.012Z" fill="#979CAB"/>
<path d="M308.263 395.959L199.768 415.384L301.737 385.83L344.765 331.515L308.263 395.959Z" fill="#3B3A3A" fill-opacity="0.2"/>
<path d="M270.929 331.031L199.773 415.396L276.208 341.614L344.77 331.528L270.929 331.031Z" fill="white" fill-opacity="0.2"/>
<path d="M301.708 385.78L199.768 415.385L295.123 374.374L344.765 331.516L301.708 385.78Z" fill="#3B3A3A" fill-opacity="0.1"/>
<path d="M276.185 341.575L199.773 415.396L282.8 353.033L344.77 331.528L276.185 341.575Z" fill="white" fill-opacity="0.1"/>
<path d="M344.763 331.516L301.736 385.831L199.824 415.351" stroke="#7D818C" stroke-width="0.5"/>
<path d="M344.771 331.528L276.186 341.576L199.832 415.363" stroke="#7D818C" stroke-width="0.5"/>
<path d="M344.771 331.527L295.095 374.327L199.832 415.362" stroke="#7D818C" stroke-width="0.5"/>
<path d="M344.772 331.529L282.808 353.03L199.891 415.33" stroke="#7D818C" stroke-width="0.5"/>
</svg>
