<svg width="997" height="700" viewBox="0 0 997 700" fill="none" xmlns="http://www.w3.org/2000/svg">
<path d="M259.888 330.93L344.816 331.471L302.802 405.567L178.121 427.89L259.888 330.93Z" fill="#979CAB"/>
<path d="M302.802 405.567L178.121 427.89L295.303 393.927L344.749 331.509L302.802 405.567Z" fill="#3B3A3A" fill-opacity="0.2"/>
<path d="M259.9 330.95L178.129 427.902L265.966 343.112L344.758 331.522L259.9 330.95Z" fill="white" fill-opacity="0.2"/>
<path d="M295.269 393.869L178.121 427.891L287.701 380.762L344.749 331.511L295.269 393.869Z" fill="#3B3A3A" fill-opacity="0.1"/>
<path d="M265.941 343.068L178.129 427.902L273.543 356.235L344.758 331.522L265.941 343.068Z" fill="white" fill-opacity="0.1"/>
<path d="M344.75 331.509L295.304 393.927L178.188 427.851" stroke="#7D818C" stroke-width="0.5"/>
<path d="M344.758 331.523L265.941 343.069L178.195 427.865" stroke="#7D818C" stroke-width="0.5"/>
<path d="M344.758 331.524L287.671 380.709L178.195 427.866" stroke="#7D818C" stroke-width="0.5"/>
<path d="M344.758 331.522L273.55 356.231L178.262 427.826" stroke="#7D818C" stroke-width="0.5"/>
</svg>
