<svg width="997" height="700" viewBox="0 0 997 700" fill="none" xmlns="http://www.w3.org/2000/svg">
<path d="M249.293 330.849L344.806 331.457L297.555 414.788L157.335 439.892L249.293 330.849Z" fill="#979CAB"/>
<path d="M297.555 414.788L157.335 439.892L289.122 401.697L344.731 331.5L297.555 414.788Z" fill="#3B3A3A" fill-opacity="0.2"/>
<path d="M249.31 330.873L157.348 439.908L256.132 344.551L344.743 331.516L249.31 330.873Z" fill="white" fill-opacity="0.2"/>
<path d="M289.086 401.632L157.338 439.894L280.576 386.891L344.734 331.501L289.086 401.632Z" fill="#3B3A3A" fill-opacity="0.1"/>
<path d="M256.103 344.501L157.348 439.908L264.653 359.309L344.743 331.516L256.103 344.501Z" fill="white" fill-opacity="0.1"/>
<path d="M344.734 331.501L289.125 401.698L157.413 439.851" stroke="#7D818C" stroke-width="0.5"/>
<path d="M344.743 331.518L256.103 344.503L157.422 439.867" stroke="#7D818C" stroke-width="0.5"/>
<path d="M344.74 331.517L280.539 386.831L157.419 439.866" stroke="#7D818C" stroke-width="0.5"/>
<path d="M344.742 331.516L264.66 359.304L157.496 439.822" stroke="#7D818C" stroke-width="0.5"/>
</svg>
